<svg width="140" height="30" viewBox="0 0 140 30" fill="none" xmlns="http://www.w3.org/2000/svg">
<path fill-rule="evenodd" clip-rule="evenodd" d="M11.7358 0C5.2543 0 0 5.2543 0 11.7358C0 18.2173 5.2543 23.4716 11.7358 23.4716H16.4582C16.3532 23.7369 16.3592 24.0488 16.52 24.3316L19.1309 28.9215C19.5143 29.5956 20.4859 29.5956 20.8693 28.9215L23.4802 24.3316C23.641 24.0488 23.647 23.7369 23.542 23.4716H82.2642C88.7457 23.4716 94 18.2173 94 11.7358C94 5.2543 88.7457 0 82.2642 0H11.7358Z" fill="#2674FF"/>
<path d="M12.4345 8.187C13.6315 8.187 14.4775 9.294 14.4775 11.022C14.4775 12.759 13.6315 13.866 12.4345 13.866C11.2375 13.866 10.3915 12.759 10.3915 11.022C10.3915 9.294 11.2375 8.187 12.4345 8.187ZM12.4345 8.862C11.6425 8.862 11.1025 9.708 11.1025 11.022C11.1025 12.345 11.6425 13.209 12.4345 13.209C13.2175 13.209 13.7665 12.345 13.7665 11.022C13.7665 9.708 13.2175 8.862 12.4345 8.862ZM15.7735 7.566H16.5295V15.702H15.7735V7.566ZM16.3495 10.815H17.8615V11.445H16.3495V10.815ZM20.6958 8.268H21.3078V9.726C21.3078 11.598 20.2998 13.335 18.9678 14.01L18.5088 13.398C19.7148 12.822 20.6958 11.265 20.6958 9.726V8.268ZM20.8218 8.268H21.4338V9.726C21.4338 11.211 22.4058 12.705 23.6118 13.263L23.1618 13.857C21.8388 13.209 20.8218 11.535 20.8218 9.726V8.268ZM24.4578 7.557H25.2048V15.711H24.4578V7.557ZM28.9931 8.187C30.1901 8.187 31.0361 9.294 31.0361 11.022C31.0361 12.759 30.1901 13.866 28.9931 13.866C27.7961 13.866 26.9501 12.759 26.9501 11.022C26.9501 9.294 27.7961 8.187 28.9931 8.187ZM28.9931 8.862C28.2011 8.862 27.6611 9.708 27.6611 11.022C27.6611 12.345 28.2011 13.209 28.9931 13.209C29.7761 13.209 30.3251 12.345 30.3251 11.022C30.3251 9.708 29.7761 8.862 28.9931 8.862ZM32.3321 7.566H33.0881V15.702H32.3321V7.566ZM32.9081 10.815H34.4201V11.445H32.9081V10.815ZM39.0004 9.06H41.1784V9.672H39.0004V9.06ZM38.9284 10.752H41.1244V11.364H38.9284V10.752ZM41.0524 7.566H41.7994V12.444H41.0524V7.566ZM38.5054 8.178H39.3064C39.3064 10.275 37.8574 11.742 35.5174 12.444L35.2114 11.841C37.2904 11.238 38.5054 10.041 38.5054 8.502V8.178ZM35.6344 8.178H39.0184V8.79H35.6344V8.178ZM39.1534 12.534C40.8004 12.534 41.8444 13.119 41.8444 14.1C41.8444 15.081 40.8004 15.666 39.1534 15.666C37.5064 15.666 36.4624 15.081 36.4624 14.1C36.4624 13.119 37.5064 12.534 39.1534 12.534ZM39.1534 13.119C37.9654 13.119 37.2004 13.488 37.2004 14.1C37.2004 14.712 37.9654 15.072 39.1534 15.072C40.3504 15.072 41.1154 14.712 41.1154 14.1C41.1154 13.488 40.3504 13.119 39.1534 13.119ZM49.5747 7.566H50.2947V15.702H49.5747V7.566ZM46.6137 10.482H48.1707V11.103H46.6137V10.482ZM47.9457 7.755H48.6477V15.288H47.9457V7.755ZM45.0477 8.826H45.6237V9.861C45.6237 11.643 44.9397 13.326 43.7427 14.082L43.2837 13.524C44.4177 12.84 45.0477 11.355 45.0477 9.861V8.826ZM45.2007 8.826H45.7767V9.861C45.7767 11.274 46.3887 12.687 47.5047 13.335L47.0457 13.884C45.8577 13.164 45.2007 11.562 45.2007 9.861V8.826ZM43.5087 8.511H47.2257V9.132H43.5087V8.511ZM54.9582 8.376H60.1962V8.997H54.9582V8.376ZM54.2022 13.947H61.5552V14.568H54.2022V13.947ZM56.0022 11.256H56.7402V14.172H56.0022V11.256ZM59.9532 8.376H60.6912V9.276C60.6912 10.311 60.6912 11.373 60.4122 12.894L59.6652 12.804C59.9532 11.364 59.9532 10.284 59.9532 9.276V8.376ZM58.0092 11.256H58.7472V14.172H58.0092V11.256ZM64.4165 11.778H65.1635V13.38H64.4165V11.778ZM67.1525 11.769H67.8905V13.38H67.1525V11.769ZM62.4725 11.481H69.8255V12.093H62.4725V11.481ZM63.2915 13.11H68.9165V15.702H68.1695V13.713H63.2915V13.11ZM66.1535 7.755C67.9085 7.755 69.0155 8.34 69.0155 9.312C69.0155 10.284 67.9085 10.869 66.1535 10.869C64.3895 10.869 63.2915 10.284 63.2915 9.312C63.2915 8.34 64.3895 7.755 66.1535 7.755ZM66.1535 8.349C64.8575 8.349 64.0565 8.7 64.0565 9.312C64.0565 9.915 64.8575 10.275 66.1535 10.275C67.4405 10.275 68.2505 9.915 68.2505 9.312C68.2505 8.7 67.4405 8.349 66.1535 8.349ZM74.0458 9.618H75.5848V10.23H74.0458V9.618ZM76.8988 7.566H77.6098V13.668H76.8988V7.566ZM75.3058 7.728H76.0168V13.434H75.3058V7.728ZM72.3088 14.91H77.8618V15.522H72.3088V14.91ZM72.3088 12.921H73.0558V15.252H72.3088V12.921ZM72.4438 8.142H73.0378V9.339C73.0378 10.599 72.3628 11.931 71.1838 12.507L70.7698 11.931C71.8228 11.418 72.4438 10.302 72.4438 9.339V8.142ZM72.5788 8.142H73.1638V9.339C73.1638 10.293 73.7398 11.265 74.7568 11.724L74.3338 12.291C73.1998 11.778 72.5788 10.581 72.5788 9.339V8.142ZM84.9981 7.557H85.7361V15.711H84.9981V7.557ZM83.3061 10.626H85.1061V11.247H83.3061V10.626ZM79.4091 13.137H80.0301C81.5601 13.137 82.5231 13.11 83.6661 12.894L83.7381 13.506C82.5681 13.713 81.5781 13.758 80.0301 13.758H79.4091V13.137ZM79.4091 8.304H83.1711V8.925H80.1471V13.353H79.4091V8.304ZM79.9581 10.59H82.8201V11.193H79.9581V10.59Z" fill="white"/>
</svg>
