<svg width="72" height="92" viewBox="0 0 72 92" fill="none" xmlns="http://www.w3.org/2000/svg">
<g clip-path="url(#clip0_50_79)">
<path d="M0 75.6589V75.2581C0 73.5943 1.03378 72.1978 3.02838 72.1978H8.81757C9.08513 72.1978 9.23108 72.3313 9.23108 72.6107V74.2623C9.23108 74.5416 9.08513 74.6752 8.81757 74.6752H3.34459C3.01622 74.6752 2.7973 74.8573 2.7973 75.2217V75.6346C2.7973 75.9989 3.01622 76.1811 3.34459 76.1811H6.60405C8.59865 76.1811 9.63243 77.5777 9.63243 79.2414V79.7029C9.63243 81.3667 8.59865 82.7633 6.60405 82.7633H0.814865C0.547297 82.7633 0.401351 82.6297 0.401351 82.3504V80.6987C0.401351 80.4194 0.547297 80.2858 0.814865 80.2858H6.28784C6.61622 80.2858 6.83513 80.1037 6.83513 79.7393V79.1929C6.83513 78.8285 6.61622 78.6464 6.28784 78.6464H3.02838C1.03378 78.6464 0 77.3226 0 75.6589Z" fill="white"/>
<path d="M17.3676 76.7883V75.7074C17.3676 75.0881 17.0392 74.6752 16.4554 74.6752H13.1716V82.1075C13.1716 82.6175 13.0257 82.7633 12.5149 82.7633H11.0189C10.5081 82.7633 10.3622 82.6175 10.3622 82.1075V72.8535C10.3622 72.3435 10.5081 72.1978 11.0189 72.1978H16.7716C19.0216 72.1978 20.1649 73.8251 20.1649 75.7439V76.7519C20.1649 78.6707 19.0216 80.298 16.7716 80.298H14.4608C13.95 80.298 13.8041 80.1523 13.8041 79.6543V78.4763C13.8041 77.9663 13.95 77.8206 14.4608 77.8206H16.4554C17.0392 77.8206 17.3676 77.4076 17.3676 76.7883Z" fill="white"/>
<path d="M23.6797 72.1978H25.2851C25.723 72.1978 25.8932 72.5014 25.7351 72.9385L22.5608 82.0103C22.4027 82.4597 22.2324 82.7633 21.5027 82.7633H19.8608C19.423 82.7633 19.2527 82.4597 19.4108 82.0225L22.6216 72.9507C22.7797 72.5014 22.95 72.1978 23.6797 72.1978ZM29.2865 82.7633H27.6446C26.9149 82.7633 26.7324 82.4597 26.5865 82.0103L26.1365 80.553H24.6162C24.1541 80.553 23.9716 80.2008 24.1419 79.7272L25.9662 74.5052C26.1 74.1165 26.2946 73.898 26.6595 73.898C27.0243 73.898 27.2311 74.1165 27.3527 74.5052L29.773 82.0225C29.9189 82.4597 29.7243 82.7633 29.2865 82.7633Z" fill="white"/>
<path d="M29.8581 78.0634V76.8976C29.8581 73.4365 31.804 72.1978 34.2243 72.1978H38.5297C39.0284 72.1978 39.1743 72.3435 39.1743 72.8535V74.0315C39.1743 74.5295 39.0284 74.6752 38.5297 74.6752H34.6378C33.2635 74.6752 32.6676 75.3188 32.6676 76.7761V78.1849C32.6676 79.6422 33.2635 80.2858 34.6378 80.2858H38.5297C39.0284 80.2858 39.1743 80.4316 39.1743 80.9295V82.1075C39.1743 82.6175 39.0284 82.7633 38.5297 82.7633H34.2243C31.804 82.7633 29.8581 81.5124 29.8581 78.0634Z" fill="white"/>
<path d="M39.9041 82.1075V72.8535C39.9041 72.3435 40.05 72.1978 40.5608 72.1978H48.077C48.5878 72.1978 48.7338 72.3435 48.7338 72.8535V74.0315C48.7338 74.5295 48.5878 74.6752 48.077 74.6752H42.7135V80.2858H48.077C48.5878 80.2858 48.7338 80.4316 48.7338 80.9295V82.1075C48.7338 82.6175 48.5878 82.7633 48.077 82.7633H40.5608C40.05 82.7633 39.9041 82.6175 39.9041 82.1075ZM43.3459 78.0027V76.8369C43.3459 76.3268 43.4797 76.1811 43.9905 76.1811H47.7122C48.223 76.1811 48.3689 76.3268 48.3689 76.8369V78.0027C48.3689 78.5128 48.223 78.6585 47.7122 78.6585H43.9905C43.4797 78.6585 43.3459 78.5128 43.3459 78.0027Z" fill="white"/>
<path d="M53.1243 78.0634V76.8976C53.1243 73.4365 55.0703 72.1978 57.4905 72.1978H61.7959C62.2946 72.1978 62.4405 72.3435 62.4405 72.8535V74.0315C62.4405 74.5295 62.2946 74.6752 61.7959 74.6752H57.9041C56.5297 74.6752 55.9338 75.3188 55.9338 76.7761V78.1849C55.9338 79.6422 56.5297 80.2858 57.9041 80.2858H61.7959C62.2946 80.2858 62.4405 80.4316 62.4405 80.9295V82.1075C62.4405 82.6175 62.2946 82.7633 61.7959 82.7633H57.4905C55.0703 82.7633 53.1243 81.5124 53.1243 78.0634Z" fill="white"/>
<path d="M63.1703 82.1075V72.8535C63.1703 72.3435 63.3162 72.1978 63.827 72.1978H65.3352C65.8338 72.1978 65.9797 72.3435 65.9797 72.8535V80.2858H71.3433C71.8541 80.2858 72 80.4316 72 80.9295V82.1075C72 82.6175 71.8541 82.7633 71.3433 82.7633H63.827C63.3162 82.7633 63.1703 82.6175 63.1703 82.1075Z" fill="white"/>
<path d="M11.9351 89.0296V88.554C11.9351 87.1412 12.7297 86.6372 13.7169 86.6372H15.4723C15.675 86.6372 15.7358 86.6959 15.7358 86.9044V87.3841C15.7358 87.5865 15.677 87.6472 15.4723 87.6472H13.8851C13.3236 87.6472 13.0824 87.9103 13.0824 88.5034V89.0782C13.0824 89.6733 13.3257 89.9344 13.8851 89.9344H15.4723C15.675 89.9344 15.7358 89.9931 15.7358 90.1975V90.6772C15.7358 90.8857 15.677 90.9444 15.4723 90.9444H13.7169C12.7297 90.9444 11.9351 90.4343 11.9351 89.0276V89.0296Z" fill="white"/>
<path d="M19.1655 88.3414V88.0783C19.1655 87.7808 19.0074 87.6472 18.7439 87.6472H17.479V90.6792C17.479 90.8877 17.4202 90.9464 17.2114 90.9464H16.6013C16.3925 90.9464 16.3337 90.8877 16.3337 90.6792V86.9044C16.3337 86.6959 16.3925 86.6372 16.6013 86.6372H18.9223C19.8405 86.6372 20.3067 87.3011 20.3067 88.0844V88.2524C20.3067 88.9163 19.954 89.5113 19.2689 89.6591L20.325 90.5942C20.4831 90.7339 20.4141 90.9464 20.2216 90.9464H19.4716C19.1837 90.9464 19.0601 90.916 18.8108 90.6792L17.9168 89.8231C17.7689 89.6793 17.7324 89.5903 17.7324 89.3434V89.0519C17.7324 88.8434 17.7912 88.7847 18 88.7847H18.7398C19.0033 88.7847 19.1614 88.641 19.1614 88.3435L19.1655 88.3414Z" fill="white"/>
<path d="M20.9777 90.6792V86.9044C20.9777 86.6959 21.0364 86.6372 21.2452 86.6372H24.3121C24.5209 86.6372 24.5797 86.6959 24.5797 86.9044V87.3841C24.5797 87.5865 24.5209 87.6472 24.3121 87.6472H22.125V89.9364H24.3121C24.5209 89.9364 24.5797 89.9951 24.5797 90.1995V90.6792C24.5797 90.8877 24.5209 90.9464 24.3121 90.9464H21.2452C21.0364 90.9464 20.9777 90.8877 20.9777 90.6792ZM22.3824 89.0053V88.5297C22.3824 88.3212 22.4371 88.2625 22.6459 88.2625H24.1641C24.3729 88.2625 24.4317 88.3212 24.4317 88.5297V89.0053C24.4317 89.2138 24.3729 89.2725 24.1641 89.2725H22.6459C22.4371 89.2725 22.3824 89.2138 22.3824 89.0053Z" fill="white"/>
<path d="M26.8338 86.6372H27.4885C27.6669 86.6372 27.7358 86.7607 27.673 86.9388L26.3777 90.6387C26.3128 90.8229 26.2439 90.9464 25.9459 90.9464H25.277C25.0986 90.9464 25.0297 90.8229 25.0926 90.6448L26.402 86.9449C26.4669 86.7607 26.5358 86.6372 26.8338 86.6372ZM29.1203 90.9464H28.4513C28.1534 90.9464 28.0784 90.8229 28.0196 90.6387L27.8351 90.0437H27.2148C27.0263 90.0437 26.9513 89.9 27.0223 89.7057L27.7662 87.5764C27.8209 87.4185 27.9 87.3294 28.048 87.3294C28.1959 87.3294 28.2811 87.4185 28.3297 87.5764L29.3169 90.6428C29.3757 90.8209 29.2966 90.9444 29.1182 90.9444L29.1203 90.9464Z" fill="white"/>
<path d="M31.1554 90.9464H30.4946C30.2858 90.9464 30.227 90.8877 30.227 90.6792V87.6472H29.1851C28.9763 87.6472 28.9175 87.5885 28.9175 87.3841V86.9044C28.9175 86.6959 28.9763 86.6372 29.1851 86.6372H32.4648C32.6675 86.6372 32.7284 86.6959 32.7284 86.9044V87.3841C32.7284 87.5865 32.6696 87.6472 32.4648 87.6472H31.4229V90.6792C31.4229 90.8877 31.3642 90.9464 31.1554 90.9464Z" fill="white"/>
<path d="M33.3141 90.6792V86.9044C33.3141 86.6959 33.3729 86.6372 33.5817 86.6372H36.6486C36.8574 86.6372 36.9162 86.6959 36.9162 86.9044V87.3841C36.9162 87.5865 36.8574 87.6472 36.6486 87.6472H34.4614V89.9364H36.6486C36.8574 89.9364 36.9162 89.9951 36.9162 90.1995V90.6792C36.9162 90.8877 36.8574 90.9464 36.6486 90.9464H33.5817C33.3729 90.9464 33.3141 90.8877 33.3141 90.6792ZM34.7189 89.0053V88.5297C34.7189 88.3212 34.7736 88.2625 34.9824 88.2625H36.5006C36.7094 88.2625 36.7682 88.3212 36.7682 88.5297V89.0053C36.7682 89.2138 36.7094 89.2725 36.5006 89.2725H34.9824C34.7736 89.2725 34.7189 89.2138 34.7189 89.0053Z" fill="white"/>
<path d="M39.3648 87.9387V87.7909C39.3648 87.0521 39.8169 86.5219 40.8973 86.5219H42.1419C42.3506 86.5219 42.4094 86.5805 42.4094 86.785V87.2465C42.4094 87.4549 42.3506 87.5136 42.1419 87.5136H40.8365C40.5446 87.5136 40.4047 87.6675 40.4047 87.8415V87.9812C40.4047 88.1451 40.5446 88.3091 40.7959 88.3091H41.3473C41.556 88.3091 41.6148 88.3678 41.6148 88.5722V89.0337C41.6148 89.2422 41.556 89.3009 41.3473 89.3009H40.7959C40.5385 89.3009 40.4047 89.4203 40.4047 89.6186V89.7725C40.4047 89.9708 40.5689 90.0943 40.9743 90.0943H41.6392C42.0466 90.0943 42.2088 89.9465 42.2088 89.6227V89.3009H42.1398C41.9311 89.3009 41.8621 89.2422 41.8621 89.0377V88.5763C41.8621 88.3678 41.9209 88.3091 42.1297 88.3091H43.275C43.4838 88.3091 43.5425 88.3678 43.5425 88.5722V89.0337C43.5425 89.2422 43.4838 89.3009 43.275 89.3009H43.2506V89.5478C43.2506 90.578 42.8047 91.0841 41.6878 91.0841H40.9642C39.902 91.0841 39.3608 90.5639 39.3608 89.7219V89.5741C39.3608 89.1936 39.525 88.9102 39.7074 88.807C39.4743 88.6592 39.3608 88.3111 39.3608 87.9448L39.3648 87.9387Z" fill="white"/>
<path d="M46.0682 90.6792V86.9044C46.0682 86.6959 46.127 86.6372 46.3358 86.6372H46.952C47.1547 86.6372 47.2155 86.6959 47.2155 86.9044V89.9364H49.4027C49.6115 89.9364 49.6703 89.9951 49.6703 90.1995V90.6792C49.6703 90.8877 49.6115 90.9464 49.4027 90.9464H46.3378C46.129 90.9464 46.0703 90.8877 46.0703 90.6792H46.0682Z" fill="white"/>
<path d="M51.3182 90.9464H50.6594C50.4506 90.9464 50.3918 90.8877 50.3918 90.6792V86.9044C50.3918 86.6959 50.4506 86.6372 50.6594 86.6372H51.3182C51.527 86.6372 51.5858 86.6959 51.5858 86.9044V90.6792C51.5858 90.8877 51.527 90.9464 51.3182 90.9464Z" fill="white"/>
<path d="M53.1709 90.9464H52.5568C52.348 90.9464 52.2892 90.8877 52.2892 90.6792V86.9044C52.2892 86.6959 52.348 86.6372 52.5568 86.6372H55.6216C55.8304 86.6372 55.8892 86.6959 55.8892 86.9044V87.3841C55.8892 87.5865 55.8304 87.6472 55.6216 87.6472H53.4345V90.6792C53.4345 90.8877 53.3757 90.9464 53.1709 90.9464ZM53.6919 89.1086V88.6289C53.6919 88.4204 53.7466 88.3617 53.9554 88.3617H55.4736C55.6824 88.3617 55.7412 88.4204 55.7412 88.6289V89.1086C55.7412 89.311 55.6824 89.3717 55.4736 89.3717H53.9554C53.7466 89.3717 53.6919 89.313 53.6919 89.1086Z" fill="white"/>
<path d="M56.4608 90.6792V86.9044C56.4608 86.6959 56.5196 86.6372 56.7284 86.6372H59.7932C60.002 86.6372 60.0608 86.6959 60.0608 86.9044V87.3841C60.0608 87.5865 60.002 87.6472 59.7932 87.6472H57.6061V89.9364H59.7932C60.002 89.9364 60.0608 89.9951 60.0608 90.1995V90.6792C60.0608 90.8877 60.002 90.9464 59.7932 90.9464H56.7284C56.5196 90.9464 56.4608 90.8877 56.4608 90.6792ZM57.8655 89.0053V88.5297C57.8655 88.3212 57.9203 88.2625 58.1291 88.2625H59.6473C59.8561 88.2625 59.9149 88.3212 59.9149 88.5297V89.0053C59.9149 89.2138 59.8561 89.2725 59.6473 89.2725H58.1291C57.9203 89.2725 57.8655 89.2138 57.8655 89.0053Z" fill="white"/>
<path d="M37.8286 33.0939C41.4388 32.9101 44.2161 29.8387 44.032 26.2338C43.8478 22.629 40.7719 19.8557 37.1618 20.0396C33.5516 20.2235 30.7743 23.2949 30.9584 26.8997C31.1426 30.5046 34.2185 33.2778 37.8286 33.0939Z" fill="white"/>
<path d="M21.3324 31.8666C19.2263 30.0874 17.1892 28.201 15.2493 26.2215C13.1412 23.9404 9.21687 19.696 9.25335 16.0203C9.26551 14.7796 9.66889 13.8323 10.4898 13.1219C12.6851 11.2355 17.3006 11.6625 19.1797 11.9338L19.4047 10.9926C16.3155 9.92187 12.0101 9.41586 9.20268 11.195C7.64592 12.1827 6.73984 13.7352 6.5047 15.8199C5.8297 22.5701 14.1811 31.401 21.6061 37.4347C21.4743 35.6374 21.3952 33.9149 21.3385 32.32C21.3344 32.1681 21.3344 32.0184 21.3304 31.8666H21.3324Z" fill="white"/>
<path d="M65.7466 45.0492C64.7635 42.0901 63.0101 39.4386 61.5932 37.4611L60.7641 37.9509L60.8777 38.1938C62.2804 41.161 64.6256 46.126 63.6506 49.1256C63.2716 50.3461 61.8527 50.8704 60.7419 50.7408L59.3919 50.5081C58.6723 50.4048 57.4216 50.1498 56.7527 50.002C51.6506 48.8989 46.8466 47.2817 42.3729 45.1949C40.8506 46.0066 39.2777 46.7939 37.65 47.5793C43.4919 50.504 49.7169 52.4653 56.1587 53.3923C57.529 53.6109 59.1993 53.7506 60.5858 53.868C61.0844 53.872 61.575 53.8174 62.0452 53.7121C63.4358 53.4024 64.652 52.6414 65.3939 51.5747C66.5148 49.9838 66.6324 47.7898 65.7446 45.0472L65.7466 45.0492Z" fill="white"/>
<path d="M41.7466 60.6261C40.8263 61.4702 39.9182 61.8345 39.1317 61.8345C38.7912 61.8345 38.473 61.7657 38.1892 61.6382C37.9885 61.5734 37.6378 61.4256 37.7392 61.3629C37.4554 61.201 37.1939 61.0269 36.9608 60.8265C36.4804 60.4177 36.0284 59.8975 35.6047 59.2862C34.7817 58.0374 34.0074 56.5072 33.3993 54.8192C32.7831 53.1372 32.3088 51.3135 31.9338 49.4473C31.5344 47.5913 31.1655 45.6907 30.9263 43.7841C30.8108 42.8328 30.6851 41.8774 30.6709 41.0253L30.6466 40.1873L30.6284 39.5761L30.5838 38.0378C30.4601 36.0522 30.4946 34.0768 30.45 32.1175C30.4398 28.1989 30.6121 24.333 31.0236 20.5865C31.275 18.7223 31.4797 16.8663 31.8608 15.0811C32.2155 13.2918 32.773 11.5896 33.3304 9.98252C33.8919 8.37948 34.6338 6.88168 35.4811 5.80287C35.8885 5.25233 36.2838 4.76656 36.6567 4.44068C36.8594 4.28686 36.9608 4.15327 37.2121 4.04599C37.4797 3.91848 37.725 3.85371 37.9865 3.78692C38.2419 3.74036 38.5216 3.69786 38.8216 3.69786C39.1216 3.69786 39.4155 3.73632 39.7419 3.85169C40.4189 4.04802 41.1182 4.51153 41.8317 5.07421C43.2608 6.22184 44.552 7.9018 45.7115 9.68903L46.3621 9.54128C45.8493 7.45044 45.0426 5.45473 43.8101 3.65738C42.6061 1.89241 40.727 0.309608 38.4162 0.0444581C38.1426 0.0161214 37.8669 0.00195312 37.5912 0.00195312C36.7358 0.00195312 35.8763 0.143636 35.0716 0.463435C34.0196 0.884437 33.0912 1.52403 32.2743 2.25269C30.6344 3.72012 29.4162 5.54176 28.4128 7.43222C26.4263 11.2435 25.3257 15.411 24.6385 19.5907C23.9615 23.7804 23.7263 28.0289 23.8419 32.2531C23.927 34.6921 24.0608 37.1169 24.3 39.5376C24.4763 41.3188 24.7094 43.0979 25.0338 44.8771C25.8405 49.0304 26.9696 53.1493 28.8101 57.0112C29.7365 58.932 30.8655 60.7941 32.3797 62.3729C33.9081 63.8849 35.7973 65.2976 38.2034 65.2976C38.2115 65.2976 38.2176 65.2976 38.2257 65.2976C40.5608 65.2956 42.6324 63.7634 43.727 61.8912C44.8784 60.0169 45.4155 57.9018 45.7642 55.815L45.1054 55.7037C44.1162 57.6184 43.0581 59.4522 41.7466 60.6261Z" fill="white"/>
<path d="M51.1196 12.122C51.152 14.3829 57.3912 11.867 58.9257 14.644C59.3615 15.4334 59.2763 15.8564 59.2804 16.4049C59.3412 24.7581 43.8729 32.6013 36.2797 37.1129C35.2581 37.6472 34.1959 38.2302 33.1094 38.8313L33.15 40.234L33.1723 40.9849C33.1824 41.6447 33.2817 42.4361 33.3831 43.2761L33.4074 43.4725C33.4925 44.1485 33.5959 44.8205 33.7074 45.4742C33.9243 46.7494 34.1716 47.9496 34.3865 48.9576C34.3966 49.0102 34.4088 49.0608 34.4209 49.1135C35.5216 48.5973 36.598 48.0893 37.65 47.5813C39.2777 46.7959 40.8527 46.0086 42.3729 45.1969C49.5689 41.3553 55.6175 36.9307 60.9304 29.1786C77.623 4.82331 51.0993 10.6809 51.1196 12.122Z" fill="white"/>
<path d="M22.3824 44.1849C19.502 45.3042 16.5851 46.0571 13.7412 46.0612C13.1351 45.9984 12.8878 45.9579 12.7561 45.9579C12.2128 45.7697 11.4142 44.6868 11.3108 43.9663C11.1425 42.7883 11.4081 40.6954 12.6263 38.6147C13.6824 36.8093 11.179 34.7953 9.70741 36.3093C7.05403 39.0418 7.0216 39.4972 5.92092 42.7073C5.88241 42.8186 5.84997 42.9401 5.82768 43.0575C3.62024 54.461 15.2392 55.2605 24.529 52.9915C23.7709 50.6881 23.1263 48.1743 22.5729 45.3244C22.504 44.9439 22.4452 44.5654 22.3824 44.1849Z" fill="white"/>
<path d="M19.4047 10.1141C20.3068 9.45626 21.5736 9.65259 22.2324 10.5533C22.8912 11.454 22.6946 12.719 21.7926 13.3768C20.8905 14.0346 19.6236 13.8383 18.9649 12.9376C18.3061 12.0369 18.5027 10.7719 19.4047 10.1141Z" fill="white" stroke="#1A3490" stroke-width="0.25" stroke-miterlimit="10"/>
<path d="M46.8066 58.1298C47.3431 57.0867 46.9311 55.8068 45.8864 55.2712C44.8417 54.7355 43.56 55.147 43.0235 56.1901C42.4871 57.2332 42.8991 58.5131 43.9438 59.0487C44.9885 59.5844 46.2702 59.173 46.8066 58.1298Z" fill="white" stroke="#1A3490" stroke-width="0.25" stroke-miterlimit="10"/>
</g>
<defs>
<clipPath id="clip0_50_79">
<rect width="72" height="92" fill="white"/>
</clipPath>
</defs>
</svg>
