<svg width="358" height="358" viewBox="0 0 358 358" fill="none" xmlns="http://www.w3.org/2000/svg">
<circle cx="179" cy="179" r="179" fill="white"/>
<circle cx="179" cy="179" r="138" fill="url(#paint0_linear_510_192)"/>
<g filter="url(#filter0_d_510_192)">
<circle cx="179" cy="179" r="97" fill="white"/>
</g>
<g clip-path="url(#clip0_510_192)">
<path d="M131.713 219.096V218.562C131.713 216.347 133.088 214.488 135.742 214.488H143.444C143.8 214.488 143.994 214.666 143.994 215.038V217.237C143.994 217.609 143.8 217.786 143.444 217.786H136.162C135.726 217.786 135.434 218.029 135.434 218.514V219.064C135.434 219.549 135.726 219.791 136.162 219.791H140.499C143.152 219.791 144.528 221.65 144.528 223.865V224.48C144.528 226.694 143.152 228.554 140.499 228.554H132.797C132.441 228.554 132.247 228.376 132.247 228.004V225.805C132.247 225.433 132.441 225.256 132.797 225.256H140.078C140.515 225.256 140.806 225.013 140.806 224.528V223.8C140.806 223.315 140.515 223.073 140.078 223.073H135.742C133.088 223.073 131.713 221.311 131.713 219.096Z" fill="#0A3177"/>
<path d="M154.818 220.599V219.161C154.818 218.336 154.381 217.786 153.604 217.786H149.236V227.681C149.236 228.36 149.042 228.554 148.362 228.554H146.372C145.692 228.554 145.498 228.36 145.498 227.681V215.361C145.498 214.682 145.692 214.488 146.372 214.488H154.025C157.018 214.488 158.539 216.655 158.539 219.209V220.551C158.539 223.105 157.018 225.272 154.025 225.272H150.951C150.271 225.272 150.077 225.078 150.077 224.415V222.847C150.077 222.168 150.271 221.974 150.951 221.974H153.604C154.381 221.974 154.818 221.424 154.818 220.599Z" fill="#0A3177"/>
<path d="M163.216 214.488H165.352C165.935 214.488 166.161 214.892 165.951 215.474L161.728 227.551C161.517 228.149 161.291 228.554 160.32 228.554H158.136C157.553 228.554 157.327 228.149 157.537 227.567L161.809 215.491C162.019 214.892 162.246 214.488 163.216 214.488ZM170.676 228.554H168.491C167.52 228.554 167.278 228.149 167.083 227.551L166.485 225.611H164.462C163.847 225.611 163.605 225.142 163.831 224.512L166.258 217.56C166.436 217.043 166.695 216.752 167.181 216.752C167.666 216.752 167.941 217.043 168.103 217.56L171.323 227.567C171.517 228.149 171.258 228.554 170.676 228.554Z" fill="#0A3177"/>
<path d="M171.436 222.297V220.745C171.436 216.137 174.024 214.488 177.244 214.488H182.972C183.636 214.488 183.83 214.682 183.83 215.361V216.93C183.83 217.592 183.636 217.786 182.972 217.786H177.794C175.966 217.786 175.173 218.643 175.173 220.583V222.459C175.173 224.399 175.966 225.256 177.794 225.256H182.972C183.636 225.256 183.83 225.45 183.83 226.112V227.681C183.83 228.36 183.636 228.554 182.972 228.554H177.244C174.024 228.554 171.436 226.888 171.436 222.297Z" fill="#0A3177"/>
<path d="M184.801 227.681V215.361C184.801 214.682 184.995 214.488 185.675 214.488H195.674C196.354 214.488 196.548 214.682 196.548 215.361V216.93C196.548 217.592 196.354 217.786 195.674 217.786H188.538V225.256H195.674C196.354 225.256 196.548 225.45 196.548 226.112V227.681C196.548 228.36 196.354 228.554 195.674 228.554H185.675C184.995 228.554 184.801 228.36 184.801 227.681ZM189.38 222.216V220.664C189.38 219.985 189.558 219.791 190.237 219.791H195.189C195.868 219.791 196.062 219.985 196.062 220.664V222.216C196.062 222.895 195.868 223.089 195.189 223.089H190.237C189.558 223.089 189.38 222.895 189.38 222.216Z" fill="#0A3177"/>
<path d="M202.389 222.297V220.745C202.389 216.137 204.978 214.488 208.197 214.488H213.925C214.589 214.488 214.783 214.682 214.783 215.361V216.93C214.783 217.592 214.589 217.786 213.925 217.786H208.748C206.919 217.786 206.126 218.643 206.126 220.583V222.459C206.126 224.399 206.919 225.256 208.748 225.256H213.925C214.589 225.256 214.783 225.45 214.783 226.112V227.681C214.783 228.36 214.589 228.554 213.925 228.554H208.197C204.978 228.554 202.389 226.888 202.389 222.297Z" fill="#0A3177"/>
<path d="M215.754 227.681V215.361C215.754 214.682 215.948 214.488 216.628 214.488H218.634C219.297 214.488 219.492 214.682 219.492 215.361V225.256H226.627C227.307 225.256 227.501 225.45 227.501 226.112V227.681C227.501 228.36 227.307 228.554 226.627 228.554H216.628C215.948 228.554 215.754 228.36 215.754 227.681Z" fill="#0A3177"/>
<path d="M147.591 236.895V236.262C147.591 234.381 148.648 233.71 149.961 233.71H152.297C152.566 233.71 152.647 233.788 152.647 234.066V234.704C152.647 234.974 152.569 235.055 152.297 235.055H150.185C149.438 235.055 149.117 235.405 149.117 236.194V236.96C149.117 237.752 149.441 238.099 150.185 238.099H152.297C152.566 238.099 152.647 238.177 152.647 238.45V239.088C152.647 239.366 152.569 239.444 152.297 239.444H149.961C148.648 239.444 147.591 238.765 147.591 236.892V236.895Z" fill="#0A3177"/>
<path d="M157.21 235.979V235.628C157.21 235.232 156.999 235.055 156.649 235.055H154.966V239.091C154.966 239.368 154.888 239.447 154.61 239.447H153.798C153.521 239.447 153.442 239.368 153.442 239.091V234.066C153.442 233.788 153.521 233.71 153.798 233.71H156.886C158.108 233.71 158.728 234.594 158.728 235.637V235.86C158.728 236.744 158.259 237.536 157.347 237.733L158.752 238.978C158.963 239.164 158.871 239.447 158.615 239.447H157.617C157.234 239.447 157.069 239.406 156.738 239.091L155.549 237.951C155.352 237.76 155.303 237.641 155.303 237.313V236.925C155.303 236.647 155.381 236.569 155.659 236.569H156.643C156.994 236.569 157.204 236.378 157.204 235.981L157.21 235.979Z" fill="#0A3177"/>
<path d="M159.621 239.091V234.066C159.621 233.788 159.699 233.71 159.977 233.71H164.057C164.335 233.71 164.413 233.788 164.413 234.066V234.704C164.413 234.974 164.335 235.055 164.057 235.055H161.147V238.102H164.057C164.335 238.102 164.413 238.18 164.413 238.452V239.091C164.413 239.368 164.335 239.447 164.057 239.447H159.977C159.699 239.447 159.621 239.368 159.621 239.091ZM161.49 236.863V236.229C161.49 235.952 161.563 235.874 161.84 235.874H163.86C164.138 235.874 164.216 235.952 164.216 236.229V236.863C164.216 237.14 164.138 237.218 163.86 237.218H161.84C161.563 237.218 161.49 237.14 161.49 236.863Z" fill="#0A3177"/>
<path d="M167.411 233.71H168.282C168.52 233.71 168.611 233.874 168.528 234.111L166.804 239.037C166.718 239.282 166.627 239.447 166.23 239.447H165.34C165.103 239.447 165.011 239.282 165.095 239.045L166.837 234.12C166.923 233.874 167.015 233.71 167.411 233.71ZM170.453 239.447H169.563C169.167 239.447 169.067 239.282 168.989 239.037L168.743 238.245H167.918C167.667 238.245 167.568 238.054 167.662 237.795L168.652 234.96C168.725 234.75 168.83 234.631 169.027 234.631C169.223 234.631 169.337 234.75 169.401 234.96L170.715 239.042C170.793 239.279 170.688 239.444 170.45 239.444L170.453 239.447Z" fill="#0A3177"/>
<path d="M173.161 239.447H172.282C172.004 239.447 171.926 239.368 171.926 239.091V235.055H170.54C170.262 235.055 170.184 234.976 170.184 234.704V234.066C170.184 233.788 170.262 233.71 170.54 233.71H174.903C175.173 233.71 175.253 233.788 175.253 234.066V234.704C175.253 234.974 175.175 235.055 174.903 235.055H173.517V239.091C173.517 239.368 173.439 239.447 173.161 239.447Z" fill="#0A3177"/>
<path d="M176.033 239.091V234.066C176.033 233.788 176.111 233.71 176.389 233.71H180.469C180.747 233.71 180.825 233.788 180.825 234.066V234.704C180.825 234.974 180.747 235.055 180.469 235.055H177.56V238.102H180.469C180.747 238.102 180.825 238.18 180.825 238.452V239.091C180.825 239.368 180.747 239.447 180.469 239.447H176.389C176.111 239.447 176.033 239.368 176.033 239.091ZM177.902 236.863V236.229C177.902 235.952 177.975 235.874 178.253 235.874H180.272C180.55 235.874 180.628 235.952 180.628 236.229V236.863C180.628 237.14 180.55 237.218 180.272 237.218H178.253C177.975 237.218 177.902 237.14 177.902 236.863Z" fill="#0A3177"/>
<path d="M184.083 235.443V235.246C184.083 234.263 184.684 233.557 186.121 233.557H187.777C188.055 233.557 188.133 233.635 188.133 233.907V234.521C188.133 234.799 188.055 234.877 187.777 234.877H186.04C185.652 234.877 185.466 235.082 185.466 235.313V235.499C185.466 235.718 185.652 235.936 185.986 235.936H186.72C186.998 235.936 187.076 236.014 187.076 236.286V236.901C187.076 237.178 186.998 237.256 186.72 237.256H185.986C185.644 237.256 185.466 237.415 185.466 237.679V237.884C185.466 238.148 185.684 238.312 186.224 238.312H187.108C187.65 238.312 187.866 238.116 187.866 237.685V237.256H187.774C187.497 237.256 187.405 237.178 187.405 236.906V236.292C187.405 236.014 187.483 235.936 187.761 235.936H189.285C189.562 235.936 189.64 236.014 189.64 236.286V236.901C189.64 237.178 189.562 237.256 189.285 237.256H189.252V237.585C189.252 238.956 188.659 239.63 187.173 239.63H186.21C184.797 239.63 184.077 238.938 184.077 237.817V237.62C184.077 237.113 184.296 236.736 184.538 236.599C184.228 236.402 184.077 235.939 184.077 235.451L184.083 235.443Z" fill="#0A3177"/>
<path d="M193.001 239.091V234.066C193.001 233.788 193.079 233.71 193.357 233.71H194.177C194.446 233.71 194.527 233.788 194.527 234.066V238.102H197.437C197.715 238.102 197.793 238.18 197.793 238.452V239.091C197.793 239.368 197.715 239.447 197.437 239.447H193.36C193.082 239.447 193.004 239.368 193.004 239.091H193.001Z" fill="#0A3177"/>
<path d="M199.985 239.447H199.109C198.831 239.447 198.753 239.368 198.753 239.091V234.066C198.753 233.788 198.831 233.71 199.109 233.71H199.985C200.263 233.71 200.341 233.788 200.341 234.066V239.091C200.341 239.368 200.263 239.447 199.985 239.447Z" fill="#0A3177"/>
<path d="M202.45 239.447H201.633C201.356 239.447 201.277 239.368 201.277 239.091V234.066C201.277 233.788 201.356 233.71 201.633 233.71H205.711C205.989 233.71 206.067 233.788 206.067 234.066V234.704C206.067 234.974 205.989 235.055 205.711 235.055H202.801V239.091C202.801 239.368 202.723 239.447 202.45 239.447ZM203.143 237V236.361C203.143 236.084 203.216 236.006 203.494 236.006H205.514C205.792 236.006 205.87 236.084 205.87 236.361V237C205.87 237.269 205.792 237.35 205.514 237.35H203.494C203.216 237.35 203.143 237.272 203.143 237Z" fill="#0A3177"/>
<path d="M206.827 239.091V234.066C206.827 233.788 206.905 233.71 207.183 233.71H211.261C211.538 233.71 211.617 233.788 211.617 234.066V234.704C211.617 234.974 211.538 235.055 211.261 235.055H208.351V238.102H211.261C211.538 238.102 211.617 238.18 211.617 238.452V239.091C211.617 239.368 211.538 239.447 211.261 239.447H207.183C206.905 239.447 206.827 239.368 206.827 239.091ZM208.696 236.863V236.229C208.696 235.952 208.769 235.874 209.047 235.874H211.066C211.344 235.874 211.422 235.952 211.422 236.229V236.863C211.422 237.14 211.344 237.218 211.066 237.218H209.047C208.769 237.218 208.696 237.14 208.696 236.863Z" fill="#0A3177"/>
<path d="M182.04 162.431C186.843 162.187 190.537 158.098 190.292 153.299C190.047 148.5 185.955 144.808 181.152 145.053C176.35 145.298 172.655 149.386 172.9 154.185C173.145 158.984 177.237 162.676 182.04 162.431Z" fill="url(#paint1_radial_510_192)"/>
<path d="M160.093 160.797C157.291 158.429 154.581 155.917 152 153.282C149.196 150.246 143.975 144.595 144.023 139.702C144.039 138.05 144.576 136.789 145.668 135.843C148.589 133.332 154.729 133.901 157.229 134.262L157.528 133.009C153.419 131.583 147.691 130.91 143.956 133.278C141.885 134.593 140.679 136.66 140.367 139.435C139.469 148.421 150.579 160.177 160.457 168.21C160.282 165.817 160.177 163.524 160.101 161.401C160.096 161.199 160.096 160.999 160.09 160.797H160.093Z" fill="#162852"/>
<path d="M219.181 178.347C217.873 174.407 215.54 170.878 213.655 168.245L212.552 168.897L212.703 169.221C214.57 173.171 217.69 179.78 216.393 183.774C215.888 185.398 214.001 186.096 212.523 185.924L210.727 185.614C209.769 185.476 208.106 185.137 207.216 184.94C200.428 183.472 194.037 181.319 188.085 178.541C186.06 179.621 183.967 180.669 181.802 181.715C189.574 185.609 197.855 188.219 206.426 189.454C208.248 189.745 210.471 189.93 212.315 190.087C212.979 190.092 213.631 190.019 214.257 189.879C216.107 189.467 217.725 188.454 218.712 187.034C220.203 184.916 220.359 181.995 219.178 178.344L219.181 178.347Z" fill="#162852"/>
<path d="M187.252 199.084C186.028 200.207 184.82 200.692 183.773 200.692C183.32 200.692 182.897 200.601 182.519 200.431C182.252 200.345 181.786 200.148 181.921 200.065C181.543 199.849 181.195 199.617 180.885 199.35C180.246 198.806 179.645 198.114 179.081 197.3C177.986 195.637 176.956 193.6 176.147 191.353C175.327 189.114 174.696 186.686 174.197 184.202C173.666 181.731 173.175 179.201 172.857 176.663C172.703 175.396 172.536 174.125 172.517 172.99L172.485 171.875L172.461 171.061L172.401 169.013C172.237 166.37 172.283 163.74 172.223 161.132C172.21 155.915 172.439 150.769 172.986 145.781C173.321 143.299 173.593 140.829 174.1 138.452C174.572 136.07 175.314 133.804 176.055 131.665C176.802 129.53 177.789 127.537 178.917 126.1C179.459 125.367 179.984 124.721 180.481 124.287C180.75 124.082 180.885 123.904 181.22 123.762C181.576 123.592 181.902 123.506 182.25 123.417C182.589 123.355 182.962 123.298 183.361 123.298C183.76 123.298 184.151 123.349 184.585 123.503C185.486 123.764 186.416 124.381 187.365 125.13C189.267 126.658 190.984 128.895 192.527 131.274L193.393 131.077C192.71 128.294 191.637 125.637 189.997 123.244C188.396 120.895 185.896 118.787 182.821 118.435C182.457 118.397 182.091 118.378 181.724 118.378C180.586 118.378 179.442 118.567 178.372 118.992C176.972 119.553 175.737 120.404 174.65 121.374C172.469 123.328 170.848 125.753 169.513 128.269C166.87 133.343 165.406 138.891 164.492 144.455C163.591 150.033 163.278 155.689 163.432 161.312C163.545 164.559 163.723 167.787 164.041 171.01C164.276 173.381 164.586 175.749 165.018 178.118C166.091 183.647 167.593 189.13 170.042 194.271C171.274 196.828 172.776 199.307 174.791 201.409C176.824 203.422 179.337 205.303 182.538 205.303C182.549 205.303 182.557 205.303 182.568 205.303C185.675 205.3 188.431 203.26 189.887 200.768C191.419 198.273 192.133 195.457 192.597 192.679L191.721 192.531C190.405 195.08 188.997 197.521 187.252 199.084Z" fill="url(#paint2_linear_510_192)"/>
<path d="M199.721 134.513C199.764 137.523 208.065 134.173 210.106 137.87C210.686 138.921 210.573 139.484 210.578 140.214C210.659 151.335 190.08 161.776 179.978 167.782C178.619 168.493 177.206 169.269 175.761 170.07L175.815 171.937L175.844 172.937C175.858 173.815 175.99 174.868 176.125 175.987L176.157 176.248C176.27 177.148 176.408 178.043 176.556 178.913C176.845 180.61 177.174 182.208 177.46 183.55C177.473 183.62 177.489 183.688 177.506 183.758C178.97 183.071 180.402 182.394 181.801 181.718C183.967 180.672 186.062 179.624 188.085 178.544C197.658 173.43 205.705 167.539 212.773 157.219C234.981 124.797 199.694 132.594 199.721 134.513Z" fill="#162852"/>
<path d="M161.49 177.196C157.658 178.686 153.777 179.689 149.994 179.694C149.188 179.61 148.859 179.556 148.683 179.556C147.961 179.306 146.898 177.864 146.761 176.905C146.537 175.337 146.89 172.551 148.511 169.781C149.916 167.377 146.585 164.696 144.627 166.712C141.097 170.349 141.054 170.956 139.59 175.229C139.539 175.377 139.496 175.539 139.466 175.695C136.529 190.876 151.987 191.94 164.346 188.92C163.337 185.854 162.48 182.507 161.744 178.713C161.652 178.207 161.574 177.703 161.49 177.196Z" fill="#162852"/>
<path d="M157.528 131.84C158.728 130.964 160.414 131.226 161.29 132.425C162.167 133.624 161.905 135.308 160.705 136.184C159.505 137.059 157.819 136.798 156.943 135.599C156.067 134.4 156.328 132.716 157.528 131.84Z" fill="white" stroke="#1A3490" stroke-width="0.25" stroke-miterlimit="10"/>
<path d="M193.983 195.76C194.697 194.372 194.149 192.668 192.759 191.955C191.369 191.242 189.664 191.789 188.95 193.178C188.237 194.567 188.785 196.27 190.175 196.984C191.565 197.697 193.27 197.149 193.983 195.76Z" fill="white" stroke="#1A3490" stroke-width="0.25" stroke-miterlimit="10"/>
</g>
<defs>
<filter id="filter0_d_510_192" x="52" y="52" width="254" height="254" filterUnits="userSpaceOnUse" color-interpolation-filters="sRGB">
<feFlood flood-opacity="0" result="BackgroundImageFix"/>
<feColorMatrix in="SourceAlpha" type="matrix" values="0 0 0 0 0 0 0 0 0 0 0 0 0 0 0 0 0 0 127 0" result="hardAlpha"/>
<feOffset/>
<feGaussianBlur stdDeviation="15"/>
<feComposite in2="hardAlpha" operator="out"/>
<feColorMatrix type="matrix" values="0 0 0 0 0.321569 0 0 0 0 0.396078 0 0 0 0 0.584314 0 0 0 0.1 0"/>
<feBlend mode="normal" in2="BackgroundImageFix" result="effect1_dropShadow_510_192"/>
<feBlend mode="normal" in="SourceGraphic" in2="effect1_dropShadow_510_192" result="shape"/>
</filter>
<linearGradient id="paint0_linear_510_192" x1="103.5" y1="61" x2="260" y2="290" gradientUnits="userSpaceOnUse">
<stop stop-color="#D765FF"/>
<stop offset="1" stop-color="#3300FF"/>
</linearGradient>
<radialGradient id="paint1_radial_510_192" cx="0" cy="0" r="1" gradientUnits="userSpaceOnUse" gradientTransform="translate(181.597 153.743) scale(8.7104 8.70325)">
<stop stop-color="#167EC2"/>
<stop offset="0.42" stop-color="#165187"/>
<stop offset="0.74" stop-color="#163360"/>
<stop offset="0.9" stop-color="#162852"/>
</radialGradient>
<linearGradient id="paint2_linear_510_192" x1="178.393" y1="139.605" x2="178.393" y2="242.252" gradientUnits="userSpaceOnUse">
<stop stop-color="#167EC2"/>
<stop offset="0.42" stop-color="#165187"/>
<stop offset="0.74" stop-color="#163360"/>
<stop offset="0.9" stop-color="#162852"/>
</linearGradient>
<clipPath id="clip0_510_192">
<rect width="95.7875" height="121.25" fill="white" transform="translate(131.713 118.375)"/>
</clipPath>
</defs>
</svg>
