<svg width="254" height="254" viewBox="0 0 254 254" fill="none" xmlns="http://www.w3.org/2000/svg">
<g filter="url(#filter0_d_52_637)">
<circle cx="127" cy="127" r="97" fill="white"/>
</g>
<g clip-path="url(#clip0_52_637)">
<path d="M79.7129 167.096V166.562C79.7129 164.347 81.0882 162.488 83.7418 162.488H91.4436C91.7996 162.488 91.9938 162.666 91.9938 163.038V165.236C91.9938 165.608 91.7996 165.786 91.4436 165.786H84.1625C83.7256 165.786 83.4344 166.029 83.4344 166.514V167.063C83.4344 167.548 83.7256 167.791 84.1625 167.791H88.4988C91.1524 167.791 92.5277 169.65 92.5277 171.865V172.479C92.5277 174.694 91.1524 176.553 88.4988 176.553H80.797C80.441 176.553 80.2468 176.375 80.2468 176.004V173.805C80.2468 173.433 80.441 173.255 80.797 173.255H88.0781C88.515 173.255 88.8062 173.013 88.8062 172.528V171.8C88.8062 171.315 88.515 171.073 88.0781 171.073H83.7418C81.0882 171.073 79.7129 169.31 79.7129 167.096Z" fill="#0A3177"/>
<path d="M102.818 168.599V167.16C102.818 166.336 102.381 165.786 101.604 165.786H97.2357V175.68C97.2357 176.359 97.0415 176.553 96.362 176.553H94.3718C93.6922 176.553 93.498 176.359 93.498 175.68V163.361C93.498 162.682 93.6922 162.488 94.3718 162.488H102.025C105.018 162.488 106.539 164.654 106.539 167.209V168.551C106.539 171.105 105.018 173.271 102.025 173.271H98.9508C98.2712 173.271 98.0771 173.077 98.0771 172.415V170.846C98.0771 170.167 98.2712 169.973 98.9508 169.973H101.604C102.381 169.973 102.818 169.424 102.818 168.599Z" fill="#0A3177"/>
<path d="M111.216 162.488H113.352C113.935 162.488 114.161 162.892 113.951 163.474L109.728 175.551C109.517 176.149 109.291 176.553 108.32 176.553H106.136C105.553 176.553 105.327 176.149 105.537 175.567L109.809 163.49C110.019 162.892 110.246 162.488 111.216 162.488ZM118.676 176.553H116.491C115.52 176.553 115.278 176.149 115.083 175.551L114.485 173.611H112.462C111.847 173.611 111.605 173.142 111.831 172.512L114.258 165.56C114.436 165.042 114.695 164.751 115.181 164.751C115.666 164.751 115.941 165.042 116.103 165.56L119.323 175.567C119.517 176.149 119.258 176.553 118.676 176.553Z" fill="#0A3177"/>
<path d="M119.436 170.297V168.745C119.436 164.137 122.024 162.488 125.244 162.488H130.972C131.636 162.488 131.83 162.682 131.83 163.361V164.929C131.83 165.592 131.636 165.786 130.972 165.786H125.794C123.966 165.786 123.173 166.643 123.173 168.583V170.458C123.173 172.398 123.966 173.255 125.794 173.255H130.972C131.636 173.255 131.83 173.449 131.83 174.112V175.68C131.83 176.359 131.636 176.553 130.972 176.553H125.244C122.024 176.553 119.436 174.888 119.436 170.297Z" fill="#0A3177"/>
<path d="M132.801 175.68V163.361C132.801 162.682 132.995 162.488 133.675 162.488H143.674C144.354 162.488 144.548 162.682 144.548 163.361V164.929C144.548 165.592 144.354 165.786 143.674 165.786H136.538V173.255H143.674C144.354 173.255 144.548 173.449 144.548 174.112V175.68C144.548 176.359 144.354 176.553 143.674 176.553H133.675C132.995 176.553 132.801 176.359 132.801 175.68ZM137.38 170.216V168.664C137.38 167.985 137.558 167.791 138.237 167.791H143.189C143.868 167.791 144.062 167.985 144.062 168.664V170.216C144.062 170.895 143.868 171.089 143.189 171.089H138.237C137.558 171.089 137.38 170.895 137.38 170.216Z" fill="#0A3177"/>
<path d="M150.389 170.297V168.745C150.389 164.137 152.978 162.488 156.197 162.488H161.925C162.589 162.488 162.783 162.682 162.783 163.361V164.929C162.783 165.592 162.589 165.786 161.925 165.786H156.748C154.919 165.786 154.126 166.643 154.126 168.583V170.458C154.126 172.398 154.919 173.255 156.748 173.255H161.925C162.589 173.255 162.783 173.449 162.783 174.112V175.68C162.783 176.359 162.589 176.553 161.925 176.553H156.197C152.978 176.553 150.389 174.888 150.389 170.297Z" fill="#0A3177"/>
<path d="M163.754 175.68V163.361C163.754 162.682 163.948 162.488 164.628 162.488H166.634C167.297 162.488 167.492 162.682 167.492 163.361V173.255H174.627C175.307 173.255 175.501 173.449 175.501 174.112V175.68C175.501 176.359 175.307 176.553 174.627 176.553H164.628C163.948 176.553 163.754 176.359 163.754 175.68Z" fill="#0A3177"/>
<path d="M95.5908 184.895V184.262C95.5908 182.382 96.6479 181.711 97.9612 181.711H100.297C100.566 181.711 100.647 181.789 100.647 182.066V182.705C100.647 182.974 100.569 183.055 100.297 183.055H98.1851C97.4381 183.055 97.1172 183.405 97.1172 184.195V184.96C97.1172 185.752 97.4408 186.1 98.1851 186.1H100.297C100.566 186.1 100.647 186.178 100.647 186.45V187.089C100.647 187.366 100.569 187.444 100.297 187.444H97.9612C96.6479 187.444 95.5908 186.765 95.5908 184.893V184.895Z" fill="#0A3177"/>
<path d="M105.21 183.979V183.629C105.21 183.233 104.999 183.055 104.649 183.055H102.966V187.091C102.966 187.369 102.888 187.447 102.61 187.447H101.798C101.521 187.447 101.442 187.369 101.442 187.091V182.066C101.442 181.789 101.521 181.711 101.798 181.711H104.886C106.108 181.711 106.728 182.594 106.728 183.637V183.861C106.728 184.745 106.259 185.537 105.347 185.733L106.752 186.978C106.963 187.164 106.871 187.447 106.615 187.447H105.617C105.234 187.447 105.069 187.407 104.738 187.091L103.549 185.952C103.352 185.76 103.303 185.642 103.303 185.313V184.925C103.303 184.648 103.381 184.569 103.659 184.569H104.643C104.994 184.569 105.204 184.378 105.204 183.982L105.21 183.979Z" fill="#0A3177"/>
<path d="M107.621 187.091V182.066C107.621 181.789 107.699 181.711 107.977 181.711H112.057C112.335 181.711 112.413 181.789 112.413 182.066V182.705C112.413 182.974 112.335 183.055 112.057 183.055H109.147V186.103H112.057C112.335 186.103 112.413 186.181 112.413 186.453V187.091C112.413 187.369 112.335 187.447 112.057 187.447H107.977C107.699 187.447 107.621 187.369 107.621 187.091ZM109.49 184.863V184.23C109.49 183.952 109.563 183.874 109.84 183.874H111.86C112.138 183.874 112.216 183.952 112.216 184.23V184.863C112.216 185.141 112.138 185.219 111.86 185.219H109.84C109.563 185.219 109.49 185.141 109.49 184.863Z" fill="#0A3177"/>
<path d="M115.411 181.711H116.282C116.52 181.711 116.611 181.875 116.528 182.112L114.804 187.038C114.718 187.283 114.627 187.447 114.23 187.447H113.34C113.103 187.447 113.011 187.283 113.095 187.046L114.837 182.12C114.923 181.875 115.015 181.711 115.411 181.711ZM118.453 187.447H117.563C117.167 187.447 117.067 187.283 116.989 187.038L116.743 186.245H115.918C115.667 186.245 115.568 186.054 115.662 185.795L116.652 182.961C116.725 182.751 116.83 182.632 117.027 182.632C117.223 182.632 117.337 182.751 117.401 182.961L118.715 187.043C118.793 187.28 118.688 187.444 118.45 187.444L118.453 187.447Z" fill="#0A3177"/>
<path d="M121.161 187.447H120.282C120.004 187.447 119.926 187.369 119.926 187.091V183.055H118.54C118.262 183.055 118.184 182.977 118.184 182.705V182.066C118.184 181.789 118.262 181.711 118.54 181.711H122.903C123.173 181.711 123.253 181.789 123.253 182.066V182.705C123.253 182.974 123.175 183.055 122.903 183.055H121.517V187.091C121.517 187.369 121.439 187.447 121.161 187.447Z" fill="#0A3177"/>
<path d="M124.033 187.091V182.066C124.033 181.789 124.111 181.711 124.389 181.711H128.469C128.747 181.711 128.825 181.789 128.825 182.066V182.705C128.825 182.974 128.747 183.055 128.469 183.055H125.56V186.103H128.469C128.747 186.103 128.825 186.181 128.825 186.453V187.091C128.825 187.369 128.747 187.447 128.469 187.447H124.389C124.111 187.447 124.033 187.369 124.033 187.091ZM125.902 184.863V184.23C125.902 183.952 125.975 183.874 126.253 183.874H128.272C128.55 183.874 128.628 183.952 128.628 184.23V184.863C128.628 185.141 128.55 185.219 128.272 185.219H126.253C125.975 185.219 125.902 185.141 125.902 184.863Z" fill="#0A3177"/>
<path d="M132.083 183.443V183.246C132.083 182.263 132.684 181.557 134.121 181.557H135.777C136.055 181.557 136.133 181.635 136.133 181.907V182.522C136.133 182.799 136.055 182.877 135.777 182.877H134.04C133.652 182.877 133.466 183.082 133.466 183.314V183.5C133.466 183.718 133.652 183.936 133.986 183.936H134.72C134.998 183.936 135.076 184.014 135.076 184.287V184.901C135.076 185.178 134.998 185.257 134.72 185.257H133.986C133.644 185.257 133.466 185.416 133.466 185.68V185.884C133.466 186.148 133.684 186.313 134.224 186.313H135.108C135.65 186.313 135.866 186.116 135.866 185.685V185.257H135.774C135.497 185.257 135.405 185.178 135.405 184.906V184.292C135.405 184.014 135.483 183.936 135.761 183.936H137.285C137.562 183.936 137.64 184.014 137.64 184.287V184.901C137.64 185.178 137.562 185.257 137.285 185.257H137.252V185.585C137.252 186.957 136.659 187.63 135.173 187.63H134.21C132.797 187.63 132.077 186.938 132.077 185.817V185.62C132.077 185.114 132.296 184.736 132.538 184.599C132.228 184.402 132.077 183.939 132.077 183.451L132.083 183.443Z" fill="#0A3177"/>
<path d="M141.001 187.091V182.066C141.001 181.789 141.079 181.711 141.357 181.711H142.177C142.446 181.711 142.527 181.789 142.527 182.066V186.103H145.437C145.715 186.103 145.793 186.181 145.793 186.453V187.091C145.793 187.369 145.715 187.447 145.437 187.447H141.36C141.082 187.447 141.004 187.369 141.004 187.091H141.001Z" fill="#0A3177"/>
<path d="M147.985 187.447H147.109C146.831 187.447 146.753 187.369 146.753 187.091V182.066C146.753 181.789 146.831 181.711 147.109 181.711H147.985C148.263 181.711 148.341 181.789 148.341 182.066V187.091C148.341 187.369 148.263 187.447 147.985 187.447Z" fill="#0A3177"/>
<path d="M150.45 187.447H149.633C149.356 187.447 149.277 187.369 149.277 187.091V182.066C149.277 181.789 149.356 181.711 149.633 181.711H153.711C153.989 181.711 154.067 181.789 154.067 182.066V182.705C154.067 182.974 153.989 183.055 153.711 183.055H150.801V187.091C150.801 187.369 150.723 187.447 150.45 187.447ZM151.143 185.001V184.362C151.143 184.084 151.216 184.006 151.494 184.006H153.514C153.792 184.006 153.87 184.084 153.87 184.362V185.001C153.87 185.27 153.792 185.351 153.514 185.351H151.494C151.216 185.351 151.143 185.273 151.143 185.001Z" fill="#0A3177"/>
<path d="M154.827 187.091V182.066C154.827 181.789 154.905 181.711 155.183 181.711H159.261C159.538 181.711 159.617 181.789 159.617 182.066V182.705C159.617 182.974 159.538 183.055 159.261 183.055H156.351V186.103H159.261C159.538 186.103 159.617 186.181 159.617 186.453V187.091C159.617 187.369 159.538 187.447 159.261 187.447H155.183C154.905 187.447 154.827 187.369 154.827 187.091ZM156.696 184.863V184.23C156.696 183.952 156.769 183.874 157.047 183.874H159.066C159.344 183.874 159.422 183.952 159.422 184.23V184.863C159.422 185.141 159.344 185.219 159.066 185.219H157.047C156.769 185.219 156.696 185.141 156.696 184.863Z" fill="#0A3177"/>
<path d="M130.04 110.431C134.843 110.187 138.537 106.098 138.292 101.299C138.047 96.4999 133.955 92.8081 129.152 93.0528C124.35 93.2976 120.655 97.3864 120.9 102.185C121.145 106.984 125.237 110.676 130.04 110.431Z" fill="url(#paint0_radial_52_637)"/>
<path d="M108.093 108.797C105.291 106.429 102.581 103.918 100 101.282C97.1956 98.2456 91.9747 92.5952 92.0233 87.702C92.0394 86.0503 92.5761 84.7892 93.6683 83.8435C96.5888 81.3322 102.729 81.9007 105.229 82.2618L105.528 81.0089C101.419 79.5835 95.6908 78.9098 91.9558 81.2783C89.8848 82.5932 88.6793 84.6599 88.3665 87.4352C87.4685 96.4214 98.579 108.178 108.457 116.21C108.282 113.817 108.177 111.524 108.101 109.401C108.096 109.199 108.096 108.999 108.09 108.797H108.093Z" fill="#162852"/>
<path d="M167.181 126.347C165.873 122.407 163.54 118.877 161.655 116.245L160.552 116.897L160.703 117.22C162.57 121.17 165.69 127.78 164.393 131.773C163.888 133.398 162.001 134.096 160.523 133.924L158.727 133.614C157.769 133.476 156.106 133.137 155.216 132.94C148.428 131.472 142.037 129.319 136.085 126.541C134.06 127.621 131.967 128.669 129.802 129.715C137.574 133.608 145.855 136.219 154.426 137.453C156.248 137.744 158.471 137.93 160.315 138.087C160.979 138.092 161.631 138.019 162.257 137.879C164.107 137.467 165.725 136.454 166.712 135.034C168.203 132.916 168.359 129.995 167.178 126.344L167.181 126.347Z" fill="#162852"/>
<path d="M135.252 147.083C134.028 148.207 132.82 148.692 131.773 148.692C131.32 148.692 130.897 148.6 130.519 148.431C130.252 148.345 129.786 148.148 129.921 148.064C129.543 147.849 129.195 147.617 128.885 147.35C128.246 146.806 127.645 146.113 127.081 145.3C125.986 143.637 124.956 141.6 124.147 139.353C123.327 137.114 122.696 134.686 122.197 132.202C121.666 129.731 121.175 127.201 120.857 124.663C120.703 123.396 120.536 122.124 120.517 120.99L120.485 119.874L120.461 119.061L120.401 117.013C120.237 114.37 120.283 111.74 120.223 109.131C120.21 103.915 120.439 98.7683 120.986 93.7808C121.321 91.2992 121.593 88.8283 122.1 86.4517C122.572 84.0698 123.314 81.8037 124.055 79.6643C124.802 77.5302 125.789 75.5363 126.917 74.1001C127.459 73.3672 127.984 72.7206 128.481 72.2867C128.75 72.082 128.885 71.9041 129.22 71.7613C129.576 71.5916 129.902 71.5053 130.25 71.4164C130.589 71.3544 130.962 71.2979 131.361 71.2979C131.76 71.2979 132.151 71.3491 132.585 71.5026C133.486 71.764 134.416 72.381 135.365 73.1301C137.267 74.6579 138.984 76.8943 140.527 79.2736L141.393 79.0769C140.71 76.2935 139.637 73.6367 137.997 71.244C136.396 68.8944 133.896 66.7873 130.821 66.4343C130.457 66.3966 130.091 66.3777 129.724 66.3777C128.586 66.3777 127.442 66.5663 126.372 66.992C124.972 67.5525 123.737 68.404 122.65 69.374C120.469 71.3275 118.848 73.7526 117.513 76.2692C114.87 81.343 113.406 86.891 112.492 92.4551C111.591 98.0327 111.278 103.688 111.432 109.312C111.545 112.559 111.723 115.787 112.041 119.009C112.276 121.381 112.586 123.749 113.018 126.118C114.091 131.647 115.593 137.13 118.042 142.271C119.274 144.828 120.776 147.307 122.791 149.409C124.824 151.422 127.337 153.302 130.538 153.302C130.549 153.302 130.557 153.302 130.568 153.302C133.675 153.3 136.431 151.26 137.887 148.768C139.419 146.272 140.133 143.457 140.597 140.679L139.721 140.53C138.405 143.079 136.997 145.521 135.252 147.083Z" fill="url(#paint1_linear_52_637)"/>
<path d="M147.721 82.5124C147.764 85.5221 156.065 82.1729 158.106 85.8697C158.686 86.9206 158.573 87.4837 158.578 88.214C158.659 99.3342 138.08 109.775 127.978 115.781C126.619 116.493 125.206 117.269 123.761 118.069L123.815 119.936L123.844 120.936C123.858 121.814 123.99 122.868 124.125 123.986L124.157 124.248C124.27 125.148 124.408 126.042 124.556 126.912C124.845 128.61 125.174 130.208 125.46 131.55C125.473 131.62 125.489 131.687 125.506 131.757C126.97 131.07 128.402 130.394 129.801 129.717C131.967 128.672 134.062 127.624 136.085 126.543C145.658 121.429 153.705 115.539 160.773 105.219C182.981 72.796 147.694 80.5939 147.721 82.5124Z" fill="#162852"/>
<path d="M109.49 125.196C105.658 126.686 101.777 127.688 97.994 127.694C97.1876 127.61 96.8586 127.556 96.6834 127.556C95.9606 127.306 94.8981 125.864 94.7606 124.905C94.5368 123.337 94.89 120.551 96.5108 117.781C97.9158 115.377 94.5853 112.696 92.6275 114.712C89.0975 118.349 89.0543 118.956 87.59 123.229C87.5388 123.377 87.4956 123.539 87.466 123.695C84.5292 138.876 99.9868 139.94 112.346 136.92C111.337 133.853 110.48 130.507 109.744 126.713C109.652 126.206 109.574 125.703 109.49 125.196Z" fill="#162852"/>
<path d="M105.528 79.8394C106.728 78.9637 108.414 79.2251 109.29 80.4241C110.167 81.6232 109.905 83.3073 108.705 84.183C107.505 85.0587 105.819 84.7973 104.943 83.5983C104.067 82.3992 104.328 80.7152 105.528 79.8394Z" fill="white" stroke="#1A3490" stroke-width="0.25" stroke-miterlimit="10"/>
<path d="M141.983 143.76C142.697 142.371 142.149 140.668 140.759 139.955C139.369 139.242 137.664 139.789 136.95 141.178C136.237 142.567 136.785 144.27 138.175 144.983C139.565 145.697 141.27 145.149 141.983 143.76Z" fill="white" stroke="#1A3490" stroke-width="0.25" stroke-miterlimit="10"/>
</g>
<defs>
<filter id="filter0_d_52_637" x="0" y="0" width="254" height="254" filterUnits="userSpaceOnUse" color-interpolation-filters="sRGB">
<feFlood flood-opacity="0" result="BackgroundImageFix"/>
<feColorMatrix in="SourceAlpha" type="matrix" values="0 0 0 0 0 0 0 0 0 0 0 0 0 0 0 0 0 0 127 0" result="hardAlpha"/>
<feOffset/>
<feGaussianBlur stdDeviation="15"/>
<feComposite in2="hardAlpha" operator="out"/>
<feColorMatrix type="matrix" values="0 0 0 0 0.321569 0 0 0 0 0.396078 0 0 0 0 0.584314 0 0 0 0.1 0"/>
<feBlend mode="normal" in2="BackgroundImageFix" result="effect1_dropShadow_52_637"/>
<feBlend mode="normal" in="SourceGraphic" in2="effect1_dropShadow_52_637" result="shape"/>
</filter>
<radialGradient id="paint0_radial_52_637" cx="0" cy="0" r="1" gradientUnits="userSpaceOnUse" gradientTransform="translate(129.597 101.743) scale(8.7104 8.70325)">
<stop stop-color="#167EC2"/>
<stop offset="0.42" stop-color="#165187"/>
<stop offset="0.74" stop-color="#163360"/>
<stop offset="0.9" stop-color="#162852"/>
</radialGradient>
<linearGradient id="paint1_linear_52_637" x1="126.393" y1="87.605" x2="126.393" y2="190.252" gradientUnits="userSpaceOnUse">
<stop stop-color="#167EC2"/>
<stop offset="0.42" stop-color="#165187"/>
<stop offset="0.74" stop-color="#163360"/>
<stop offset="0.9" stop-color="#162852"/>
</linearGradient>
<clipPath id="clip0_52_637">
<rect width="95.7875" height="121.25" fill="white" transform="translate(79.7129 66.375)"/>
</clipPath>
</defs>
</svg>
