<svg width="486" height="803" viewBox="0 0 486 803" fill="none" xmlns="http://www.w3.org/2000/svg">
<rect width="486" height="803" rx="20" fill="#F9E000"/>
<rect x="28" y="134" width="430" height="88" rx="13" fill="white"/>
<g clip-path="url(#clip0_421_132)">
<path d="M106 194.649C106 202.023 100.022 208 92.6504 208H59.3496C51.978 208 46 202.023 46 194.649V161.351C46 153.976 51.978 148 59.3496 148H92.6504C100.022 148 106 153.976 106 161.351V194.653V194.649Z" fill="#F9E000"/>
<path d="M75.8125 159.297C63.8932 159.297 54.2314 166.89 54.2314 176.262C54.2314 182.36 58.3227 187.704 64.4678 190.694C64.0155 192.368 62.8337 196.764 62.5974 197.704C62.304 198.871 63.0253 198.855 63.502 198.543C63.8728 198.296 69.4148 194.548 71.8068 192.931C73.1068 193.122 74.4433 193.223 75.8125 193.223C87.7319 193.223 97.3936 185.63 97.3936 176.262C97.3936 166.894 87.7319 159.297 75.8125 159.297Z" fill="#371C1D"/>
<path d="M60.7553 173.134H62.9762C62.9762 173.134 62.9884 179.199 62.9762 180.613C62.9762 181.647 65.2867 181.659 65.2826 180.63L65.2907 173.215C65.2907 173.215 66.0365 173.219 67.4994 173.219C68.8808 173.219 68.8808 171.059 67.4994 171.059C65.9427 171.059 60.7431 171.015 60.7431 171.015C59.4391 171.015 59.4432 173.134 60.7431 173.134" fill="#F9E000"/>
<mask id="mask0_421_132" style="mask-type:luminance" maskUnits="userSpaceOnUse" x="59" y="171" width="10" height="11">
<path d="M60.7553 173.134H62.9762C62.9762 173.134 62.9884 179.199 62.9762 180.613C62.9762 181.647 65.2867 181.659 65.2826 180.63L65.2907 173.215C65.2907 173.215 66.0365 173.219 67.4994 173.219C68.8808 173.219 68.8808 171.059 67.4994 171.059C65.9427 171.059 60.7431 171.015 60.7431 171.015C59.4391 171.015 59.4432 173.134 60.7431 173.134" fill="white"/>
</mask>
<g mask="url(#mask0_421_132)">
<path d="M68.8849 171.019H59.4473V181.663H68.8849V171.019Z" fill="#F9E000"/>
</g>
<path d="M71.3872 173.527L72.622 177.376H70.0466L71.3872 173.527ZM70.0018 171.724C69.4557 172.919 67.4793 178.571 66.8273 180.071C66.3546 181.152 68.3962 182.036 68.8689 180.954L69.3131 179.41H73.3758C73.3758 179.41 73.2373 179.475 73.7752 180.889C74.2112 182.036 76.322 181.241 75.886 180.095C75.2625 178.458 73.1028 172.558 72.7075 171.724C72.5282 171.339 71.8762 171.059 71.2446 171.059C70.723 171.059 70.2136 171.25 69.9977 171.724" fill="#F9E000"/>
<mask id="mask1_421_132" style="mask-type:luminance" maskUnits="userSpaceOnUse" x="66" y="171" width="10" height="11">
<path d="M71.3872 173.527L72.622 177.376H70.0466L71.3872 173.527ZM70.0018 171.724C69.4557 172.919 67.4793 178.571 66.8273 180.071C66.3546 181.152 68.3962 182.036 68.8689 180.954L69.3131 179.41H73.3758C73.3758 179.41 73.2373 179.475 73.7752 180.889C74.2112 182.036 76.322 181.241 75.886 180.095C75.2625 178.458 73.1028 172.558 72.7075 171.724C72.5282 171.339 71.8762 171.059 71.2446 171.059C70.723 171.059 70.2136 171.25 69.9977 171.724" fill="white"/>
</mask>
<g mask="url(#mask1_421_132)">
<path d="M76.3261 171.063H66.3506V182.044H76.3261V171.063Z" fill="#F9E000"/>
</g>
<path d="M76.668 172.076C76.668 173.997 76.6802 180.188 76.6802 180.188C76.6802 180.188 76.5009 181.42 77.5645 181.42C78.6281 181.42 80.9793 181.408 82.0225 181.408C83.0657 181.408 83.0616 179.199 82.0184 179.199C80.9752 179.199 79.0682 179.187 79.0682 179.187C79.0682 179.187 79.0763 173.462 79.0722 172.068C79.0722 171.395 78.4691 171.059 77.8701 171.059C77.2711 171.059 76.6639 171.4 76.668 172.072" fill="#F9E000"/>
<mask id="mask2_421_132" style="mask-type:luminance" maskUnits="userSpaceOnUse" x="76" y="171" width="7" height="11">
<path d="M76.668 172.076C76.668 173.997 76.6802 180.188 76.6802 180.188C76.6802 180.188 76.5009 181.42 77.5645 181.42C78.6281 181.42 80.9793 181.408 82.0225 181.408C83.0657 181.408 83.0616 179.199 82.0184 179.199C80.9752 179.199 79.0682 179.187 79.0682 179.187C79.0682 179.187 79.0763 173.462 79.0722 172.068C79.0722 171.395 78.4691 171.059 77.8701 171.059C77.2711 171.059 76.6639 171.4 76.668 172.072" fill="white"/>
</mask>
<g mask="url(#mask2_421_132)">
<path d="M83.0658 171.063H76.501V181.42H83.0658V171.063Z" fill="#F9E000"/>
</g>
<path d="M83.343 171.772C83.3674 172.615 83.3145 180.233 83.3145 180.796C83.3145 181.687 85.5964 181.683 85.5964 180.796C85.5964 179.763 85.5964 177.797 85.5964 177.797L86.2647 177.263L89.1946 181.233C89.7855 182.011 91.6478 180.605 91.0569 179.831L87.9477 175.759C87.9477 175.759 90.0585 173.49 90.8898 172.668C91.3748 172.19 89.8711 170.682 89.3862 171.165C88.9176 171.626 85.6087 174.921 85.6087 174.921C85.6087 174.921 85.6372 172.854 85.6087 171.712C85.5964 171.278 85.0626 171.067 84.5125 171.067C83.9257 171.067 83.3267 171.306 83.3389 171.772" fill="#F9E000"/>
<mask id="mask3_421_132" style="mask-type:luminance" maskUnits="userSpaceOnUse" x="83" y="171" width="9" height="11">
<path d="M83.343 171.772C83.3674 172.615 83.3145 180.233 83.3145 180.796C83.3145 181.687 85.5964 181.683 85.5964 180.796C85.5964 179.763 85.5964 177.797 85.5964 177.797L86.2647 177.263L89.1946 181.233C89.7855 182.011 91.6478 180.605 91.0569 179.831L87.9477 175.759C87.9477 175.759 90.0585 173.49 90.8898 172.668C91.3748 172.19 89.8711 170.682 89.3862 171.165C88.9176 171.626 85.6087 174.921 85.6087 174.921C85.6087 174.921 85.6372 172.854 85.6087 171.712C85.5964 171.278 85.0626 171.067 84.5125 171.067C83.9257 171.067 83.3267 171.306 83.3389 171.772" fill="white"/>
</mask>
<g mask="url(#mask3_421_132)">
<path d="M91.6478 170.686H83.3145V182.015H91.6478V170.686Z" fill="#F9E000"/>
</g>
</g>
<rect x="120" y="158" width="305" height="41" rx="4" fill="#F8F9FA"/>
<path d="M163.605 73.7461C166.242 73.7656 168.186 75.377 168.195 77.6719C168.186 79.9766 166.242 81.5781 163.605 81.5781C160.939 81.5781 159.006 79.9766 158.996 77.6719C159.006 75.377 160.939 73.7656 163.605 73.7461ZM160.812 77.6719C160.803 79.1172 161.994 80.0742 163.605 80.0742C165.207 80.0742 166.398 79.1172 166.398 77.6719C166.398 76.2461 165.207 75.2891 163.605 75.3086C161.994 75.2891 160.803 76.2461 160.812 77.6719ZM161.652 84.3516V82.8672H173.156V87.2812H163.508V88.9609H173.742V90.4453H161.711V85.8945H171.32V84.3516H161.652ZM171.301 82.0664V73.1602H173.156V82.0664H171.301ZM179.855 73.8242V75.8945H187.961V73.8242H189.816V80.8945H184.816V82.6133H191.887V84.1367H175.93V82.6133H182.98V80.8945H178.02V73.8242H179.855ZM177.941 90.2891V85.3867H179.816V88.7852H190.09V90.2891H177.941ZM179.855 79.3906H187.961V77.3398H179.855V79.3906ZM206.75 76.0508V77.5547H198.059V76.0508H201.496V73.668H203.332V76.0508H206.75ZM198.625 82.6328C198.615 80.2793 200.217 78.6094 202.414 78.6094C204.631 78.6094 206.213 80.2793 206.223 82.6328C206.213 85.0254 204.631 86.7051 202.414 86.6953C200.217 86.7051 198.615 85.0254 198.625 82.6328ZM200.266 82.6328C200.256 84.1172 201.154 85.1133 202.414 85.1133C203.674 85.1133 204.582 84.1172 204.582 82.6328C204.582 81.1777 203.674 80.1621 202.414 80.1523C201.154 80.1621 200.256 81.1777 200.266 82.6328ZM207.551 89.8398V73.5508H209.309V80.4453H211.32V73.1602H213.078V90.6602H211.32V81.9688H209.309V89.8398H207.551ZM221.086 74.2734C223.85 74.2734 225.842 75.9727 225.852 78.4336C225.842 80.6113 224.279 82.1934 222.004 82.5254V85.2891C223.654 85.2109 225.334 85.0645 226.906 84.8398L227.043 86.1875C223.088 86.9199 218.84 86.9395 215.715 86.9492L215.48 85.4258C216.857 85.4258 218.459 85.416 220.148 85.3672V82.5254C217.883 82.1836 216.311 80.6016 216.32 78.4336C216.311 75.9727 218.332 74.2734 221.086 74.2734ZM218.156 78.4336C218.137 79.9668 219.387 81.0117 221.086 80.9922C222.785 81.0117 224.035 79.9668 224.035 78.4336C224.035 76.8711 222.785 75.875 221.086 75.875C219.387 75.875 218.137 76.8711 218.156 78.4336ZM228 90.6992V73.1602H229.855V90.6992H228ZM239.426 76.5391C239.416 78.1895 240.988 79.6348 243.547 80.1719L242.785 81.6172C240.773 81.1582 239.289 80.1523 238.518 78.8242C237.766 80.2695 236.262 81.373 234.191 81.8516L233.41 80.4062C235.998 79.8496 237.561 78.2871 237.57 76.5391H233.801V75.0742H237.57V73.1992H239.426V75.0742H243.176V76.5391H239.426ZM232.648 82.9258C235.969 82.9258 240.363 82.8965 244.172 82.418L244.309 83.7656C242.707 84.0293 241.057 84.1953 239.445 84.293V90.1328H237.59V84.3906C235.91 84.459 234.309 84.4688 232.902 84.4688L232.648 82.9258ZM245.383 90.6602V73.1797H247.219V90.6602H245.383ZM254.797 73.9609C257.102 73.9414 258.889 75.2793 259.27 77.2422H262.688V73.1602H264.543V82.5547H262.688V78.7656H259.279C258.918 80.7773 257.121 82.125 254.797 82.125C252.121 82.125 250.197 80.4355 250.207 78.0234C250.197 75.6406 252.121 73.9414 254.797 73.9609ZM251.984 78.0234C251.975 79.5176 253.146 80.5625 254.797 80.5625C256.418 80.5625 257.57 79.5176 257.57 78.0234C257.57 76.5195 256.418 75.4941 254.797 75.5039C253.146 75.4941 251.975 76.5195 251.984 78.0234ZM253.137 90.4453V83.3945H254.973V85.4258H262.688V83.3945H264.543V90.4453H253.137ZM254.973 88.9219H262.688V86.8906H254.973V88.9219ZM278.156 75.9531C278.146 78.248 279.768 80.3867 282.375 81.2461L281.379 82.7109C279.465 82.0371 278.029 80.6699 277.268 78.9414C276.506 80.9043 275.021 82.4473 272.98 83.1992L271.984 81.7148C274.719 80.748 276.301 78.4141 276.32 75.7969V74.0781H278.156V75.9531ZM274.348 87.3789C274.348 85.3281 276.584 84.127 280.227 84.1367C283.82 84.127 286.027 85.3281 286.027 87.3789C286.027 89.4492 283.82 90.6309 280.227 90.6211C276.584 90.6309 274.348 89.4492 274.348 87.3789ZM276.203 87.3789C276.193 88.5312 277.697 89.1562 280.227 89.1758C282.736 89.1562 284.221 88.5312 284.211 87.3789C284.221 86.2656 282.736 85.6016 280.227 85.6016C277.697 85.6016 276.193 86.2656 276.203 87.3789ZM284.016 83.7266V73.1602H285.871V77.5547H288.41V79.1172H285.871V83.7266H284.016ZM303.156 73.1602V77.3203H305.695V78.8633H303.156V83.043H301.301V73.1602H303.156ZM290.188 82.1445V74.3125H297.961V75.8164H292.023V80.6406C295.432 80.6406 297.346 80.5039 299.543 80.0742L299.758 81.5586C297.395 82.0566 295.324 82.1445 291.574 82.1445H290.188ZM291.984 90.4258V83.9023H303.156V90.4258H291.984ZM293.801 88.9414H301.32V85.3867H293.801V88.9414ZM320.324 73.1602V80.25H323.137V81.793H320.324V90.6602H318.488V73.1602H320.324ZM306.594 77.418V75.8945H310.91V73.3945H312.766V75.8945H316.965V77.418H306.594ZM307.492 82.7695C307.492 80.3867 309.328 78.707 311.848 78.707C314.357 78.707 316.193 80.3867 316.203 82.7695C316.193 85.1719 314.357 86.8418 311.848 86.8516C309.328 86.8418 307.492 85.1719 307.492 82.7695ZM309.27 82.7695C309.26 84.293 310.354 85.3086 311.848 85.2891C313.332 85.3086 314.416 84.293 314.426 82.7695C314.416 81.2754 313.332 80.2402 311.848 80.2305C310.354 80.2402 309.26 81.2754 309.27 82.7695ZM338.527 73.1602V90.6602H336.652V73.1602H338.527ZM324.152 85.9727C328.801 83.7559 331.076 80.6016 331.438 76.5195H324.992V75.0352H333.312C333.312 80.1621 331.135 84.5957 325.129 87.4766L324.152 85.9727Z" fill="#371C1D"/>
<g clip-path="url(#clip1_421_132)">
<path d="M143.305 183.61C147.339 183.61 150.61 180.339 150.61 176.305C150.61 172.271 147.339 169 143.305 169C139.271 169 136 172.271 136 176.305C136 180.339 139.271 183.61 143.305 183.61Z" stroke="#222222" stroke-width="1.5" stroke-linecap="round" stroke-linejoin="round"/>
<path d="M148.54 181.541L154 187.001" stroke="#222222" stroke-width="1.5" stroke-linecap="round" stroke-linejoin="round"/>
</g>
<path d="M179.531 171.641C179.531 174.492 182.568 177.188 185.938 177.793L185.078 179.336C182.275 178.73 179.707 176.895 178.574 174.434C177.422 176.885 174.854 178.711 172.051 179.336L171.23 177.793C174.551 177.168 177.568 174.492 177.578 171.641V170.312H179.531V171.641ZM170.645 184.355V182.812H186.66V184.355H170.645ZM203.066 169.16V186.66H201.289V169.16H203.066ZM187.734 180.879C188.242 180.879 188.828 180.879 189.453 180.869V172.832H188.105V171.309H196.133V172.832H194.785V180.654C195.381 180.605 195.957 180.537 196.484 180.469L196.621 181.816C193.848 182.363 190.215 182.441 187.949 182.441L187.734 180.879ZM191.133 180.84C191.768 180.83 192.422 180.801 193.066 180.771V172.832H191.133V180.84ZM195.664 177.383V175.723H197.852V169.551H199.609V185.762H197.852V177.383H195.664ZM219.707 169.16V186.699H217.852V169.16H219.707ZM205.82 176.602C205.82 172.861 207.705 170.479 210.352 170.469C212.949 170.479 214.863 172.861 214.863 176.602C214.863 180.381 212.949 182.764 210.352 182.754C207.705 182.764 205.82 180.381 205.82 176.602ZM207.617 176.602C207.607 179.385 208.721 181.094 210.352 181.094C211.953 181.094 213.066 179.385 213.066 176.602C213.066 173.857 211.953 172.139 210.352 172.129C208.721 172.139 207.607 173.857 207.617 176.602ZM231.387 171.641C231.387 174.492 234.424 177.188 237.793 177.793L236.934 179.336C234.131 178.73 231.562 176.895 230.43 174.434C229.277 176.885 226.709 178.711 223.906 179.336L223.086 177.793C226.406 177.168 229.424 174.492 229.434 171.641V170.312H231.387V171.641ZM222.5 184.355V182.812H238.516V184.355H222.5ZM259.453 169.16V186.66H257.578V169.16H259.453ZM244.375 181.406C246.562 179.775 247.09 176.729 247.109 174.336V170.664H248.828V174.336C248.838 176.182 249.131 178.672 250.449 180.449C251.748 178.711 252.041 176.26 252.051 174.336V170.664H253.828V174.336C253.818 176.797 254.355 179.824 256.543 181.406L255.391 182.734C254.111 181.807 253.359 180.312 252.93 178.643C252.52 180.352 251.758 181.914 250.449 182.871C249.141 181.914 248.379 180.342 247.969 178.643C247.549 180.273 246.807 181.738 245.586 182.676L244.375 181.406ZM276.875 169.18V178.242H275.117V169.18H276.875ZM262.109 173.848C262.1 171.514 263.76 169.98 266.113 170C268.174 169.98 269.717 171.162 270.059 173.027H271.719V169.512H273.457V178.125H271.719V174.551H270.078C269.766 176.436 268.203 177.695 266.113 177.695C263.76 177.695 262.1 176.113 262.109 173.848ZM263.77 173.848C263.76 175.254 264.756 176.201 266.113 176.211C267.461 176.201 268.457 175.254 268.477 173.848C268.457 172.412 267.461 171.426 266.113 171.426C264.756 171.426 263.76 172.412 263.77 173.848ZM265.137 180.449V178.984H276.875V183.301H267.031V184.961H277.539V186.445H265.176V181.914H275.039V180.449H265.137Z" fill="#222222"/>
<rect x="74" y="262" width="24" height="24" rx="5" fill="#371C1D"/>
<path d="M87.7109 268.188V279.5H85.9766V269.906H85.9141L83.2109 271.672V270.031L86.0234 268.188H87.7109Z" fill="white"/>
<path d="M120.746 266.938C120.727 272.104 119.145 276.684 112.758 279.828L111.742 278.441C114.906 276.889 116.791 275.004 117.826 272.787L112.113 273.324L111.84 271.723L118.402 271.283C118.666 270.385 118.812 269.438 118.881 268.441H112.758V266.938H120.746ZM123.422 282.641V265.16H125.277V272.152H127.992V273.676H125.277V282.641H123.422ZM138.031 266.938C138.012 272.104 136.43 276.684 130.043 279.828L129.027 278.441C132.191 276.889 134.076 275.004 135.111 272.787L129.398 273.324L129.125 271.723L135.688 271.283C135.951 270.385 136.098 269.438 136.166 268.441H130.043V266.938H138.031ZM140.707 282.641V265.16H142.562V272.152H145.277V273.676H142.562V282.641H140.707ZM154.184 266.215C157.924 266.225 160.648 268.07 160.648 270.863C160.648 273.48 158.363 275.229 155.102 275.492V278.93H162.23V280.473H146.215V278.93H153.266V275.492C150.023 275.229 147.729 273.48 147.738 270.863C147.729 268.07 150.463 266.225 154.184 266.215ZM149.535 270.863C149.535 272.826 151.488 274.047 154.184 274.066C156.898 274.047 158.842 272.826 158.852 270.863C158.842 268.969 156.898 267.719 154.184 267.738C151.488 267.719 149.535 268.969 149.535 270.863ZM179.457 274.535V276.02H163.461V274.535H170.531V272.875H165.551V265.609H177.504V267.074H167.426V268.5H177.055V269.906H167.426V271.449H177.621V272.875H172.387V274.535H179.457ZM165.277 278.91V277.426H177.426V282.66H175.531V278.91H165.277ZM191.703 267.953C191.693 270.248 193.314 272.387 195.922 273.246L194.926 274.711C193.012 274.037 191.576 272.67 190.814 270.941C190.053 272.904 188.568 274.447 186.527 275.199L185.531 273.715C188.266 272.748 189.848 270.414 189.867 267.797V266.078H191.703V267.953ZM187.895 279.379C187.895 277.328 190.131 276.127 193.773 276.137C197.367 276.127 199.574 277.328 199.574 279.379C199.574 281.449 197.367 282.631 193.773 282.621C190.131 282.631 187.895 281.449 187.895 279.379ZM189.75 279.379C189.74 280.531 191.244 281.156 193.773 281.176C196.283 281.156 197.768 280.531 197.758 279.379C197.768 278.266 196.283 277.602 193.773 277.602C191.244 277.602 189.74 278.266 189.75 279.379ZM197.562 275.727V265.16H199.418V269.555H201.957V271.117H199.418V275.727H197.562ZM216.703 265.141V270.219H219.262V271.762H216.703V277.816H214.848V265.141H216.703ZM203.734 274.789V266.645H211.547V268.148H205.57V273.246C208.979 273.256 210.893 273.148 213.09 272.699L213.305 274.203C210.941 274.672 208.871 274.789 205.121 274.789H203.734ZM205.609 282.289V276.508H207.465V280.785H217.445V282.289H205.609ZM235.297 265.16V282.66H233.52V265.16H235.297ZM220.434 272.719C220.434 268.93 221.918 266.557 224.203 266.566C226.332 266.557 227.768 268.578 227.982 271.859H229.965V265.492H231.742V281.801H229.965V273.363H227.992C227.826 276.781 226.371 278.9 224.203 278.891C221.918 278.9 220.434 276.518 220.434 272.719ZM222.152 272.719C222.152 275.502 222.943 277.143 224.203 277.133C225.492 277.143 226.293 275.502 226.293 272.719C226.293 269.926 225.492 268.295 224.203 268.305C222.943 268.295 222.152 269.926 222.152 272.719ZM248.48 276.723C248.48 278.227 249.223 279.818 250.814 280.766C252.416 279.74 253.207 278.07 253.207 276.723V275.883H255.023V276.723C255.014 278.539 256.215 280.297 258.5 281.039L257.582 282.406C255.854 281.811 254.672 280.639 254.066 279.213C253.51 280.619 252.465 281.898 250.863 282.562C249.184 281.928 248.119 280.688 247.582 279.262C246.947 280.639 245.795 281.801 244.145 282.406L243.207 281.039C245.453 280.238 246.674 278.412 246.684 276.723V275.883H248.48V276.723ZM242.758 270.277C242.768 267.826 244.74 266.146 247.426 266.137C250.102 266.146 252.074 267.826 252.074 270.277C252.074 272.699 250.102 274.379 247.426 274.379C244.74 274.379 242.768 272.699 242.758 270.277ZM244.574 270.277C244.564 271.801 245.766 272.836 247.426 272.836C249.066 272.836 250.258 271.801 250.258 270.277C250.258 268.744 249.066 267.709 247.426 267.719C245.766 267.709 244.564 268.744 244.574 270.277ZM255.062 275.141V265.18H256.918V275.141H255.062ZM273.852 270.277V271.762H261.801V265.785H263.637V270.277H273.852ZM259.672 275.453V273.969H275.688V275.453H259.672ZM261.664 282.25V277.113H263.52V280.727H273.969V282.25H261.664ZM290.902 266.254C290.902 270.707 287.846 273.861 282.777 275.297L282.016 273.852C286.059 272.719 288.559 270.541 288.92 267.777H282.934V266.254H290.902ZM285.004 282.426V275.805H296.449V282.426H285.004ZM286.82 280.941H294.613V277.289H286.82V280.941ZM290.98 271.098V269.555H294.594V265.18H296.449V275.082H294.594V271.098H290.98ZM304.496 268.461C304.496 270.434 305.707 272.396 307.973 273.285L306.977 274.711C305.375 274.066 304.232 272.855 303.607 271.381C302.963 273.021 301.771 274.428 300.082 275.16L299.066 273.734C301.43 272.699 302.699 270.443 302.699 268.461V266.215H304.496V268.461ZM302.172 278.168V276.664H314.066V282.66H312.23V278.168H302.172ZM308.539 275.648V265.473H310.258V269.633H312.309V265.18H314.066V275.746H312.309V271.176H310.258V275.648H308.539ZM322.562 268.91C322.562 270.941 324.145 272.826 326.82 273.578L325.961 275.043C323.949 274.457 322.455 273.217 321.684 271.625C320.912 273.422 319.389 274.818 317.328 275.492L316.41 274.027C319.086 273.236 320.727 271.176 320.727 268.91V268.695H316.918V267.191H320.727V265.082H322.582V267.191H326.371V268.695H322.562V268.91ZM318.656 279.438C318.656 277.387 320.873 276.225 324.535 276.234C328.158 276.225 330.336 277.387 330.336 279.438C330.336 281.449 328.158 282.611 324.535 282.621C320.873 282.611 318.656 281.449 318.656 279.438ZM320.512 279.438C320.502 280.561 321.986 281.186 324.535 281.195C327.045 281.186 328.529 280.561 328.52 279.438C328.529 278.285 327.045 277.68 324.535 277.68C321.986 277.68 320.502 278.285 320.512 279.438ZM328.324 275.824V265.16H330.18V269.574H332.719V271.098H330.18V275.824H328.324ZM353.188 265.16V282.699H351.352V273.148H347.875V271.625H351.352V265.16H353.188ZM339.398 278.559V266.723H347.582V268.227H341.273V271.625H346.84V273.109H341.273V277.016C344.203 277.016 346.234 276.928 348.559 276.527L348.754 278.031C346.205 278.441 344.008 278.549 340.766 278.559H339.398ZM370.375 265.16V282.66H368.52V265.16H370.375ZM356.137 277.875C358.842 276.664 360.639 273.715 360.648 270.785V269.633H356.664V268.148H360.629V265.512H362.465V268.148H366.391V269.633H362.465V270.785C362.475 273.578 364.311 276.43 367.035 277.582L366.02 279.008C363.998 278.129 362.396 276.303 361.586 274.096C360.795 276.439 359.203 278.383 357.172 279.301L356.137 277.875Z" fill="#371C1D"/>
<rect x="74" y="506" width="24" height="24" rx="5" fill="#371C1D"/>
<path d="M82.2422 523.5V522.25L86.1641 518.297C87.4062 517.008 88.0234 516.289 88.0234 515.297C88.0234 514.18 87.1172 513.469 85.9297 513.469C84.6719 513.469 83.875 514.266 83.8672 515.469H82.2422C82.2266 513.398 83.8047 512.031 85.9609 512.031C88.1406 512.031 89.6484 513.414 89.6641 515.25C89.6484 516.516 89.0547 517.523 86.9297 519.609L84.6328 521.938V522.031H89.8516V523.5H82.2422Z" fill="white"/>
<path d="M120.688 510.254C120.688 514.707 117.631 517.861 112.562 519.297L111.801 517.852C115.844 516.719 118.344 514.541 118.705 511.777H112.719V510.254H120.688ZM114.789 526.426V519.805H126.234V526.426H114.789ZM116.605 524.941H124.398V521.289H116.605V524.941ZM120.766 515.098V513.555H124.379V509.18H126.234V519.082H124.379V515.098H120.766ZM134.281 512.461C134.281 514.434 135.492 516.396 137.758 517.285L136.762 518.711C135.16 518.066 134.018 516.855 133.393 515.381C132.748 517.021 131.557 518.428 129.867 519.16L128.852 517.734C131.215 516.699 132.484 514.443 132.484 512.461V510.215H134.281V512.461ZM131.957 522.168V520.664H143.852V526.66H142.016V522.168H131.957ZM138.324 519.648V509.473H140.043V513.633H142.094V509.18H143.852V519.746H142.094V515.176H140.043V519.648H138.324ZM152.348 512.91C152.348 514.941 153.93 516.826 156.605 517.578L155.746 519.043C153.734 518.457 152.24 517.217 151.469 515.625C150.697 517.422 149.174 518.818 147.113 519.492L146.195 518.027C148.871 517.236 150.512 515.176 150.512 512.91V512.695H146.703V511.191H150.512V509.082H152.367V511.191H156.156V512.695H152.348V512.91ZM148.441 523.438C148.441 521.387 150.658 520.225 154.32 520.234C157.943 520.225 160.121 521.387 160.121 523.438C160.121 525.449 157.943 526.611 154.32 526.621C150.658 526.611 148.441 525.449 148.441 523.438ZM150.297 523.438C150.287 524.561 151.771 525.186 154.32 525.195C156.83 525.186 158.314 524.561 158.305 523.438C158.314 522.285 156.83 521.68 154.32 521.68C151.771 521.68 150.287 522.285 150.297 523.438ZM158.109 519.824V509.16H159.965V513.574H162.504V515.098H159.965V519.824H158.109ZM178.559 509.16V526.66H176.781V509.16H178.559ZM163.695 516.719C163.695 512.93 165.18 510.557 167.465 510.566C169.594 510.557 171.029 512.578 171.244 515.859H173.227V509.492H175.004V525.801H173.227V517.363H171.254C171.088 520.781 169.633 522.9 167.465 522.891C165.18 522.9 163.695 520.518 163.695 516.719ZM165.414 516.719C165.414 519.502 166.205 521.143 167.465 521.133C168.754 521.143 169.555 519.502 169.555 516.719C169.555 513.926 168.754 512.295 167.465 512.305C166.205 512.295 165.414 513.926 165.414 516.719ZM187.094 513.613C187.094 516.816 188.891 520.01 191.566 521.211L190.434 522.695C188.451 521.699 186.947 519.727 186.176 517.334C185.404 519.854 183.881 521.982 181.859 523.027L180.688 521.523C183.402 520.225 185.209 516.855 185.219 513.613V510.625H187.094V513.613ZM189.633 516.484V514.98H193.539V509.16H195.375V526.699H193.539V516.484H189.633ZM207.641 510.469C210.258 510.479 212.123 512.861 212.133 516.602C212.123 520.381 210.258 522.764 207.641 522.754C205.023 522.764 203.158 520.381 203.168 516.602C203.158 512.861 205.023 510.479 207.641 510.469ZM204.945 516.602C204.936 519.385 206.049 521.094 207.641 521.094C209.262 521.094 210.355 519.385 210.355 516.602C210.355 513.857 209.262 512.139 207.641 512.129C206.049 512.139 204.936 513.857 204.945 516.602ZM214.73 526.66V509.16H216.586V516.016H219.398V517.578H216.586V526.66H214.73ZM234.73 509.16V526.699H232.875V509.16H234.73ZM220.844 516.602C220.844 512.861 222.729 510.479 225.375 510.469C227.973 510.479 229.887 512.861 229.887 516.602C229.887 520.381 227.973 522.764 225.375 522.754C222.729 522.764 220.844 520.381 220.844 516.602ZM222.641 516.602C222.631 519.385 223.744 521.094 225.375 521.094C226.977 521.094 228.09 519.385 228.09 516.602C228.09 513.857 226.977 512.139 225.375 512.129C223.744 512.139 222.631 513.857 222.641 516.602ZM252.016 509.16V526.699H250.16V509.16H252.016ZM238.637 522.402V510.781H247.016V512.324H240.512V520.82C243.822 520.811 245.951 520.713 248.422 520.273L248.617 521.816C246 522.295 243.715 522.393 240.082 522.402H238.637ZM274.203 509.16V518.555H272.348V509.16H274.203ZM260.043 514.023C260.053 511.621 262.025 509.951 264.711 509.961C267.387 509.951 269.359 511.621 269.359 514.023C269.359 516.416 267.387 518.086 264.711 518.066C262.025 518.086 260.053 516.416 260.043 514.023ZM261.859 514.023C261.85 515.537 263.051 516.543 264.711 516.543C266.352 516.543 267.543 515.537 267.543 514.023C267.543 512.529 266.352 511.514 264.711 511.523C263.051 511.514 261.85 512.529 261.859 514.023ZM262.758 526.445V519.395H264.574V521.367H272.367V519.395H274.203V526.445H262.758ZM264.574 524.922H272.367V522.832H264.574V524.922ZM285.316 510.215V515.312H279.535V517.734C282.582 517.734 284.242 517.666 286.215 517.305L286.391 518.809C284.252 519.17 282.455 519.229 278.969 519.238H277.699V513.906H283.461V511.699H277.68V510.215H285.316ZM279.691 522.324V520.82H291.566V526.68H289.711V522.324H279.691ZM286.43 516.855V515.371H289.711V513.203H286.43V511.719H289.711V509.18H291.566V519.941H289.711V516.855H286.43Z" fill="#371C1D"/>
<path d="M52 344C52 325.775 66.7746 311 85 311H401C419.225 311 434 325.775 434 344V459H52V344Z" fill="#222222" stroke="#3E3E3E" stroke-width="2"/>
<path d="M63 348C63 334.193 74.1929 323 88 323H398C411.807 323 423 334.193 423 348V459H63V348Z" fill="#ECEAEA" stroke="#4F4F4F" stroke-width="2"/>
<rect x="192" y="336" width="102" height="14" rx="7" fill="#222222"/>
<rect x="78" y="364" width="330" height="52" rx="8" fill="#DEDEDE"/>
<path d="M78 436C78 432.686 80.6863 430 84 430H402C405.314 430 408 432.686 408 436V458H78V436Z" fill="#DEDEDE"/>
<g clip-path="url(#clip2_421_132)">
<path d="M106.305 395.61C110.339 395.61 113.61 392.339 113.61 388.305C113.61 384.271 110.339 381 106.305 381C102.271 381 99 384.271 99 388.305C99 392.339 102.271 395.61 106.305 395.61Z" stroke="#371C1D" stroke-width="1.5" stroke-linecap="round" stroke-linejoin="round"/>
<path d="M111.54 393.541L117 399.001" stroke="#371C1D" stroke-width="1.5" stroke-linecap="round" stroke-linejoin="round"/>
</g>
<path d="M147.648 382.449C147.639 386.707 144.465 389.803 139.523 391.219L138.996 390.242C143.225 389.021 146.027 386.619 146.33 383.484H139.855V382.449H147.648ZM141.848 398.27V391.941H152.961V398.27H141.848ZM143.059 397.234H151.75V392.938H143.059V397.234ZM147.668 386.902V385.867H151.73V381.297H152.961V391.199H151.73V386.902H147.668ZM161.066 384.773C161.066 386.756 162.502 388.768 164.699 389.617L164.035 390.594C162.336 389.891 161.086 388.553 160.48 386.971C159.855 388.68 158.547 390.223 156.828 391.004L156.145 390.047C158.371 389.051 159.885 386.746 159.895 384.773V382.352H161.066V384.773ZM159.094 393.738V392.723H170.617V398.523H169.426V393.738H159.094ZM165.695 391.609V381.629H166.867V385.887H169.445V381.297H170.617V391.707H169.445V386.941H166.867V391.609H165.695Z" fill="#371C1D"/>
<path d="M52 588C52 569.775 66.7746 555 85 555H401C419.225 555 434 569.775 434 588V737H52V588Z" fill="#222222" stroke="#3E3E3E" stroke-width="2"/>
<path d="M63 592C63 578.193 74.1929 567 88 567H398C411.807 567 423 578.193 423 592V737H63V592Z" fill="#ECEAEA" stroke="#E6E6E6" stroke-width="2"/>
<rect x="192" y="580" width="102" height="14" rx="7" fill="#222222"/>
<rect x="78" y="608" width="330" height="52" rx="8" fill="#DEDEDE"/>
<path d="M78 682C78 677.582 81.5817 674 86 674H400C404.418 674 408 677.582 408 682V738H78V682Z" fill="white"/>
<g clip-path="url(#clip3_421_132)">
<path d="M106.305 639.61C110.339 639.61 113.61 636.339 113.61 632.305C113.61 628.271 110.339 625 106.305 625C102.271 625 99 628.271 99 632.305C99 636.339 102.271 639.61 106.305 639.61Z" stroke="#371C1D" stroke-width="1.5" stroke-linecap="round" stroke-linejoin="round"/>
<path d="M111.54 637.541L117 643.001" stroke="#371C1D" stroke-width="1.5" stroke-linecap="round" stroke-linejoin="round"/>
</g>
<path d="M147.531 627.641C147.531 630.492 150.568 633.188 153.938 633.793L153.078 635.336C150.275 634.73 147.707 632.895 146.574 630.434C145.422 632.885 142.854 634.711 140.051 635.336L139.23 633.793C142.551 633.168 145.568 630.492 145.578 627.641V626.312H147.531V627.641ZM138.645 640.355V638.812H154.66V640.355H138.645ZM171.066 625.16V642.66H169.289V625.16H171.066ZM155.734 636.879C156.242 636.879 156.828 636.879 157.453 636.869V628.832H156.105V627.309H164.133V628.832H162.785V636.654C163.381 636.605 163.957 636.537 164.484 636.469L164.621 637.816C161.848 638.363 158.215 638.441 155.949 638.441L155.734 636.879ZM159.133 636.84C159.768 636.83 160.422 636.801 161.066 636.771V628.832H159.133V636.84ZM163.664 633.383V631.723H165.852V625.551H167.609V641.762H165.852V633.383H163.664ZM187.707 625.16V642.699H185.852V625.16H187.707ZM173.82 632.602C173.82 628.861 175.705 626.479 178.352 626.469C180.949 626.479 182.863 628.861 182.863 632.602C182.863 636.381 180.949 638.764 178.352 638.754C175.705 638.764 173.82 636.381 173.82 632.602ZM175.617 632.602C175.607 635.385 176.721 637.094 178.352 637.094C179.953 637.094 181.066 635.385 181.066 632.602C181.066 629.857 179.953 628.139 178.352 628.129C176.721 628.139 175.607 629.857 175.617 632.602ZM199.387 627.641C199.387 630.492 202.424 633.188 205.793 633.793L204.934 635.336C202.131 634.73 199.562 632.895 198.43 630.434C197.277 632.885 194.709 634.711 191.906 635.336L191.086 633.793C194.406 633.168 197.424 630.492 197.434 627.641V626.312H199.387V627.641ZM190.5 640.355V638.812H206.516V640.355H190.5ZM227.453 625.16V642.66H225.578V625.16H227.453ZM212.375 637.406C214.562 635.775 215.09 632.729 215.109 630.336V626.664H216.828V630.336C216.838 632.182 217.131 634.672 218.449 636.449C219.748 634.711 220.041 632.26 220.051 630.336V626.664H221.828V630.336C221.818 632.797 222.355 635.824 224.543 637.406L223.391 638.734C222.111 637.807 221.359 636.312 220.93 634.643C220.52 636.352 219.758 637.914 218.449 638.871C217.141 637.914 216.379 636.342 215.969 634.643C215.549 636.273 214.807 637.738 213.586 638.676L212.375 637.406ZM244.875 625.18V634.242H243.117V625.18H244.875ZM230.109 629.848C230.1 627.514 231.76 625.98 234.113 626C236.174 625.98 237.717 627.162 238.059 629.027H239.719V625.512H241.457V634.125H239.719V630.551H238.078C237.766 632.436 236.203 633.695 234.113 633.695C231.76 633.695 230.1 632.113 230.109 629.848ZM231.77 629.848C231.76 631.254 232.756 632.201 234.113 632.211C235.461 632.201 236.457 631.254 236.477 629.848C236.457 628.412 235.461 627.426 234.113 627.426C232.756 627.426 231.76 628.412 231.77 629.848ZM233.137 636.449V634.984H244.875V639.301H235.031V640.961H245.539V642.445H233.176V637.914H243.039V636.449H233.137Z" fill="#371C1D"/>
<path d="M155.531 699.641C155.531 702.492 158.568 705.188 161.938 705.793L161.078 707.336C158.275 706.73 155.707 704.895 154.574 702.434C153.422 704.885 150.854 706.711 148.051 707.336L147.23 705.793C150.551 705.168 153.568 702.492 153.578 699.641V698.312H155.531V699.641ZM146.645 712.355V710.812H162.66V712.355H146.645ZM179.066 697.16V714.66H177.289V697.16H179.066ZM163.734 708.879C164.242 708.879 164.828 708.879 165.453 708.869V700.832H164.105V699.309H172.133V700.832H170.785V708.654C171.381 708.605 171.957 708.537 172.484 708.469L172.621 709.816C169.848 710.363 166.215 710.441 163.949 710.441L163.734 708.879ZM167.133 708.84C167.768 708.83 168.422 708.801 169.066 708.771V700.832H167.133V708.84ZM171.664 705.383V703.723H173.852V697.551H175.609V713.762H173.852V705.383H171.664ZM195.707 697.16V714.699H193.852V697.16H195.707ZM181.82 704.602C181.82 700.861 183.705 698.479 186.352 698.469C188.949 698.479 190.863 700.861 190.863 704.602C190.863 708.381 188.949 710.764 186.352 710.754C183.705 710.764 181.82 708.381 181.82 704.602ZM183.617 704.602C183.607 707.385 184.721 709.094 186.352 709.094C187.953 709.094 189.066 707.385 189.066 704.602C189.066 701.857 187.953 700.139 186.352 700.129C184.721 700.139 183.607 701.857 183.617 704.602ZM207.387 699.641C207.387 702.492 210.424 705.188 213.793 705.793L212.934 707.336C210.131 706.73 207.562 704.895 206.43 702.434C205.277 704.885 202.709 706.711 199.906 707.336L199.086 705.793C202.406 705.168 205.424 702.492 205.434 699.641V698.312H207.387V699.641ZM198.5 712.355V710.812H214.516V712.355H198.5ZM235.453 697.16V714.66H233.578V697.16H235.453ZM220.375 709.406C222.562 707.775 223.09 704.729 223.109 702.336V698.664H224.828V702.336C224.838 704.182 225.131 706.672 226.449 708.449C227.748 706.711 228.041 704.26 228.051 702.336V698.664H229.828V702.336C229.818 704.797 230.355 707.824 232.543 709.406L231.391 710.734C230.111 709.807 229.359 708.312 228.93 706.643C228.52 708.352 227.758 709.914 226.449 710.871C225.141 709.914 224.379 708.342 223.969 706.643C223.549 708.273 222.807 709.738 221.586 710.676L220.375 709.406ZM252.875 697.18V706.242H251.117V697.18H252.875ZM238.109 701.848C238.1 699.514 239.76 697.98 242.113 698C244.174 697.98 245.717 699.162 246.059 701.027H247.719V697.512H249.457V706.125H247.719V702.551H246.078C245.766 704.436 244.203 705.695 242.113 705.695C239.76 705.695 238.1 704.113 238.109 701.848ZM239.77 701.848C239.76 703.254 240.756 704.201 242.113 704.211C243.461 704.201 244.457 703.254 244.477 701.848C244.457 700.412 243.461 699.426 242.113 699.426C240.756 699.426 239.76 700.412 239.77 701.848ZM241.137 708.449V706.984H252.875V711.301H243.031V712.961H253.539V714.445H241.176V709.914H251.039V708.449H241.137Z" fill="#222222"/>
<rect x="90.5" y="684.5" width="43" height="43" rx="9.5" fill="white" stroke="#D2D7E1"/>
<g clip-path="url(#clip4_421_132)">
<path d="M100 716.751V716.615C100 716.049 100.345 715.573 101.009 715.573H102.939C103.028 715.573 103.077 715.619 103.077 715.714V716.276C103.077 716.371 103.028 716.416 102.939 716.416H101.115C101.005 716.416 100.932 716.478 100.932 716.602V716.743C100.932 716.867 101.005 716.929 101.115 716.929H102.201C102.866 716.929 103.211 717.404 103.211 717.971V718.128C103.211 718.694 102.866 719.169 102.201 719.169H100.272C100.182 719.169 100.134 719.124 100.134 719.029V718.467C100.134 718.372 100.182 718.326 100.272 718.326H102.096C102.205 718.326 102.278 718.264 102.278 718.14V717.954C102.278 717.83 102.205 717.768 102.096 717.768H101.009C100.345 717.768 100 717.318 100 716.751Z" fill="#0A3177"/>
<path d="M105.789 717.136V716.768C105.789 716.557 105.68 716.416 105.485 716.416H104.391V718.946C104.391 719.12 104.342 719.169 104.172 719.169H103.673C103.503 719.169 103.454 719.12 103.454 718.946V715.796C103.454 715.623 103.503 715.573 103.673 715.573H105.591C106.341 715.573 106.722 716.127 106.722 716.78V717.123C106.722 717.776 106.341 718.33 105.591 718.33H104.82C104.65 718.33 104.601 718.281 104.601 718.111V717.71C104.601 717.537 104.65 717.487 104.82 717.487H105.485C105.68 717.487 105.789 717.346 105.789 717.136Z" fill="#0A3177"/>
<path d="M107.893 715.573H108.429C108.575 715.573 108.631 715.677 108.579 715.825L107.52 718.913C107.468 719.066 107.411 719.169 107.168 719.169H106.62C106.475 719.169 106.418 719.066 106.47 718.917L107.541 715.83C107.593 715.677 107.65 715.573 107.893 715.573ZM109.762 719.169H109.215C108.972 719.169 108.911 719.066 108.862 718.913L108.712 718.417H108.206C108.052 718.417 107.991 718.297 108.048 718.136L108.656 716.359C108.7 716.226 108.765 716.152 108.887 716.152C109.008 716.152 109.077 716.226 109.118 716.359L109.925 718.917C109.973 719.066 109.908 719.169 109.762 719.169Z" fill="#0A3177"/>
<path d="M109.953 717.57V717.173C109.953 715.995 110.602 715.573 111.409 715.573H112.844C113.01 715.573 113.059 715.623 113.059 715.796V716.197C113.059 716.367 113.01 716.416 112.844 716.416H111.546C111.088 716.416 110.89 716.636 110.89 717.132V717.611C110.89 718.107 111.088 718.326 111.546 718.326H112.844C113.01 718.326 113.059 718.376 113.059 718.545V718.946C113.059 719.12 113.01 719.169 112.844 719.169H111.409C110.602 719.169 109.953 718.744 109.953 717.57Z" fill="#0A3177"/>
<path d="M113.302 718.946V715.796C113.302 715.623 113.35 715.573 113.521 715.573H116.026C116.196 715.573 116.245 715.623 116.245 715.796V716.197C116.245 716.367 116.196 716.416 116.026 716.416H114.238V718.326H116.026C116.196 718.326 116.245 718.376 116.245 718.545V718.946C116.245 719.12 116.196 719.169 116.026 719.169H113.521C113.35 719.169 113.302 719.12 113.302 718.946ZM114.449 717.549V717.152C114.449 716.979 114.494 716.929 114.664 716.929H115.904C116.075 716.929 116.123 716.979 116.123 717.152V717.549C116.123 717.723 116.075 717.772 115.904 717.772H114.664C114.494 717.772 114.449 717.723 114.449 717.549Z" fill="#0A3177"/>
<path d="M117.708 717.57V717.173C117.708 715.995 118.357 715.573 119.163 715.573H120.599C120.765 715.573 120.813 715.623 120.813 715.796V716.197C120.813 716.367 120.765 716.416 120.599 716.416H119.301C118.843 716.416 118.644 716.636 118.644 717.132V717.611C118.644 718.107 118.843 718.326 119.301 718.326H120.599C120.765 718.326 120.813 718.376 120.813 718.545V718.946C120.813 719.12 120.765 719.169 120.599 719.169H119.163C118.357 719.169 117.708 718.744 117.708 717.57Z" fill="#0A3177"/>
<path d="M121.057 718.946V715.796C121.057 715.623 121.105 715.573 121.276 715.573H121.778C121.944 715.573 121.993 715.623 121.993 715.796V718.326H123.781C123.951 718.326 124 718.376 124 718.545V718.946C124 719.12 123.951 719.169 123.781 719.169H121.276C121.105 719.169 121.057 719.12 121.057 718.946Z" fill="#0A3177"/>
<path d="M103.979 721.302V721.14C103.979 720.659 104.243 720.488 104.572 720.488H105.158C105.225 720.488 105.245 720.508 105.245 720.579V720.742C105.245 720.811 105.226 720.832 105.158 720.832H104.629C104.441 720.832 104.361 720.921 104.361 721.123V721.319C104.361 721.521 104.442 721.61 104.629 721.61H105.158C105.225 721.61 105.245 721.63 105.245 721.7V721.863C105.245 721.934 105.226 721.954 105.158 721.954H104.572C104.243 721.954 103.979 721.78 103.979 721.301V721.302Z" fill="#0A3177"/>
<path d="M106.388 721.068V720.978C106.388 720.877 106.336 720.832 106.248 720.832H105.826V721.864C105.826 721.935 105.806 721.955 105.737 721.955H105.534C105.464 721.955 105.444 721.935 105.444 721.864V720.579C105.444 720.508 105.464 720.488 105.534 720.488H106.307C106.613 720.488 106.769 720.714 106.769 720.98V721.038C106.769 721.264 106.651 721.466 106.423 721.516L106.775 721.835C106.827 721.882 106.804 721.955 106.74 721.955H106.49C106.394 721.955 106.353 721.944 106.27 721.864L105.972 721.572C105.923 721.523 105.911 721.493 105.911 721.409V721.31C105.911 721.239 105.93 721.219 106 721.219H106.246C106.334 721.219 106.387 721.17 106.387 721.069L106.388 721.068Z" fill="#0A3177"/>
<path d="M106.993 721.864V720.579C106.993 720.508 107.013 720.488 107.082 720.488H108.105C108.174 720.488 108.194 720.508 108.194 720.579V720.742C108.194 720.811 108.174 720.832 108.105 720.832H107.376V721.611H108.105C108.174 721.611 108.194 721.631 108.194 721.7V721.864C108.194 721.935 108.174 721.955 108.105 721.955H107.082C107.013 721.955 106.993 721.935 106.993 721.864ZM107.461 721.294V721.132C107.461 721.061 107.48 721.041 107.549 721.041H108.055C108.125 721.041 108.145 721.061 108.145 721.132V721.294C108.145 721.365 108.125 721.385 108.055 721.385H107.549C107.48 721.385 107.461 721.365 107.461 721.294Z" fill="#0A3177"/>
<path d="M108.944 720.488H109.163C109.222 720.488 109.245 720.53 109.224 720.591L108.792 721.85C108.771 721.913 108.748 721.955 108.649 721.955H108.426C108.366 721.955 108.343 721.913 108.364 721.852L108.801 720.593C108.822 720.53 108.845 720.488 108.944 720.488ZM109.707 721.955H109.484C109.384 721.955 109.359 721.913 109.34 721.85L109.278 721.647H109.071C109.009 721.647 108.984 721.598 109.007 721.532L109.255 720.808C109.274 720.754 109.3 720.723 109.349 720.723C109.399 720.723 109.427 720.754 109.443 720.808L109.772 721.851C109.792 721.912 109.765 721.954 109.706 721.954L109.707 721.955Z" fill="#0A3177"/>
<path d="M110.386 721.955H110.165C110.096 721.955 110.076 721.935 110.076 721.864V720.832H109.729C109.659 720.832 109.64 720.812 109.64 720.742V720.579C109.64 720.508 109.659 720.488 109.729 720.488H110.822C110.89 720.488 110.91 720.508 110.91 720.579V720.742C110.91 720.811 110.89 720.832 110.822 720.832H110.475V721.864C110.475 721.935 110.455 721.955 110.386 721.955Z" fill="#0A3177"/>
<path d="M111.104 721.864V720.579C111.104 720.508 111.124 720.488 111.194 720.488H112.216C112.286 720.488 112.305 720.508 112.305 720.579V720.742C112.305 720.811 112.286 720.832 112.216 720.832H111.487V721.611H112.216C112.286 721.611 112.305 721.631 112.305 721.7V721.864C112.305 721.935 112.286 721.955 112.216 721.955H111.194C111.124 721.955 111.104 721.935 111.104 721.864ZM111.573 721.294V721.132C111.573 721.061 111.591 721.041 111.661 721.041H112.167C112.236 721.041 112.256 721.061 112.256 721.132V721.294C112.256 721.365 112.236 721.385 112.167 721.385H111.661C111.591 721.385 111.573 721.365 111.573 721.294Z" fill="#0A3177"/>
<path d="M113.121 720.931V720.881C113.121 720.629 113.272 720.449 113.632 720.449H114.047C114.117 720.449 114.136 720.469 114.136 720.538V720.695C114.136 720.766 114.117 720.786 114.047 720.786H113.612C113.515 720.786 113.468 720.839 113.468 720.898V720.945C113.468 721.001 113.515 721.057 113.598 721.057H113.782C113.852 721.057 113.871 721.077 113.871 721.146V721.304C113.871 721.374 113.852 721.394 113.782 721.394H113.598C113.513 721.394 113.468 721.435 113.468 721.503V721.555C113.468 721.623 113.523 721.665 113.658 721.665H113.88C114.015 721.665 114.069 721.614 114.069 721.504V721.394H114.046C113.977 721.394 113.954 721.374 113.954 721.305V721.148C113.954 721.077 113.973 721.057 114.043 721.057H114.425C114.494 721.057 114.514 721.077 114.514 721.146V721.304C114.514 721.374 114.494 721.394 114.425 721.394H114.417V721.479C114.417 721.829 114.268 722.001 113.896 722.001H113.655C113.301 722.001 113.12 721.824 113.12 721.538V721.487C113.12 721.358 113.175 721.262 113.236 721.226C113.158 721.176 113.12 721.058 113.12 720.933L113.121 720.931Z" fill="#0A3177"/>
<path d="M115.356 721.864V720.579C115.356 720.508 115.376 720.488 115.446 720.488H115.651C115.719 720.488 115.739 720.508 115.739 720.579V721.611H116.468C116.538 721.611 116.557 721.631 116.557 721.7V721.864C116.557 721.935 116.538 721.955 116.468 721.955H115.446C115.377 721.955 115.357 721.935 115.357 721.864H115.356Z" fill="#0A3177"/>
<path d="M117.107 721.955H116.887C116.817 721.955 116.798 721.935 116.798 721.864V720.579C116.798 720.508 116.817 720.488 116.887 720.488H117.107C117.176 720.488 117.196 720.508 117.196 720.579V721.864C117.196 721.935 117.176 721.955 117.107 721.955Z" fill="#0A3177"/>
<path d="M117.724 721.955H117.519C117.449 721.955 117.43 721.935 117.43 721.864V720.579C117.43 720.508 117.449 720.488 117.519 720.488H118.54C118.61 720.488 118.63 720.508 118.63 720.579V720.742C118.63 720.811 118.61 720.832 118.54 720.832H117.811V721.864C117.811 721.935 117.792 721.955 117.724 721.955ZM117.897 721.329V721.166C117.897 721.095 117.915 721.075 117.985 721.075H118.491C118.561 721.075 118.58 721.095 118.58 721.166V721.329C118.58 721.398 118.561 721.419 118.491 721.419H117.985C117.915 721.419 117.897 721.399 117.897 721.329Z" fill="#0A3177"/>
<path d="M118.82 721.864V720.579C118.82 720.508 118.84 720.488 118.91 720.488H119.931C120.001 720.488 120.02 720.508 120.02 720.579V720.742C120.02 720.811 120.001 720.832 119.931 720.832H119.202V721.611H119.931C120.001 721.611 120.02 721.631 120.02 721.7V721.864C120.02 721.935 120.001 721.955 119.931 721.955H118.91C118.84 721.955 118.82 721.935 118.82 721.864ZM119.289 721.294V721.132C119.289 721.061 119.307 721.041 119.376 721.041H119.882C119.952 721.041 119.972 721.061 119.972 721.132V721.294C119.972 721.365 119.952 721.385 119.882 721.385H119.376C119.307 721.385 119.289 721.365 119.289 721.294Z" fill="#0A3177"/>
<path d="M112.609 702.264C113.813 702.201 114.738 701.156 114.677 699.929C114.616 698.702 113.59 697.758 112.387 697.821C111.184 697.883 110.258 698.929 110.319 700.156C110.381 701.383 111.406 702.326 112.609 702.264Z" fill="url(#paint0_radial_421_132)"/>
<path d="M107.111 701.846C106.409 701.241 105.73 700.599 105.083 699.925C104.38 699.148 103.072 697.704 103.084 696.453C103.088 696.03 103.223 695.708 103.496 695.466C104.228 694.824 105.767 694.969 106.393 695.062L106.468 694.741C105.438 694.377 104.003 694.205 103.067 694.81C102.548 695.147 102.246 695.675 102.168 696.384C101.943 698.682 104.727 701.688 107.202 703.741C107.158 703.13 107.132 702.543 107.113 702C107.111 701.949 107.111 701.898 107.11 701.846H107.111Z" fill="#162852"/>
<path d="M121.915 706.333C121.588 705.326 121.003 704.423 120.531 703.75L120.255 703.917L120.292 704C120.76 705.01 121.542 706.699 121.217 707.72C121.09 708.136 120.617 708.314 120.247 708.27L119.797 708.191C119.557 708.156 119.14 708.069 118.917 708.019C117.217 707.643 115.615 707.093 114.124 706.383C113.617 706.659 113.092 706.927 112.55 707.194C114.497 708.19 116.572 708.857 118.719 709.173C119.176 709.247 119.733 709.295 120.195 709.335C120.361 709.336 120.525 709.317 120.682 709.281C121.145 709.176 121.55 708.917 121.798 708.554C122.171 708.012 122.211 707.266 121.915 706.332L121.915 706.333Z" fill="#162852"/>
<path d="M113.915 711.635C113.608 711.922 113.306 712.046 113.044 712.046C112.93 712.046 112.824 712.023 112.729 711.979C112.662 711.957 112.546 711.907 112.579 711.886C112.485 711.83 112.398 711.771 112.32 711.703C112.16 711.564 112.009 711.387 111.868 711.179C111.594 710.754 111.335 710.233 111.133 709.658C110.927 709.086 110.769 708.465 110.644 707.83C110.511 707.198 110.388 706.551 110.308 705.902C110.27 705.579 110.228 705.253 110.223 704.963L110.215 704.678L110.209 704.47L110.194 703.947C110.153 703.271 110.164 702.598 110.15 701.932C110.146 700.598 110.204 699.282 110.341 698.007C110.425 697.372 110.493 696.741 110.62 696.133C110.738 695.524 110.924 694.945 111.11 694.398C111.297 693.852 111.544 693.342 111.827 692.975C111.962 692.788 112.094 692.622 112.219 692.511C112.286 692.459 112.32 692.414 112.404 692.377C112.493 692.334 112.575 692.312 112.662 692.289C112.747 692.273 112.84 692.259 112.94 692.259C113.04 692.259 113.138 692.272 113.247 692.311C113.473 692.378 113.706 692.536 113.944 692.727C114.42 693.118 114.85 693.689 115.237 694.298L115.454 694.248C115.283 693.536 115.014 692.857 114.603 692.245C114.202 691.644 113.575 691.105 112.805 691.015C112.714 691.006 112.622 691.001 112.53 691.001C112.245 691.001 111.958 691.049 111.69 691.158C111.339 691.301 111.03 691.519 110.758 691.767C110.211 692.266 109.805 692.886 109.471 693.53C108.808 694.827 108.441 696.245 108.212 697.668C107.987 699.094 107.908 700.54 107.947 701.978C107.975 702.808 108.02 703.633 108.1 704.457C108.158 705.063 108.236 705.669 108.344 706.274C108.613 707.688 108.989 709.09 109.603 710.404C109.912 711.058 110.288 711.692 110.793 712.229C111.302 712.744 111.932 713.225 112.734 713.225C112.737 713.225 112.739 713.225 112.741 713.225C113.52 713.224 114.21 712.703 114.575 712.065C114.959 711.427 115.138 710.707 115.254 709.997L115.035 709.959C114.705 710.611 114.352 711.235 113.915 711.635Z" fill="url(#paint1_linear_421_132)"/>
<path d="M117.04 695.126C117.05 695.895 119.13 695.039 119.642 695.984C119.787 696.253 119.758 696.397 119.76 696.584C119.78 699.427 114.624 702.096 112.093 703.632C111.752 703.814 111.398 704.012 111.036 704.217L111.05 704.694L111.057 704.95C111.06 705.174 111.094 705.444 111.127 705.729L111.135 705.796C111.164 706.026 111.198 706.255 111.235 706.478C111.308 706.912 111.39 707.32 111.462 707.663C111.465 707.681 111.469 707.698 111.473 707.716C111.84 707.541 112.199 707.368 112.55 707.195C113.092 706.927 113.617 706.659 114.124 706.383C116.523 705.076 118.539 703.57 120.31 700.931C125.874 692.642 117.033 694.635 117.04 695.126Z" fill="#162852"/>
<path d="M107.461 706.039C106.501 706.42 105.528 706.676 104.58 706.677C104.378 706.656 104.296 706.642 104.252 706.642C104.071 706.578 103.805 706.21 103.77 705.964C103.714 705.563 103.803 704.851 104.209 704.143C104.561 703.528 103.726 702.843 103.236 703.358C102.351 704.288 102.341 704.443 101.974 705.536C101.961 705.574 101.95 705.615 101.943 705.655C101.207 709.536 105.08 709.809 108.176 709.036C107.924 708.252 107.709 707.397 107.524 706.427C107.501 706.297 107.482 706.168 107.461 706.039Z" fill="#162852"/>
<path d="M106.468 694.442C106.769 694.219 107.191 694.285 107.41 694.592C107.63 694.899 107.564 695.329 107.264 695.553C106.963 695.777 106.541 695.71 106.321 695.404C106.102 695.097 106.167 694.666 106.468 694.442Z" fill="white" stroke="#1A3490" stroke-width="0.25" stroke-miterlimit="10"/>
<path d="M115.602 710.785C115.781 710.43 115.644 709.994 115.296 709.812C114.947 709.63 114.52 709.77 114.341 710.125C114.163 710.48 114.3 710.916 114.648 711.098C114.996 711.28 115.424 711.14 115.602 710.785Z" fill="white" stroke="#1A3490" stroke-width="0.25" stroke-miterlimit="10"/>
</g>
<circle cx="375" cy="706" r="18" fill="#F9E000"/>
<path fill-rule="evenodd" clip-rule="evenodd" d="M375 714C380.523 714 385 710.194 385 705.5C385 700.806 380.523 697 375 697C369.477 697 365 700.806 365 705.5C365 708.281 366.571 710.75 369 712.301V715.293C369 715.738 369.539 715.961 369.854 715.646L371.913 713.587C372.885 713.855 373.923 714 375 714Z" fill="#371C1D"/>
<rect x="36" y="61" width="106" height="42" rx="21" fill="#371C1D"/>
<path d="M63.7461 74.9375C63.7266 80.1035 62.1445 84.6836 55.7578 87.8281L54.7422 86.4414C57.9062 84.8887 59.791 83.0039 60.8262 80.7871L55.1133 81.3242L54.8398 79.7227L61.4023 79.2832C61.666 78.3848 61.8125 77.4375 61.8809 76.4414H55.7578V74.9375H63.7461ZM66.4219 90.6406V73.1602H68.2773V80.1523H70.9922V81.6758H68.2773V90.6406H66.4219ZM81.0312 74.9375C81.0117 80.1035 79.4297 84.6836 73.043 87.8281L72.0273 86.4414C75.1914 84.8887 77.0762 83.0039 78.1113 80.7871L72.3984 81.3242L72.125 79.7227L78.6875 79.2832C78.9512 78.3848 79.0977 77.4375 79.166 76.4414H73.043V74.9375H81.0312ZM83.707 90.6406V73.1602H85.5625V80.1523H88.2773V81.6758H85.5625V90.6406H83.707ZM97.1836 74.2148C100.924 74.2246 103.648 76.0703 103.648 78.8633C103.648 81.4805 101.363 83.2285 98.1016 83.4922V86.9297H105.23V88.4727H89.2148V86.9297H96.2656V83.4922C93.0234 83.2285 90.7285 81.4805 90.7383 78.8633C90.7285 76.0703 93.4629 74.2246 97.1836 74.2148ZM92.5352 78.8633C92.5352 80.8262 94.4883 82.0469 97.1836 82.0664C99.8984 82.0469 101.842 80.8262 101.852 78.8633C101.842 76.9688 99.8984 75.7188 97.1836 75.7383C94.4883 75.7188 92.5352 76.9688 92.5352 78.8633ZM122.457 82.5352V84.0195H106.461V82.5352H113.531V80.875H108.551V73.6094H120.504V75.0742H110.426V76.5H120.055V77.9062H110.426V79.4492H120.621V80.875H115.387V82.5352H122.457ZM108.277 86.9102V85.4258H120.426V90.6602H118.531V86.9102H108.277Z" fill="white"/>
<defs>
<radialGradient id="paint0_radial_421_132" cx="0" cy="0" r="1" gradientUnits="userSpaceOnUse" gradientTransform="translate(112.498 700.042) scale(2.18243 2.22516)">
<stop stop-color="#167EC2"/>
<stop offset="0.42" stop-color="#165187"/>
<stop offset="0.74" stop-color="#163360"/>
<stop offset="0.9" stop-color="#162852"/>
</radialGradient>
<linearGradient id="paint1_linear_421_132" x1="111.696" y1="696.428" x2="111.696" y2="722.672" gradientUnits="userSpaceOnUse">
<stop stop-color="#167EC2"/>
<stop offset="0.42" stop-color="#165187"/>
<stop offset="0.74" stop-color="#163360"/>
<stop offset="0.9" stop-color="#162852"/>
</linearGradient>
<clipPath id="clip0_421_132">
<rect width="60" height="60" fill="white" transform="translate(46 148)"/>
</clipPath>
<clipPath id="clip1_421_132">
<rect width="24" height="24" fill="white" transform="translate(133 166)"/>
</clipPath>
<clipPath id="clip2_421_132">
<rect width="24" height="24" fill="white" transform="translate(96 378)"/>
</clipPath>
<clipPath id="clip3_421_132">
<rect width="24" height="24" fill="white" transform="translate(96 622)"/>
</clipPath>
<clipPath id="clip4_421_132">
<rect width="24" height="31" fill="white" transform="translate(100 691)"/>
</clipPath>
</defs>
</svg>
