<svg width="188" height="48" viewBox="0 0 188 48" fill="none" xmlns="http://www.w3.org/2000/svg">
<path fill-rule="evenodd" clip-rule="evenodd" d="M18.5 0C8.28273 0 0 8.28273 0 18.5C0 28.7173 8.28273 37 18.5 37H32.2929C32.2921 37.1984 32.3515 37.4019 32.4838 37.5852L39.1891 46.8764C39.5882 47.4295 40.4117 47.4295 40.8109 46.8764L47.5162 37.5852C47.6485 37.4019 47.7079 37.1984 47.7071 37H169.5C179.717 37 188 28.7173 188 18.5C188 8.28273 179.717 0 169.5 0H18.5Z" fill="#2674FF"/>
<path d="M30.9766 19.6914V21.0801H24.543V26.4941H22.9082V21.0801H16.5625V19.6914H30.9766ZM18.127 14.8398C18.1357 12.6953 20.4033 11.3418 23.7344 11.3418C27.0654 11.3418 29.3506 12.6953 29.3418 14.8398C29.3506 16.958 27.0654 18.3027 23.7344 18.3027C20.4033 18.3027 18.1357 16.958 18.127 14.8398ZM19.8496 14.8398C19.8408 16.1494 21.3965 16.9668 23.7344 16.9668C26.0811 16.9668 27.6279 16.1494 27.6367 14.8398C27.6279 13.5127 26.0811 12.6865 23.7344 12.6777C21.3965 12.6865 19.8408 13.5127 19.8496 14.8398ZM45.1973 10.7617V20.0957H43.5273V10.7617H45.1973ZM32.9277 13.0293V11.6934H40.1699V16.123H34.5977V18.0215C37.3574 18.0215 39.3701 17.9424 41.7695 17.5469L41.9805 18.918C39.4053 19.3135 37.2607 19.4014 34.2812 19.3926H32.9629V14.8223H38.5176V13.0293H32.9277ZM34.8438 26.3008V20.8867H45.1973V26.3008H34.8438ZM36.4961 24.9473H43.5625V22.2227H36.4961V24.9473ZM59.9629 10.7441V16.8965H62.4941V18.3027H59.9629V26.5293H58.3105V10.7441H59.9629ZM48.3086 13.5215V12.168H55.5156V17.9512H49.9961V21.3613C52.6943 21.3525 54.707 21.2559 57.0098 20.834L57.168 22.1875C54.707 22.6445 52.5801 22.75 49.627 22.7676H48.3438V16.5977H53.8633V13.5215H48.3086ZM76.293 10.7441V26.5293H74.623V10.7441H76.293ZM63.7949 17.4414C63.7949 14.0752 65.4912 11.9307 67.873 11.9219C70.2109 11.9307 71.9336 14.0752 71.9336 17.4414C71.9336 20.8428 70.2109 22.9873 67.873 22.9785C65.4912 22.9873 63.7949 20.8428 63.7949 17.4414ZM65.4121 17.4414C65.4033 19.9463 66.4053 21.4844 67.873 21.4844C69.3145 21.4844 70.3164 19.9463 70.3164 17.4414C70.3164 14.9717 69.3145 13.4248 67.873 13.416C66.4053 13.4248 65.4033 14.9717 65.4121 17.4414ZM93.168 19.041V20.4121H78.8066V19.041H85.1523V17.5205C82.1992 17.3447 80.3447 16.1934 80.3535 14.3477C80.3447 12.3877 82.5508 11.1924 85.9785 11.1836C89.3887 11.1924 91.5947 12.3877 91.6035 14.3477C91.5947 16.1934 89.7402 17.3447 86.8047 17.5205V19.041H93.168ZM80.6172 26.1602V21.5898H82.3047V24.8066H91.5508V26.1602H80.6172ZM82.0762 14.3477C82.0674 15.5342 83.5615 16.1846 85.9785 16.1934C88.3867 16.1846 89.8896 15.5342 89.8809 14.3477C89.8896 13.2227 88.3867 12.5283 85.9785 12.5371C83.5615 12.5283 82.0674 13.2227 82.0762 14.3477ZM102.361 12.9766C102.361 15.543 105.095 17.9688 108.127 18.5137L107.354 19.9023C104.831 19.3574 102.52 17.7051 101.5 15.4902C100.463 17.6963 98.1514 19.3398 95.6289 19.9023L94.8906 18.5137C97.8789 17.9512 100.595 15.543 100.604 12.9766V11.7812H102.361V12.9766ZM94.3633 24.4199V23.0312H108.777V24.4199H94.3633ZM112.17 11.5703V13.5391H115.211V11.5703H116.758V18.2324H110.588V11.5703H112.17ZM112.17 16.9141H115.211V14.8047H112.17V16.9141ZM112.785 20.9043V19.6035H123.35V23.4883H114.49V25H123.895V26.3359H112.82V22.2578H121.697V20.9043H112.785ZM118.375 18.7949V11.043H119.922V14.1543H121.768V10.7617H123.35V18.9531H121.768V15.5078H119.922V18.7949H118.375ZM138.555 10.7441V26.5293H136.885V10.7441H138.555ZM126.355 13.5215V12.168H133.738V17.916H128.078V21.3613C130.636 21.3525 132.859 21.2295 135.496 20.7988L135.654 22.1699C132.868 22.6357 130.495 22.7412 127.709 22.75H126.373V16.5801H132.033V13.5215H126.355ZM145.973 25V23.5938L150.385 19.1465C151.782 17.6963 152.477 16.8877 152.477 15.7715C152.477 14.5146 151.457 13.7148 150.121 13.7148C148.706 13.7148 147.81 14.6113 147.801 15.9648H145.973C145.955 13.6357 147.73 12.0977 150.156 12.0977C152.608 12.0977 154.305 13.6533 154.322 15.7188C154.305 17.1426 153.637 18.2764 151.246 20.623L148.662 23.2422V23.3477H154.533V25H145.973ZM161.529 15.8066C161.529 18.2324 163.015 20.7988 165.361 21.9238L164.412 23.1895C162.698 22.3809 161.406 20.7373 160.738 18.8125C160.044 20.8955 158.673 22.6357 156.871 23.4707L155.939 22.1875C158.339 21.0889 159.886 18.3994 159.895 15.8066V14.7695H156.414V13.4336H159.877V11.0605H161.564V13.4336H164.992V14.7695H161.529V15.8066ZM166.732 26.4941V10.7441H168.402V17.0898H170.934V18.4961H168.402V26.4941H166.732Z" fill="white"/>
</svg>
