<svg width="228" height="48" viewBox="0 0 228 48" fill="none" xmlns="http://www.w3.org/2000/svg">
<path fill-rule="evenodd" clip-rule="evenodd" d="M18.5 0C8.28273 0 0 8.28273 0 18.5C0 28.7173 8.28273 37 18.5 37H32.2929C32.2921 37.1984 32.3515 37.4019 32.4838 37.5852L39.1891 46.8764C39.5882 47.4295 40.4117 47.4295 40.8109 46.8764L47.5162 37.5852C47.6485 37.4019 47.7079 37.1984 47.7071 37H209.5C219.717 37 228 28.7173 228 18.5C228 8.28273 219.717 0 209.5 0H18.5Z" fill="#2674FF"/>
<path d="M28.9551 10.7617V15.8242H31.2402V17.2129H28.9551V22.5391H27.2852V10.7617H28.9551ZM16.5977 13.9434V12.5898H20.4648V10.7441H22.1348V12.5898H25.9844V13.9434H16.5977ZM17.459 17.6699C17.4502 15.8682 19.0059 14.6904 21.291 14.6992C23.5498 14.6904 25.1055 15.8682 25.1055 17.6699C25.1055 19.4541 23.5498 20.6143 21.291 20.623C19.0059 20.6143 17.4502 19.4541 17.459 17.6699ZM18.9707 26.1602V21.6074H20.6406V24.8066H29.623V26.1602H18.9707ZM19.0762 17.6699C19.0586 18.6982 19.9551 19.3311 21.291 19.3223C22.627 19.3311 23.5234 18.6982 23.541 17.6699C23.5234 16.6328 22.627 15.9912 21.291 15.9824C19.9551 15.9912 19.0586 16.6328 19.0762 17.6699ZM44.7227 11.4824V12.6602C44.7314 13.8203 44.7314 15.209 44.3623 17.0371H46.5508V18.3906H40.1523V21.0801H44.793V26.4941H43.123V22.416H33.6133V21.0801H38.4824V18.3906H32.1367V17.0371H42.6836C43.0527 15.2705 43.0703 13.9609 43.0703 12.8359H33.9473V11.4824H44.7227ZM66.502 23.1191V24.4902H52.0879V23.1191H58.3984V19.375H60.0508V23.1191H66.502ZM52.5801 18.2852C55.6123 17.7754 58.3193 15.4375 58.3281 12.9414V11.7461H60.0859V12.9414C60.0859 15.4375 62.8281 17.7754 65.8691 18.2852L65.1484 19.6562C62.5908 19.1553 60.2529 17.5732 59.2158 15.4199C58.1787 17.5645 55.8584 19.1553 53.3184 19.6562L52.5801 18.2852ZM82.0586 23.1191V24.5254H67.6445V23.1191H82.0586ZM68.875 13.627V12.2559H80.7402V13.627H78.332V18.8828H80.6875V20.2188H68.9102V18.8828H71.2656V13.627H68.875ZM72.918 18.8828H76.6973V13.627H72.918V18.8828ZM95.9805 19.1289V20.4648H85.0117V12.0449H95.8223V13.3984H86.6992V15.5254H95.4883V16.8438H86.6992V19.1289H95.9805ZM83.2012 24.5078V23.1367H97.6152V24.5078H83.2012ZM102.748 11.7109C104.743 11.7109 106.202 12.915 106.211 14.6465C106.202 16.3867 104.743 17.582 102.748 17.5645C100.735 17.582 99.2676 16.3867 99.2852 14.6465C99.2676 12.915 100.735 11.7109 102.748 11.7109ZM98.5469 18.6719C100.7 18.6719 104.181 18.6543 106.738 18.25L106.861 19.498C105.798 19.709 104.629 19.8408 103.469 19.9199V25.2109H101.887V20.0078C100.718 20.0518 99.6279 20.0605 98.7402 20.0605L98.5469 18.6719ZM100.762 14.6465C100.771 15.6484 101.579 16.3252 102.748 16.334C103.908 16.3252 104.717 15.6484 104.717 14.6465C104.717 13.6533 103.908 12.959 102.748 12.9766C101.579 12.959 100.771 13.6533 100.762 14.6465ZM104.857 22.293V20.9922H107.67V11.0605H109.252V25.6855H107.67V22.293H104.857ZM110.729 26.4941V10.7441H112.311V26.4941H110.729ZM118.586 11.9219C120.73 11.9307 122.286 13.7412 122.541 16.6504H125.793V10.7441H127.445V26.5293H125.793V18.0039H122.559C122.374 21.0801 120.783 22.9873 118.586 22.9785C116.239 22.9873 114.578 20.8428 114.596 17.4414C114.578 14.0752 116.239 11.9307 118.586 11.9219ZM116.178 17.4414C116.187 19.9463 117.162 21.4844 118.586 21.4844C120.01 21.4844 120.985 19.9463 120.994 17.4414C120.985 14.9717 120.01 13.4248 118.586 13.416C117.162 13.4248 116.187 14.9717 116.178 17.4414ZM147.326 10.7617V22.2051H145.656V10.7617H147.326ZM134.582 15.7188C134.591 13.4424 136.401 11.8252 138.783 11.8164C141.156 11.8252 142.967 13.4424 142.967 15.7188C142.967 18.0303 141.156 19.6387 138.783 19.6387C136.401 19.6387 134.591 18.0303 134.582 15.7188ZM136.217 15.7188C136.208 17.2041 137.315 18.1797 138.783 18.1797C140.225 18.1797 141.332 17.2041 141.332 15.7188C141.332 14.2686 140.225 13.2754 138.783 13.2754C137.315 13.2754 136.208 14.2686 136.217 15.7188ZM137.025 26.1602V21.0449H138.713V24.8066H147.801V26.1602H137.025ZM163.428 10.7441V26.4941H161.828V18.4082H159.947V25.7207H158.365V11.043H159.947V17.002H161.828V10.7441H163.428ZM149.611 22.0469C151.914 20.7549 152.986 18.0391 152.986 14.9102V13.8906H150.033V12.5371H157.346V13.8906H154.604V14.9102C154.604 17.7402 155.667 20.3066 157.961 21.4844L156.977 22.7676C155.43 21.9238 154.393 20.4561 153.83 18.6455C153.294 20.7109 152.257 22.3633 150.648 23.3125L149.611 22.0469ZM178.861 10.7441V26.4941H177.262V18.3203H175.311V25.7383H173.746V11.166H175.311V16.9668H177.262V10.7441H178.861ZM165.326 21.9941C168.824 20.0078 170.292 17.3271 170.556 14.1191H165.994V12.748H172.182C172.173 16.8877 170.802 20.6143 166.293 23.1543L165.326 21.9941ZM183.186 11.4121V13.5566H187.316V11.4121H188.969V18.2852H181.551V11.4121H183.186ZM183.133 20.8516V19.5332H193.311V23.5059H184.803V25H193.855V26.3359H183.168V22.2754H191.658V20.8516H183.133ZM183.186 16.9492H187.316V14.8398H183.186V16.9492ZM191.641 18.8477V10.7441H193.311V14.0488H195.596V15.4023H193.311V18.8477H191.641ZM209.588 10.7617V22.6973H207.918V21.1855H204.754V20.0078H207.918V10.7617H209.588ZM196.422 17.9512C199.331 17.9248 203.26 17.8984 206.617 17.4766L206.723 18.6719C205.378 18.9004 203.963 19.041 202.574 19.1377V22.2051H200.904V19.2256C199.375 19.2871 197.907 19.2871 196.633 19.2871L196.422 17.9512ZM197.652 14.1367C197.644 12.4668 199.234 11.3594 201.572 11.3594C203.875 11.3594 205.475 12.4668 205.475 14.1367C205.475 15.8154 203.875 16.8789 201.572 16.8789C199.243 16.8789 197.644 15.8154 197.652 14.1367ZM198.602 26.1602V21.5371H200.254V24.8066H209.975V26.1602H198.602ZM199.234 14.1367C199.226 15.0684 200.175 15.6484 201.572 15.6484C202.917 15.6484 203.884 15.0684 203.893 14.1367C203.884 13.1963 202.917 12.5898 201.572 12.6074C200.175 12.5898 199.226 13.1963 199.234 14.1367Z" fill="white"/>
</svg>
