<svg width="177" height="48" viewBox="0 0 177 48" fill="none" xmlns="http://www.w3.org/2000/svg">
<path fill-rule="evenodd" clip-rule="evenodd" d="M18.5 0C8.28273 0 0 8.28273 0 18.5C0 28.7173 8.28273 37 18.5 37H32.2929C32.2921 37.1984 32.3515 37.4019 32.4838 37.5852L39.1891 46.8764C39.5882 47.4295 40.4117 47.4295 40.8109 46.8764L47.5162 37.5852C47.6485 37.4019 47.7079 37.1984 47.7071 37H158.5C168.717 37 177 28.7173 177 18.5C177 8.28273 168.717 0 158.5 0H18.5Z" fill="#2674FF"/>
<path d="M20.7988 11.9219C23.1543 11.9307 24.833 14.0752 24.8418 17.4414C24.833 20.8428 23.1543 22.9873 20.7988 22.9785C18.4434 22.9873 16.7646 20.8428 16.7734 17.4414C16.7646 14.0752 18.4434 11.9307 20.7988 11.9219ZM18.373 17.4414C18.3643 19.9463 19.3662 21.4844 20.7988 21.4844C22.2578 21.4844 23.2422 19.9463 23.2422 17.4414C23.2422 14.9717 22.2578 13.4248 20.7988 13.416C19.3662 13.4248 18.3643 14.9717 18.373 17.4414ZM27.1797 26.4941V10.7441H28.8496V16.9141H31.3809V18.3203H28.8496V26.4941H27.1797ZM37.9199 14.752C37.9023 17.626 39.6426 20.5264 42.0859 21.6074L41.084 22.9258C39.2734 22.0645 37.8408 20.2979 37.1025 18.1445C36.373 20.4561 34.9229 22.3545 33.0332 23.2773L32.0137 21.8711C34.4922 20.7725 36.2324 17.7578 36.2324 14.752V12.0625H37.9199V14.752ZM43.5098 26.5293V10.7441H45.1797V26.5293H43.5098ZM51.9121 11.9219C54.2676 11.9307 55.9463 14.0752 55.9551 17.4414C55.9463 20.8428 54.2676 22.9873 51.9121 22.9785C49.5566 22.9873 47.8779 20.8428 47.8867 17.4414C47.8779 14.0752 49.5566 11.9307 51.9121 11.9219ZM49.4863 17.4414C49.4775 19.9463 50.4795 21.4844 51.9121 21.4844C53.3711 21.4844 54.3555 19.9463 54.3555 17.4414C54.3555 14.9717 53.3711 13.4248 51.9121 13.416C50.4795 13.4248 49.4775 14.9717 49.4863 17.4414ZM58.293 26.4941V10.7441H59.9629V16.9141H62.4941V18.3203H59.9629V26.4941H58.293ZM76.3809 10.7617V20.0781H74.7109V18.1621H70.7383V16.791H74.7109V14.875H70.9053C69.8857 17.4062 67.5215 19.1904 64.1113 20.166L63.4434 18.8652C67.1699 17.8018 69.3496 15.7979 69.6484 13.2578H64.252V11.8867H71.459C71.459 12.4668 71.3975 13.0293 71.292 13.5566H74.7109V10.7617H76.3809ZM65.8867 23.3301C65.8867 21.4229 67.9609 20.2627 71.1953 20.2539C74.3857 20.2627 76.4775 21.4229 76.4863 23.3301C76.4775 25.2461 74.3857 26.4238 71.1953 26.4238C67.9609 26.4238 65.8867 25.2461 65.8867 23.3301ZM67.5391 23.3301C67.5391 24.4375 68.9453 25.0791 71.1953 25.0879C73.4014 25.0791 74.8076 24.4375 74.8164 23.3301C74.8076 22.2051 73.4014 21.5635 71.1953 21.5723C68.9453 21.5635 67.5391 22.2051 67.5391 23.3301ZM92.3242 10.7441V26.4941H90.7246V10.7441H92.3242ZM78.5781 22.1523C80.8105 20.8076 81.9443 17.9424 81.9531 15.1387V13.873H79.0527V12.5195H86.2598V13.873H83.5527V15.1387C83.5527 17.8281 84.6426 20.5264 86.8574 21.8008L85.8555 23.0312C84.3525 22.1348 83.3242 20.5264 82.7705 18.6279C82.208 20.6846 81.1357 22.4424 79.5977 23.4004L78.5781 22.1523ZM85.0996 17.6875V16.3164H87.543V11.0781H89.125V25.7031H87.543V17.6875H85.0996ZM111.555 12.2559V13.9434C111.537 15.9209 111.537 17.9951 110.975 21.0098L109.34 20.834C109.894 17.9863 109.894 15.877 109.885 13.9434V13.6094H100.234V12.2559H111.555ZM98.7578 24.3672V22.9785H102.15V17.8809H103.82V22.9785H106.088V17.8809H107.723V22.9785H113.119V24.3672H98.7578ZM128.676 18.25V19.6035H124.967V21.4316H126.918V26.4941H125.23V22.75H115.914V21.4316H117.988V19.6035H114.314V18.25H128.676ZM115.861 14.1367C115.853 12.2295 118.041 11.0869 121.486 11.0957C124.923 11.0869 127.103 12.2295 127.111 14.1367C127.103 16.0352 124.923 17.1865 121.486 17.1777C118.041 17.1865 115.853 16.0352 115.861 14.1367ZM117.584 14.1367C117.575 15.2354 119.061 15.877 121.486 15.877C123.895 15.877 125.397 15.2354 125.389 14.1367C125.397 13.0469 123.895 12.4053 121.486 12.4141C119.061 12.4053 117.575 13.0469 117.584 14.1367ZM119.658 21.4316H123.332V19.6035H119.658V21.4316ZM143.301 10.7441V22.5566H141.719V10.7441H143.301ZM129.836 19.0762C131.91 18.0918 133.026 15.9473 133.018 14.084V11.834H134.635V14.084C134.635 15.9297 135.663 17.793 137.676 18.6719L136.744 19.9551C135.347 19.3135 134.38 18.1885 133.853 16.8262C133.281 18.3379 132.244 19.6562 130.768 20.3594L129.836 19.0762ZM132.859 26.1602V21.1152H134.512V24.8066H143.758V26.1602H132.859ZM136.27 15.9824V14.6113H138.572V11.0254H140.172V22.0996H138.572V15.9824H136.27ZM158.559 10.7441V26.5293H156.906V17.9336H153.777V16.5625H156.906V10.7441H158.559ZM146.148 22.8027V12.1504H153.514V13.5039H147.836V16.5625H152.846V17.8984H147.836V21.4141C150.473 21.4141 152.301 21.335 154.393 20.9746L154.568 22.3281C152.274 22.6973 150.297 22.7939 147.379 22.8027H146.148Z" fill="white"/>
</svg>
