<svg width="167" height="40" viewBox="0 0 167 40" fill="none" xmlns="http://www.w3.org/2000/svg">
<rect width="166.444" height="40" rx="20" fill="#F9E000"/>
<path d="M31.2222 9C24.4718 9 19 13.2369 19 18.4664C19 21.869 21.3171 24.8512 24.7972 26.5197C24.5411 27.4535 23.8718 29.9065 23.738 30.4311C23.5718 31.0822 23.9803 31.0732 24.2503 30.8991C24.4603 30.7612 27.5989 28.6698 28.9536 27.7677C29.6898 27.874 30.4468 27.9305 31.2222 27.9305C37.9726 27.9305 43.4444 23.6936 43.4444 18.4664C43.4444 13.2392 37.9726 9 31.2222 9Z" fill="#371C1D"/>
<path d="M22.6405 16.7215H23.8798C23.8798 16.7215 23.8866 20.1061 23.8798 20.8951C23.8798 21.4717 25.169 21.4784 25.1667 20.9042L25.1713 16.7667C25.1713 16.7667 25.5874 16.769 26.4037 16.769C27.1745 16.769 27.1745 15.5639 26.4037 15.5639C25.5351 15.5639 22.6337 15.5391 22.6337 15.5391C21.9061 15.5391 21.9084 16.7215 22.6337 16.7215" fill="#F9E000"/>
<mask id="mask0_475_1131" style="mask-type:luminance" maskUnits="userSpaceOnUse" x="22" y="15" width="5" height="7">
<path d="M22.6405 16.7215H23.8798C23.8798 16.7215 23.8866 20.1061 23.8798 20.8951C23.8798 21.4717 25.169 21.4784 25.1667 20.9042L25.1713 16.7667C25.1713 16.7667 25.5874 16.769 26.4037 16.769C27.1745 16.769 27.1745 15.5639 26.4037 15.5639C25.5351 15.5639 22.6337 15.5391 22.6337 15.5391C21.9061 15.5391 21.9084 16.7215 22.6337 16.7215" fill="white"/>
</mask>
<g mask="url(#mask0_475_1131)">
<path d="M27.1772 15.541H21.9111V21.4804H27.1772V15.541Z" fill="#F9E000"/>
</g>
<path d="M28.573 16.9413L29.2619 19.0892H27.8249L28.573 16.9413ZM27.7999 15.9352C27.4952 16.6022 26.3924 19.7562 26.0286 20.5927C25.7648 21.1964 26.904 21.6892 27.1678 21.0856L27.4156 20.2242H29.6826C29.6826 20.2242 29.6053 20.2603 29.9054 21.0494C30.1487 21.6892 31.3265 21.2461 31.0833 20.6063C30.7354 19.6929 29.5302 16.401 29.3097 15.9352C29.2096 15.7205 28.8458 15.5645 28.4934 15.5645C28.2024 15.5645 27.9181 15.6707 27.7976 15.9352" fill="#F9E000"/>
<mask id="mask1_475_1131" style="mask-type:luminance" maskUnits="userSpaceOnUse" x="25" y="15" width="7" height="7">
<path d="M28.573 16.9413L29.2619 19.0892H27.8249L28.573 16.9413ZM27.7999 15.9352C27.4952 16.6022 26.3924 19.7562 26.0286 20.5927C25.7648 21.1964 26.904 21.6892 27.1678 21.0856L27.4156 20.2242H29.6826C29.6826 20.2242 29.6053 20.2603 29.9054 21.0494C30.1487 21.6892 31.3265 21.2461 31.0833 20.6063C30.7354 19.6929 29.5302 16.401 29.3097 15.9352C29.2096 15.7205 28.8458 15.5645 28.4934 15.5645C28.2024 15.5645 27.9181 15.6707 27.7976 15.9352" fill="white"/>
</mask>
<g mask="url(#mask1_475_1131)">
<path d="M31.329 15.5664H25.7627V21.6934H31.329V15.5664Z" fill="#F9E000"/>
</g>
<path d="M31.5195 16.1319C31.5195 17.2036 31.5264 20.6583 31.5264 20.6583C31.5264 20.6583 31.4263 21.3456 32.0198 21.3456C32.6132 21.3456 33.9252 21.3388 34.5073 21.3388C35.0894 21.3388 35.0871 20.1066 34.505 20.1066C33.9229 20.1066 32.8588 20.0998 32.8588 20.0998C32.8588 20.0998 32.8634 16.9052 32.8611 16.1274C32.8611 15.7521 32.5246 15.5645 32.1903 15.5645C31.8561 15.5645 31.5173 15.7544 31.5195 16.1297" fill="#F9E000"/>
<mask id="mask2_475_1131" style="mask-type:luminance" maskUnits="userSpaceOnUse" x="31" y="15" width="4" height="7">
<path d="M31.5195 16.1319C31.5195 17.2036 31.5264 20.6583 31.5264 20.6583C31.5264 20.6583 31.4263 21.3456 32.0198 21.3456C32.6132 21.3456 33.9252 21.3388 34.5073 21.3388C35.0894 21.3388 35.0871 20.1066 34.505 20.1066C33.9229 20.1066 32.8588 20.0998 32.8588 20.0998C32.8588 20.0998 32.8634 16.9052 32.8611 16.1274C32.8611 15.7521 32.5246 15.5645 32.1903 15.5645C31.8561 15.5645 31.5173 15.7544 31.5195 16.1297" fill="white"/>
</mask>
<g mask="url(#mask2_475_1131)">
<path d="M35.0898 15.5664H31.4268V21.3453H35.0898V15.5664Z" fill="#F9E000"/>
</g>
<path d="M35.2444 15.9618C35.2581 16.432 35.2285 20.6825 35.2285 20.9968C35.2285 21.4942 36.5018 21.4919 36.5018 20.9968C36.5018 20.4203 36.5018 19.3237 36.5018 19.3237L36.8747 19.0253L38.5096 21.241C38.8393 21.675 39.8784 20.8905 39.5487 20.4587L37.8138 18.1865C37.8138 18.1865 38.9917 16.9204 39.4555 16.4614C39.7261 16.1946 38.8871 15.3536 38.6165 15.6226C38.355 15.8804 36.5087 17.7185 36.5087 17.7185C36.5087 17.7185 36.5246 16.5654 36.5087 15.9278C36.5018 15.6859 36.204 15.5684 35.897 15.5684C35.5696 15.5684 35.2353 15.7018 35.2422 15.9618" fill="#F9E000"/>
<mask id="mask3_475_1131" style="mask-type:luminance" maskUnits="userSpaceOnUse" x="35" y="15" width="5" height="7">
<path d="M35.2444 15.9618C35.2581 16.432 35.2285 20.6825 35.2285 20.9968C35.2285 21.4942 36.5018 21.4919 36.5018 20.9968C36.5018 20.4203 36.5018 19.3237 36.5018 19.3237L36.8747 19.0253L38.5096 21.241C38.8393 21.675 39.8784 20.8905 39.5487 20.4587L37.8138 18.1865C37.8138 18.1865 38.9917 16.9204 39.4555 16.4614C39.7261 16.1946 38.8871 15.3536 38.6165 15.6226C38.355 15.8804 36.5087 17.7185 36.5087 17.7185C36.5087 17.7185 36.5246 16.5654 36.5087 15.9278C36.5018 15.6859 36.204 15.5684 35.897 15.5684C35.5696 15.5684 35.2353 15.7018 35.2422 15.9618" fill="white"/>
</mask>
<g mask="url(#mask3_475_1131)">
<path d="M39.8784 15.3555H35.2285V21.6769H39.8784V15.3555Z" fill="#F9E000"/>
</g>
<path d="M58.4277 13.7383C58.4189 18.5371 57.1094 22.6592 51.2559 25.5684L50.1836 24.0918C52.9346 22.7383 54.5781 21.1475 55.501 19.2666L50.5527 19.7324L50.3066 18.0449L56.0898 17.6846C56.292 16.9375 56.4238 16.1553 56.4854 15.3203H51.1328V13.7383H58.4277ZM60.6602 28.0293V12.1738H62.6113V18.3965H64.9668V19.9961H62.6113V28.0293H60.6602ZM73.9844 13.7383C73.9756 18.5371 72.666 22.6592 66.8125 25.5684L65.7402 24.0918C68.4912 22.7383 70.1348 21.1475 71.0576 19.2666L66.1094 19.7324L65.8633 18.0449L71.6465 17.6846C71.8486 16.9375 71.9805 16.1553 72.042 15.3203H66.6895V13.7383H73.9844ZM76.2168 28.0293V12.1738H78.168V18.3965H80.5234V19.9961H78.168V28.0293H76.2168ZM88.5039 13.0703C91.9141 13.0791 94.4365 14.7754 94.4277 17.3594C94.4365 19.7412 92.3887 21.332 89.4707 21.6221V24.5312H95.7988V26.1309H81.2793V24.5312H87.5371V21.6221C84.6543 21.332 82.6064 19.7412 82.6152 17.3594C82.6064 14.7754 85.1201 13.0791 88.5039 13.0703ZM84.5312 17.3594C84.5225 19.0732 86.1836 20.1016 88.5039 20.1016C90.8594 20.1016 92.5117 19.0732 92.5117 17.3594C92.5117 15.6982 90.8594 14.6436 88.5039 14.6523C86.1836 14.6436 84.5225 15.6982 84.5312 17.3594ZM111.32 20.6465V22.1934H96.8008V20.6465H103.076V19.3105H98.6641V12.5605H109.58V14.0898H100.615V15.1797H109.193V16.6387H100.615V17.8164H109.703V19.3105H105.027V20.6465H111.32ZM98.4355 24.8652V23.3184H109.492V28.0645H107.523V24.8652H98.4355ZM122.289 14.7051C122.289 16.7002 123.581 18.5898 126.033 19.3633L124.979 20.8926C123.265 20.3125 122.034 19.1523 121.34 17.6758C120.654 19.3633 119.371 20.6904 117.543 21.332L116.488 19.8027C119.046 18.915 120.329 16.7969 120.338 14.5293V13.0176H122.289V14.7051ZM118.65 25.0234C118.65 23.1426 120.716 22.0264 124.029 22.0352C127.316 22.0264 129.347 23.1426 129.355 25.0234C129.347 26.9482 127.316 28.0469 124.029 28.0469C120.716 28.0469 118.65 26.9482 118.65 25.0234ZM120.602 25.0234C120.602 26.0078 121.85 26.5 124.029 26.5C126.2 26.5 127.422 26.0078 127.422 25.0234C127.422 24.0918 126.2 23.5645 124.029 23.5645C121.85 23.5645 120.602 24.0918 120.602 25.0234ZM127.246 21.6836V12.1738H129.197V16.041H131.412V17.6582H129.197V21.6836H127.246ZM144.754 12.1738V15.8652H146.969V17.4824H144.754V21.1211H142.803V12.1738H144.754ZM132.889 20.418V13.1934H139.955V14.7754H134.822V18.8359C137.811 18.8271 139.472 18.7217 141.361 18.3438L141.572 19.8906C139.489 20.3477 137.644 20.418 134.172 20.418H132.889ZM134.488 27.8535V21.8418H144.754V27.8535H134.488ZM136.422 26.3066H142.82V23.4062H136.422V26.3066Z" fill="#371C1D"/>
</svg>
