<svg width="1260" height="526" viewBox="0 0 1260 526" fill="none" xmlns="http://www.w3.org/2000/svg">
<rect x="462" width="336" height="70" rx="8" fill="#0A3177"/>
<path d="M611.211 26.082V43.7383H609.141V34.7344H607.148V42.8398H605.156V26.4141H607.148V32.9961H609.141V26.082H611.211ZM596.562 39.6172V28.1719H603.164V29.9297H598.75V37.7812C600.664 37.7617 602.246 37.6641 604.043 37.332L604.199 39.1094C602.061 39.5391 600.215 39.5977 597.754 39.6172H596.562ZM629.434 39.9492V41.707H613.301V39.9492H617.48V36.3164H614.688V34.5586H617.168V29.3242H614.629V27.5859H628.027V29.3242H625.449V34.5586H627.969V36.3164H625.176V39.9492H629.434ZM619.336 34.5586H623.301V29.3242H619.336V34.5586ZM619.648 39.9492H623.008V36.3164H619.648V39.9492ZM645.273 26.082V43.7578H643.086V26.082H645.273ZM631.152 33.6016C631.143 29.793 633.086 27.3711 635.762 27.3711C638.408 27.3711 640.361 29.793 640.371 33.6016C640.361 37.4395 638.408 39.8516 635.762 39.8516C633.086 39.8516 631.143 37.4395 631.152 33.6016ZM633.242 33.6016C633.242 36.3164 634.268 37.8887 635.762 37.8984C637.246 37.8887 638.262 36.3164 638.262 33.6016C638.262 30.9062 637.246 29.3242 635.762 29.3242C634.268 29.3242 633.242 30.9062 633.242 33.6016ZM654.18 30.3203C654.16 33.4746 655.742 36.6582 658.477 37.9766L657.148 39.7148C655.234 38.748 653.857 36.8828 653.105 34.6367C652.334 37.0391 650.889 39.0312 648.867 40.0469L647.539 38.3086C650.381 36.9609 652.002 33.582 652.012 30.3203V27.5078H654.18V30.3203ZM659.531 43.7383V26.082H661.699V32.9961H664.414V34.8516H661.699V43.7383H659.531Z" fill="white"/>
<g filter="url(#filter0_d_475_224)">
<rect x="30" y="227" width="180" height="45" rx="8" fill="white"/>
<path d="M117.979 241.814V253.24H116.607V241.814H117.979ZM105.445 246.736C105.437 244.486 107.203 242.913 109.541 242.904C111.879 242.913 113.628 244.486 113.637 246.736C113.628 249.013 111.879 250.595 109.541 250.586C107.203 250.595 105.437 249.013 105.445 246.736ZM106.799 246.736C106.781 248.292 107.959 249.373 109.541 249.373C111.097 249.373 112.283 248.292 112.283 246.736C112.283 245.207 111.097 244.117 109.541 244.117C107.959 244.117 106.781 245.207 106.799 246.736ZM107.889 257.09V252.08H109.26V255.93H118.471V257.09H107.889ZM125.871 245.998C125.871 248.749 127.69 251.588 129.914 252.678L129.07 253.785C127.348 252.889 125.906 251.034 125.212 248.863C124.518 251.166 123.041 253.144 121.283 254.084L120.404 252.977C122.689 251.852 124.5 248.854 124.518 245.998V243.15H125.871V245.998ZM131.355 257.424V241.797H132.727V248.143H135.346V249.338H132.727V257.424H131.355Z" fill="#3B424F"/>
</g>
<g filter="url(#filter1_d_475_224)">
<rect x="438" y="227" width="180" height="45" rx="8" fill="white"/>
<path d="M483.765 251.676C487.113 251.676 489.24 252.73 489.249 254.541C489.24 256.334 487.113 257.389 483.765 257.389C480.416 257.389 478.289 256.334 478.298 254.541C478.289 252.73 480.416 251.676 483.765 251.676ZM476.716 250.217V249.092H482.604V246.068H483.958V249.092H490.937V250.217H476.716ZM478.403 243.73V242.605H489.126V243.924C489.117 245.189 489.117 246.455 488.687 248.072L487.333 247.914C487.755 246.306 487.755 245.146 487.755 243.924V243.73H478.403ZM479.669 254.541C479.66 255.631 481.277 256.299 483.765 256.299C486.261 256.299 487.86 255.631 487.878 254.541C487.86 253.425 486.261 252.739 483.765 252.73C481.277 252.739 479.66 253.425 479.669 254.541ZM499.321 251.676C502.67 251.676 504.797 252.73 504.806 254.541C504.797 256.334 502.67 257.389 499.321 257.389C495.973 257.389 493.846 256.334 493.854 254.541C493.846 252.73 495.973 251.676 499.321 251.676ZM492.272 250.217V249.092H498.161V246.068H499.515V249.092H506.493V250.217H492.272ZM493.96 243.73V242.605H504.683V243.924C504.674 245.189 504.674 246.455 504.243 248.072L502.89 247.914C503.312 246.306 503.312 245.146 503.312 243.924V243.73H493.96ZM495.226 254.541C495.217 255.631 496.834 256.299 499.321 256.299C501.817 256.299 503.417 255.631 503.435 254.541C503.417 253.425 501.817 252.739 499.321 252.73C496.834 252.739 495.217 253.425 495.226 254.541ZM512.927 242.676L508.813 257.916H507.442L511.538 242.676H512.927ZM528.114 250.709V251.852H524.335V257.424H522.946V251.852H518.938V257.424H517.515V251.852H513.806V250.709H528.114ZM515.423 245.84C515.432 243.757 517.638 242.438 520.925 242.43C524.203 242.438 526.427 243.757 526.427 245.84C526.427 247.923 524.203 249.224 520.925 249.215C517.638 249.224 515.432 247.923 515.423 245.84ZM516.847 245.84C516.829 247.22 518.49 248.107 520.925 248.107C523.359 248.107 525.012 247.22 525.021 245.84C525.012 244.451 523.359 243.555 520.925 243.555C518.49 243.555 516.829 244.451 516.847 245.84ZM543.618 250.094V251.219H529.362V250.094H535.796V248.547H531.261V242.254H541.843V243.379H532.649V244.838H541.421V245.893H532.649V247.439H541.931V248.547H537.167V250.094H543.618ZM531.103 254.893C531.094 253.267 533.036 252.379 536.499 252.396C539.927 252.379 541.86 253.267 541.878 254.893C541.86 256.536 539.927 257.389 536.499 257.389C533.036 257.389 531.094 256.536 531.103 254.893ZM532.491 254.893C532.474 255.842 533.915 256.334 536.499 256.316C539.057 256.334 540.48 255.842 540.489 254.893C540.48 253.961 539.057 253.442 536.499 253.434C533.915 253.442 532.474 253.961 532.491 254.893ZM563.745 251.078V252.203H557.224V257.424H555.87V252.203H549.437V251.078H563.745ZM551.265 249.18V242.447H552.636V244.609H560.511V242.447H561.899V249.18H551.265ZM552.636 248.055H560.511V245.734H552.636V248.055ZM579.302 249.795V250.938H572.938V254.137H571.567V250.938H564.993V249.795H579.302ZM566.821 257.09V252.59H568.21V255.93H577.702V257.09H566.821ZM566.856 248.002V242.57H577.438V248.002H566.856ZM568.21 246.895H576.067V243.66H568.21V246.895Z" fill="#3B424F"/>
</g>
<g filter="url(#filter2_d_475_224)">
<rect x="642" y="227" width="180" height="45" rx="8" fill="white"/>
<path d="M691.939 251.676C695.288 251.676 697.415 252.73 697.424 254.541C697.415 256.334 695.288 257.389 691.939 257.389C688.591 257.389 686.464 256.334 686.473 254.541C686.464 252.73 688.591 251.676 691.939 251.676ZM684.891 250.217V249.092H690.779V246.068H692.133V249.092H699.111V250.217H684.891ZM686.578 243.73V242.605H697.301V243.924C697.292 245.189 697.292 246.455 696.861 248.072L695.508 247.914C695.93 246.306 695.93 245.146 695.93 243.924V243.73H686.578ZM687.844 254.541C687.835 255.631 689.452 256.299 691.939 256.299C694.436 256.299 696.035 255.631 696.053 254.541C696.035 253.425 694.436 252.739 691.939 252.73C689.452 252.739 687.835 253.425 687.844 254.541ZM707.496 251.676C710.845 251.676 712.972 252.73 712.98 254.541C712.972 256.334 710.845 257.389 707.496 257.389C704.147 257.389 702.021 256.334 702.029 254.541C702.021 252.73 704.147 251.676 707.496 251.676ZM700.447 250.217V249.092H706.336V246.068H707.689V249.092H714.668V250.217H700.447ZM702.135 243.73V242.605H712.857V243.924C712.849 245.189 712.849 246.455 712.418 248.072L711.064 247.914C711.486 246.306 711.486 245.146 711.486 243.924V243.73H702.135ZM703.4 254.541C703.392 255.631 705.009 256.299 707.496 256.299C709.992 256.299 711.592 255.631 711.609 254.541C711.592 253.425 709.992 252.739 707.496 252.73C705.009 252.739 703.392 253.425 703.4 254.541ZM721.471 251.148C721.488 247.835 722.385 245.075 724.002 242.729H725.338C724.151 244.46 723.044 248.02 723.035 251.148C723.044 254.286 724.151 257.837 725.338 259.586H724.002C722.385 257.23 721.488 254.471 721.471 251.148ZM734.355 246.473C734.224 245.225 733.063 244.504 731.543 244.504C729.855 244.504 728.757 245.383 728.748 246.596C728.757 247.932 730.242 248.433 731.209 248.67L732.475 249.021C733.837 249.373 736.078 250.155 736.078 252.537C736.078 254.611 734.408 256.22 731.455 256.229C728.713 256.22 727.017 254.805 726.867 252.695H728.484C728.616 254.119 729.943 254.796 731.455 254.787C733.213 254.796 734.531 253.891 734.531 252.502C734.531 251.263 733.354 250.788 732.018 250.41L730.453 249.988C728.458 249.408 727.21 248.389 727.219 246.666C727.21 244.513 729.126 243.098 731.596 243.098C734.065 243.098 735.841 244.539 735.902 246.473H734.355ZM739.928 243.273V256H738.346V243.273H739.928ZM747.082 242.676L742.969 257.916H741.598L745.693 242.676H747.082ZM755.695 246.473C755.563 245.225 754.403 244.504 752.883 244.504C751.195 244.504 750.097 245.383 750.088 246.596C750.097 247.932 751.582 248.433 752.549 248.67L753.814 249.021C755.177 249.373 757.418 250.155 757.418 252.537C757.418 254.611 755.748 256.22 752.795 256.229C750.053 256.22 748.356 254.805 748.207 252.695H749.824C749.956 254.119 751.283 254.796 752.795 254.787C754.553 254.796 755.871 253.891 755.871 252.502C755.871 251.263 754.693 250.788 753.357 250.41L751.793 249.988C749.798 249.408 748.55 248.389 748.559 246.666C748.55 244.513 750.466 243.098 752.936 243.098C755.405 243.098 757.181 244.539 757.242 246.473H755.695ZM759.686 243.273H761.584L765.873 253.75H766.031L770.32 243.273H772.219V256H770.725V246.385H770.602L766.646 256H765.24L761.285 246.385H761.18V256H759.686V243.273ZM778.16 251.148C778.143 254.471 777.246 257.23 775.629 259.586H774.293C775.479 257.837 776.587 254.286 776.596 251.148C776.587 248.02 775.479 244.46 774.293 242.729H775.629C777.246 245.075 778.143 247.835 778.16 251.148Z" fill="#3B424F"/>
</g>
<g filter="url(#filter3_d_475_224)">
<rect x="846" y="227" width="180" height="45" rx="8" fill="white"/>
<path d="M875.487 242.377C877.825 242.386 879.521 243.81 879.53 245.84C879.521 247.879 877.825 249.285 875.487 249.285C873.123 249.285 871.418 247.879 871.427 245.84C871.418 243.81 873.123 242.386 875.487 242.377ZM872.78 245.84C872.763 247.211 873.914 248.16 875.487 248.16C877.034 248.16 878.194 247.211 878.194 245.84C878.194 244.486 877.034 243.528 875.487 243.537C873.914 243.528 872.763 244.486 872.78 245.84ZM873.8 251.693V250.586H883.96V254.348H875.188V256.105H884.522V257.213H873.835V253.311H882.589V251.693H873.8ZM882.589 249.83V241.797H883.96V249.83H882.589ZM889.884 242.43V244.416H897.618V242.43H898.989V248.67H894.419V250.34H900.853V251.482H886.614V250.34H893.048V248.67H888.513V242.43H889.884ZM888.46 257.09V252.73H889.849V255.93H899.271V257.09H888.46ZM889.884 247.562H897.618V245.506H889.884V247.562ZM919.644 241.814V253.732H918.255V250.375H915.548V249.25H918.255V247.123H915.548V245.98H918.255V241.814H919.644ZM906.706 244.855V243.73H910.503V241.797H911.874V243.73H915.548V244.855H906.706ZM907.638 248.705C907.62 246.912 909.079 245.717 911.171 245.717C913.263 245.717 914.73 246.912 914.739 248.705C914.73 250.48 913.263 251.685 911.171 251.693C909.079 251.685 907.62 250.48 907.638 248.705ZM908.921 248.705C908.912 249.83 909.835 250.595 911.171 250.586C912.507 250.595 913.43 249.83 913.438 248.705C913.43 247.58 912.507 246.824 911.171 246.807C909.835 246.824 908.912 247.58 908.921 248.705ZM909.536 257.09V252.678H910.925V255.93H919.995V257.09H909.536ZM927.835 246.596C927.844 249.25 929.769 251.948 932.071 252.941L931.298 254.031C929.47 253.205 927.896 251.403 927.167 249.241C926.438 251.535 924.855 253.521 923.071 254.418L922.245 253.328C924.486 252.256 926.438 249.303 926.446 246.596V244.557H922.755V243.414H931.562V244.557H927.835V246.596ZM933.741 257.424V241.797H935.13V257.424H933.741ZM943.286 251.148C943.304 247.835 944.2 245.075 945.817 242.729H947.153C945.967 244.46 944.859 248.02 944.851 251.148C944.859 254.286 945.967 257.837 947.153 259.586H945.817C944.2 257.23 943.304 254.471 943.286 251.148ZM956.171 246.473C956.039 245.225 954.879 244.504 953.358 244.504C951.671 244.504 950.572 245.383 950.563 246.596C950.572 247.932 952.058 248.433 953.024 248.67L954.29 249.021C955.652 249.373 957.894 250.155 957.894 252.537C957.894 254.611 956.224 256.22 953.271 256.229C950.528 256.22 948.832 254.805 948.683 252.695H950.3C950.432 254.119 951.759 254.796 953.271 254.787C955.028 254.796 956.347 253.891 956.347 252.502C956.347 251.263 955.169 250.788 953.833 250.41L952.269 249.988C950.273 249.408 949.025 248.389 949.034 246.666C949.025 244.513 950.941 243.098 953.411 243.098C955.881 243.098 957.656 244.539 957.718 246.473H956.171ZM961.743 243.273V256H960.161V243.273H961.743ZM968.897 242.676L964.784 257.916H963.413L967.509 242.676H968.897ZM977.511 246.473C977.379 245.225 976.219 244.504 974.698 244.504C973.011 244.504 971.912 245.383 971.903 246.596C971.912 247.932 973.397 248.433 974.364 248.67L975.63 249.021C976.992 249.373 979.233 250.155 979.233 252.537C979.233 254.611 977.563 256.22 974.61 256.229C971.868 256.22 970.172 254.805 970.022 252.695H971.64C971.771 254.119 973.099 254.796 974.61 254.787C976.368 254.796 977.687 253.891 977.687 252.502C977.687 251.263 976.509 250.788 975.173 250.41L973.608 249.988C971.613 249.408 970.365 248.389 970.374 246.666C970.365 244.513 972.281 243.098 974.751 243.098C977.221 243.098 978.996 244.539 979.058 246.473H977.511ZM981.501 243.273H983.399L987.688 253.75H987.847L992.136 243.273H994.034V256H992.54V246.385H992.417L988.462 256H987.056L983.101 246.385H982.995V256H981.501V243.273ZM999.976 251.148C999.958 254.471 999.062 257.23 997.444 259.586H996.108C997.295 257.837 998.402 254.286 998.411 251.148C998.402 248.02 997.295 244.46 996.108 242.729H997.444C999.062 245.075 999.958 247.835 999.976 251.148Z" fill="#3B424F"/>
</g>
<g filter="url(#filter4_d_475_224)">
<rect x="1050" y="227" width="180" height="45" rx="8" fill="white"/>
<path d="M1095.41 242.57V243.695C1095.41 244.855 1095.41 246.262 1095.03 248.143H1097.29V249.268H1090.79V252.15H1095.52V257.424H1094.13V253.293H1084.46V252.15H1089.42V249.268H1082.99V248.143H1093.64C1094.05 246.235 1094.05 244.855 1094.04 243.695H1084.8V242.57H1095.41ZM1111.88 241.797V257.424H1110.53V249.338H1108.28V256.615H1106.98V242.148H1108.28V248.16H1110.53V241.797H1111.88ZM1099.33 253.381V243.713H1100.7V252.15C1102.25 252.142 1103.92 252.027 1105.82 251.641L1106 252.871C1103.82 253.267 1102.02 253.381 1100.3 253.381H1099.33ZM1119.58 251.148C1119.6 247.835 1120.5 245.075 1122.11 242.729H1123.45C1122.26 244.46 1121.16 248.02 1121.15 251.148C1121.16 254.286 1122.26 257.837 1123.45 259.586H1122.11C1120.5 257.23 1119.6 254.471 1119.58 251.148ZM1125.52 256V243.273H1127.11V249.566H1127.26L1132.92 243.273H1135L1129.67 249.021L1135 256H1133.07L1128.69 250.111L1127.11 251.904V256H1125.52ZM1140.13 248.951V250.34H1134.56V248.951H1140.13ZM1146.6 256H1142.65V243.273H1146.76C1150.48 243.273 1152.67 245.655 1152.67 249.619C1152.67 253.592 1150.48 256 1146.6 256ZM1144.23 254.594H1146.5C1149.62 254.594 1151.12 252.704 1151.12 249.619C1151.12 246.543 1149.62 244.68 1146.65 244.68H1144.23V254.594ZM1154.79 256V246.455H1156.3V256H1154.79ZM1154.49 243.871C1154.48 243.309 1154.97 242.86 1155.55 242.869C1156.13 242.86 1156.61 243.309 1156.62 243.871C1156.61 244.425 1156.13 244.873 1155.55 244.873C1154.97 244.873 1154.48 244.425 1154.49 243.871ZM1162.58 259.779C1160.27 259.779 1158.7 258.769 1158.54 257.002H1160.12C1160.32 257.978 1161.23 258.461 1162.58 258.461C1164.21 258.461 1165.22 257.749 1165.22 256.176V254.242H1165.09C1164.77 254.77 1164.16 255.851 1162.32 255.859C1160 255.851 1158.25 254.102 1158.25 251.096C1158.25 248.16 1159.93 246.332 1162.33 246.332C1164.19 246.332 1164.79 247.457 1165.13 247.967H1165.25V246.455H1166.73V256.264C1166.72 258.725 1164.91 259.779 1162.58 259.779ZM1159.78 251.148C1159.78 253.126 1160.72 254.506 1162.53 254.506C1164.28 254.506 1165.24 253.249 1165.25 251.148C1165.24 249.101 1164.3 247.686 1162.53 247.686C1160.69 247.686 1159.78 249.224 1159.78 251.148ZM1169.14 256V246.455H1170.65V256H1169.14ZM1168.84 243.871C1168.83 243.309 1169.31 242.86 1169.89 242.869C1170.47 242.86 1170.96 243.309 1170.96 243.871C1170.96 244.425 1170.47 244.873 1169.89 244.873C1169.31 244.873 1168.83 244.425 1168.84 243.871ZM1177.22 246.455V247.721H1175.22V253.258C1175.21 254.479 1175.82 254.682 1176.47 254.682C1176.74 254.682 1177.14 254.655 1177.36 254.646V256.053C1177.12 256.088 1176.76 256.123 1176.31 256.123C1175.03 256.123 1173.7 255.332 1173.69 253.645V247.721H1172.25V246.455H1173.69V244.17H1175.22V246.455H1177.22ZM1178.72 253.293C1178.72 251.104 1180.65 250.604 1182.3 250.48C1182.92 250.437 1184.46 250.349 1184.89 250.34V249.566C1184.89 248.354 1184.17 247.65 1182.72 247.65C1181.52 247.65 1180.79 248.204 1180.58 248.934H1179C1179.19 247.396 1180.68 246.332 1182.79 246.332C1184.04 246.332 1186.39 246.701 1186.38 249.707V256H1184.89V254.699H1184.82C1184.5 255.341 1183.63 256.22 1181.97 256.229C1180.16 256.22 1178.72 255.156 1178.72 253.293ZM1180.23 253.363C1180.24 254.374 1181.07 254.884 1182.23 254.875C1183.94 254.884 1184.89 253.741 1184.89 252.537V251.579C1184.44 251.605 1182.93 251.72 1182.48 251.746C1181.11 251.834 1180.24 252.317 1180.23 253.363ZM1190.32 243.273V256H1188.81V243.273H1190.32ZM1196.05 251.148C1196.03 254.471 1195.13 257.23 1193.52 259.586H1192.18C1193.37 257.837 1194.47 254.286 1194.48 251.148C1194.47 248.02 1193.37 244.46 1192.18 242.729H1193.52C1195.13 245.075 1196.03 247.835 1196.05 251.148Z" fill="#3B424F"/>
</g>
<g filter="url(#filter5_d_475_224)">
<rect x="234" y="227" width="180" height="45" rx="8" fill="white"/>
<path d="M303.469 241.814V253.275H302.08V247.281H298.863V246.139H302.08V241.814H303.469ZM290.584 250.146C292.887 249.338 294.557 247.272 294.557 245.031V244.223H291.023V243.08H299.443V244.223H295.945V245.031C295.945 247.053 297.51 249.013 299.795 249.795L299.074 250.902C297.316 250.261 295.954 248.951 295.277 247.334C294.601 249.145 293.159 250.577 291.305 251.271L290.584 250.146ZM293.432 257.09V252.238H294.82V255.93H303.908V257.09H293.432ZM320.643 244.311V245.453H318.287V247.58H320.643V248.74H318.287V251.307H316.916V241.814H318.287V244.311H320.643ZM306.738 243.871V242.746H313.822V247.053H308.127V249.32C310.904 249.312 312.917 249.215 315.352 248.811L315.492 249.953C312.987 250.366 310.896 250.472 307.986 250.463H306.773V245.963H312.469V243.871H306.738ZM308.057 253.258V252.133H318.287V257.424H316.916V253.258H308.057ZM326.742 242.676L322.629 257.916H321.258L325.354 242.676H326.742ZM340.559 241.797V257.424H339.17V241.797H340.559ZM327.832 253.363C332.06 251.359 334.222 248.362 334.529 244.627H328.553V243.502H335.936C335.918 247.993 333.826 251.975 328.588 254.488L327.832 253.363ZM353.021 243.238V244.293H343.793V243.238H347.713V241.709H349.084V243.238H353.021ZM343.266 250.656C344.593 250.656 346.122 250.647 347.713 250.595V249.505C345.858 249.338 344.672 248.503 344.689 247.229C344.672 245.778 346.157 244.891 348.416 244.891C350.64 244.891 352.143 245.778 352.16 247.229C352.143 248.503 350.938 249.347 349.084 249.505V250.542C350.543 250.472 352.02 250.357 353.391 250.164L353.496 251.148C350.068 251.711 346.289 251.764 343.477 251.764L343.266 250.656ZM345.533 254.102V252.994H356.08V257.424H354.691V254.102H345.533ZM345.99 247.229C345.99 248.028 346.948 248.564 348.416 248.547C349.857 248.564 350.833 248.028 350.824 247.229C350.833 246.376 349.857 245.857 348.416 245.875C346.948 245.857 345.99 246.376 345.99 247.229ZM354.691 252.256V241.85H356.08V252.256H354.691Z" fill="#3B424F"/>
</g>
<g filter="url(#filter6_d_475_224)">
<rect x="30" y="282" width="180" height="45" rx="8" fill="white"/>
<path d="M119.314 304.9V306.043H105.076V304.9H111.51V302.949H112.863V304.9H119.314ZM105.902 302.65C108.829 302.378 111.308 301.191 111.431 299.451H106.553V298.326H111.51V296.762H112.863V298.326H117.873V299.451H112.951C113.065 301.191 115.553 302.378 118.471 302.65L118.049 303.723C115.465 303.45 113.145 302.519 112.195 300.945C111.237 302.519 108.926 303.45 106.342 303.723L105.902 302.65ZM106.799 309.805C106.79 308.126 108.794 307.221 112.195 307.221C115.579 307.221 117.557 308.126 117.574 309.805C117.557 311.483 115.579 312.389 112.195 312.389C108.794 312.389 106.79 311.483 106.799 309.805ZM108.205 309.805C108.188 310.789 109.664 311.334 112.195 311.316C114.7 311.334 116.177 310.789 116.186 309.805C116.177 308.82 114.7 308.267 112.195 308.258C109.664 308.267 108.188 308.82 108.205 309.805ZM134.924 305.885V307.027H128.402V312.424H127.049V307.027H120.615V305.885H134.924ZM122.461 303.758V297.676H133.061V303.758H122.461ZM123.814 302.668H131.689V298.801H123.814V302.668Z" fill="#3B424F"/>
</g>
<g filter="url(#filter7_d_475_224)">
<rect x="438" y="282" width="180" height="45" rx="8" fill="white"/>
<path d="M490.62 296.797V306.482H489.302V296.797H490.62ZM477.296 302.879C479.458 302.879 482.991 302.844 485.61 302.439L485.716 303.371C484.626 303.6 483.431 303.74 482.253 303.828V306.43H480.917V303.907C479.625 303.969 478.421 303.969 477.454 303.969L477.296 302.879ZM478.122 299.68C478.122 298.229 479.484 297.359 481.532 297.359C483.571 297.359 484.951 298.229 484.96 299.68C484.951 301.095 483.571 301.991 481.532 301.982C479.484 301.991 478.122 301.095 478.122 299.68ZM479.388 299.68C479.388 300.479 480.223 300.98 481.532 300.98C482.842 300.98 483.703 300.479 483.712 299.68C483.703 298.854 482.842 298.344 481.532 298.361C480.223 298.344 479.388 298.854 479.388 299.68ZM480.091 312.213V307.045H481.444V308.521H489.249V307.045H490.62V312.213H480.091ZM481.444 311.105H489.249V309.629H481.444V311.105ZM483.694 305.533V304.531H486.472V297.078H487.79V306.43H486.472V305.533H483.694ZM495.507 309.822L494.136 314.604H492.835L493.802 309.822H495.507ZM501.325 297.676C503.408 297.658 504.902 299.117 504.911 301.209C504.902 303.292 503.408 304.751 501.325 304.742C499.225 304.751 497.748 303.292 497.757 301.209C497.748 299.117 499.225 297.658 501.325 297.676ZM499.005 301.209C498.987 302.598 499.98 303.591 501.325 303.6C502.652 303.591 503.637 302.598 503.646 301.209C503.637 299.803 502.652 298.81 501.325 298.801C499.98 298.81 498.987 299.803 499.005 301.209ZM500.552 312.213V306.025H501.923V307.889H509.499V306.025H510.853V312.213H500.552ZM501.923 311.088H509.499V309.031H501.923V311.088ZM506.159 305.199V297.113H507.46V300.4H509.534V296.814H510.853V305.322H509.534V301.561H507.46V305.199H506.159ZM526.479 296.797V312.424H525.126V304.25H522.964V311.65H521.646V297.219H522.964V303.107H525.126V296.797H526.479ZM513.155 308.1C516.785 306.069 518.279 303.213 518.517 299.979H513.753V298.836H519.87C519.853 302.809 518.455 306.562 513.964 309.066L513.155 308.1ZM530.716 297.465V299.715H535.269V297.465H536.64V304.268H529.362V297.465H530.716ZM530.716 303.143H535.269V300.787H530.716V303.143ZM530.944 306.729V305.621H540.911V309.4H532.333V311.123H541.491V312.248H530.979V308.346H539.54V306.729H530.944ZM539.54 304.883V296.797H540.911V300.189H543.267V301.35H540.911V304.883H539.54ZM563.06 306.078V307.203H556.538V312.424H555.185V307.203H548.751V306.078H563.06ZM550.579 304.18V297.447H551.95V299.609H559.825V297.447H561.214V304.18H550.579ZM551.95 303.055H559.825V300.734H551.95V303.055ZM578.616 304.795V305.938H572.253V309.137H570.882V305.938H564.308V304.795H578.616ZM566.136 312.09V307.59H567.524V310.93H577.017V312.09H566.136ZM566.171 303.002V297.57H576.753V303.002H566.171ZM567.524 301.895H575.382V298.66H567.524V301.895Z" fill="#3B424F"/>
</g>
<g filter="url(#filter8_d_475_224)">
<rect x="642" y="282" width="180" height="45" rx="8" fill="white"/>
<path d="M678.958 301.596C678.94 304.101 680.751 306.86 683.019 307.941L682.228 309.031C680.47 308.17 678.984 306.324 678.281 304.206C677.561 306.5 675.996 308.521 674.247 309.418L673.403 308.328C675.653 307.229 677.587 304.259 677.604 301.596V299.557H673.966V298.414H682.474V299.557H678.958V301.596ZM684.39 312.424V296.797H685.761V303.125H688.38V304.303H685.761V312.424H684.39ZM693.794 301.613C693.803 304.127 695.077 306.702 697.204 307.836L696.413 308.873C694.857 308.021 693.732 306.403 693.161 304.522C692.607 306.526 691.491 308.284 689.927 309.225L689.101 308.17C691.228 306.939 692.484 304.197 692.493 301.613V300.84H689.522V299.697H692.493V297.377H693.812V299.697H696.729V300.84H693.794V301.613ZM695.657 304.145V302.967H698.118V297.184H699.419V311.615H698.118V304.145H695.657ZM701.265 312.424V296.797H702.583V312.424H701.265ZM722.183 297.289V298.379H719.774V301.402H722.13V302.475H710.687V301.402H713.042V298.379H710.634V297.289H722.183ZM709.298 304.9V303.793H723.536V304.9H709.298ZM711.021 307.344V306.307H721.708V309.699H712.427V311.193H722.183V312.248H711.056V308.697H720.354V307.344H711.021ZM714.413 301.402H718.403V298.379H714.413V301.402ZM738.126 296.814V307.467H736.808V302.053H734.61V306.113H733.327V297.113H734.61V300.91H736.808V296.814H738.126ZM725.54 299.17V298.027H731.464V302.404H726.911V304.742C728.968 304.742 730.55 304.646 732.396 304.268L732.554 305.375C730.532 305.779 728.88 305.85 726.595 305.85H725.575V301.35H730.146V299.17H725.54ZM726.841 311.281C729.565 310.859 732.202 309.198 732.22 307.133V306.729H733.591V307.133C733.591 309.198 736.228 310.859 738.97 311.281L738.407 312.354C736.078 311.967 733.854 310.763 732.905 309.014C731.947 310.763 729.715 311.967 727.403 312.354L726.841 311.281ZM754.649 304.689V305.814H740.411V304.689H746.827V302.879H741.8V301.736H744.155V298.449H741.747V297.307H753.296V298.449H750.888V301.736H753.243V302.879H748.198V304.689H754.649ZM742.151 312.213V307.326H752.909V312.213H742.151ZM743.522 311.088H751.556V308.398H743.522V311.088ZM745.526 301.736H749.517V298.449H745.526V301.736ZM773.827 296.797V312.424H772.474V304.25H770.312V311.65H768.993V297.219H770.312V303.107H772.474V296.797H773.827ZM760.503 308.1C764.133 306.069 765.627 303.213 765.864 299.979H761.101V298.836H767.218C767.2 302.809 765.803 306.562 761.312 309.066L760.503 308.1ZM778.063 297.465V299.715H782.616V297.465H783.987V304.268H776.71V297.465H778.063ZM778.063 303.143H782.616V300.787H778.063V303.143ZM778.292 306.729V305.621H788.259V309.4H779.681V311.123H788.839V312.248H778.327V308.346H786.888V306.729H778.292ZM786.888 304.883V296.797H788.259V300.189H790.614V301.35H788.259V304.883H786.888Z" fill="#3B424F"/>
</g>
<g filter="url(#filter9_d_475_224)">
<rect x="642" y="447" width="180" height="45" rx="8" fill="white"/>
<rect x="642.5" y="447.5" width="179" height="44" rx="7.5" stroke="#0A3177"/>
<path d="M710.379 463.379V464.521H701.537V463.379H705.334V461.656H706.705V463.379H710.379ZM702.469 468.107C702.451 466.402 703.893 465.286 706.002 465.277C708.094 465.286 709.562 466.402 709.57 468.107C709.562 469.795 708.094 470.902 706.002 470.902C703.893 470.902 702.451 469.795 702.469 468.107ZM703.752 468.107C703.743 469.153 704.64 469.856 706.002 469.865C707.347 469.856 708.27 469.153 708.287 468.107C708.27 467.053 707.347 466.35 706.002 466.35C704.64 466.35 703.743 467.053 703.752 468.107ZM704.297 477.213V471.693H705.668V473.346H713.104V471.693H714.475V477.213H704.297ZM705.668 476.105H713.104V474.418H705.668V476.105ZM710.361 469.654V468.512H713.086V466.596H710.379V465.453H713.086V461.797H714.475V471.043H713.086V469.654H710.361ZM724.494 462.764V467.141H719.115V469.566C722.051 469.575 723.571 469.514 725.408 469.18L725.549 470.322C723.606 470.639 722.016 470.691 718.852 470.691H717.744V466.086H723.123V463.871H717.709V462.764H724.494ZM719.502 473.381V472.256H730.031V477.459H728.643V473.381H719.502ZM725.531 468.512V467.369H728.643V465.26H725.531V464.135H728.643V461.814H730.031V471.412H728.643V468.512H725.531ZM736.939 462.535C739.031 462.526 740.631 463.748 740.93 465.541H744.199V461.797H745.588V470.182H744.199V466.684H740.938C740.666 468.529 739.058 469.76 736.939 469.76C734.558 469.76 732.87 468.283 732.879 466.139C732.87 464.021 734.558 462.526 736.939 462.535ZM734.197 466.139C734.197 467.562 735.331 468.591 736.939 468.6C738.513 468.591 739.646 467.562 739.646 466.139C739.646 464.697 738.513 463.695 736.939 463.713C735.331 463.695 734.197 464.697 734.197 466.139ZM735.516 477.213V470.973H736.904V472.959H744.199V470.973H745.588V477.213H735.516ZM736.904 476.088H744.199V474.066H736.904V476.088ZM752.76 466.613C752.769 469.127 754.043 471.702 756.17 472.836L755.379 473.873C753.823 473.021 752.698 471.403 752.127 469.522C751.573 471.526 750.457 473.284 748.893 474.225L748.066 473.17C750.193 471.939 751.45 469.197 751.459 466.613V465.84H748.488V464.697H751.459V462.377H752.777V464.697H755.695V465.84H752.76V466.613ZM754.623 469.145V467.967H757.084V462.184H758.385V476.615H757.084V469.145H754.623ZM760.23 477.424V461.797H761.549V477.424H760.23Z" fill="#0A3177"/>
</g>
<g filter="url(#filter10_d_475_224)">
<rect x="846" y="447" width="180" height="45" rx="8" fill="white"/>
<rect x="846.5" y="447.5" width="179" height="44" rx="7.5" stroke="#0A3177"/>
<path d="M874.872 463.379V464.521H866.03V463.379H869.827V461.656H871.198V463.379H874.872ZM866.962 468.107C866.944 466.402 868.386 465.286 870.495 465.277C872.587 465.286 874.055 466.402 874.063 468.107C874.055 469.795 872.587 470.902 870.495 470.902C868.386 470.902 866.944 469.795 866.962 468.107ZM868.245 468.107C868.236 469.153 869.133 469.856 870.495 469.865C871.84 469.856 872.763 469.153 872.78 468.107C872.763 467.053 871.84 466.35 870.495 466.35C869.133 466.35 868.236 467.053 868.245 468.107ZM868.79 477.213V471.693H870.161V473.346H877.597V471.693H878.968V477.213H868.79ZM870.161 476.105H877.597V474.418H870.161V476.105ZM874.854 469.654V468.512H877.579V466.596H874.872V465.453H877.579V461.797H878.968V471.043H877.579V469.654H874.854ZM888.987 462.764V467.141H883.608V469.566C886.544 469.575 888.064 469.514 889.901 469.18L890.042 470.322C888.1 470.639 886.509 470.691 883.345 470.691H882.237V466.086H887.616V463.871H882.202V462.764H888.987ZM883.995 473.381V472.256H894.524V477.459H893.136V473.381H883.995ZM890.024 468.512V467.369H893.136V465.26H890.024V464.135H893.136V461.814H894.524V471.412H893.136V468.512H890.024ZM901.433 462.535C903.524 462.526 905.124 463.748 905.423 465.541H908.692V461.797H910.081V470.182H908.692V466.684H905.432C905.159 468.529 903.551 469.76 901.433 469.76C899.051 469.76 897.363 468.283 897.372 466.139C897.363 464.021 899.051 462.526 901.433 462.535ZM898.69 466.139C898.69 467.562 899.824 468.591 901.433 468.6C903.006 468.591 904.14 467.562 904.14 466.139C904.14 464.697 903.006 463.695 901.433 463.713C899.824 463.695 898.69 464.697 898.69 466.139ZM900.009 477.213V470.973H901.397V472.959H908.692V470.973H910.081V477.213H900.009ZM901.397 476.088H908.692V474.066H901.397V476.088ZM917.253 466.613C917.262 469.127 918.536 471.702 920.663 472.836L919.872 473.873C918.316 473.021 917.191 471.403 916.62 469.522C916.066 471.526 914.95 473.284 913.386 474.225L912.56 473.17C914.687 471.939 915.943 469.197 915.952 466.613V465.84H912.981V464.697H915.952V462.377H917.271V464.697H920.188V465.84H917.253V466.613ZM919.116 469.145V467.967H921.577V462.184H922.878V476.615H921.577V469.145H919.116ZM924.724 477.424V461.797H926.042V477.424H924.724ZM933.724 471.148C933.741 467.835 934.638 465.075 936.255 462.729H937.591C936.404 464.46 935.297 468.02 935.288 471.148C935.297 474.286 936.404 477.837 937.591 479.586H936.255C934.638 477.23 933.741 474.471 933.724 471.148ZM943.321 462.377C945.659 462.386 947.355 463.81 947.364 465.84C947.355 467.879 945.659 469.285 943.321 469.285C940.957 469.285 939.252 467.879 939.261 465.84C939.252 463.81 940.957 462.386 943.321 462.377ZM940.614 465.84C940.597 467.211 941.748 468.16 943.321 468.16C944.868 468.16 946.028 467.211 946.028 465.84C946.028 464.486 944.868 463.528 943.321 463.537C941.748 463.528 940.597 464.486 940.614 465.84ZM941.634 471.693V470.586H951.794V474.348H943.022V476.105H952.356V477.213H941.669V473.311H950.423V471.693H941.634ZM950.423 469.83V461.797H951.794V469.83H950.423ZM957.718 462.43V464.416H965.452V462.43H966.823V468.67H962.253V470.34H968.687V471.482H954.448V470.34H960.882V468.67H956.347V462.43H957.718ZM956.294 477.09V472.73H957.683V475.93H967.104V477.09H956.294ZM957.718 467.562H965.452V465.506H957.718V467.562ZM982.96 461.814V473.732H981.571V470.375H978.864V469.25H981.571V467.123H978.864V465.98H981.571V461.814H982.96ZM970.022 464.855V463.73H973.819V461.797H975.19V463.73H978.864V464.855H970.022ZM970.954 468.705C970.937 466.912 972.396 465.717 974.487 465.717C976.579 465.717 978.047 466.912 978.056 468.705C978.047 470.48 976.579 471.685 974.487 471.693C972.396 471.685 970.937 470.48 970.954 468.705ZM972.237 468.705C972.229 469.83 973.151 470.595 974.487 470.586C975.823 470.595 976.746 469.83 976.755 468.705C976.746 467.58 975.823 466.824 974.487 466.807C973.151 466.824 972.229 467.58 972.237 468.705ZM972.853 477.09V472.678H974.241V475.93H983.312V477.09H972.853ZM991.151 466.596C991.16 469.25 993.085 471.948 995.388 472.941L994.614 474.031C992.786 473.205 991.213 471.403 990.483 469.241C989.754 471.535 988.172 473.521 986.388 474.418L985.562 473.328C987.803 472.256 989.754 469.303 989.763 466.596V464.557H986.071V463.414H994.878V464.557H991.151V466.596ZM997.058 477.424V461.797H998.446V477.424H997.058ZM1005.02 471.148C1005 474.471 1004.11 477.23 1002.49 479.586H1001.15C1002.34 477.837 1003.45 474.286 1003.46 471.148C1003.45 468.02 1002.34 464.46 1001.15 462.729H1002.49C1004.11 465.075 1005 467.835 1005.02 471.148Z" fill="#0A3177"/>
</g>
<g filter="url(#filter11_d_475_224)">
<rect x="846" y="282" width="180" height="45" rx="8" fill="white"/>
<path d="M879.917 297.377C882.255 297.386 883.951 298.81 883.96 300.84C883.951 302.879 882.255 304.285 879.917 304.285C877.553 304.285 875.848 302.879 875.856 300.84C875.848 298.81 877.553 297.386 879.917 297.377ZM877.21 300.84C877.192 302.211 878.344 303.16 879.917 303.16C881.464 303.16 882.624 302.211 882.624 300.84C882.624 299.486 881.464 298.528 879.917 298.537C878.344 298.528 877.192 299.486 877.21 300.84ZM878.229 306.693V305.586H888.39V309.348H879.618V311.105H888.952V312.213H878.265V308.311H887.019V306.693H878.229ZM887.019 304.83V296.797H888.39V304.83H887.019ZM894.313 297.43V299.416H902.048V297.43H903.419V303.67H898.849V305.34H905.282V306.482H891.044V305.34H897.478V303.67H892.942V297.43H894.313ZM892.89 312.09V307.73H894.278V310.93H903.7V312.09H892.89ZM894.313 302.562H902.048V300.506H894.313V302.562ZM913.474 298.273V311H911.892V298.273H913.474ZM915.583 299.68V298.273H925.181V299.68H921.19V311H919.591V299.68H915.583ZM938.874 298.256C938.883 300.462 941.748 302.36 944.569 302.756L944.007 303.881C941.581 303.477 939.173 302.132 938.171 300.216C937.169 302.149 934.77 303.477 932.335 303.881L931.772 302.756C934.594 302.36 937.45 300.497 937.45 298.256V297.359H938.874V298.256ZM931.034 306.764V305.604H945.272V306.764H938.804V312.424H937.45V306.764H931.034ZM954.519 297.869V299.012H948.7V301.051H954.22V302.141H948.7V304.303C951.75 304.303 953.481 304.215 955.538 303.846L955.696 304.988C953.543 305.357 951.741 305.428 948.507 305.41H947.329V297.869H954.519ZM948.577 308.17V307.045H958.808V312.424H957.437V308.17H948.577ZM957.437 306.271V296.797H958.808V300.963H961.163V302.141H958.808V306.271H957.437ZM980.007 296.797V312.424H978.653V304.25H976.491V311.65H975.173V297.219H976.491V303.107H978.653V296.797H980.007ZM966.683 308.1C970.312 306.069 971.807 303.213 972.044 299.979H967.28V298.836H973.397C973.38 302.809 971.982 306.562 967.491 309.066L966.683 308.1ZM984.243 297.465V299.715H988.796V297.465H990.167V304.268H982.89V297.465H984.243ZM984.243 303.143H988.796V300.787H984.243V303.143ZM984.472 306.729V305.621H994.438V309.4H985.86V311.123H995.019V312.248H984.507V308.346H993.067V306.729H984.472ZM993.067 304.883V296.797H994.438V300.189H996.794V301.35H994.438V304.883H993.067Z" fill="#3B424F"/>
</g>
<g filter="url(#filter12_d_475_224)">
<rect x="1050" y="282" width="180" height="45" rx="8" fill="white"/>
<path d="M1093.76 299.504V300.629H1085.92V299.504H1089.17V297.271H1090.54V299.504H1093.76ZM1086.48 305.234C1086.48 303.16 1087.9 301.692 1089.84 301.684C1091.81 301.692 1093.22 303.16 1093.23 305.234C1093.22 307.335 1091.81 308.812 1089.84 308.82C1087.9 308.812 1086.48 307.335 1086.48 305.234ZM1087.71 305.234C1087.71 306.623 1088.6 307.616 1089.84 307.607C1091.09 307.616 1092 306.623 1092 305.234C1092 303.863 1091.09 302.861 1089.84 302.844C1088.6 302.861 1087.71 303.863 1087.71 305.234ZM1094.57 311.65V297.184H1095.87V303.389H1097.94V296.797H1099.26V312.424H1097.94V304.531H1095.87V311.65H1094.57ZM1106.63 297.816C1109.08 297.834 1110.82 299.311 1110.83 301.49C1110.82 303.459 1109.4 304.856 1107.31 305.103V307.766C1108.86 307.687 1110.44 307.555 1111.92 307.326L1112.02 308.346C1108.45 309.014 1104.61 309.022 1101.79 309.031L1101.6 307.871C1102.88 307.871 1104.36 307.871 1105.92 307.818V305.103C1103.83 304.848 1102.4 303.459 1102.41 301.49C1102.4 299.311 1104.16 297.834 1106.63 297.816ZM1103.76 301.49C1103.75 302.94 1104.96 303.96 1106.63 303.951C1108.28 303.96 1109.48 302.94 1109.48 301.49C1109.48 300.022 1108.28 299.029 1106.63 299.029C1104.96 299.029 1103.75 300.022 1103.76 301.49ZM1112.96 312.459V296.797H1114.33V312.459H1112.96ZM1122.55 306.148C1122.57 302.835 1123.47 300.075 1125.08 297.729H1126.42C1125.23 299.46 1124.13 303.02 1124.12 306.148C1124.13 309.286 1125.23 312.837 1126.42 314.586H1125.08C1123.47 312.23 1122.57 309.471 1122.55 306.148ZM1128.5 311V298.273H1130.08V304.566H1130.24L1135.9 298.273H1137.97L1132.64 304.021L1137.97 311H1136.04L1131.66 305.111L1130.08 306.904V311H1128.5ZM1143.1 303.951V305.34H1137.53V303.951H1143.1ZM1145.62 298.273H1147.51L1151.8 308.75H1151.96L1156.25 298.273H1158.15V311H1156.66V301.385H1156.53L1152.58 311H1151.17L1147.22 301.385H1147.11V311H1145.62V298.273ZM1164.67 311.193C1162.07 311.202 1160.31 309.233 1160.31 306.271C1160.31 303.292 1162.07 301.332 1164.67 301.332C1167.26 301.332 1169 303.292 1169 306.271C1169 309.233 1167.26 311.202 1164.67 311.193ZM1161.82 306.271C1161.83 308.179 1162.73 309.857 1164.67 309.857C1166.6 309.857 1167.48 308.179 1167.48 306.271C1167.48 304.373 1166.6 302.668 1164.67 302.668C1162.73 302.668 1161.83 304.373 1161.82 306.271ZM1178.49 301.455L1174.95 311H1173.39L1169.87 301.455H1171.53L1174.13 309.031H1174.23L1176.83 301.455H1178.49ZM1183.81 311.193C1181.05 311.202 1179.35 309.233 1179.35 306.307C1179.35 303.371 1181.08 301.332 1183.67 301.332C1185.68 301.332 1187.79 302.562 1187.79 306.096V306.729H1180.86C1180.94 308.75 1182.12 309.857 1183.81 309.857C1184.96 309.857 1185.68 309.356 1186.03 308.768H1187.65C1187.2 310.218 1185.78 311.202 1183.81 311.193ZM1180.87 305.445H1186.26C1186.25 303.854 1185.25 302.668 1183.67 302.668C1182.02 302.668 1180.97 303.969 1180.87 305.445ZM1193.08 306.148C1193.06 309.471 1192.16 312.23 1190.55 314.586H1189.21C1190.4 312.837 1191.5 309.286 1191.51 306.148C1191.5 303.02 1190.4 299.46 1189.21 297.729H1190.55C1192.16 300.075 1193.06 302.835 1193.08 306.148Z" fill="#3B424F"/>
</g>
<g filter="url(#filter13_d_475_224)">
<rect x="30" y="337" width="180" height="45" rx="8" fill="white"/>
<path d="M118.506 351.797V367.424H117.17V359.303H115.043V366.633H113.725V352.131H115.043V358.125H117.17V351.797H118.506ZM104.918 363.135C107.168 361.896 108.372 359.241 108.363 356.068V354.82H105.287V353.66H112.6V354.82H109.699V356.068C109.699 358.925 110.886 361.447 113.109 362.59L112.283 363.662C110.71 362.801 109.62 361.263 109.066 359.355C108.53 361.526 107.423 363.231 105.779 364.189L104.918 363.135ZM133.588 351.797V361.113H132.199V357.018H129.053V355.875H132.199V351.797H133.588ZM120.703 359.865C123.023 359.03 124.676 356.912 124.676 354.68V354.1H121.143V352.939H129.562V354.1H126.064V354.662C126.064 356.701 127.629 358.644 129.914 359.426L129.193 360.533C127.444 359.9 126.082 358.582 125.405 356.974C124.737 358.802 123.287 360.261 121.424 360.973L120.703 359.865ZM123.164 364.506C123.155 362.669 125.15 361.597 128.402 361.605C131.646 361.597 133.641 362.669 133.641 364.506C133.641 366.352 131.646 367.406 128.402 367.424C125.15 367.406 123.155 366.352 123.164 364.506ZM124.535 364.506C124.526 365.64 126.003 366.325 128.402 366.316C130.793 366.325 132.27 365.64 132.27 364.506C132.27 363.363 130.793 362.678 128.402 362.678C126.003 362.678 124.526 363.363 124.535 364.506Z" fill="#3B424F"/>
</g>
<g filter="url(#filter14_d_475_224)">
<rect x="438" y="337" width="180" height="45" rx="8" fill="white"/>
<path d="M495.27 356.578V358.635H501.721V359.76H487.482V358.635H493.916V356.578H495.27ZM488.273 356.35C491.13 356.033 493.898 354.539 493.898 352.518V351.92H495.287V352.518C495.287 354.539 498.064 356.033 500.912 356.35L500.42 357.404C497.959 357.07 495.577 356.007 494.593 354.293C493.608 356.007 491.218 357.07 488.766 357.404L488.273 356.35ZM489.205 362.133V361.061H499.893V364.611H490.611V366.158H500.367V367.248H489.24V363.574H498.539V362.133H489.205ZM515.59 352.43V356.49H506.168V358.512H515.924V359.654H504.779V355.4H514.184V353.555H504.744V352.43H515.59ZM503.021 362.414V361.307H517.33V362.414H510.826V367.459H509.455V362.414H503.021ZM523.939 354.697C523.939 356.991 525.513 359.153 527.771 360.041L526.998 361.113C525.284 360.401 523.939 358.978 523.28 357.202C522.612 359.118 521.206 360.639 519.387 361.395L518.631 360.287C520.96 359.391 522.577 357.149 522.586 354.697V352.693H523.939V354.697ZM521.443 367.09V362.273H522.832V365.93H531.902V367.09H521.443ZM526.945 358.477V357.352H530.162V355.277H526.945V354.135H530.162V351.814H531.551V363.486H530.162V358.477H526.945ZM552.961 361.078V362.203H546.439V367.424H545.086V362.203H538.652V361.078H552.961ZM540.48 359.18V352.447H541.852V354.609H549.727V352.447H551.115V359.18H540.48ZM541.852 358.055H549.727V355.734H541.852V358.055ZM568.518 359.795V360.938H562.154V364.137H560.783V360.938H554.209V359.795H568.518ZM556.037 367.09V362.59H557.426V365.93H566.918V367.09H556.037ZM556.072 358.002V352.57H566.654V358.002H556.072ZM557.426 356.895H565.283V353.66H557.426V356.895Z" fill="#3B424F"/>
</g>
<rect x="30" y="153" width="180" height="46" rx="8" fill="#2674FF"/>
<path d="M83.5156 167.102V177.414H81.3477V175.461H77.1484V173.703H81.3477V171.809H77.3145C76.2012 174.611 73.623 176.574 69.7852 177.648L68.9062 175.93C73.0371 174.816 75.2441 172.717 75.5762 170.09H69.8438V168.332H77.9492C77.9492 168.947 77.9004 169.533 77.8027 170.09H81.3477V167.102H83.5156ZM71.6797 181.125C71.6797 178.957 74.0527 177.619 77.6758 177.609C81.25 177.619 83.6328 178.957 83.6328 181.125C83.6328 183.293 81.25 184.65 77.6758 184.641C74.0527 184.65 71.6797 183.293 71.6797 181.125ZM73.8477 181.125C73.8477 182.287 75.3027 182.922 77.6758 182.922C80.0098 182.922 81.4551 182.287 81.4648 181.125C81.4551 179.943 80.0098 179.309 77.6758 179.309C75.3027 179.309 73.8477 179.943 73.8477 181.125ZM90.918 168.078C92.3438 168.068 93.584 168.596 94.4141 169.484H98.6328V167.082H100.801V177.473H98.6328V175.227H94.4043C93.5645 176.096 92.334 176.623 90.918 176.613C88.252 176.623 86.25 174.836 86.25 172.355C86.25 169.855 88.252 168.068 90.918 168.078ZM88.3203 172.355C88.3203 173.801 89.4043 174.777 90.918 174.777C92.3828 174.777 93.4668 173.801 93.4766 172.355C93.4668 170.861 92.3828 169.934 90.918 169.934C89.4043 169.934 88.3203 170.861 88.3203 172.355ZM88.8281 181.281C88.8086 179.104 91.123 177.834 94.8242 177.844C98.5352 177.834 100.85 179.104 100.859 181.281C100.85 183.449 98.5352 184.719 94.8242 184.719C91.123 184.719 88.8086 183.449 88.8281 181.281ZM90.957 181.281C90.9375 182.404 92.373 183.01 94.8242 183.02C97.3242 183.01 98.7305 182.404 98.7305 181.281C98.7305 180.129 97.3242 179.514 94.8242 179.504C92.373 179.514 90.9375 180.129 90.957 181.281ZM95.3906 171.223C95.4883 171.584 95.5469 171.955 95.5469 172.355C95.5469 172.746 95.4883 173.117 95.4004 173.469H98.6328V171.223H95.3906ZM119.414 175.812V177.551H112.598V180.793H110.391V177.551H103.281V175.812H119.414ZM105 171.086C104.99 168.869 107.529 167.473 111.328 167.473C115.146 167.473 117.656 168.869 117.656 171.086C117.656 173.312 115.146 174.689 111.328 174.68C107.529 174.689 104.99 173.312 105 171.086ZM105.254 184.387V179.152H107.441V182.609H117.637V184.387H105.254ZM107.344 171.086C107.324 172.258 108.906 172.941 111.328 172.941C113.77 172.941 115.342 172.258 115.332 171.086C115.342 169.875 113.77 169.191 111.328 169.191C108.906 169.191 107.324 169.875 107.344 171.086ZM125.488 168.078C126.914 168.068 128.154 168.596 128.984 169.484H133.203V167.082H135.371V177.473H133.203V175.227H128.975C128.135 176.096 126.904 176.623 125.488 176.613C122.822 176.623 120.82 174.836 120.82 172.355C120.82 169.855 122.822 168.068 125.488 168.078ZM122.891 172.355C122.891 173.801 123.975 174.777 125.488 174.777C126.953 174.777 128.037 173.801 128.047 172.355C128.037 170.861 126.953 169.934 125.488 169.934C123.975 169.934 122.891 170.861 122.891 172.355ZM123.398 181.281C123.379 179.104 125.693 177.834 129.395 177.844C133.105 177.834 135.42 179.104 135.43 181.281C135.42 183.449 133.105 184.719 129.395 184.719C125.693 184.719 123.379 183.449 123.398 181.281ZM125.527 181.281C125.508 182.404 126.943 183.01 129.395 183.02C131.895 183.01 133.301 182.404 133.301 181.281C133.301 180.129 131.895 179.514 129.395 179.504C126.943 179.514 125.508 180.129 125.527 181.281ZM129.961 171.223C130.059 171.584 130.117 171.955 130.117 172.355C130.117 172.746 130.059 173.117 129.971 173.469H133.203V171.223H129.961ZM147.734 168.391V169.445C147.715 170.646 147.715 172.404 147.305 174.641L145.156 174.445C145.508 172.629 145.576 171.271 145.596 170.188H138.73V168.391H147.734ZM137.676 176.047C138.721 176.037 139.893 176.027 141.133 176.008V172.414H143.281V175.939C145.107 175.861 146.982 175.725 148.691 175.48L148.809 177.043C145.137 177.707 140.967 177.775 137.871 177.785L137.676 176.047ZM140.312 184.387V179.133H142.5V182.629H152.52V184.387H140.312ZM149.727 180.305V167.082H151.953V172.59H154.238V174.406H151.953V180.305H149.727ZM169.863 167.082V184.758H167.715V167.082H169.863ZM156.113 170.383V168.625H164.434V175.246H158.359V178.801C161.143 178.781 163.535 178.635 166.289 178.176L166.484 179.953C163.486 180.471 160.85 180.588 157.676 180.578H156.133V173.527H162.227V170.383H156.113Z" fill="white"/>
<rect x="438" y="153" width="180" height="46" rx="8" fill="#2674FF"/>
<path d="M482.131 168.801V180.363H473.771V168.801H482.131ZM475.9 178.625H479.963V170.5H475.9V178.625ZM484.807 184.738V167.082H486.975V173.859H489.689V175.695H486.975V184.738H484.807ZM498.264 169.113C498.254 170.773 498.098 172.365 497.688 173.859H499.865V167.512H501.916V183.898H499.865V175.617H497.043C496.076 177.746 494.406 179.621 491.662 181.164L490.432 179.68C492.824 178.312 494.299 176.721 495.158 174.895L490.744 175.344L490.49 173.469L495.773 173.176C495.959 172.443 496.076 171.672 496.135 170.871H491.35V169.113H498.264ZM503.596 184.738V167.082H505.666V184.738H503.596ZM517.229 168.352V170.07H510.9V171.75H516.721V173.449H510.9V175.148C514.201 175.158 516.213 175.109 518.537 174.719L518.752 176.438C516.223 176.857 514.006 176.916 510.197 176.906H508.693V168.352H517.229ZM510.432 181.418C510.422 179.328 512.697 178.107 516.467 178.117C520.168 178.107 522.502 179.328 522.502 181.418C522.502 183.508 520.168 184.719 516.467 184.719C512.697 184.719 510.422 183.508 510.432 181.418ZM512.6 181.418C512.58 182.473 513.957 183.039 516.467 183.039C518.918 183.039 520.334 182.473 520.334 181.418C520.334 180.373 518.918 179.797 516.467 179.797C513.957 179.797 512.58 180.373 512.6 181.418ZM520.236 177.863V167.102H522.424V177.863H520.236ZM531.369 168.195L526.818 185.129H524.631L529.201 168.195H531.369ZM537.072 168.078C538.498 168.068 539.738 168.596 540.568 169.484H544.787V167.082H546.955V177.473H544.787V175.227H540.559C539.719 176.096 538.488 176.623 537.072 176.613C534.406 176.623 532.404 174.836 532.404 172.355C532.404 169.855 534.406 168.068 537.072 168.078ZM534.475 172.355C534.475 173.801 535.559 174.777 537.072 174.777C538.537 174.777 539.621 173.801 539.631 172.355C539.621 170.861 538.537 169.934 537.072 169.934C535.559 169.934 534.475 170.861 534.475 172.355ZM534.982 181.281C534.963 179.104 537.277 177.834 540.979 177.844C544.689 177.834 547.004 179.104 547.014 181.281C547.004 183.449 544.689 184.719 540.979 184.719C537.277 184.719 534.963 183.449 534.982 181.281ZM537.111 181.281C537.092 182.404 538.527 183.01 540.979 183.02C543.479 183.01 544.885 182.404 544.885 181.281C544.885 180.129 543.479 179.514 540.979 179.504C538.527 179.514 537.092 180.129 537.111 181.281ZM541.545 171.223C541.643 171.584 541.701 171.955 541.701 172.355C541.701 172.746 541.643 173.117 541.555 173.469H544.787V171.223H541.545ZM554.357 167.863C556.643 167.854 558.439 169.172 558.879 171.105H562.072V167.082H564.24V176.555H562.072V172.863H558.898C558.479 174.846 556.662 176.184 554.357 176.184C551.652 176.184 549.689 174.445 549.689 172.004C549.689 169.592 551.652 167.854 554.357 167.863ZM551.76 172.004C551.76 173.42 552.834 174.357 554.357 174.348C555.842 174.357 556.906 173.42 556.916 172.004C556.906 170.588 555.842 169.67 554.357 169.68C552.834 169.67 551.76 170.588 551.76 172.004ZM552.6 184.523V177.375H554.748V179.25H562.072V177.375H564.24V184.523H552.6ZM554.748 182.766H562.072V180.93H554.748V182.766ZM576.252 168.117V169.875H569.924V171.516H575.744V173.215H569.924V174.953C573.225 174.953 575.236 174.895 577.561 174.504L577.775 176.203C575.246 176.643 573.029 176.691 569.221 176.672H567.717V168.117H576.252ZM569.729 184.523V178.371H581.447V184.523H569.729ZM571.877 182.766H579.318V180.051H571.877V182.766ZM579.26 177.59V167.102H581.447V177.59H579.26Z" fill="white"/>
<rect x="642" y="153" width="180" height="46" rx="8" fill="#2674FF"/>
<path d="M701.16 167.883V169.23C701.17 170.539 701.17 172.062 700.779 174.035H703.133V175.793H696.121V178.547H701.199V184.738H699.031V180.285H688.641V178.547H693.953V175.793H687V174.035H698.602C698.953 172.219 698.992 170.842 698.992 169.621H688.992V167.883H701.16ZM719.441 167.082V184.738H717.352V175.812H715.398V183.84H713.367V167.414H715.398V174.035H717.352V167.082H719.441ZM705.047 180.344V169.113H707.234V178.43C708.758 178.4 710.418 178.264 712.273 177.902L712.488 179.797C710.105 180.217 708.084 180.344 706.219 180.344H705.047ZM741.473 167.082V184.738H739.383V175.676H737.488V183.918H735.457V167.551H737.488V173.918H739.383V167.082H741.473ZM726.18 179.543C729.939 177.375 731.531 174.582 731.844 171.047H727V169.309H733.953C733.953 174.084 732.449 178.186 727.43 181.047L726.18 179.543ZM746.355 167.863V170.109H750.477V167.863H752.625V175.559H744.207V167.863H746.355ZM745.984 178.527V176.828H757.527V181.457H748.152V182.863H758.074V184.582H746.004V179.875H755.359V178.527H745.984ZM746.355 173.84H750.477V171.75H746.355V173.84ZM755.359 176.125V167.082H757.527V170.656H759.988V172.414H757.527V176.125H755.359ZM770.398 168.117V169.875H764.07V171.516H769.891V173.215H764.07V174.953C767.371 174.953 769.383 174.895 771.707 174.504L771.922 176.203C769.393 176.643 767.176 176.691 763.367 176.672H761.863V168.117H770.398ZM763.875 184.523V178.371H775.594V184.523H763.875ZM766.023 182.766H773.465V180.051H766.023V182.766ZM773.406 177.59V167.102H775.594V177.59H773.406Z" fill="white"/>
<rect x="846" y="153" width="180" height="46" rx="8" fill="#2674FF"/>
<path d="M899.613 169.895V171.633H890.961V169.895H894.242V167.59H896.391V169.895H899.613ZM891.469 176.672C891.449 174.27 893.08 172.561 895.316 172.57C897.562 172.561 899.164 174.27 899.164 176.672C899.164 179.123 897.562 180.832 895.316 180.832C893.08 180.832 891.449 179.123 891.469 176.672ZM893.383 176.672C893.373 178.098 894.174 178.986 895.316 178.977C896.449 178.986 897.25 178.098 897.25 176.672C897.25 175.285 896.449 174.367 895.316 174.367C894.174 174.367 893.373 175.285 893.383 176.672ZM900.355 183.938V167.453H902.387V174.348H904.105V167.082H906.176V184.738H904.105V176.105H902.387V183.938H900.355ZM914.008 168.176C916.811 168.176 918.852 169.924 918.871 172.434C918.852 174.602 917.328 176.203 915.102 176.594V179.172C916.674 179.094 918.266 178.957 919.77 178.742L919.945 180.305C915.99 181.057 911.752 181.086 908.637 181.086L908.363 179.309C909.711 179.309 911.283 179.309 912.934 179.26V176.604C910.717 176.213 909.154 174.611 909.164 172.434C909.154 169.924 911.234 168.176 914.008 168.176ZM911.312 172.434C911.303 173.889 912.465 174.836 914.008 174.836C915.58 174.836 916.732 173.889 916.742 172.434C916.732 170.949 915.57 170.041 914.008 170.051C912.465 170.041 911.303 170.949 911.312 172.434ZM920.824 184.758V167.082H922.992V184.758H920.824ZM945.473 167.082V184.738H943.383V175.676H941.488V183.918H939.457V167.551H941.488V173.918H943.383V167.082H945.473ZM930.18 179.543C933.939 177.375 935.531 174.582 935.844 171.047H931V169.309H937.953C937.953 174.084 936.449 178.186 931.43 181.047L930.18 179.543ZM950.355 167.863V170.109H954.477V167.863H956.625V175.559H948.207V167.863H950.355ZM949.984 178.527V176.828H961.527V181.457H952.152V182.863H962.074V184.582H950.004V179.875H959.359V178.527H949.984ZM950.355 173.84H954.477V171.75H950.355V173.84ZM959.359 176.125V167.082H961.527V170.656H963.988V172.414H961.527V176.125H959.359ZM974.398 168.117V169.875H968.07V171.516H973.891V173.215H968.07V174.953C971.371 174.953 973.383 174.895 975.707 174.504L975.922 176.203C973.393 176.643 971.176 176.691 967.367 176.672H965.863V168.117H974.398ZM967.875 184.523V178.371H979.594V184.523H967.875ZM970.023 182.766H977.465V180.051H970.023V182.766ZM977.406 177.59V167.102H979.594V177.59H977.406Z" fill="white"/>
<rect x="1050" y="153" width="180" height="46" rx="8" fill="#2674FF"/>
<path d="M1129.13 168.703V170.5C1129.13 172.697 1129.13 175.061 1128.49 178.527L1126.36 178.312C1126.96 175.041 1126.96 172.639 1126.96 170.5V170.441H1116.28V168.703H1129.13ZM1114.66 182.453V180.676H1118.27V175.051H1120.44V180.676H1122.69V175.051H1124.81V180.676H1130.75V182.453H1114.66ZM1148.04 175.422V177.16H1144.01V178.996H1146.06V184.738H1143.9V180.695H1133.72V178.996H1135.91V177.16H1131.94V175.422H1148.04ZM1133.6 170.891C1133.6 168.762 1136.1 167.453 1139.97 167.453C1143.85 167.453 1146.33 168.762 1146.34 170.891C1146.33 173.049 1143.85 174.348 1139.97 174.348C1136.1 174.348 1133.6 173.049 1133.6 170.891ZM1135.87 170.891C1135.85 172.043 1137.39 172.658 1139.97 172.668C1142.55 172.658 1144.09 172.043 1144.09 170.891C1144.09 169.787 1142.55 169.152 1139.97 169.152C1137.39 169.152 1135.85 169.787 1135.87 170.891ZM1138.08 178.996H1141.87V177.16H1138.08V178.996ZM1165.34 177.355V179.074H1158.31V184.738H1156.16V179.074H1149.21V177.355H1165.34ZM1151.16 175.52V167.785H1153.31V169.953H1161.2V167.785H1163.39V175.52H1151.16ZM1153.31 173.762H1161.2V171.672H1153.31V173.762Z" fill="white"/>
<rect x="234" y="153" width="180" height="46" rx="8" fill="#2674FF"/>
<path d="M313.404 167.082V184.738H311.217V167.082H313.404ZM298.775 179.875C303.404 177.678 305.533 174.689 305.924 170.676H299.674V168.957H308.131C308.131 174.211 306.09 178.674 299.908 181.613L298.775 179.875ZM327.018 168.488V170.09H316.568V168.488H320.689V166.984H322.857V168.488H327.018ZM316.021 176.887C317.428 176.887 319.029 176.887 320.689 176.838V175.803C318.688 175.559 317.438 174.621 317.447 173.254C317.438 171.613 319.166 170.588 321.803 170.598C324.371 170.588 326.139 171.613 326.139 173.254C326.139 174.631 324.84 175.568 322.857 175.812V176.76C324.352 176.682 325.846 176.564 327.252 176.379L327.408 177.863C323.619 178.508 319.449 178.557 316.314 178.566L316.021 176.887ZM318.521 181.418V179.719H330.67V184.738H328.482V181.418H318.521ZM319.537 173.254C319.527 173.977 320.406 174.406 321.803 174.387C323.141 174.406 324.059 173.977 324.068 173.254C324.059 172.473 323.141 172.053 321.803 172.062C320.406 172.053 319.527 172.473 319.537 173.254ZM328.482 178.996V167.121H330.67V178.996H328.482ZM342.74 168.117V169.875H336.412V171.516H342.232V173.215H336.412V174.953C339.713 174.953 341.725 174.895 344.049 174.504L344.264 176.203C341.734 176.643 339.518 176.691 335.709 176.672H334.205V168.117H342.74ZM336.217 184.523V178.371H347.936V184.523H336.217ZM338.365 182.766H345.807V180.051H338.365V182.766ZM345.748 177.59V167.102H347.936V177.59H345.748Z" fill="white"/>
<line x1="120.5" y1="203" x2="120.5" y2="223" stroke="#2674FF" stroke-dasharray="2 2"/>
<line x1="630.5" y1="70" x2="630.5" y2="112" stroke="#2674FF"/>
<path d="M120 153V112H1140V153" stroke="#2674FF"/>
<line x1="528.5" y1="203" x2="528.5" y2="223" stroke="#2674FF" stroke-dasharray="2 2"/>
<line x1="732.5" y1="203" x2="732.5" y2="223" stroke="#2674FF" stroke-dasharray="2 2"/>
<line x1="732.5" y1="341" x2="732.5" y2="433" stroke="#2674FF" stroke-dasharray="2 2"/>
<line x1="936.5" y1="341" x2="936.5" y2="433" stroke="#2674FF" stroke-dasharray="2 2"/>
<line x1="936.5" y1="203" x2="936.5" y2="223" stroke="#2674FF" stroke-dasharray="2 2"/>
<line x1="1140.5" y1="203" x2="1140.5" y2="223" stroke="#2674FF" stroke-dasharray="2 2"/>
<line x1="324.5" y1="203" x2="324.5" y2="223" stroke="#2674FF" stroke-dasharray="2 2"/>
<defs>
<filter id="filter0_d_475_224" x="0" y="201" width="240" height="105" filterUnits="userSpaceOnUse" color-interpolation-filters="sRGB">
<feFlood flood-opacity="0" result="BackgroundImageFix"/>
<feColorMatrix in="SourceAlpha" type="matrix" values="0 0 0 0 0 0 0 0 0 0 0 0 0 0 0 0 0 0 127 0" result="hardAlpha"/>
<feOffset dy="4"/>
<feGaussianBlur stdDeviation="15"/>
<feComposite in2="hardAlpha" operator="out"/>
<feColorMatrix type="matrix" values="0 0 0 0 0.322337 0 0 0 0 0.396182 0 0 0 0 0.586068 0 0 0 0.1 0"/>
<feBlend mode="normal" in2="BackgroundImageFix" result="effect1_dropShadow_475_224"/>
<feBlend mode="normal" in="SourceGraphic" in2="effect1_dropShadow_475_224" result="shape"/>
</filter>
<filter id="filter1_d_475_224" x="408" y="201" width="240" height="105" filterUnits="userSpaceOnUse" color-interpolation-filters="sRGB">
<feFlood flood-opacity="0" result="BackgroundImageFix"/>
<feColorMatrix in="SourceAlpha" type="matrix" values="0 0 0 0 0 0 0 0 0 0 0 0 0 0 0 0 0 0 127 0" result="hardAlpha"/>
<feOffset dy="4"/>
<feGaussianBlur stdDeviation="15"/>
<feComposite in2="hardAlpha" operator="out"/>
<feColorMatrix type="matrix" values="0 0 0 0 0.322337 0 0 0 0 0.396182 0 0 0 0 0.586068 0 0 0 0.1 0"/>
<feBlend mode="normal" in2="BackgroundImageFix" result="effect1_dropShadow_475_224"/>
<feBlend mode="normal" in="SourceGraphic" in2="effect1_dropShadow_475_224" result="shape"/>
</filter>
<filter id="filter2_d_475_224" x="612" y="201" width="240" height="105" filterUnits="userSpaceOnUse" color-interpolation-filters="sRGB">
<feFlood flood-opacity="0" result="BackgroundImageFix"/>
<feColorMatrix in="SourceAlpha" type="matrix" values="0 0 0 0 0 0 0 0 0 0 0 0 0 0 0 0 0 0 127 0" result="hardAlpha"/>
<feOffset dy="4"/>
<feGaussianBlur stdDeviation="15"/>
<feComposite in2="hardAlpha" operator="out"/>
<feColorMatrix type="matrix" values="0 0 0 0 0.322337 0 0 0 0 0.396182 0 0 0 0 0.586068 0 0 0 0.1 0"/>
<feBlend mode="normal" in2="BackgroundImageFix" result="effect1_dropShadow_475_224"/>
<feBlend mode="normal" in="SourceGraphic" in2="effect1_dropShadow_475_224" result="shape"/>
</filter>
<filter id="filter3_d_475_224" x="816" y="201" width="240" height="105" filterUnits="userSpaceOnUse" color-interpolation-filters="sRGB">
<feFlood flood-opacity="0" result="BackgroundImageFix"/>
<feColorMatrix in="SourceAlpha" type="matrix" values="0 0 0 0 0 0 0 0 0 0 0 0 0 0 0 0 0 0 127 0" result="hardAlpha"/>
<feOffset dy="4"/>
<feGaussianBlur stdDeviation="15"/>
<feComposite in2="hardAlpha" operator="out"/>
<feColorMatrix type="matrix" values="0 0 0 0 0.322337 0 0 0 0 0.396182 0 0 0 0 0.586068 0 0 0 0.1 0"/>
<feBlend mode="normal" in2="BackgroundImageFix" result="effect1_dropShadow_475_224"/>
<feBlend mode="normal" in="SourceGraphic" in2="effect1_dropShadow_475_224" result="shape"/>
</filter>
<filter id="filter4_d_475_224" x="1020" y="201" width="240" height="105" filterUnits="userSpaceOnUse" color-interpolation-filters="sRGB">
<feFlood flood-opacity="0" result="BackgroundImageFix"/>
<feColorMatrix in="SourceAlpha" type="matrix" values="0 0 0 0 0 0 0 0 0 0 0 0 0 0 0 0 0 0 127 0" result="hardAlpha"/>
<feOffset dy="4"/>
<feGaussianBlur stdDeviation="15"/>
<feComposite in2="hardAlpha" operator="out"/>
<feColorMatrix type="matrix" values="0 0 0 0 0.322337 0 0 0 0 0.396182 0 0 0 0 0.586068 0 0 0 0.1 0"/>
<feBlend mode="normal" in2="BackgroundImageFix" result="effect1_dropShadow_475_224"/>
<feBlend mode="normal" in="SourceGraphic" in2="effect1_dropShadow_475_224" result="shape"/>
</filter>
<filter id="filter5_d_475_224" x="204" y="201" width="240" height="105" filterUnits="userSpaceOnUse" color-interpolation-filters="sRGB">
<feFlood flood-opacity="0" result="BackgroundImageFix"/>
<feColorMatrix in="SourceAlpha" type="matrix" values="0 0 0 0 0 0 0 0 0 0 0 0 0 0 0 0 0 0 127 0" result="hardAlpha"/>
<feOffset dy="4"/>
<feGaussianBlur stdDeviation="15"/>
<feComposite in2="hardAlpha" operator="out"/>
<feColorMatrix type="matrix" values="0 0 0 0 0.322337 0 0 0 0 0.396182 0 0 0 0 0.586068 0 0 0 0.1 0"/>
<feBlend mode="normal" in2="BackgroundImageFix" result="effect1_dropShadow_475_224"/>
<feBlend mode="normal" in="SourceGraphic" in2="effect1_dropShadow_475_224" result="shape"/>
</filter>
<filter id="filter6_d_475_224" x="0" y="256" width="240" height="105" filterUnits="userSpaceOnUse" color-interpolation-filters="sRGB">
<feFlood flood-opacity="0" result="BackgroundImageFix"/>
<feColorMatrix in="SourceAlpha" type="matrix" values="0 0 0 0 0 0 0 0 0 0 0 0 0 0 0 0 0 0 127 0" result="hardAlpha"/>
<feOffset dy="4"/>
<feGaussianBlur stdDeviation="15"/>
<feComposite in2="hardAlpha" operator="out"/>
<feColorMatrix type="matrix" values="0 0 0 0 0.322337 0 0 0 0 0.396182 0 0 0 0 0.586068 0 0 0 0.1 0"/>
<feBlend mode="normal" in2="BackgroundImageFix" result="effect1_dropShadow_475_224"/>
<feBlend mode="normal" in="SourceGraphic" in2="effect1_dropShadow_475_224" result="shape"/>
</filter>
<filter id="filter7_d_475_224" x="408" y="256" width="240" height="105" filterUnits="userSpaceOnUse" color-interpolation-filters="sRGB">
<feFlood flood-opacity="0" result="BackgroundImageFix"/>
<feColorMatrix in="SourceAlpha" type="matrix" values="0 0 0 0 0 0 0 0 0 0 0 0 0 0 0 0 0 0 127 0" result="hardAlpha"/>
<feOffset dy="4"/>
<feGaussianBlur stdDeviation="15"/>
<feComposite in2="hardAlpha" operator="out"/>
<feColorMatrix type="matrix" values="0 0 0 0 0.322337 0 0 0 0 0.396182 0 0 0 0 0.586068 0 0 0 0.1 0"/>
<feBlend mode="normal" in2="BackgroundImageFix" result="effect1_dropShadow_475_224"/>
<feBlend mode="normal" in="SourceGraphic" in2="effect1_dropShadow_475_224" result="shape"/>
</filter>
<filter id="filter8_d_475_224" x="612" y="256" width="240" height="105" filterUnits="userSpaceOnUse" color-interpolation-filters="sRGB">
<feFlood flood-opacity="0" result="BackgroundImageFix"/>
<feColorMatrix in="SourceAlpha" type="matrix" values="0 0 0 0 0 0 0 0 0 0 0 0 0 0 0 0 0 0 127 0" result="hardAlpha"/>
<feOffset dy="4"/>
<feGaussianBlur stdDeviation="15"/>
<feComposite in2="hardAlpha" operator="out"/>
<feColorMatrix type="matrix" values="0 0 0 0 0.322337 0 0 0 0 0.396182 0 0 0 0 0.586068 0 0 0 0.1 0"/>
<feBlend mode="normal" in2="BackgroundImageFix" result="effect1_dropShadow_475_224"/>
<feBlend mode="normal" in="SourceGraphic" in2="effect1_dropShadow_475_224" result="shape"/>
</filter>
<filter id="filter9_d_475_224" x="612" y="421" width="240" height="105" filterUnits="userSpaceOnUse" color-interpolation-filters="sRGB">
<feFlood flood-opacity="0" result="BackgroundImageFix"/>
<feColorMatrix in="SourceAlpha" type="matrix" values="0 0 0 0 0 0 0 0 0 0 0 0 0 0 0 0 0 0 127 0" result="hardAlpha"/>
<feOffset dy="4"/>
<feGaussianBlur stdDeviation="15"/>
<feComposite in2="hardAlpha" operator="out"/>
<feColorMatrix type="matrix" values="0 0 0 0 0.322337 0 0 0 0 0.396182 0 0 0 0 0.586068 0 0 0 0.1 0"/>
<feBlend mode="normal" in2="BackgroundImageFix" result="effect1_dropShadow_475_224"/>
<feBlend mode="normal" in="SourceGraphic" in2="effect1_dropShadow_475_224" result="shape"/>
</filter>
<filter id="filter10_d_475_224" x="816" y="421" width="240" height="105" filterUnits="userSpaceOnUse" color-interpolation-filters="sRGB">
<feFlood flood-opacity="0" result="BackgroundImageFix"/>
<feColorMatrix in="SourceAlpha" type="matrix" values="0 0 0 0 0 0 0 0 0 0 0 0 0 0 0 0 0 0 127 0" result="hardAlpha"/>
<feOffset dy="4"/>
<feGaussianBlur stdDeviation="15"/>
<feComposite in2="hardAlpha" operator="out"/>
<feColorMatrix type="matrix" values="0 0 0 0 0.322337 0 0 0 0 0.396182 0 0 0 0 0.586068 0 0 0 0.1 0"/>
<feBlend mode="normal" in2="BackgroundImageFix" result="effect1_dropShadow_475_224"/>
<feBlend mode="normal" in="SourceGraphic" in2="effect1_dropShadow_475_224" result="shape"/>
</filter>
<filter id="filter11_d_475_224" x="816" y="256" width="240" height="105" filterUnits="userSpaceOnUse" color-interpolation-filters="sRGB">
<feFlood flood-opacity="0" result="BackgroundImageFix"/>
<feColorMatrix in="SourceAlpha" type="matrix" values="0 0 0 0 0 0 0 0 0 0 0 0 0 0 0 0 0 0 127 0" result="hardAlpha"/>
<feOffset dy="4"/>
<feGaussianBlur stdDeviation="15"/>
<feComposite in2="hardAlpha" operator="out"/>
<feColorMatrix type="matrix" values="0 0 0 0 0.322337 0 0 0 0 0.396182 0 0 0 0 0.586068 0 0 0 0.1 0"/>
<feBlend mode="normal" in2="BackgroundImageFix" result="effect1_dropShadow_475_224"/>
<feBlend mode="normal" in="SourceGraphic" in2="effect1_dropShadow_475_224" result="shape"/>
</filter>
<filter id="filter12_d_475_224" x="1020" y="256" width="240" height="105" filterUnits="userSpaceOnUse" color-interpolation-filters="sRGB">
<feFlood flood-opacity="0" result="BackgroundImageFix"/>
<feColorMatrix in="SourceAlpha" type="matrix" values="0 0 0 0 0 0 0 0 0 0 0 0 0 0 0 0 0 0 127 0" result="hardAlpha"/>
<feOffset dy="4"/>
<feGaussianBlur stdDeviation="15"/>
<feComposite in2="hardAlpha" operator="out"/>
<feColorMatrix type="matrix" values="0 0 0 0 0.322337 0 0 0 0 0.396182 0 0 0 0 0.586068 0 0 0 0.1 0"/>
<feBlend mode="normal" in2="BackgroundImageFix" result="effect1_dropShadow_475_224"/>
<feBlend mode="normal" in="SourceGraphic" in2="effect1_dropShadow_475_224" result="shape"/>
</filter>
<filter id="filter13_d_475_224" x="0" y="311" width="240" height="105" filterUnits="userSpaceOnUse" color-interpolation-filters="sRGB">
<feFlood flood-opacity="0" result="BackgroundImageFix"/>
<feColorMatrix in="SourceAlpha" type="matrix" values="0 0 0 0 0 0 0 0 0 0 0 0 0 0 0 0 0 0 127 0" result="hardAlpha"/>
<feOffset dy="4"/>
<feGaussianBlur stdDeviation="15"/>
<feComposite in2="hardAlpha" operator="out"/>
<feColorMatrix type="matrix" values="0 0 0 0 0.322337 0 0 0 0 0.396182 0 0 0 0 0.586068 0 0 0 0.1 0"/>
<feBlend mode="normal" in2="BackgroundImageFix" result="effect1_dropShadow_475_224"/>
<feBlend mode="normal" in="SourceGraphic" in2="effect1_dropShadow_475_224" result="shape"/>
</filter>
<filter id="filter14_d_475_224" x="408" y="311" width="240" height="105" filterUnits="userSpaceOnUse" color-interpolation-filters="sRGB">
<feFlood flood-opacity="0" result="BackgroundImageFix"/>
<feColorMatrix in="SourceAlpha" type="matrix" values="0 0 0 0 0 0 0 0 0 0 0 0 0 0 0 0 0 0 127 0" result="hardAlpha"/>
<feOffset dy="4"/>
<feGaussianBlur stdDeviation="15"/>
<feComposite in2="hardAlpha" operator="out"/>
<feColorMatrix type="matrix" values="0 0 0 0 0.322337 0 0 0 0 0.396182 0 0 0 0 0.586068 0 0 0 0.1 0"/>
<feBlend mode="normal" in2="BackgroundImageFix" result="effect1_dropShadow_475_224"/>
<feBlend mode="normal" in="SourceGraphic" in2="effect1_dropShadow_475_224" result="shape"/>
</filter>
</defs>
</svg>
