<svg width="324" height="542" viewBox="0 0 324 542" fill="none" xmlns="http://www.w3.org/2000/svg">
<line x1="89.5" y1="156" x2="89.5" y2="241" stroke="#2674FF" stroke-dasharray="2 2"/>
<line x1="235.5" y1="156" x2="235.5" y2="241" stroke="#2674FF" stroke-dasharray="2 2"/>
<line x1="255.5" y1="278" x2="255.5" y2="343" stroke="#2674FF" stroke-dasharray="2 2"/>
<line x1="162.5" y1="335" x2="162.5" y2="400" stroke="#2674FF" stroke-dasharray="2 2"/>
<line x1="223.5" y1="380" x2="223.5" y2="400" stroke="#2674FF" stroke-dasharray="2 2"/>
<rect x="79" width="166" height="40" rx="8" fill="#2674FF"/>
<path d="M145.09 12.1738V28.0645H143.227V19.9609H141.434V27.2559H139.641V12.4727H141.434V18.3965H143.227V12.1738H145.09ZM131.906 24.3555V14.0547H137.848V15.6367H133.875V22.7031C135.598 22.6855 137.021 22.5977 138.639 22.2988L138.779 23.8984C136.854 24.2852 135.193 24.3379 132.979 24.3555H131.906ZM161.49 24.6543V26.2363H146.971V24.6543H150.732V21.3848H148.219V19.8027H150.451V15.0918H148.166V13.5273H160.225V15.0918H157.904V19.8027H160.172V21.3848H157.658V24.6543H161.49ZM152.402 19.8027H155.971V15.0918H152.402V19.8027ZM152.684 24.6543H155.707V21.3848H152.684V24.6543ZM175.746 12.1738V28.082H173.777V12.1738H175.746ZM163.037 18.9414C163.028 15.5137 164.777 13.334 167.186 13.334C169.567 13.334 171.325 15.5137 171.334 18.9414C171.325 22.3955 169.567 24.5664 167.186 24.5664C164.777 24.5664 163.028 22.3955 163.037 18.9414ZM164.918 18.9414C164.918 21.3848 165.841 22.7998 167.186 22.8086C168.521 22.7998 169.436 21.3848 169.436 18.9414C169.436 16.5156 168.521 15.0918 167.186 15.0918C165.841 15.0918 164.918 16.5156 164.918 18.9414ZM183.762 15.9883C183.744 18.8271 185.168 21.6924 187.629 22.8789L186.434 24.4434C184.711 23.5732 183.472 21.8945 182.795 19.873C182.101 22.0352 180.8 23.8281 178.98 24.7422L177.785 23.1777C180.343 21.9648 181.802 18.9238 181.811 15.9883V13.457H183.762V15.9883ZM188.578 28.0645V12.1738H190.529V18.3965H192.973V20.0664H190.529V28.0645H188.578Z" fill="white"/>
<g filter="url(#filter0_d_386_2445)">
<rect x="30" y="400" width="264" height="108" rx="8" fill="white"/>
<rect x="30.5" y="400.5" width="263" height="107" rx="7.5" stroke="#2674FF"/>
<path d="M106.273 448V436.688H107.68V442.281H107.82L112.852 436.688H114.695L109.961 441.797L114.695 448H112.977L109.086 442.766L107.68 444.359V448H106.273ZM119.258 441.734V442.969H114.305V441.734H119.258ZM121.492 436.688H123.18L126.992 446H127.133L130.945 436.688H132.633V448H131.305V439.453H131.195L127.68 448H126.43L122.914 439.453H122.82V448H121.492V436.688ZM138.43 448.172C136.117 448.18 134.555 446.43 134.555 443.797C134.555 441.148 136.117 439.406 138.43 439.406C140.734 439.406 142.281 441.148 142.273 443.797C142.281 446.43 140.734 448.18 138.43 448.172ZM135.898 443.797C135.906 445.492 136.703 446.984 138.43 446.984C140.141 446.984 140.93 445.492 140.93 443.797C140.93 442.109 140.141 440.594 138.43 440.594C136.703 440.594 135.906 442.109 135.898 443.797ZM150.711 439.516L147.57 448H146.18L143.055 439.516H144.523L146.836 446.25H146.93L149.242 439.516H150.711ZM155.445 448.172C152.992 448.18 151.477 446.43 151.477 443.828C151.477 441.219 153.016 439.406 155.32 439.406C157.102 439.406 158.984 440.5 158.977 443.641V444.203H152.82C152.891 446 153.938 446.984 155.445 446.984C156.461 446.984 157.102 446.539 157.414 446.016H158.852C158.453 447.305 157.195 448.18 155.445 448.172ZM152.828 443.062H157.617C157.609 441.648 156.719 440.594 155.32 440.594C153.852 440.594 152.922 441.75 152.828 443.062ZM168.164 435.891C170.242 435.898 171.75 437.164 171.758 438.969C171.75 440.781 170.242 442.031 168.164 442.031C166.062 442.031 164.547 440.781 164.555 438.969C164.547 437.164 166.062 435.898 168.164 435.891ZM165.758 438.969C165.742 440.188 166.766 441.031 168.164 441.031C169.539 441.031 170.57 440.188 170.57 438.969C170.57 437.766 169.539 436.914 168.164 436.922C166.766 436.914 165.742 437.766 165.758 438.969ZM166.664 444.172V443.188H175.695V446.531H167.898V448.094H176.195V449.078H166.695V445.609H174.477V444.172H166.664ZM174.477 442.516V435.375H175.695V442.516H174.477ZM180.961 435.938V437.703H187.836V435.938H189.055V441.484H184.992V442.969H190.711V443.984H178.055V442.969H183.773V441.484H179.742V435.938H180.961ZM179.695 448.969V445.094H180.93V447.938H189.305V448.969H179.695ZM180.961 440.5H187.836V438.672H180.961V440.5ZM197.117 438C197.125 439.406 198.5 440.594 200.477 441.031L199.977 442.016C198.375 441.617 197.141 440.773 196.531 439.648C195.938 440.867 194.688 441.797 193.039 442.203L192.508 441.219C194.516 440.773 195.898 439.484 195.898 438V437.938H192.805V436.969H195.898V435.422H197.117V436.969H200.211V437.938H197.117V438ZM191.852 443.188C194.516 443.18 198.039 443.164 201.117 442.766L201.195 443.656C199.867 443.875 198.492 444.008 197.148 444.094V448.859H195.93V444.156C194.523 444.211 193.188 444.219 192.023 444.219L191.852 443.188ZM202.133 449.281V435.391H203.336V449.281H202.133ZM209.539 436.031C211.398 436.023 212.82 437.109 213.086 438.703H215.992V435.375H217.227V442.828H215.992V439.719H213.094C212.852 441.359 211.422 442.453 209.539 442.453C207.422 442.453 205.922 441.141 205.93 439.234C205.922 437.352 207.422 436.023 209.539 436.031ZM207.102 439.234C207.102 440.5 208.109 441.414 209.539 441.422C210.938 441.414 211.945 440.5 211.945 439.234C211.945 437.953 210.938 437.062 209.539 437.078C208.109 437.062 207.102 437.953 207.102 439.234ZM208.273 449.078V443.531H209.508V445.297H215.992V443.531H217.227V449.078H208.273ZM209.508 448.078H215.992V446.281H209.508V448.078ZM105.398 460.688V472H103.992V460.688H105.398ZM107.273 461.938V460.688H115.805V461.938H112.258V472H110.836V461.938H107.273ZM132.867 459.375V473.266H131.664V466H129.742V472.578H128.57V459.75H129.742V464.984H131.664V459.375H132.867ZM121.023 469.422C124.25 467.617 125.578 465.078 125.789 462.203H121.555V461.188H126.992C126.977 464.719 125.734 468.055 121.742 470.281L121.023 469.422ZM136.633 459.969V461.969H140.68V459.969H141.898V466.016H135.43V459.969H136.633ZM136.633 465.016H140.68V462.922H136.633V465.016ZM136.836 468.203V467.219H145.695V470.578H138.07V472.109H146.211V473.109H136.867V469.641H144.477V468.203H136.836ZM144.477 466.562V459.375H145.695V462.391H147.789V463.422H145.695V466.562H144.477ZM153.367 463.641C153.352 465.867 154.961 468.32 156.977 469.281L156.273 470.25C154.711 469.484 153.391 467.844 152.766 465.961C152.125 468 150.734 469.797 149.18 470.594L148.43 469.625C150.43 468.648 152.148 466.008 152.164 463.641V461.828H148.93V460.812H156.492V461.828H153.367V463.641ZM158.195 473.266V459.375H159.414V465H161.742V466.047H159.414V473.266H158.195ZM178.023 459.391V469.656H176.789V465.906H173.195C172.555 466.727 171.523 467.219 170.336 467.219C168.258 467.219 166.719 465.781 166.727 463.75C166.719 461.711 168.258 460.273 170.336 460.266C171.516 460.273 172.531 460.758 173.18 461.562H176.789V459.391H178.023ZM167.898 463.75C167.898 465.141 168.914 466.133 170.336 466.125C171.703 466.133 172.742 465.141 172.742 463.75C172.742 462.367 171.703 461.367 170.336 461.359C168.914 461.367 167.898 462.367 167.898 463.75ZM169.102 472.969V468.578H170.336V471.938H178.414V472.969H169.102ZM173.734 462.578C173.859 462.938 173.93 463.328 173.93 463.75C173.93 464.156 173.859 464.539 173.742 464.891H176.789V462.578H173.734ZM187.305 460.672C187.312 462.633 189.859 464.32 192.367 464.672L191.867 465.672C189.711 465.312 187.57 464.117 186.68 462.414C185.789 464.133 183.656 465.312 181.492 465.672L180.992 464.672C183.5 464.32 186.039 462.664 186.039 460.672V459.875H187.305V460.672ZM180.336 468.234V467.203H192.992V468.234H187.242V473.266H186.039V468.234H180.336ZM201.867 460.922V461.641C201.859 462.742 201.859 464.578 201.461 467.156L200.227 467.047C200.609 464.719 200.641 463.031 200.633 461.922H194.805V460.922H201.867ZM194.023 469.188C194.938 469.18 195.953 469.172 197.023 469.148V464.891H198.227V469.109C199.766 469.055 201.344 468.953 202.789 468.781L202.852 469.703C199.93 470.156 196.664 470.219 194.18 470.203L194.023 469.188ZM203.664 473.266V459.375H204.883V465.188H207.133V466.25H204.883V473.266H203.664ZM219.508 459.375V467.656H218.273V464.016H215.477V463H218.273V459.375H219.508ZM208.055 466.547C210.117 465.805 211.586 463.922 211.586 461.938V461.422H208.445V460.391H215.93V461.422H212.82V461.922C212.82 463.734 214.211 465.461 216.242 466.156L215.602 467.141C214.047 466.578 212.836 465.406 212.234 463.977C211.641 465.602 210.352 466.898 208.695 467.531L208.055 466.547ZM210.242 470.672C210.234 469.039 212.008 468.086 214.898 468.094C217.781 468.086 219.555 469.039 219.555 470.672C219.555 472.312 217.781 473.25 214.898 473.266C212.008 473.25 210.234 472.312 210.242 470.672ZM211.461 470.672C211.453 471.68 212.766 472.289 214.898 472.281C217.023 472.289 218.336 471.68 218.336 470.672C218.336 469.656 217.023 469.047 214.898 469.047C212.766 469.047 211.453 469.656 211.461 470.672Z" fill="#3C3C3C"/>
</g>
<g filter="url(#filter1_d_386_2445)">
<rect x="79" y="54" width="166" height="39" rx="8" fill="white"/>
<path d="M112.822 66.9531V79.1074H111.742V66.9531H112.822ZM102.924 75.9492C106.212 74.3906 107.894 72.0596 108.133 69.1543H103.484V68.2793H109.227C109.213 71.7725 107.586 74.8691 103.512 76.8242L102.924 75.9492ZM120.971 67.4863C120.964 68.9971 123.158 70.1592 125.346 70.4258L124.963 71.2461C123.049 70.9863 121.176 70.1318 120.41 68.8193C119.631 70.1318 117.751 70.9863 115.857 71.2461L115.488 70.4258C117.669 70.1592 119.863 68.9971 119.863 67.4863V67.0215H120.971V67.4863ZM114.873 72.9141V72.0391H125.947V72.9141H120.93V74.1309H124.525V76.8926H117.307V78.123H124.895V78.9707H116.24V76.0859H123.473V74.9785H116.213V74.1309H119.863V72.9141H114.873ZM136.83 67.7461V72.6953H131.129V67.7461H136.83ZM132.004 78.2324C134.096 78 136.105 76.8174 136.105 75.6074H132.51V74.7734H136.119V73.584H137.186V74.7734H140.822V75.6074H137.213C137.206 76.79 139.161 77.9727 141.246 78.2324L140.877 79.0664C139.052 78.8135 137.384 77.9521 136.659 76.8311C135.928 77.9795 134.219 78.8135 132.387 79.0664L132.004 78.2324ZM132.182 71.8477H135.777V68.6211H132.182V71.8477ZM139.455 73.9395V66.9531H140.508V73.9395H139.455ZM155.861 68.1836V69.5371C155.854 71.0957 155.854 72.6611 155.424 74.9238L154.371 74.8008C154.802 72.6543 154.802 71.0547 154.809 69.5371V69.0723H147.262V68.1836H155.861ZM146.1 77.3848V76.4961H148.848V72.4902H149.914V76.4961H151.883V72.4902H152.936V76.4961H157.174V77.3848H146.1ZM169.273 72.8184V73.6934H166.32V75.2383H167.906V79.1074H166.826V76.0996H159.43V75.2383H161.139V73.6934H158.199V72.8184H169.273ZM159.43 69.5645C159.43 68.1084 161.091 67.2402 163.736 67.2539C166.368 67.2402 168.022 68.1084 168.029 69.5645C168.022 71.0273 166.368 71.9023 163.736 71.8887C161.091 71.9023 159.43 71.0273 159.43 69.5645ZM160.537 69.5645C160.53 70.4873 161.768 71.0479 163.736 71.0547C165.685 71.0479 166.929 70.4873 166.936 69.5645C166.929 68.6621 165.685 68.1016 163.736 68.1152C161.768 68.1016 160.53 68.6621 160.537 69.5645ZM162.219 75.2383H165.268V73.6934H162.219V75.2383ZM174.414 70.6855C174.4 72.6338 175.809 74.7803 177.572 75.6211L176.957 76.4688C175.59 75.7988 174.435 74.3633 173.888 72.7158C173.327 74.5 172.11 76.0723 170.75 76.7695L170.094 75.9219C171.844 75.0674 173.348 72.7568 173.361 70.6855V69.0996H170.531V68.2109H177.148V69.0996H174.414V70.6855ZM178.639 79.1074V66.9531H179.705V71.875H181.742V72.791H179.705V79.1074H178.639ZM193.514 73.1738V74.0625H188.564V76.5508H187.498V74.0625H182.385V73.1738H193.514ZM183.807 78.8477V75.3477H184.887V77.9453H192.27V78.8477H183.807ZM183.834 71.7793V67.5547H192.064V71.7793H183.834ZM184.887 70.918H190.998V68.4023H184.887V70.918ZM202.018 67.5547C203.836 67.541 205.142 68.5459 205.135 70.0293C205.142 71.5127 203.836 72.5244 202.018 72.5176C200.199 72.5244 198.9 71.5127 198.9 70.0293C198.9 68.5459 200.199 67.541 202.018 67.5547ZM197.984 73.5566C200.268 73.5635 203.392 73.5156 206.092 73.1191L206.16 73.9258C204.998 74.1377 203.795 74.2676 202.619 74.3428V78.7383H201.553V74.4043C200.315 74.459 199.146 74.4658 198.135 74.4727L197.984 73.5566ZM199.953 70.0293C199.939 70.9795 200.808 71.6357 202.018 71.6289C203.241 71.6357 204.116 70.9795 204.109 70.0293C204.116 69.0859 203.241 68.416 202.018 68.4297C200.808 68.416 199.939 69.0859 199.953 70.0293ZM206.98 79.1211V66.9668H208.033V79.1211H206.98ZM220.133 66.9668V76.1953H219.053V74.9375H216.537V74.1582H219.053V66.9668H220.133ZM210.043 72.5996C212.306 72.5859 215.354 72.5654 217.959 72.2441L218.027 73.0234C216.947 73.1943 215.806 73.3037 214.691 73.3721V75.7715H213.611V73.4268C212.381 73.4746 211.212 73.4746 210.193 73.4746L210.043 72.5996ZM211.027 69.5781C211.021 68.2998 212.237 67.459 214.035 67.459C215.819 67.459 217.036 68.2998 217.043 69.5781C217.036 70.877 215.819 71.6836 214.035 71.6836C212.237 71.6836 211.021 70.877 211.027 69.5781ZM211.793 78.8477V75.293H212.873V77.9453H220.434V78.8477H211.793ZM212.053 69.5781C212.039 70.3711 212.846 70.8838 214.035 70.8906C215.19 70.8838 216.011 70.3711 216.018 69.5781C216.011 68.7988 215.19 68.2656 214.035 68.2793C212.846 68.2656 212.039 68.7988 212.053 69.5781Z" fill="#3B424F"/>
</g>
<rect x="30" y="119" width="122" height="37" rx="8" fill="#2674FF"/>
<path d="M65.4609 130.871V138.09H63.9434V136.723H61.0039V135.492H63.9434V134.166H61.1201C60.3408 136.128 58.5361 137.502 55.8496 138.254L55.2344 137.051C58.126 136.271 59.6709 134.802 59.9033 132.963H55.8906V131.732H61.5645C61.5645 132.163 61.5303 132.573 61.4619 132.963H63.9434V130.871H65.4609ZM57.1758 140.688C57.1758 139.17 58.8369 138.233 61.373 138.227C63.875 138.233 65.543 139.17 65.543 140.688C65.543 142.205 63.875 143.155 61.373 143.148C58.8369 143.155 57.1758 142.205 57.1758 140.688ZM58.6934 140.688C58.6934 141.501 59.7119 141.945 61.373 141.945C63.0068 141.945 64.0186 141.501 64.0254 140.688C64.0186 139.86 63.0068 139.416 61.373 139.416C59.7119 139.416 58.6934 139.86 58.6934 140.688ZM70.6426 131.555C71.6406 131.548 72.5088 131.917 73.0898 132.539H76.043V130.857H77.5605V138.131H76.043V136.559H73.083C72.4951 137.167 71.6338 137.536 70.6426 137.529C68.7764 137.536 67.375 136.285 67.375 134.549C67.375 132.799 68.7764 131.548 70.6426 131.555ZM68.8242 134.549C68.8242 135.561 69.583 136.244 70.6426 136.244C71.668 136.244 72.4268 135.561 72.4336 134.549C72.4268 133.503 71.668 132.854 70.6426 132.854C69.583 132.854 68.8242 133.503 68.8242 134.549ZM69.1797 140.797C69.166 139.272 70.7861 138.384 73.377 138.391C75.9746 138.384 77.5947 139.272 77.6016 140.797C77.5947 142.314 75.9746 143.203 73.377 143.203C70.7861 143.203 69.166 142.314 69.1797 140.797ZM70.6699 140.797C70.6562 141.583 71.6611 142.007 73.377 142.014C75.127 142.007 76.1113 141.583 76.1113 140.797C76.1113 139.99 75.127 139.56 73.377 139.553C71.6611 139.56 70.6562 139.99 70.6699 140.797ZM73.7734 133.756C73.8418 134.009 73.8828 134.269 73.8828 134.549C73.8828 134.822 73.8418 135.082 73.7803 135.328H76.043V133.756H73.7734ZM90.5898 136.969V138.186H85.8184V140.455H84.2734V138.186H79.2969V136.969H90.5898ZM80.5 133.66C80.4932 132.108 82.2705 131.131 84.9297 131.131C87.6025 131.131 89.3594 132.108 89.3594 133.66C89.3594 135.219 87.6025 136.183 84.9297 136.176C82.2705 136.183 80.4932 135.219 80.5 133.66ZM80.6777 142.971V139.307H82.209V141.727H89.3457V142.971H80.6777ZM82.1406 133.66C82.127 134.48 83.2344 134.959 84.9297 134.959C86.6387 134.959 87.7393 134.48 87.7324 133.66C87.7393 132.812 86.6387 132.334 84.9297 132.334C83.2344 132.334 82.127 132.812 82.1406 133.66ZM94.8418 131.555C95.8398 131.548 96.708 131.917 97.2891 132.539H100.242V130.857H101.76V138.131H100.242V136.559H97.2822C96.6943 137.167 95.833 137.536 94.8418 137.529C92.9756 137.536 91.5742 136.285 91.5742 134.549C91.5742 132.799 92.9756 131.548 94.8418 131.555ZM93.0234 134.549C93.0234 135.561 93.7822 136.244 94.8418 136.244C95.8672 136.244 96.626 135.561 96.6328 134.549C96.626 133.503 95.8672 132.854 94.8418 132.854C93.7822 132.854 93.0234 133.503 93.0234 134.549ZM93.3789 140.797C93.3652 139.272 94.9854 138.384 97.5762 138.391C100.174 138.384 101.794 139.272 101.801 140.797C101.794 142.314 100.174 143.203 97.5762 143.203C94.9854 143.203 93.3652 142.314 93.3789 140.797ZM94.8691 140.797C94.8555 141.583 95.8604 142.007 97.5762 142.014C99.3262 142.007 100.311 141.583 100.311 140.797C100.311 139.99 99.3262 139.56 97.5762 139.553C95.8604 139.56 94.8555 139.99 94.8691 140.797ZM97.9727 133.756C98.041 134.009 98.082 134.269 98.082 134.549C98.082 134.822 98.041 135.082 97.9795 135.328H100.242V133.756H97.9727ZM110.414 131.773V132.512C110.4 133.353 110.4 134.583 110.113 136.148L108.609 136.012C108.855 134.74 108.903 133.79 108.917 133.031H104.111V131.773H110.414ZM103.373 137.133C104.104 137.126 104.925 137.119 105.793 137.105V134.59H107.297V137.058C108.575 137.003 109.888 136.907 111.084 136.736L111.166 137.83C108.596 138.295 105.677 138.343 103.51 138.35L103.373 137.133ZM105.219 142.971V139.293H106.75V141.74H113.764V142.971H105.219ZM111.809 140.113V130.857H113.367V134.713H114.967V135.984H113.367V140.113H111.809ZM125.904 130.857V143.23H124.4V130.857H125.904ZM116.279 133.168V131.938H122.104V136.572H117.852V139.061C119.8 139.047 121.475 138.944 123.402 138.623L123.539 139.867C121.44 140.229 119.595 140.312 117.373 140.305H116.293V135.369H120.559V133.168H116.279Z" fill="white"/>
<rect x="30" y="241" width="122" height="37" rx="8" fill="#2674FF"/>
<path d="M58.8916 254.061V262.154H53.04V254.061H58.8916ZM54.5303 260.938H57.374V255.25H54.5303V260.938ZM60.7646 265.217V252.857H62.2822V257.602H64.1826V258.887H62.2822V265.217H60.7646ZM70.1846 254.279C70.1777 255.441 70.0684 256.556 69.7812 257.602H71.3057V253.158H72.7412V264.629H71.3057V258.832H69.3301C68.6533 260.322 67.4844 261.635 65.5635 262.715L64.7021 261.676C66.377 260.719 67.4092 259.604 68.0107 258.326L64.9209 258.641L64.7432 257.328L68.4414 257.123C68.5713 256.61 68.6533 256.07 68.6943 255.51H65.3447V254.279H70.1846ZM73.917 265.217V252.857H75.3662V265.217H73.917ZM83.46 253.746V254.949H79.0303V256.125H83.1045V257.314H79.0303V258.504C81.3408 258.511 82.749 258.477 84.376 258.203L84.5264 259.406C82.7559 259.7 81.2041 259.741 78.5381 259.734H77.4854V253.746H83.46ZM78.7021 262.893C78.6953 261.43 80.2881 260.575 82.9268 260.582C85.5176 260.575 87.1514 261.43 87.1514 262.893C87.1514 264.355 85.5176 265.203 82.9268 265.203C80.2881 265.203 78.6953 264.355 78.7021 262.893ZM80.2197 262.893C80.2061 263.631 81.1699 264.027 82.9268 264.027C84.6426 264.027 85.6338 263.631 85.6338 262.893C85.6338 262.161 84.6426 261.758 82.9268 261.758C81.1699 261.758 80.2061 262.161 80.2197 262.893ZM85.5654 260.404V252.871H87.0967V260.404H85.5654ZM93.3584 253.637L90.1729 265.49H88.6416L91.8408 253.637H93.3584ZM97.3506 253.555C98.3486 253.548 99.2168 253.917 99.7979 254.539H102.751V252.857H104.269V260.131H102.751V258.559H99.791C99.2031 259.167 98.3418 259.536 97.3506 259.529C95.4844 259.536 94.083 258.285 94.083 256.549C94.083 254.799 95.4844 253.548 97.3506 253.555ZM95.5322 256.549C95.5322 257.561 96.291 258.244 97.3506 258.244C98.376 258.244 99.1348 257.561 99.1416 256.549C99.1348 255.503 98.376 254.854 97.3506 254.854C96.291 254.854 95.5322 255.503 95.5322 256.549ZM95.8877 262.797C95.874 261.272 97.4941 260.384 100.085 260.391C102.683 260.384 104.303 261.272 104.31 262.797C104.303 264.314 102.683 265.203 100.085 265.203C97.4941 265.203 95.874 264.314 95.8877 262.797ZM97.3779 262.797C97.3643 263.583 98.3691 264.007 100.085 264.014C101.835 264.007 102.819 263.583 102.819 262.797C102.819 261.99 101.835 261.56 100.085 261.553C98.3691 261.56 97.3643 261.99 97.3779 262.797ZM100.481 255.756C100.55 256.009 100.591 256.269 100.591 256.549C100.591 256.822 100.55 257.082 100.488 257.328H102.751V255.756H100.481ZM109.45 253.404C111.05 253.397 112.308 254.32 112.615 255.674H114.851V252.857H116.368V259.488H114.851V256.904H112.629C112.335 258.292 111.063 259.229 109.45 259.229C107.557 259.229 106.183 258.012 106.183 256.303C106.183 254.614 107.557 253.397 109.45 253.404ZM107.632 256.303C107.632 257.294 108.384 257.95 109.45 257.943C110.489 257.95 111.234 257.294 111.241 256.303C111.234 255.312 110.489 254.669 109.45 254.676C108.384 254.669 107.632 255.312 107.632 256.303ZM108.22 265.066V260.062H109.724V261.375H114.851V260.062H116.368V265.066H108.22ZM109.724 263.836H114.851V262.551H109.724V263.836ZM124.776 253.582V254.812H120.347V255.961H124.421V257.15H120.347V258.367C122.657 258.367 124.065 258.326 125.692 258.053L125.843 259.242C124.072 259.55 122.521 259.584 119.854 259.57H118.802V253.582H124.776ZM120.21 265.066V260.76H128.413V265.066H120.21ZM121.714 263.836H126.923V261.936H121.714V263.836ZM126.882 260.213V252.871H128.413V260.213H126.882Z" fill="white"/>
<rect x="172" y="241" width="122" height="37" rx="8" fill="#2674FF"/>
<path d="M211.412 253.418V254.361C211.419 255.277 211.419 256.344 211.146 257.725H212.793V258.955H207.885V260.883H211.439V265.217H209.922V262.1H202.648V260.883H206.367V258.955H201.5V257.725H209.621C209.867 256.453 209.895 255.489 209.895 254.635H202.895V253.418H211.412ZM224.209 252.857V265.217H222.746V258.969H221.379V264.588H219.957V253.09H221.379V257.725H222.746V252.857H224.209ZM214.133 262.141V254.279H215.664V260.801C216.73 260.78 217.893 260.685 219.191 260.432L219.342 261.758C217.674 262.052 216.259 262.141 214.953 262.141H214.133ZM239.631 252.857V265.217H238.168V258.873H236.842V264.643H235.42V253.186H236.842V257.643H238.168V252.857H239.631ZM228.926 261.58C231.558 260.062 232.672 258.107 232.891 255.633H229.5V254.416H234.367C234.367 257.759 233.314 260.63 229.801 262.633L228.926 261.58ZM243.049 253.404V254.977H245.934V253.404H247.438V258.791H241.545V253.404H243.049ZM242.789 260.869V259.68H250.869V262.92H244.307V263.904H251.252V265.107H242.803V261.812H249.352V260.869H242.789ZM243.049 257.588H245.934V256.125H243.049V257.588ZM249.352 259.188V252.857H250.869V255.359H252.592V256.59H250.869V259.188H249.352ZM259.879 253.582V254.812H255.449V255.961H259.523V257.15H255.449V258.367C257.76 258.367 259.168 258.326 260.795 258.053L260.945 259.242C259.175 259.55 257.623 259.584 254.957 259.57H253.904V253.582H259.879ZM255.312 265.066V260.76H263.516V265.066H255.312ZM256.816 263.836H262.025V261.936H256.816V263.836ZM261.984 260.213V252.871H263.516V260.213H261.984Z" fill="white"/>
<rect x="172" y="119" width="122" height="37" rx="8" fill="#2674FF"/>
<path d="M225.583 130.857V143.217H224.052V130.857H225.583ZM215.343 139.812C218.583 138.274 220.073 136.183 220.347 133.373H215.972V132.17H221.892C221.892 135.848 220.463 138.972 216.136 141.029L215.343 139.812ZM235.112 131.842V132.963H227.798V131.842H230.683V130.789H232.2V131.842H235.112ZM227.415 137.721C228.399 137.721 229.521 137.721 230.683 137.687V136.962C229.281 136.791 228.406 136.135 228.413 135.178C228.406 134.029 229.616 133.312 231.462 133.318C233.26 133.312 234.497 134.029 234.497 135.178C234.497 136.142 233.588 136.798 232.2 136.969V137.632C233.246 137.577 234.292 137.495 235.276 137.365L235.386 138.404C232.733 138.855 229.814 138.89 227.62 138.896L227.415 137.721ZM229.165 140.893V139.703H237.669V143.217H236.138V140.893H229.165ZM229.876 135.178C229.869 135.684 230.484 135.984 231.462 135.971C232.398 135.984 233.041 135.684 233.048 135.178C233.041 134.631 232.398 134.337 231.462 134.344C230.484 134.337 229.869 134.631 229.876 135.178ZM236.138 139.197V130.885H237.669V139.197H236.138ZM246.118 131.582V132.812H241.688V133.961H245.763V135.15H241.688V136.367C243.999 136.367 245.407 136.326 247.034 136.053L247.185 137.242C245.414 137.55 243.862 137.584 241.196 137.57H240.144V131.582H246.118ZM241.552 143.066V138.76H249.755V143.066H241.552ZM243.056 141.836H248.265V139.936H243.056V141.836ZM248.224 138.213V130.871H249.755V138.213H248.224Z" fill="white"/>
<g filter="url(#filter2_d_386_2445)">
<rect x="30" y="176" width="122" height="37" rx="8" fill="white"/>
<path d="M55.7197 191.221C55.7197 193.36 57.1348 195.568 58.8643 196.416L58.208 197.277C56.8682 196.58 55.7471 195.138 55.207 193.449C54.667 195.24 53.5186 196.778 52.1514 197.51L51.4678 196.648C53.2451 195.773 54.6533 193.442 54.667 191.221V189.006H55.7197V191.221ZM59.9854 200.107V187.953H61.0518V192.889H63.0889V193.818H61.0518V200.107H59.9854ZM67.0947 188.527C68.7217 188.521 69.9658 189.471 70.1982 190.865H72.7412V187.953H73.8213V194.475H72.7412V191.754H70.2051C69.9932 193.189 68.7422 194.146 67.0947 194.146C65.2422 194.146 63.9297 192.998 63.9365 191.33C63.9297 189.683 65.2422 188.521 67.0947 188.527ZM64.9619 191.33C64.9619 192.438 65.8438 193.237 67.0947 193.244C68.3184 193.237 69.2002 192.438 69.2002 191.33C69.2002 190.209 68.3184 189.43 67.0947 189.443C65.8438 189.43 64.9619 190.209 64.9619 191.33ZM65.9873 199.943V195.09H67.0674V196.635H72.7412V195.09H73.8213V199.943H65.9873ZM67.0674 199.068H72.7412V197.496H67.0674V199.068ZM82.585 188.896V189.539C82.5781 190.339 82.5781 191.549 82.2705 193.135L81.1904 193.053C81.4844 191.604 81.5117 190.571 81.5254 189.799H76.5283V188.896H82.585ZM75.7764 194.27C76.5625 194.27 77.4512 194.263 78.3877 194.235V191.59H79.4541V194.201C80.8008 194.146 82.1953 194.051 83.46 193.873L83.5283 194.666C80.9785 195.104 78.0527 195.151 75.8857 195.158L75.7764 194.27ZM77.6494 199.848V196.279H78.7295V198.945H85.7705V199.848H77.6494ZM84.2803 197.1V187.953H85.374V191.918H87.1514V192.834H85.374V197.1H84.2803ZM97.9795 187.953V200.135H96.9131V187.953H97.9795ZM88.6279 189.977V189.088H94.2881V193.408H89.749V196.279C91.7656 196.286 93.5635 196.19 95.7373 195.842L95.8467 196.744C93.6113 197.093 91.7656 197.182 89.667 197.182H88.6553V192.533H93.208V189.977H88.6279ZM102.04 198.084L100.974 201.803H99.9619L100.714 198.084H102.04ZM113.415 188.746C113.408 191.795 111.228 193.982 107.728 194.98L107.276 194.133C110.182 193.312 112.041 191.699 112.273 189.635H107.905V188.746H113.415ZM109.327 199.943V195.418H117.216V199.943H109.327ZM110.366 199.068H116.149V196.279H110.366V199.068ZM113.442 192V191.098H116.136V187.967H117.216V194.898H116.136V192H113.442ZM129.083 194.283V195.158H125.31V197.701H130.368V198.59H119.239V197.701H124.243V195.158H120.675V188.951H128.946V189.84H121.769V191.576H128.687V192.451H121.769V194.283H129.083Z" fill="#2674FF"/>
</g>
<g filter="url(#filter3_d_386_2445)">
<rect x="101" y="298" width="122" height="37" rx="8" fill="white"/>
<path d="M126.207 310.746V311.812C126.207 312.961 126.207 314.226 125.858 315.969H127.67V316.857H122.652V322.135H121.572V316.857H116.596V315.969H124.771C125.141 314.219 125.141 312.947 125.141 311.812V311.635H117.99V310.746H126.207ZM138.73 309.967V318.854H137.664V309.967H138.73ZM128.982 313.795C128.976 312.045 130.35 310.821 132.168 310.814C133.986 310.821 135.347 312.045 135.354 313.795C135.347 315.565 133.986 316.796 132.168 316.789C130.35 316.796 128.976 315.565 128.982 313.795ZM130.035 313.795C130.021 315.005 130.938 315.846 132.168 315.846C133.378 315.846 134.301 315.005 134.301 313.795C134.301 312.605 133.378 311.758 132.168 311.758C130.938 311.758 130.021 312.605 130.035 313.795ZM130.883 321.848V317.951H131.949V320.945H139.113V321.848H130.883ZM150.871 309.953V322.135H149.791V315.736H147.125V314.848H149.791V309.953H150.871ZM140.822 318.922C142.606 318.088 143.939 316.01 143.939 313.918V312.947H141.15V312.072H143.939V310.186H145.006V312.072H147.754V312.947H144.992V313.918C144.992 315.921 146.366 317.896 148.164 318.703L147.549 319.537C146.161 318.908 145.02 317.575 144.479 315.976C143.953 317.671 142.825 319.086 141.438 319.756L140.822 318.922ZM154.891 320.084L153.824 323.803H152.812L153.564 320.084H154.891ZM164.57 312.25C164.577 313.48 165.78 314.52 167.51 314.902L167.072 315.764C165.671 315.415 164.591 314.677 164.058 313.692C163.538 314.759 162.444 315.572 161.002 315.928L160.537 315.066C162.294 314.677 163.504 313.549 163.504 312.25V312.195H160.797V311.348H163.504V309.994H164.57V311.348H167.277V312.195H164.57V312.25ZM159.963 316.789C162.294 316.782 165.377 316.769 168.07 316.42L168.139 317.199C166.977 317.391 165.773 317.507 164.598 317.582V321.752H163.531V317.637C162.301 317.685 161.132 317.691 160.113 317.691L159.963 316.789ZM168.959 322.121V309.967H170.012V322.121H168.959ZM175.439 310.527C177.066 310.521 178.311 311.471 178.543 312.865H181.086V309.953H182.166V316.475H181.086V313.754H178.55C178.338 315.189 177.087 316.146 175.439 316.146C173.587 316.146 172.274 314.998 172.281 313.33C172.274 311.683 173.587 310.521 175.439 310.527ZM173.307 313.33C173.307 314.438 174.188 315.237 175.439 315.244C176.663 315.237 177.545 314.438 177.545 313.33C177.545 312.209 176.663 311.43 175.439 311.443C174.188 311.43 173.307 312.209 173.307 313.33ZM174.332 321.943V317.09H175.412V318.635H181.086V317.09H182.166V321.943H174.332ZM175.412 321.068H181.086V319.496H175.412V321.068ZM190.93 310.896V311.539C190.923 312.339 190.923 313.549 190.615 315.135L189.535 315.053C189.829 313.604 189.856 312.571 189.87 311.799H184.873V310.896H190.93ZM184.121 316.27C184.907 316.27 185.796 316.263 186.732 316.235V313.59H187.799V316.201C189.146 316.146 190.54 316.051 191.805 315.873L191.873 316.666C189.323 317.104 186.397 317.151 184.23 317.158L184.121 316.27ZM185.994 321.848V318.279H187.074V320.945H194.115V321.848H185.994ZM192.625 319.1V309.953H193.719V313.918H195.496V314.834H193.719V319.1H192.625ZM206.324 309.953V322.135H205.258V309.953H206.324ZM196.973 311.977V311.088H202.633V315.408H198.094V318.279C200.11 318.286 201.908 318.19 204.082 317.842L204.191 318.744C201.956 319.093 200.11 319.182 198.012 319.182H197V314.533H201.553V311.977H196.973Z" fill="#2674FF"/>
</g>
<g filter="url(#filter4_d_386_2445)">
<rect x="172" y="176" width="122" height="37" rx="8" fill="white"/>
<path d="M203.694 187.953V200.107H202.614V187.953H203.694ZM193.796 196.949C197.084 195.391 198.766 193.06 199.005 190.154H194.356V189.279H200.099C200.085 192.772 198.458 195.869 194.384 197.824L193.796 196.949ZM211.843 188.486C211.836 189.997 214.03 191.159 216.218 191.426L215.835 192.246C213.921 191.986 212.048 191.132 211.282 189.819C210.503 191.132 208.623 191.986 206.729 192.246L206.36 191.426C208.541 191.159 210.735 189.997 210.735 188.486V188.021H211.843V188.486ZM205.745 193.914V193.039H216.819V193.914H211.802V195.131H215.397V197.893H208.179V199.123H215.767V199.971H207.112V197.086H214.345V195.979H207.085V195.131H210.735V193.914H205.745ZM219.841 198.084L218.774 201.803H217.763L218.515 198.084H219.841ZM231.12 189.225C231.106 192.731 229.862 195.944 225.569 198.098L224.954 197.277C227.189 196.156 228.57 194.755 229.329 193.114L225.187 193.504L224.995 192.574L229.657 192.267C229.883 191.583 230.006 190.865 230.061 190.113H225.61V189.225H231.12ZM231.079 193.736V192.848H233.937V187.953H235.003V200.107H233.937V193.736H231.079ZM247.075 187.953V200.135H246.009V187.953H247.075ZM237.724 189.977V189.088H243.384V193.408H238.845V196.279C240.861 196.286 242.659 196.19 244.833 195.842L244.942 196.744C242.707 197.093 240.861 197.182 238.763 197.182H237.751V192.533H242.304V189.977H237.724ZM258.806 188.486V189.402C258.806 190.312 258.806 191.398 258.512 192.807H260.214V193.682H257.233V194.994H258.901V197.811H251.546V199.082H259.325V199.943H250.479V197.004H257.835V195.828H250.452V194.994H252.12V193.682H249.153V192.807H257.438C257.555 192.246 257.63 191.74 257.678 191.282L250.397 191.617L250.261 190.729L257.726 190.503C257.746 190.113 257.739 189.751 257.739 189.402V189.348H250.548V188.486H258.806ZM253.187 194.994H256.167V193.682H253.187V194.994ZM271.315 195.787V199.943H263.317V195.787H271.315ZM261.731 189.471V188.582H267.146V191.945H262.825V193.709C264.828 193.716 266.332 193.647 268.157 193.354L268.253 194.256C266.346 194.55 264.78 194.611 262.675 194.598H261.759V191.111H266.106V189.471H261.731ZM264.384 199.068H270.249V196.621H264.384V199.068ZM267.925 191.59V190.701H270.235V187.967H271.315V195.104H270.235V191.59H267.925Z" fill="#2674FF"/>
</g>
<g filter="url(#filter5_d_386_2445)">
<rect x="172" y="343" width="122" height="37" rx="8" fill="white"/>
<path d="M216.86 361.133V362.021H211.925V364.51H210.845V362.021H205.731V361.133H216.86ZM206.989 357.715C206.982 356.204 208.685 355.274 211.282 355.268C213.88 355.274 215.562 356.204 215.562 357.715C215.562 359.212 213.88 360.142 211.282 360.135C208.685 360.142 206.982 359.212 206.989 357.715ZM207.167 366.848V363.293H208.247V365.932H215.616V366.848H207.167ZM208.138 357.715C208.124 358.658 209.389 359.26 211.282 359.26C213.169 359.26 214.427 358.658 214.427 357.715C214.427 356.744 213.169 356.149 211.282 356.143C209.389 356.149 208.124 356.744 208.138 357.715ZM221.194 355.691C222.22 355.685 223.088 356.074 223.655 356.717H226.841V354.953H227.921V362.158H226.841V360.422H223.655C223.095 361.064 222.22 361.454 221.194 361.447C219.376 361.454 218.029 360.265 218.036 358.576C218.029 356.874 219.376 355.685 221.194 355.691ZM219.062 358.576C219.062 359.704 219.95 360.538 221.194 360.531C222.397 360.538 223.3 359.704 223.3 358.576C223.3 357.421 222.397 356.614 221.194 356.621C219.95 356.614 219.062 357.421 219.062 358.576ZM219.813 364.756C219.807 363.293 221.365 362.445 223.888 362.445C226.403 362.445 227.962 363.293 227.962 364.756C227.962 366.232 226.403 367.08 223.888 367.08C221.365 367.08 219.807 366.232 219.813 364.756ZM220.866 364.756C220.859 365.672 222.021 366.226 223.888 366.219C225.754 366.226 226.916 365.672 226.909 364.756C226.916 363.833 225.754 363.286 223.888 363.279C222.021 363.286 220.859 363.833 220.866 364.756ZM224.168 357.592C224.277 357.893 224.339 358.221 224.339 358.576C224.339 358.918 224.277 359.239 224.175 359.533H226.841V357.592H224.168ZM231.94 365.084L230.874 368.803H229.862L230.614 365.084H231.94ZM243.78 355.896V356.539C243.773 357.339 243.773 358.549 243.466 360.135L242.386 360.053C242.68 358.604 242.707 357.571 242.721 356.799H237.724V355.896H243.78ZM236.972 361.27C237.758 361.27 238.646 361.263 239.583 361.235V358.59H240.649V361.201C241.996 361.146 243.391 361.051 244.655 360.873L244.724 361.666C242.174 362.104 239.248 362.151 237.081 362.158L236.972 361.27ZM238.845 366.848V363.279H239.925V365.945H246.966V366.848H238.845ZM245.476 364.1V354.953H246.569V358.918H248.347V359.834H246.569V364.1H245.476ZM259.175 354.953V367.135H258.108V354.953H259.175ZM249.823 356.977V356.088H255.483V360.408H250.944V363.279C252.961 363.286 254.759 363.19 256.933 362.842L257.042 363.744C254.807 364.093 252.961 364.182 250.862 364.182H249.851V359.533H254.403V356.977H249.823Z" fill="#2674FF"/>
</g>
<path d="M89 278V290H235V278" stroke="#2674FF" stroke-dasharray="2 2"/>
<path d="M235 119L235 107L94 107L94 119" stroke="#2674FF" stroke-dasharray="2 2"/>
<defs>
<filter id="filter0_d_386_2445" x="0" y="374" width="324" height="168" filterUnits="userSpaceOnUse" color-interpolation-filters="sRGB">
<feFlood flood-opacity="0" result="BackgroundImageFix"/>
<feColorMatrix in="SourceAlpha" type="matrix" values="0 0 0 0 0 0 0 0 0 0 0 0 0 0 0 0 0 0 127 0" result="hardAlpha"/>
<feOffset dy="4"/>
<feGaussianBlur stdDeviation="15"/>
<feComposite in2="hardAlpha" operator="out"/>
<feColorMatrix type="matrix" values="0 0 0 0 0.322337 0 0 0 0 0.396182 0 0 0 0 0.586068 0 0 0 0.1 0"/>
<feBlend mode="normal" in2="BackgroundImageFix" result="effect1_dropShadow_386_2445"/>
<feBlend mode="normal" in="SourceGraphic" in2="effect1_dropShadow_386_2445" result="shape"/>
</filter>
<filter id="filter1_d_386_2445" x="49" y="28" width="226" height="99" filterUnits="userSpaceOnUse" color-interpolation-filters="sRGB">
<feFlood flood-opacity="0" result="BackgroundImageFix"/>
<feColorMatrix in="SourceAlpha" type="matrix" values="0 0 0 0 0 0 0 0 0 0 0 0 0 0 0 0 0 0 127 0" result="hardAlpha"/>
<feOffset dy="4"/>
<feGaussianBlur stdDeviation="15"/>
<feComposite in2="hardAlpha" operator="out"/>
<feColorMatrix type="matrix" values="0 0 0 0 0.322337 0 0 0 0 0.396182 0 0 0 0 0.586068 0 0 0 0.1 0"/>
<feBlend mode="normal" in2="BackgroundImageFix" result="effect1_dropShadow_386_2445"/>
<feBlend mode="normal" in="SourceGraphic" in2="effect1_dropShadow_386_2445" result="shape"/>
</filter>
<filter id="filter2_d_386_2445" x="0" y="150" width="182" height="97" filterUnits="userSpaceOnUse" color-interpolation-filters="sRGB">
<feFlood flood-opacity="0" result="BackgroundImageFix"/>
<feColorMatrix in="SourceAlpha" type="matrix" values="0 0 0 0 0 0 0 0 0 0 0 0 0 0 0 0 0 0 127 0" result="hardAlpha"/>
<feOffset dy="4"/>
<feGaussianBlur stdDeviation="15"/>
<feComposite in2="hardAlpha" operator="out"/>
<feColorMatrix type="matrix" values="0 0 0 0 0.322337 0 0 0 0 0.396182 0 0 0 0 0.586068 0 0 0 0.1 0"/>
<feBlend mode="normal" in2="BackgroundImageFix" result="effect1_dropShadow_386_2445"/>
<feBlend mode="normal" in="SourceGraphic" in2="effect1_dropShadow_386_2445" result="shape"/>
</filter>
<filter id="filter3_d_386_2445" x="71" y="272" width="182" height="97" filterUnits="userSpaceOnUse" color-interpolation-filters="sRGB">
<feFlood flood-opacity="0" result="BackgroundImageFix"/>
<feColorMatrix in="SourceAlpha" type="matrix" values="0 0 0 0 0 0 0 0 0 0 0 0 0 0 0 0 0 0 127 0" result="hardAlpha"/>
<feOffset dy="4"/>
<feGaussianBlur stdDeviation="15"/>
<feComposite in2="hardAlpha" operator="out"/>
<feColorMatrix type="matrix" values="0 0 0 0 0.322337 0 0 0 0 0.396182 0 0 0 0 0.586068 0 0 0 0.1 0"/>
<feBlend mode="normal" in2="BackgroundImageFix" result="effect1_dropShadow_386_2445"/>
<feBlend mode="normal" in="SourceGraphic" in2="effect1_dropShadow_386_2445" result="shape"/>
</filter>
<filter id="filter4_d_386_2445" x="142" y="150" width="182" height="97" filterUnits="userSpaceOnUse" color-interpolation-filters="sRGB">
<feFlood flood-opacity="0" result="BackgroundImageFix"/>
<feColorMatrix in="SourceAlpha" type="matrix" values="0 0 0 0 0 0 0 0 0 0 0 0 0 0 0 0 0 0 127 0" result="hardAlpha"/>
<feOffset dy="4"/>
<feGaussianBlur stdDeviation="15"/>
<feComposite in2="hardAlpha" operator="out"/>
<feColorMatrix type="matrix" values="0 0 0 0 0.322337 0 0 0 0 0.396182 0 0 0 0 0.586068 0 0 0 0.1 0"/>
<feBlend mode="normal" in2="BackgroundImageFix" result="effect1_dropShadow_386_2445"/>
<feBlend mode="normal" in="SourceGraphic" in2="effect1_dropShadow_386_2445" result="shape"/>
</filter>
<filter id="filter5_d_386_2445" x="142" y="317" width="182" height="97" filterUnits="userSpaceOnUse" color-interpolation-filters="sRGB">
<feFlood flood-opacity="0" result="BackgroundImageFix"/>
<feColorMatrix in="SourceAlpha" type="matrix" values="0 0 0 0 0 0 0 0 0 0 0 0 0 0 0 0 0 0 127 0" result="hardAlpha"/>
<feOffset dy="4"/>
<feGaussianBlur stdDeviation="15"/>
<feComposite in2="hardAlpha" operator="out"/>
<feColorMatrix type="matrix" values="0 0 0 0 0.322337 0 0 0 0 0.396182 0 0 0 0 0.586068 0 0 0 0.1 0"/>
<feBlend mode="normal" in2="BackgroundImageFix" result="effect1_dropShadow_386_2445"/>
<feBlend mode="normal" in="SourceGraphic" in2="effect1_dropShadow_386_2445" result="shape"/>
</filter>
</defs>
</svg>
