<svg width="360" height="795" viewBox="0 0 360 795" fill="none" xmlns="http://www.w3.org/2000/svg">
<rect x="110" width="140" height="48" rx="8" fill="#2674FF"/>
<path d="M161.211 15.082V32.7383H159.141V23.7344H157.148V31.8398H155.156V15.4141H157.148V21.9961H159.141V15.082H161.211ZM146.562 28.6172V17.1719H153.164V18.9297H148.75V26.7812C150.664 26.7617 152.246 26.6641 154.043 26.332L154.199 28.1094C152.061 28.5391 150.215 28.5977 147.754 28.6172H146.562ZM179.434 28.9492V30.707H163.301V28.9492H167.48V25.3164H164.688V23.5586H167.168V18.3242H164.629V16.5859H178.027V18.3242H175.449V23.5586H177.969V25.3164H175.176V28.9492H179.434ZM169.336 23.5586H173.301V18.3242H169.336V23.5586ZM169.648 28.9492H173.008V25.3164H169.648V28.9492ZM195.273 15.082V32.7578H193.086V15.082H195.273ZM181.152 22.6016C181.143 18.793 183.086 16.3711 185.762 16.3711C188.408 16.3711 190.361 18.793 190.371 22.6016C190.361 26.4395 188.408 28.8516 185.762 28.8516C183.086 28.8516 181.143 26.4395 181.152 22.6016ZM183.242 22.6016C183.242 25.3164 184.268 26.8887 185.762 26.8984C187.246 26.8887 188.262 25.3164 188.262 22.6016C188.262 19.9062 187.246 18.3242 185.762 18.3242C184.268 18.3242 183.242 19.9062 183.242 22.6016ZM204.18 19.3203C204.16 22.4746 205.742 25.6582 208.477 26.9766L207.148 28.7148C205.234 27.748 203.857 25.8828 203.105 23.6367C202.334 26.0391 200.889 28.0312 198.867 29.0469L197.539 27.3086C200.381 25.9609 202.002 22.582 202.012 19.3203V16.5078H204.18V19.3203ZM209.531 32.7383V15.082H211.699V21.9961H214.414V23.8516H211.699V32.7383H209.531Z" fill="white"/>
<g filter="url(#filter0_d_448_134)">
<rect x="24" y="162" width="146" height="39" rx="8" fill="white"/>
<path d="M95.4277 174.967V183.854H94.3613V174.967H95.4277ZM85.6797 178.795C85.6729 177.045 87.0469 175.821 88.8652 175.814C90.6836 175.821 92.0439 177.045 92.0508 178.795C92.0439 180.565 90.6836 181.796 88.8652 181.789C87.0469 181.796 85.6729 180.565 85.6797 178.795ZM86.7324 178.795C86.7188 180.005 87.6348 180.846 88.8652 180.846C90.0752 180.846 90.998 180.005 90.998 178.795C90.998 177.605 90.0752 176.758 88.8652 176.758C87.6348 176.758 86.7188 177.605 86.7324 178.795ZM87.5801 186.848V182.951H88.6465V185.945H95.8105V186.848H87.5801ZM101.566 178.221C101.566 180.36 102.981 182.568 104.711 183.416L104.055 184.277C102.715 183.58 101.594 182.138 101.054 180.449C100.514 182.24 99.3652 183.778 97.998 184.51L97.3145 183.648C99.0918 182.773 100.5 180.442 100.514 178.221V176.006H101.566V178.221ZM105.832 187.107V174.953H106.898V179.889H108.936V180.818H106.898V187.107H105.832Z" fill="#3B424F"/>
</g>
<g filter="url(#filter1_d_448_134)">
<rect x="24" y="395" width="146" height="39" rx="8" fill="white"/>
<path d="M62.5947 415.637C65.1992 415.637 66.8535 416.457 66.8604 417.865C66.8535 419.26 65.1992 420.08 62.5947 420.08C59.9902 420.08 58.3359 419.26 58.3428 417.865C58.3359 416.457 59.9902 415.637 62.5947 415.637ZM57.1123 414.502V413.627H61.6924V411.275H62.7451V413.627H68.1729V414.502H57.1123ZM58.4248 409.457V408.582H66.7646V409.607C66.7578 410.592 66.7578 411.576 66.4229 412.834L65.3701 412.711C65.6982 411.46 65.6982 410.558 65.6982 409.607V409.457H58.4248ZM59.4092 417.865C59.4023 418.713 60.6602 419.232 62.5947 419.232C64.5361 419.232 65.7803 418.713 65.7939 417.865C65.7803 416.997 64.5361 416.464 62.5947 416.457C60.6602 416.464 59.4023 416.997 59.4092 417.865ZM74.6943 415.637C77.2988 415.637 78.9531 416.457 78.96 417.865C78.9531 419.26 77.2988 420.08 74.6943 420.08C72.0898 420.08 70.4355 419.26 70.4424 417.865C70.4355 416.457 72.0898 415.637 74.6943 415.637ZM69.2119 414.502V413.627H73.792V411.275H74.8447V413.627H80.2725V414.502H69.2119ZM70.5244 409.457V408.582H78.8643V409.607C78.8574 410.592 78.8574 411.576 78.5225 412.834L77.4697 412.711C77.7979 411.46 77.7979 410.558 77.7979 409.607V409.457H70.5244ZM71.5088 417.865C71.502 418.713 72.7598 419.232 74.6943 419.232C76.6357 419.232 77.8799 418.713 77.8936 417.865C77.8799 416.997 76.6357 416.464 74.6943 416.457C72.7598 416.464 71.502 416.997 71.5088 417.865ZM85.2764 408.637L82.0771 420.49H81.0107L84.1963 408.637H85.2764ZM97.0889 414.885V415.773H94.1494V420.107H93.0693V415.773H89.9521V420.107H88.8447V415.773H85.96V414.885H97.0889ZM87.2178 411.098C87.2246 409.478 88.9404 408.452 91.4971 408.445C94.0469 408.452 95.7764 409.478 95.7764 411.098C95.7764 412.718 94.0469 413.729 91.4971 413.723C88.9404 413.729 87.2246 412.718 87.2178 411.098ZM88.3252 411.098C88.3115 412.171 89.6035 412.861 91.4971 412.861C93.3906 412.861 94.6758 412.171 94.6826 411.098C94.6758 410.018 93.3906 409.32 91.4971 409.32C89.6035 409.32 88.3115 410.018 88.3252 411.098ZM109.147 414.406V415.281H98.0596V414.406H103.063V413.203H99.5361V408.309H107.767V409.184H100.616V410.318H107.438V411.139H100.616V412.342H107.835V413.203H104.13V414.406H109.147ZM99.4131 418.139C99.4062 416.874 100.917 416.184 103.61 416.197C106.276 416.184 107.78 416.874 107.794 418.139C107.78 419.417 106.276 420.08 103.61 420.08C100.917 420.08 99.4062 419.417 99.4131 418.139ZM100.493 418.139C100.479 418.877 101.601 419.26 103.61 419.246C105.6 419.26 106.707 418.877 106.714 418.139C106.707 417.414 105.6 417.011 103.61 417.004C101.601 417.011 100.479 417.414 100.493 418.139ZM124.802 415.172V416.047H119.729V420.107H118.677V416.047H113.673V415.172H124.802ZM115.095 413.695V408.459H116.161V410.141H122.286V408.459H123.366V413.695H115.095ZM116.161 412.82H122.286V411.016H116.161V412.82ZM136.901 414.174V415.062H131.952V417.551H130.886V415.062H125.772V414.174H136.901ZM127.194 419.848V416.348H128.274V418.945H135.657V419.848H127.194ZM127.222 412.779V408.555H135.452V412.779H127.222ZM128.274 411.918H134.386V409.402H128.274V411.918Z" fill="#3B424F"/>
</g>
<g filter="url(#filter2_d_448_134)">
<rect x="24" y="628" width="146" height="39" rx="8" fill="white"/>
<path d="M49.9346 641.404C51.7529 641.411 53.0723 642.519 53.0791 644.098C53.0723 645.684 51.7529 646.777 49.9346 646.777C48.0957 646.777 46.7695 645.684 46.7764 644.098C46.7695 642.519 48.0957 641.411 49.9346 641.404ZM47.8291 644.098C47.8154 645.164 48.7109 645.902 49.9346 645.902C51.1377 645.902 52.04 645.164 52.04 644.098C52.04 643.045 51.1377 642.3 49.9346 642.307C48.7109 642.3 47.8154 643.045 47.8291 644.098ZM48.6221 648.65V647.789H56.5244V650.715H49.7021V652.082H56.9619V652.943H48.6494V649.908H55.458V648.65H48.6221ZM55.458 647.201V640.953H56.5244V647.201H55.458ZM61.1318 641.445V642.99H67.1475V641.445H68.2139V646.299H64.6592V647.598H69.6631V648.486H58.5889V647.598H63.5928V646.299H60.0654V641.445H61.1318ZM60.0244 652.848V649.457H61.1045V651.945H68.4326V652.848H60.0244ZM61.1318 645.438H67.1475V643.838H61.1318V645.438ZM84.2783 640.967V650.236H83.1982V647.625H81.0928V646.75H83.1982V645.096H81.0928V644.207H83.1982V640.967H84.2783ZM74.2158 643.332V642.457H77.1689V640.953H78.2354V642.457H81.0928V643.332H74.2158ZM74.9404 646.326C74.9268 644.932 76.0615 644.002 77.6885 644.002C79.3154 644.002 80.457 644.932 80.4639 646.326C80.457 647.707 79.3154 648.644 77.6885 648.65C76.0615 648.644 74.9268 647.707 74.9404 646.326ZM75.9385 646.326C75.9316 647.201 76.6494 647.796 77.6885 647.789C78.7275 647.796 79.4453 647.201 79.4521 646.326C79.4453 645.451 78.7275 644.863 77.6885 644.85C76.6494 644.863 75.9316 645.451 75.9385 646.326ZM76.417 652.848V649.416H77.4971V651.945H84.5518V652.848H76.417ZM90.6494 644.686C90.6562 646.75 92.1533 648.849 93.9443 649.621L93.3428 650.469C91.9209 649.826 90.6973 648.425 90.1299 646.743C89.5625 648.527 88.332 650.072 86.9443 650.77L86.3018 649.922C88.0449 649.088 89.5625 646.791 89.5693 644.686V643.1H86.6982V642.211H93.5479V643.1H90.6494V644.686ZM95.2432 653.107V640.953H96.3232V653.107H95.2432ZM102.667 648.227C102.681 645.649 103.378 643.503 104.636 641.678H105.675C104.752 643.024 103.891 645.793 103.884 648.227C103.891 650.667 104.752 653.429 105.675 654.789H104.636C103.378 652.957 102.681 650.811 102.667 648.227ZM112.688 644.59C112.586 643.619 111.684 643.059 110.501 643.059C109.188 643.059 108.334 643.742 108.327 644.686C108.334 645.725 109.489 646.114 110.241 646.299L111.226 646.572C112.285 646.846 114.028 647.454 114.028 649.307C114.028 650.92 112.729 652.171 110.433 652.178C108.3 652.171 106.98 651.07 106.864 649.43H108.122C108.225 650.537 109.257 651.063 110.433 651.057C111.8 651.063 112.825 650.359 112.825 649.279C112.825 648.315 111.909 647.946 110.87 647.652L109.653 647.324C108.102 646.873 107.131 646.08 107.138 644.74C107.131 643.065 108.621 641.965 110.542 641.965C112.463 641.965 113.844 643.086 113.892 644.59H112.688ZM117.022 642.102V652H115.792V642.102H117.022ZM122.587 641.637L119.388 653.49H118.321L121.507 641.637H122.587ZM129.286 644.59C129.184 643.619 128.281 643.059 127.099 643.059C125.786 643.059 124.932 643.742 124.925 644.686C124.932 645.725 126.087 646.114 126.839 646.299L127.823 646.572C128.883 646.846 130.626 647.454 130.626 649.307C130.626 650.92 129.327 652.171 127.03 652.178C124.897 652.171 123.578 651.07 123.462 649.43H124.72C124.822 650.537 125.854 651.063 127.03 651.057C128.397 651.063 129.423 650.359 129.423 649.279C129.423 648.315 128.507 647.946 127.468 647.652L126.251 647.324C124.699 646.873 123.729 646.08 123.735 644.74C123.729 643.065 125.219 641.965 127.14 641.965C129.061 641.965 130.441 643.086 130.489 644.59H129.286ZM132.39 642.102H133.866L137.202 650.25H137.325L140.661 642.102H142.138V652H140.976V644.521H140.88L137.804 652H136.71L133.634 644.521H133.552V652H132.39V642.102ZM146.759 648.227C146.745 650.811 146.048 652.957 144.79 654.789H143.751C144.674 653.429 145.535 650.667 145.542 648.227C145.535 645.793 144.674 643.024 143.751 641.678H144.79C146.048 643.503 146.745 645.649 146.759 648.227Z" fill="#3B424F"/>
</g>
<g filter="url(#filter3_d_448_134)">
<rect x="190" y="162" width="146" height="39" rx="8" fill="white"/>
<path d="M247.031 174.967V183.881H245.951V179.219H243.449V178.33H245.951V174.967H247.031ZM237.01 181.447C238.801 180.818 240.1 179.212 240.1 177.469V176.84H237.352V175.951H243.9V176.84H241.18V177.469C241.18 179.041 242.396 180.565 244.174 181.174L243.613 182.035C242.246 181.536 241.187 180.518 240.66 179.26C240.134 180.668 239.013 181.782 237.57 182.322L237.01 181.447ZM239.225 186.848V183.074H240.305V185.945H247.373V186.848H239.225ZM260.389 176.908V177.797H258.557V179.451H260.389V180.354H258.557V182.35H257.49V174.967H258.557V176.908H260.389ZM249.574 176.566V175.691H255.084V179.041H250.654V180.805C252.814 180.798 254.38 180.723 256.273 180.408L256.383 181.297C254.435 181.618 252.808 181.7 250.545 181.693H249.602V178.193H254.031V176.566H249.574ZM250.6 183.867V182.992H258.557V187.107H257.49V183.867H250.6ZM265.133 175.637L261.934 187.49H260.867L264.053 175.637H265.133ZM275.879 174.953V187.107H274.799V174.953H275.879ZM265.98 183.949C269.269 182.391 270.95 180.06 271.189 177.154H266.541V176.279H272.283C272.27 179.772 270.643 182.869 266.568 184.824L265.98 183.949ZM285.572 176.074V176.895H278.395V176.074H281.443V174.885H282.51V176.074H285.572ZM277.984 181.844C279.017 181.844 280.206 181.837 281.443 181.796V180.948C280.001 180.818 279.078 180.169 279.092 179.178C279.078 178.05 280.233 177.359 281.99 177.359C283.72 177.359 284.889 178.05 284.902 179.178C284.889 180.169 283.952 180.825 282.51 180.948V181.755C283.645 181.7 284.793 181.611 285.859 181.461L285.941 182.227C283.275 182.664 280.336 182.705 278.148 182.705L277.984 181.844ZM279.748 184.523V183.662H287.951V187.107H286.871V184.523H279.748ZM280.104 179.178C280.104 179.8 280.849 180.217 281.99 180.203C283.111 180.217 283.87 179.8 283.863 179.178C283.87 178.515 283.111 178.111 281.99 178.125C280.849 178.111 280.104 178.515 280.104 179.178ZM286.871 183.088V174.994H287.951V183.088H286.871Z" fill="#3B424F"/>
</g>
<g filter="url(#filter4_d_448_134)">
<rect x="190" y="395" width="146" height="39" rx="8" fill="white"/>
<path d="M231.842 415.637C234.446 415.637 236.101 416.457 236.107 417.865C236.101 419.26 234.446 420.08 231.842 420.08C229.237 420.08 227.583 419.26 227.59 417.865C227.583 416.457 229.237 415.637 231.842 415.637ZM226.359 414.502V413.627H230.939V411.275H231.992V413.627H237.42V414.502H226.359ZM227.672 409.457V408.582H236.012V409.607C236.005 410.592 236.005 411.576 235.67 412.834L234.617 412.711C234.945 411.46 234.945 410.558 234.945 409.607V409.457H227.672ZM228.656 417.865C228.649 418.713 229.907 419.232 231.842 419.232C233.783 419.232 235.027 418.713 235.041 417.865C235.027 416.997 233.783 416.464 231.842 416.457C229.907 416.464 228.649 416.997 228.656 417.865ZM243.941 415.637C246.546 415.637 248.2 416.457 248.207 417.865C248.2 419.26 246.546 420.08 243.941 420.08C241.337 420.08 239.683 419.26 239.689 417.865C239.683 416.457 241.337 415.637 243.941 415.637ZM238.459 414.502V413.627H243.039V411.275H244.092V413.627H249.52V414.502H238.459ZM239.771 409.457V408.582H248.111V409.607C248.104 410.592 248.104 411.576 247.77 412.834L246.717 412.711C247.045 411.46 247.045 410.558 247.045 409.607V409.457H239.771ZM240.756 417.865C240.749 418.713 242.007 419.232 243.941 419.232C245.883 419.232 247.127 418.713 247.141 417.865C247.127 416.997 245.883 416.464 243.941 416.457C242.007 416.464 240.749 416.997 240.756 417.865ZM254.811 415.227C254.824 412.649 255.521 410.503 256.779 408.678H257.818C256.896 410.024 256.034 412.793 256.027 415.227C256.034 417.667 256.896 420.429 257.818 421.789H256.779C255.521 419.957 254.824 417.811 254.811 415.227ZM264.832 411.59C264.729 410.619 263.827 410.059 262.645 410.059C261.332 410.059 260.478 410.742 260.471 411.686C260.478 412.725 261.633 413.114 262.385 413.299L263.369 413.572C264.429 413.846 266.172 414.454 266.172 416.307C266.172 417.92 264.873 419.171 262.576 419.178C260.443 419.171 259.124 418.07 259.008 416.43H260.266C260.368 417.537 261.4 418.063 262.576 418.057C263.943 418.063 264.969 417.359 264.969 416.279C264.969 415.315 264.053 414.946 263.014 414.652L261.797 414.324C260.245 413.873 259.274 413.08 259.281 411.74C259.274 410.065 260.765 408.965 262.686 408.965C264.606 408.965 265.987 410.086 266.035 411.59H264.832ZM269.166 409.102V419H267.936V409.102H269.166ZM274.73 408.637L271.531 420.49H270.465L273.65 408.637H274.73ZM281.43 411.59C281.327 410.619 280.425 410.059 279.242 410.059C277.93 410.059 277.075 410.742 277.068 411.686C277.075 412.725 278.23 413.114 278.982 413.299L279.967 413.572C281.026 413.846 282.77 414.454 282.77 416.307C282.77 417.92 281.471 419.171 279.174 419.178C277.041 419.171 275.722 418.07 275.605 416.43H276.863C276.966 417.537 277.998 418.063 279.174 418.057C280.541 418.063 281.566 417.359 281.566 416.279C281.566 415.315 280.65 414.946 279.611 414.652L278.395 414.324C276.843 413.873 275.872 413.08 275.879 411.74C275.872 410.065 277.362 408.965 279.283 408.965C281.204 408.965 282.585 410.086 282.633 411.59H281.43ZM284.533 409.102H286.01L289.346 417.25H289.469L292.805 409.102H294.281V419H293.119V411.521H293.023L289.947 419H288.854L285.777 411.521H285.695V419H284.533V409.102ZM298.902 415.227C298.889 417.811 298.191 419.957 296.934 421.789H295.895C296.817 420.429 297.679 417.667 297.686 415.227C297.679 412.793 296.817 410.024 295.895 408.678H296.934C298.191 410.503 298.889 412.649 298.902 415.227Z" fill="#3B424F"/>
</g>
<g filter="url(#filter5_d_448_134)">
<rect x="190" y="628" width="146" height="39" rx="8" fill="white"/>
<path d="M228.321 641.555V642.43C228.321 643.332 228.321 644.426 228.021 645.889H229.784V646.764H224.726V649.006H228.403V653.107H227.323V649.895H219.804V649.006H223.659V646.764H218.655V645.889H226.94C227.262 644.405 227.262 643.332 227.255 642.43H220.063V641.555H228.321ZM241.132 640.953V653.107H240.079V646.818H238.329V652.479H237.317V641.227H238.329V645.902H240.079V640.953H241.132ZM231.37 649.963V642.443H232.437V649.006C233.64 648.999 234.938 648.91 236.415 648.609L236.552 649.566C234.856 649.874 233.462 649.963 232.122 649.963H231.37ZM247.12 648.227C247.134 645.649 247.831 643.503 249.089 641.678H250.128C249.205 643.024 248.344 645.793 248.337 648.227C248.344 650.667 249.205 653.429 250.128 654.789H249.089C247.831 652.957 247.134 650.811 247.12 648.227ZM251.741 652V642.102H252.972V646.996H253.095L257.497 642.102H259.11L254.968 646.572L259.11 652H257.606L254.202 647.42L252.972 648.814V652H251.741ZM263.103 646.518V647.598H258.769V646.518H263.103ZM268.134 652H265.058V642.102H268.257C271.148 642.102 272.851 643.954 272.851 647.037C272.851 650.127 271.148 652 268.134 652ZM266.288 650.906H268.052C270.479 650.906 271.647 649.437 271.647 647.037C271.647 644.645 270.479 643.195 268.175 643.195H266.288V650.906ZM274.505 652V644.576H275.681V652H274.505ZM274.272 642.566C274.266 642.129 274.642 641.78 275.093 641.787C275.544 641.78 275.92 642.129 275.927 642.566C275.92 642.997 275.544 643.346 275.093 643.346C274.642 643.346 274.266 642.997 274.272 642.566ZM280.562 654.939C278.764 654.939 277.547 654.153 277.417 652.779H278.647C278.805 653.538 279.509 653.914 280.562 653.914C281.833 653.914 282.612 653.36 282.612 652.137V650.633H282.517C282.264 651.043 281.792 651.884 280.356 651.891C278.552 651.884 277.198 650.523 277.198 648.186C277.198 645.902 278.504 644.48 280.37 644.48C281.812 644.48 282.277 645.355 282.544 645.752H282.64V644.576H283.788V652.205C283.781 654.119 282.373 654.939 280.562 654.939ZM278.388 648.227C278.388 649.765 279.112 650.838 280.521 650.838C281.881 650.838 282.633 649.86 282.64 648.227C282.633 646.634 281.901 645.533 280.521 645.533C279.092 645.533 278.388 646.729 278.388 648.227ZM285.661 652V644.576H286.837V652H285.661ZM285.429 642.566C285.422 642.129 285.798 641.78 286.249 641.787C286.7 641.78 287.076 642.129 287.083 642.566C287.076 642.997 286.7 643.346 286.249 643.346C285.798 643.346 285.422 642.997 285.429 642.566ZM291.95 644.576V645.561H290.392V649.867C290.385 650.817 290.863 650.975 291.362 650.975C291.574 650.975 291.889 650.954 292.06 650.947V652.041C291.875 652.068 291.588 652.096 291.239 652.096C290.248 652.096 289.209 651.48 289.202 650.168V645.561H288.081V644.576H289.202V642.799H290.392V644.576H291.95ZM293.112 649.895C293.112 648.192 294.616 647.803 295.901 647.707C296.38 647.673 297.576 647.604 297.911 647.598V646.996C297.911 646.053 297.351 645.506 296.229 645.506C295.293 645.506 294.726 645.937 294.562 646.504H293.331C293.481 645.308 294.644 644.48 296.284 644.48C297.255 644.48 299.08 644.768 299.073 647.105V652H297.911V650.988H297.856C297.61 651.487 296.934 652.171 295.642 652.178C294.233 652.171 293.112 651.344 293.112 649.895ZM294.288 649.949C294.295 650.735 294.944 651.132 295.847 651.125C297.173 651.132 297.911 650.243 297.911 649.307V648.562C297.562 648.582 296.394 648.671 296.038 648.691C294.972 648.76 294.295 649.136 294.288 649.949ZM302.136 642.102V652H300.96V642.102H302.136ZM306.593 648.227C306.579 650.811 305.882 652.957 304.624 654.789H303.585C304.508 653.429 305.369 650.667 305.376 648.227C305.369 645.793 304.508 643.024 303.585 641.678H304.624C305.882 643.503 306.579 645.649 306.593 648.227Z" fill="#3B424F"/>
</g>
<g filter="url(#filter6_d_448_134)">
<rect x="190" y="442" width="146" height="39" rx="8" fill="white"/>
<path d="M221.745 458.686C221.731 460.634 223.14 462.78 224.903 463.621L224.288 464.469C222.921 463.799 221.766 462.363 221.219 460.716C220.658 462.5 219.441 464.072 218.081 464.77L217.425 463.922C219.175 463.067 220.679 460.757 220.692 458.686V457.1H217.862V456.211H224.479V457.1H221.745V458.686ZM225.97 467.107V454.953H227.036V459.875H229.073V460.791H227.036V467.107H225.97ZM233.284 458.699C233.291 460.654 234.282 462.657 235.937 463.539L235.321 464.346C234.111 463.683 233.236 462.425 232.792 460.962C232.361 462.521 231.493 463.888 230.276 464.619L229.634 463.799C231.288 462.842 232.266 460.709 232.272 458.699V458.098H229.962V457.209H232.272V455.404H233.298V457.209H235.567V458.098H233.284V458.699ZM234.733 460.668V459.752H236.647V455.254H237.659V466.479H236.647V460.668H234.733ZM239.095 467.107V454.953H240.12V467.107H239.095ZM255.364 455.336V456.184H253.491V458.535H255.323V459.369H246.423V458.535H248.255V456.184H246.382V455.336H255.364ZM245.343 461.256V460.395H256.417V461.256H245.343ZM246.683 463.156V462.35H254.995V464.988H247.776V466.15H255.364V466.971H246.71V464.209H253.942V463.156H246.683ZM249.321 458.535H252.425V456.184H249.321V458.535ZM267.765 454.967V463.252H266.739V459.041H265.03V462.199H264.032V455.199H265.03V458.152H266.739V454.967H267.765ZM257.976 456.799V455.91H262.583V459.314H259.042V461.133C260.642 461.133 261.872 461.058 263.308 460.764L263.431 461.625C261.858 461.939 260.573 461.994 258.796 461.994H258.003V458.494H261.558V456.799H257.976ZM258.987 466.219C261.106 465.891 263.157 464.599 263.171 462.992V462.678H264.237V462.992C264.237 464.599 266.288 465.891 268.421 466.219L267.983 467.053C266.172 466.752 264.442 465.815 263.704 464.455C262.959 465.815 261.223 466.752 259.425 467.053L258.987 466.219ZM280.616 461.092V461.967H269.542V461.092H274.532V459.684H270.622V458.795H272.454V456.238H270.581V455.35H279.563V456.238H277.69V458.795H279.522V459.684H275.599V461.092H280.616ZM270.896 466.943V463.143H279.263V466.943H270.896ZM271.962 466.068H278.21V463.977H271.962V466.068ZM273.521 458.795H276.624V456.238H273.521V458.795ZM295.532 454.953V467.107H294.479V460.75H292.798V466.506H291.772V455.281H292.798V459.861H294.479V454.953H295.532ZM285.169 463.744C287.992 462.165 289.154 459.943 289.339 457.428H285.634V456.539H290.392C290.378 459.629 289.291 462.548 285.798 464.496L285.169 463.744ZM298.827 455.473V457.223H302.368V455.473H303.435V460.764H297.774V455.473H298.827ZM298.827 459.889H302.368V458.057H298.827V459.889ZM299.005 462.678V461.816H306.757V464.756H300.085V466.096H307.208V466.971H299.032V463.936H305.69V462.678H299.005ZM305.69 461.242V454.953H306.757V457.592H308.589V458.494H306.757V461.242H305.69Z" fill="#3B424F"/>
</g>
<g filter="url(#filter7_d_448_134)">
<rect x="190" y="675" width="146" height="39" rx="8" fill="white"/>
<path d="M227.036 690.059V690.934H220.938V690.059H223.468V688.322H224.534V690.059H227.036ZM221.376 694.516C221.376 692.902 222.477 691.761 223.987 691.754C225.519 691.761 226.612 692.902 226.626 694.516C226.612 696.149 225.519 697.298 223.987 697.305C222.477 697.298 221.376 696.149 221.376 694.516ZM222.333 694.516C222.333 695.596 223.023 696.368 223.987 696.361C224.958 696.368 225.669 695.596 225.669 694.516C225.669 693.449 224.958 692.67 223.987 692.656C223.023 692.67 222.333 693.449 222.333 694.516ZM227.665 699.506V688.254H228.677V693.08H230.29V687.953H231.315V700.107H230.29V693.969H228.677V699.506H227.665ZM237.044 688.746C238.951 688.76 240.305 689.908 240.312 691.604C240.305 693.135 239.197 694.222 237.577 694.413V696.484C238.78 696.423 240.011 696.32 241.159 696.143L241.241 696.936C238.459 697.455 235.472 697.462 233.284 697.469L233.134 696.566C234.125 696.566 235.28 696.566 236.497 696.525V694.413C234.87 694.215 233.756 693.135 233.763 691.604C233.756 689.908 235.123 688.76 237.044 688.746ZM234.815 691.604C234.809 692.731 235.745 693.524 237.044 693.518C238.329 693.524 239.266 692.731 239.259 691.604C239.266 690.462 238.329 689.689 237.044 689.689C235.745 689.689 234.809 690.462 234.815 691.604ZM241.966 700.135V687.953H243.032V700.135H241.966ZM249.431 695.227C249.444 692.649 250.142 690.503 251.399 688.678H252.438C251.516 690.024 250.654 692.793 250.647 695.227C250.654 697.667 251.516 700.429 252.438 701.789H251.399C250.142 699.957 249.444 697.811 249.431 695.227ZM254.052 699V689.102H255.282V693.996H255.405L259.808 689.102H261.421L257.278 693.572L261.421 699H259.917L256.513 694.42L255.282 695.814V699H254.052ZM265.413 693.518V694.598H261.079V693.518H265.413ZM267.368 689.102H268.845L272.181 697.25H272.304L275.64 689.102H277.116V699H275.954V691.521H275.858L272.782 699H271.688L268.612 691.521H268.53V699H267.368V689.102ZM282.188 699.15C280.165 699.157 278.798 697.626 278.798 695.322C278.798 693.005 280.165 691.48 282.188 691.48C284.205 691.48 285.559 693.005 285.552 695.322C285.559 697.626 284.205 699.157 282.188 699.15ZM279.974 695.322C279.98 696.806 280.678 698.111 282.188 698.111C283.686 698.111 284.376 696.806 284.376 695.322C284.376 693.846 283.686 692.52 282.188 692.52C280.678 692.52 279.98 693.846 279.974 695.322ZM292.935 691.576L290.187 699H288.97L286.235 691.576H287.521L289.544 697.469H289.626L291.649 691.576H292.935ZM297.077 699.15C294.931 699.157 293.604 697.626 293.604 695.35C293.604 693.066 294.951 691.48 296.968 691.48C298.526 691.48 300.174 692.438 300.167 695.186V695.678H294.78C294.842 697.25 295.758 698.111 297.077 698.111C297.966 698.111 298.526 697.722 298.8 697.264H300.058C299.709 698.392 298.608 699.157 297.077 699.15ZM294.787 694.68H298.978C298.971 693.442 298.191 692.52 296.968 692.52C295.683 692.52 294.869 693.531 294.787 694.68ZM304.282 695.227C304.269 697.811 303.571 699.957 302.313 701.789H301.274C302.197 700.429 303.059 697.667 303.065 695.227C303.059 692.793 302.197 690.024 301.274 688.678H302.313C303.571 690.503 304.269 692.649 304.282 695.227Z" fill="#3B424F"/>
</g>
<g filter="url(#filter8_d_448_134)">
<rect x="24" y="209" width="146" height="39" rx="8" fill="white"/>
<path d="M96.4668 228.256V229.145H85.3926V228.256H90.3965V226.738H91.4492V228.256H96.4668ZM86.0352 226.506C88.3115 226.294 90.2393 225.371 90.335 224.018H86.541V223.143H90.3965V221.926H91.4492V223.143H95.3457V224.018H91.5176C91.6064 225.371 93.541 226.294 95.8105 226.506L95.4824 227.34C93.4727 227.128 91.668 226.403 90.9297 225.18C90.1846 226.403 88.3867 227.128 86.377 227.34L86.0352 226.506ZM86.7324 232.07C86.7256 230.765 88.2842 230.061 90.9297 230.061C93.5615 230.061 95.0996 230.765 95.1133 232.07C95.0996 233.376 93.5615 234.08 90.9297 234.08C88.2842 234.08 86.7256 233.376 86.7324 232.07ZM87.8262 232.07C87.8125 232.836 88.9609 233.26 90.9297 233.246C92.8779 233.26 94.0264 232.836 94.0332 232.07C94.0264 231.305 92.8779 230.874 90.9297 230.867C88.9609 230.874 87.8125 231.305 87.8262 232.07ZM108.607 229.021V229.91H103.535V234.107H102.482V229.91H97.4785V229.021H108.607ZM98.9141 227.367V222.637H107.158V227.367H98.9141ZM99.9668 226.52H106.092V223.512H99.9668V226.52Z" fill="#3B424F"/>
</g>
<g filter="url(#filter9_d_448_134)">
<rect x="24" y="442" width="146" height="39" rx="8" fill="white"/>
<path d="M67.9268 454.953V462.486H66.9014V454.953H67.9268ZM57.5635 459.684C59.2451 459.684 61.9932 459.656 64.0303 459.342L64.1123 460.066C63.2646 460.244 62.335 460.354 61.4189 460.422V462.445H60.3799V460.483C59.375 460.531 58.4385 460.531 57.6865 460.531L57.5635 459.684ZM58.2061 457.195C58.2061 456.067 59.2656 455.391 60.8584 455.391C62.4443 455.391 63.5176 456.067 63.5244 457.195C63.5176 458.296 62.4443 458.993 60.8584 458.986C59.2656 458.993 58.2061 458.296 58.2061 457.195ZM59.1904 457.195C59.1904 457.817 59.8398 458.207 60.8584 458.207C61.877 458.207 62.5469 457.817 62.5537 457.195C62.5469 456.553 61.877 456.156 60.8584 456.17C59.8398 456.156 59.1904 456.553 59.1904 457.195ZM59.7373 466.943V462.924H60.79V464.072H66.8604V462.924H67.9268V466.943H59.7373ZM60.79 466.082H66.8604V464.934H60.79V466.082ZM62.54 461.748V460.969H64.7002V455.172H65.7256V462.445H64.7002V461.748H62.54ZM71.7275 465.084L70.6611 468.803H69.6494L70.4014 465.084H71.7275ZM76.2529 455.637C77.873 455.623 79.0352 456.758 79.042 458.385C79.0352 460.005 77.873 461.14 76.2529 461.133C74.6191 461.14 73.4707 460.005 73.4775 458.385C73.4707 456.758 74.6191 455.623 76.2529 455.637ZM74.4482 458.385C74.4346 459.465 75.207 460.237 76.2529 460.244C77.2852 460.237 78.0508 459.465 78.0576 458.385C78.0508 457.291 77.2852 456.519 76.2529 456.512C75.207 456.519 74.4346 457.291 74.4482 458.385ZM75.6514 466.943V462.131H76.7178V463.58H82.6104V462.131H83.6631V466.943H75.6514ZM76.7178 466.068H82.6104V464.469H76.7178V466.068ZM80.0127 461.488V455.199H81.0244V457.756H82.6377V454.967H83.6631V461.584H82.6377V458.658H81.0244V461.488H80.0127ZM95.8174 454.953V467.107H94.7646V460.75H93.083V466.506H92.0576V455.281H93.083V459.861H94.7646V454.953H95.8174ZM85.4541 463.744C88.2773 462.165 89.4395 459.943 89.624 457.428H85.9189V456.539H90.6768C90.6631 459.629 89.5762 462.548 86.083 464.496L85.4541 463.744ZM99.1123 455.473V457.223H102.653V455.473H103.72V460.764H98.0596V455.473H99.1123ZM99.1123 459.889H102.653V458.057H99.1123V459.889ZM99.29 462.678V461.816H107.042V464.756H100.37V466.096H107.493V466.971H99.3174V463.936H105.976V462.678H99.29ZM105.976 461.242V454.953H107.042V457.592H108.874V458.494H107.042V461.242H105.976ZM124.269 462.172V463.047H119.196V467.107H118.144V463.047H113.14V462.172H124.269ZM114.562 460.695V455.459H115.628V457.141H121.753V455.459H122.833V460.695H114.562ZM115.628 459.82H121.753V458.016H115.628V459.82ZM136.368 461.174V462.062H131.419V464.551H130.353V462.062H125.239V461.174H136.368ZM126.661 466.848V463.348H127.741V465.945H135.124V466.848H126.661ZM126.688 459.779V455.555H134.919V459.779H126.688ZM127.741 458.918H133.853V456.402H127.741V458.918Z" fill="#3B424F"/>
</g>
<g filter="url(#filter10_d_448_134)">
<rect x="24" y="675" width="146" height="39" rx="8" fill="white"/>
<path d="M53.3799 688.404C55.1982 688.411 56.5176 689.519 56.5244 691.098C56.5176 692.684 55.1982 693.777 53.3799 693.777C51.541 693.777 50.2148 692.684 50.2217 691.098C50.2148 689.519 51.541 688.411 53.3799 688.404ZM51.2744 691.098C51.2607 692.164 52.1562 692.902 53.3799 692.902C54.583 692.902 55.4854 692.164 55.4854 691.098C55.4854 690.045 54.583 689.3 53.3799 689.307C52.1562 689.3 51.2607 690.045 51.2744 691.098ZM52.0674 695.65V694.789H59.9697V697.715H53.1475V699.082H60.4072V699.943H52.0947V696.908H58.9033V695.65H52.0674ZM58.9033 694.201V687.953H59.9697V694.201H58.9033ZM64.5771 688.445V689.99H70.5928V688.445H71.6592V693.299H68.1045V694.598H73.1084V695.486H62.0342V694.598H67.0381V693.299H63.5107V688.445H64.5771ZM63.4697 699.848V696.457H64.5498V698.945H71.8779V699.848H63.4697ZM64.5771 692.438H70.5928V690.838H64.5771V692.438ZM79.4795 689.102V699H78.249V689.102H79.4795ZM81.1201 690.195V689.102H88.585V690.195H85.4814V699H84.2373V690.195H81.1201ZM99.2354 689.088C99.2422 690.804 101.471 692.28 103.665 692.588L103.228 693.463C101.341 693.148 99.4678 692.103 98.6885 690.612C97.9092 692.116 96.043 693.148 94.1494 693.463L93.7119 692.588C95.9062 692.28 98.1279 690.831 98.1279 689.088V688.391H99.2354V689.088ZM93.1377 695.705V694.803H104.212V695.705H99.1807V700.107H98.1279V695.705H93.1377ZM111.403 688.787V689.676H106.878V691.262H111.171V692.109H106.878V693.791C109.25 693.791 110.597 693.723 112.196 693.436L112.319 694.324C110.645 694.611 109.243 694.666 106.728 694.652H105.812V688.787H111.403ZM106.782 696.799V695.924H114.739V700.107H113.673V696.799H106.782ZM113.673 695.322V687.953H114.739V691.193H116.571V692.109H114.739V695.322H113.673ZM131.228 687.953V700.107H130.175V693.75H128.493V699.506H127.468V688.281H128.493V692.861H130.175V687.953H131.228ZM120.864 696.744C123.688 695.165 124.85 692.943 125.034 690.428H121.329V689.539H126.087C126.073 692.629 124.986 695.548 121.493 697.496L120.864 696.744ZM134.522 688.473V690.223H138.063V688.473H139.13V693.764H133.47V688.473H134.522ZM134.522 692.889H138.063V691.057H134.522V692.889ZM134.7 695.678V694.816H142.452V697.756H135.78V699.096H142.903V699.971H134.728V696.936H141.386V695.678H134.7ZM141.386 694.242V687.953H142.452V690.592H144.284V691.494H142.452V694.242H141.386Z" fill="#3B424F"/>
</g>
<g filter="url(#filter11_d_448_134)">
<rect x="24" y="256" width="146" height="39" rx="8" fill="white"/>
<path d="M95.8379 268.953V281.107H94.7988V274.791H93.1445V280.492H92.1191V269.213H93.1445V273.875H94.7988V268.953H95.8379ZM85.2695 277.771C87.0195 276.808 87.9561 274.743 87.9492 272.275V271.305H85.5566V270.402H91.2441V271.305H88.9883V272.275C88.9883 274.497 89.9111 276.459 91.6406 277.348L90.998 278.182C89.7744 277.512 88.9268 276.315 88.4961 274.832C88.0791 276.521 87.2178 277.847 85.9395 278.592L85.2695 277.771ZM107.568 268.953V276.199H106.488V273.014H104.041V272.125H106.488V268.953H107.568ZM97.5469 275.229C99.3516 274.579 100.637 272.932 100.637 271.195V270.744H97.8887V269.842H104.438V270.744H101.717V271.182C101.717 272.768 102.934 274.278 104.711 274.887L104.15 275.748C102.79 275.256 101.73 274.23 101.204 272.979C100.685 274.401 99.5566 275.536 98.1074 276.09L97.5469 275.229ZM99.4609 278.838C99.4541 277.409 101.006 276.575 103.535 276.582C106.058 276.575 107.609 277.409 107.609 278.838C107.609 280.273 106.058 281.094 103.535 281.107C101.006 281.094 99.4541 280.273 99.4609 278.838ZM100.527 278.838C100.521 279.72 101.669 280.253 103.535 280.246C105.395 280.253 106.543 279.72 106.543 278.838C106.543 277.949 105.395 277.416 103.535 277.416C101.669 277.416 100.521 277.949 100.527 278.838Z" fill="#3B424F"/>
</g>
<g filter="url(#filter12_d_448_134)">
<rect x="24" y="489" width="146" height="39" rx="8" fill="white"/>
<path d="M71.543 505.672V507.271H76.5605V508.146H65.4863V507.271H70.4902V505.672H71.543ZM66.1016 505.494C68.3232 505.248 70.4766 504.086 70.4766 502.514V502.049H71.5566V502.514C71.5566 504.086 73.7168 505.248 75.9316 505.494L75.5488 506.314C73.6348 506.055 71.7822 505.228 71.0166 503.895C70.251 505.228 68.3916 506.055 66.4844 506.314L66.1016 505.494ZM66.8262 509.992V509.158H75.1387V511.92H67.9199V513.123H75.5078V513.971H66.8535V511.113H74.0859V509.992H66.8262ZM87.3477 502.445V505.604H80.0195V507.176H87.6074V508.064H78.9395V504.756H86.2539V503.32H78.9121V502.445H87.3477ZM77.5723 510.211V509.35H88.7012V510.211H83.6426V514.135H82.5762V510.211H77.5723ZM93.8418 504.209C93.8418 505.993 95.0654 507.675 96.8223 508.365L96.2207 509.199C94.8877 508.646 93.8418 507.538 93.3291 506.157C92.8096 507.647 91.7158 508.83 90.3008 509.418L89.7129 508.557C91.5244 507.859 92.7822 506.116 92.7891 504.209V502.65H93.8418V504.209ZM91.9004 513.848V510.102H92.9805V512.945H100.035V513.848H91.9004ZM96.1797 507.148V506.273H98.6816V504.66H96.1797V503.771H98.6816V501.967H99.7617V511.045H98.6816V507.148H96.1797ZM116.414 509.172V510.047H111.342V514.107H110.289V510.047H105.285V509.172H116.414ZM106.707 507.695V502.459H107.773V504.141H113.898V502.459H114.979V507.695H106.707ZM107.773 506.82H113.898V505.016H107.773V506.82ZM128.514 508.174V509.062H123.564V511.551H122.498V509.062H117.385V508.174H128.514ZM118.807 513.848V510.348H119.887V512.945H127.27V513.848H118.807ZM118.834 506.779V502.555H127.064V506.779H118.834ZM119.887 505.918H125.998V503.402H119.887V505.918Z" fill="#3B424F"/>
</g>
<rect x="24" y="94" width="146" height="40" rx="8" fill="#2674FF"/>
<path d="M67.8125 107.281V115.531H66.0781V113.969H62.7188V112.562H66.0781V111.047H62.8516C61.9609 113.289 59.8984 114.859 56.8281 115.719L56.125 114.344C59.4297 113.453 61.1953 111.773 61.4609 109.672H56.875V108.266H63.3594C63.3594 108.758 63.3203 109.227 63.2422 109.672H66.0781V107.281H67.8125ZM58.3438 118.5C58.3438 116.766 60.2422 115.695 63.1406 115.688C66 115.695 67.9062 116.766 67.9062 118.5C67.9062 120.234 66 121.32 63.1406 121.312C60.2422 121.32 58.3438 120.234 58.3438 118.5ZM60.0781 118.5C60.0781 119.43 61.2422 119.938 63.1406 119.938C65.0078 119.938 66.1641 119.43 66.1719 118.5C66.1641 117.555 65.0078 117.047 63.1406 117.047C61.2422 117.047 60.0781 117.555 60.0781 118.5ZM73.7344 108.062C74.875 108.055 75.8672 108.477 76.5312 109.188H79.9062V107.266H81.6406V115.578H79.9062V113.781H76.5234C75.8516 114.477 74.8672 114.898 73.7344 114.891C71.6016 114.898 70 113.469 70 111.484C70 109.484 71.6016 108.055 73.7344 108.062ZM71.6562 111.484C71.6562 112.641 72.5234 113.422 73.7344 113.422C74.9062 113.422 75.7734 112.641 75.7812 111.484C75.7734 110.289 74.9062 109.547 73.7344 109.547C72.5234 109.547 71.6562 110.289 71.6562 111.484ZM72.0625 118.625C72.0469 116.883 73.8984 115.867 76.8594 115.875C79.8281 115.867 81.6797 116.883 81.6875 118.625C81.6797 120.359 79.8281 121.375 76.8594 121.375C73.8984 121.375 72.0469 120.359 72.0625 118.625ZM73.7656 118.625C73.75 119.523 74.8984 120.008 76.8594 120.016C78.8594 120.008 79.9844 119.523 79.9844 118.625C79.9844 117.703 78.8594 117.211 76.8594 117.203C74.8984 117.211 73.75 117.703 73.7656 118.625ZM77.3125 110.578C77.3906 110.867 77.4375 111.164 77.4375 111.484C77.4375 111.797 77.3906 112.094 77.3203 112.375H79.9062V110.578H77.3125ZM96.5312 114.25V115.641H91.0781V118.234H89.3125V115.641H83.625V114.25H96.5312ZM85 110.469C84.9922 108.695 87.0234 107.578 90.0625 107.578C93.1172 107.578 95.125 108.695 95.125 110.469C95.125 112.25 93.1172 113.352 90.0625 113.344C87.0234 113.352 84.9922 112.25 85 110.469ZM85.2031 121.109V116.922H86.9531V119.688H95.1094V121.109H85.2031ZM86.875 110.469C86.8594 111.406 88.125 111.953 90.0625 111.953C92.0156 111.953 93.2734 111.406 93.2656 110.469C93.2734 109.5 92.0156 108.953 90.0625 108.953C88.125 108.953 86.8594 109.5 86.875 110.469ZM101.391 108.062C102.531 108.055 103.523 108.477 104.188 109.188H107.562V107.266H109.297V115.578H107.562V113.781H104.18C103.508 114.477 102.523 114.898 101.391 114.891C99.2578 114.898 97.6562 113.469 97.6562 111.484C97.6562 109.484 99.2578 108.055 101.391 108.062ZM99.3125 111.484C99.3125 112.641 100.18 113.422 101.391 113.422C102.562 113.422 103.43 112.641 103.438 111.484C103.43 110.289 102.562 109.547 101.391 109.547C100.18 109.547 99.3125 110.289 99.3125 111.484ZM99.7188 118.625C99.7031 116.883 101.555 115.867 104.516 115.875C107.484 115.867 109.336 116.883 109.344 118.625C109.336 120.359 107.484 121.375 104.516 121.375C101.555 121.375 99.7031 120.359 99.7188 118.625ZM101.422 118.625C101.406 119.523 102.555 120.008 104.516 120.016C106.516 120.008 107.641 119.523 107.641 118.625C107.641 117.703 106.516 117.211 104.516 117.203C102.555 117.211 101.406 117.703 101.422 118.625ZM104.969 110.578C105.047 110.867 105.094 111.164 105.094 111.484C105.094 111.797 105.047 112.094 104.977 112.375H107.562V110.578H104.969ZM119.188 108.312V109.156C119.172 110.117 119.172 111.523 118.844 113.312L117.125 113.156C117.406 111.703 117.461 110.617 117.477 109.75H111.984V108.312H119.188ZM111.141 114.438C111.977 114.43 112.914 114.422 113.906 114.406V111.531H115.625V114.352C117.086 114.289 118.586 114.18 119.953 113.984L120.047 115.234C117.109 115.766 113.773 115.82 111.297 115.828L111.141 114.438ZM113.25 121.109V116.906H115V119.703H123.016V121.109H113.25ZM120.781 117.844V107.266H122.562V111.672H124.391V113.125H122.562V117.844H120.781ZM136.891 107.266V121.406H135.172V107.266H136.891ZM125.891 109.906V108.5H132.547V113.797H127.688V116.641C129.914 116.625 131.828 116.508 134.031 116.141L134.188 117.562C131.789 117.977 129.68 118.07 127.141 118.062H125.906V112.422H130.781V109.906H125.891Z" fill="white"/>
<rect x="24" y="327" width="146" height="40" rx="8" fill="#2674FF"/>
<path d="M60.3047 341.641V350.891H53.6172V341.641H60.3047ZM55.3203 349.5H58.5703V343H55.3203V349.5ZM62.4453 354.391V340.266H64.1797V345.688H66.3516V347.156H64.1797V354.391H62.4453ZM73.2109 341.891C73.2031 343.219 73.0781 344.492 72.75 345.688H74.4922V340.609H76.1328V353.719H74.4922V347.094H72.2344C71.4609 348.797 70.125 350.297 67.9297 351.531L66.9453 350.344C68.8594 349.25 70.0391 347.977 70.7266 346.516L67.1953 346.875L66.9922 345.375L71.2188 345.141C71.3672 344.555 71.4609 343.938 71.5078 343.297H67.6797V341.891H73.2109ZM77.4766 354.391V340.266H79.1328V354.391H77.4766ZM88.3828 341.281V342.656H83.3203V344H87.9766V345.359H83.3203V346.719C85.9609 346.727 87.5703 346.688 89.4297 346.375L89.6016 347.75C87.5781 348.086 85.8047 348.133 82.7578 348.125H81.5547V341.281H88.3828ZM82.9453 351.734C82.9375 350.062 84.7578 349.086 87.7734 349.094C90.7344 349.086 92.6016 350.062 92.6016 351.734C92.6016 353.406 90.7344 354.375 87.7734 354.375C84.7578 354.375 82.9375 353.406 82.9453 351.734ZM84.6797 351.734C84.6641 352.578 85.7656 353.031 87.7734 353.031C89.7344 353.031 90.8672 352.578 90.8672 351.734C90.8672 350.898 89.7344 350.438 87.7734 350.438C85.7656 350.438 84.6641 350.898 84.6797 351.734ZM90.7891 348.891V340.281H92.5391V348.891H90.7891ZM99.6953 341.156L96.0547 354.703H94.3047L97.9609 341.156H99.6953ZM104.258 341.062C105.398 341.055 106.391 341.477 107.055 342.188H110.43V340.266H112.164V348.578H110.43V346.781H107.047C106.375 347.477 105.391 347.898 104.258 347.891C102.125 347.898 100.523 346.469 100.523 344.484C100.523 342.484 102.125 341.055 104.258 341.062ZM102.18 344.484C102.18 345.641 103.047 346.422 104.258 346.422C105.43 346.422 106.297 345.641 106.305 344.484C106.297 343.289 105.43 342.547 104.258 342.547C103.047 342.547 102.18 343.289 102.18 344.484ZM102.586 351.625C102.57 349.883 104.422 348.867 107.383 348.875C110.352 348.867 112.203 349.883 112.211 351.625C112.203 353.359 110.352 354.375 107.383 354.375C104.422 354.375 102.57 353.359 102.586 351.625ZM104.289 351.625C104.273 352.523 105.422 353.008 107.383 353.016C109.383 353.008 110.508 352.523 110.508 351.625C110.508 350.703 109.383 350.211 107.383 350.203C105.422 350.211 104.273 350.703 104.289 351.625ZM107.836 343.578C107.914 343.867 107.961 344.164 107.961 344.484C107.961 344.797 107.914 345.094 107.844 345.375H110.43V343.578H107.836ZM118.086 340.891C119.914 340.883 121.352 341.938 121.703 343.484H124.258V340.266H125.992V347.844H124.258V344.891H121.719C121.383 346.477 119.93 347.547 118.086 347.547C115.922 347.547 114.352 346.156 114.352 344.203C114.352 342.273 115.922 340.883 118.086 340.891ZM116.008 344.203C116.008 345.336 116.867 346.086 118.086 346.078C119.273 346.086 120.125 345.336 120.133 344.203C120.125 343.07 119.273 342.336 118.086 342.344C116.867 342.336 116.008 343.07 116.008 344.203ZM116.68 354.219V348.5H118.398V350H124.258V348.5H125.992V354.219H116.68ZM118.398 352.812H124.258V351.344H118.398V352.812ZM135.602 341.094V342.5H130.539V343.812H135.195V345.172H130.539V346.562C133.18 346.562 134.789 346.516 136.648 346.203L136.82 347.562C134.797 347.914 133.023 347.953 129.977 347.938H128.773V341.094H135.602ZM130.383 354.219V349.297H139.758V354.219H130.383ZM132.102 352.812H138.055V350.641H132.102V352.812ZM138.008 348.672V340.281H139.758V348.672H138.008Z" fill="white"/>
<rect x="24" y="560" width="146" height="40" rx="8" fill="#2674FF"/>
<path d="M67.8906 575.516V576.906H60.9688V575.516H63.5938V573.672H65.3125V575.516H67.8906ZM61.375 580.938C61.3594 579.016 62.6641 577.648 64.4531 577.656C66.25 577.648 67.5312 579.016 67.5312 580.938C67.5312 582.898 66.25 584.266 64.4531 584.266C62.6641 584.266 61.3594 582.898 61.375 580.938ZM62.9062 580.938C62.8984 582.078 63.5391 582.789 64.4531 582.781C65.3594 582.789 66 582.078 66 580.938C66 579.828 65.3594 579.094 64.4531 579.094C63.5391 579.094 62.8984 579.828 62.9062 580.938ZM68.4844 586.75V573.562H70.1094V579.078H71.4844V573.266H73.1406V587.391H71.4844V580.484H70.1094V586.75H68.4844ZM79.4062 574.141C81.6484 574.141 83.2812 575.539 83.2969 577.547C83.2812 579.281 82.0625 580.562 80.2812 580.875V582.938C81.5391 582.875 82.8125 582.766 84.0156 582.594L84.1562 583.844C80.9922 584.445 77.6016 584.469 75.1094 584.469L74.8906 583.047C75.9688 583.047 77.2266 583.047 78.5469 583.008V580.883C76.7734 580.57 75.5234 579.289 75.5312 577.547C75.5234 575.539 77.1875 574.141 79.4062 574.141ZM77.25 577.547C77.2422 578.711 78.1719 579.469 79.4062 579.469C80.6641 579.469 81.5859 578.711 81.5938 577.547C81.5859 576.359 80.6562 575.633 79.4062 575.641C78.1719 575.633 77.2422 576.359 77.25 577.547ZM84.8594 587.406V573.266H86.5938V587.406H84.8594ZM104.578 573.266V587.391H102.906V580.141H101.391V586.734H99.7656V573.641H101.391V578.734H102.906V573.266H104.578ZM92.3438 583.234C95.3516 581.5 96.625 579.266 96.875 576.438H93V575.047H98.5625C98.5625 578.867 97.3594 582.148 93.3438 584.438L92.3438 583.234ZM108.484 573.891V575.688H111.781V573.891H113.5V580.047H106.766V573.891H108.484ZM108.188 582.422V581.062H117.422V584.766H109.922V585.891H117.859V587.266H108.203V583.5H115.688V582.422H108.188ZM108.484 578.672H111.781V577H108.484V578.672ZM115.688 580.5V573.266H117.422V576.125H119.391V577.531H117.422V580.5H115.688ZM127.719 574.094V575.5H122.656V576.812H127.312V578.172H122.656V579.562C125.297 579.562 126.906 579.516 128.766 579.203L128.938 580.562C126.914 580.914 125.141 580.953 122.094 580.938H120.891V574.094H127.719ZM122.5 587.219V582.297H131.875V587.219H122.5ZM124.219 585.812H130.172V583.641H124.219V585.812ZM130.125 581.672V573.281H131.875V581.672H130.125Z" fill="white"/>
<rect x="190" y="94" width="146" height="40" rx="8" fill="#2674FF"/>
<path d="M254.523 107.266V121.391H252.773V107.266H254.523ZM242.82 117.5C246.523 115.742 248.227 113.352 248.539 110.141H243.539V108.766H250.305C250.305 112.969 248.672 116.539 243.727 118.891L242.82 117.5ZM265.414 108.391V109.672H257.055V108.391H260.352V107.188H262.086V108.391H265.414ZM256.617 115.109C257.742 115.109 259.023 115.109 260.352 115.07V114.242C258.75 114.047 257.75 113.297 257.758 112.203C257.75 110.891 259.133 110.07 261.242 110.078C263.297 110.07 264.711 110.891 264.711 112.203C264.711 113.305 263.672 114.055 262.086 114.25V115.008C263.281 114.945 264.477 114.852 265.602 114.703L265.727 115.891C262.695 116.406 259.359 116.445 256.852 116.453L256.617 115.109ZM258.617 118.734V117.375H268.336V121.391H266.586V118.734H258.617ZM259.43 112.203C259.422 112.781 260.125 113.125 261.242 113.109C262.312 113.125 263.047 112.781 263.055 112.203C263.047 111.578 262.312 111.242 261.242 111.25C260.125 111.242 259.422 111.578 259.43 112.203ZM266.586 116.797V107.297H268.336V116.797H266.586ZM277.992 108.094V109.5H272.93V110.812H277.586V112.172H272.93V113.562C275.57 113.562 277.18 113.516 279.039 113.203L279.211 114.562C277.188 114.914 275.414 114.953 272.367 114.938H271.164V108.094H277.992ZM272.773 121.219V116.297H282.148V121.219H272.773ZM274.492 119.812H280.445V117.641H274.492V119.812ZM280.398 115.672V107.281H282.148V115.672H280.398Z" fill="white"/>
<rect x="190" y="327" width="146" height="40" rx="8" fill="#2674FF"/>
<path d="M238.328 340.906V341.984C238.336 343.031 238.336 344.25 238.023 345.828H239.906V347.234H234.297V349.438H238.359V354.391H236.625V350.828H228.312V349.438H232.562V347.234H227V345.828H236.281C236.562 344.375 236.594 343.273 236.594 342.297H228.594V340.906H238.328ZM252.953 340.266V354.391H251.281V347.25H249.719V353.672H248.094V340.531H249.719V345.828H251.281V340.266H252.953ZM241.438 350.875V341.891H243.188V349.344C244.406 349.32 245.734 349.211 247.219 348.922L247.391 350.438C245.484 350.773 243.867 350.875 242.375 350.875H241.438ZM270.578 340.266V354.391H268.906V347.141H267.391V353.734H265.766V340.641H267.391V345.734H268.906V340.266H270.578ZM258.344 350.234C261.352 348.5 262.625 346.266 262.875 343.438H259V342.047H264.562C264.562 345.867 263.359 349.148 259.344 351.438L258.344 350.234ZM274.484 340.891V342.688H277.781V340.891H279.5V347.047H272.766V340.891H274.484ZM274.188 349.422V348.062H283.422V351.766H275.922V352.891H283.859V354.266H274.203V350.5H281.688V349.422H274.188ZM274.484 345.672H277.781V344H274.484V345.672ZM281.688 347.5V340.266H283.422V343.125H285.391V344.531H283.422V347.5H281.688ZM293.719 341.094V342.5H288.656V343.812H293.312V345.172H288.656V346.562C291.297 346.562 292.906 346.516 294.766 346.203L294.938 347.562C292.914 347.914 291.141 347.953 288.094 347.938H286.891V341.094H293.719ZM288.5 354.219V349.297H297.875V354.219H288.5ZM290.219 352.812H296.172V350.641H290.219V352.812ZM296.125 348.672V340.281H297.875V348.672H296.125Z" fill="white"/>
<rect x="190" y="560" width="146" height="40" rx="8" fill="#2674FF"/>
<path d="M254.305 574.562V576C254.305 577.758 254.305 579.648 253.789 582.422L252.086 582.25C252.57 579.633 252.57 577.711 252.57 576V575.953H244.023V574.562H254.305ZM242.727 585.562V584.141H245.617V579.641H247.352V584.141H249.148V579.641H250.852V584.141H255.602V585.562H242.727ZM269.43 579.938V581.328H266.211V582.797H267.852V587.391H266.117V584.156H257.977V582.797H259.727V581.328H256.555V579.938H269.43ZM257.883 576.312C257.883 574.609 259.883 573.562 262.977 573.562C266.078 573.562 268.062 574.609 268.07 576.312C268.062 578.039 266.078 579.078 262.977 579.078C259.883 579.078 257.883 578.039 257.883 576.312ZM259.695 576.312C259.68 577.234 260.914 577.727 262.977 577.734C265.039 577.727 266.273 577.234 266.273 576.312C266.273 575.43 265.039 574.922 262.977 574.922C260.914 574.922 259.68 575.43 259.695 576.312ZM261.461 582.797H264.492V581.328H261.461V582.797ZM283.273 581.484V582.859H277.648V587.391H275.93V582.859H270.367V581.484H283.273ZM271.93 580.016V573.828H273.648V575.562H279.961V573.828H281.711V580.016H271.93ZM273.648 578.609H279.961V576.938H273.648V578.609Z" fill="white"/>
<line x1="97.5" y1="138" x2="97.5" y2="158" stroke="#2674FF" stroke-dasharray="2 2"/>
<line x1="97.5" y1="371" x2="97.5" y2="391" stroke="#2674FF" stroke-dasharray="2 2"/>
<line x1="97.5" y1="604" x2="97.5" y2="624" stroke="#2674FF" stroke-dasharray="2 2"/>
<line x1="263.5" y1="138" x2="263.5" y2="158" stroke="#2674FF" stroke-dasharray="2 2"/>
<line x1="263.5" y1="371" x2="263.5" y2="391" stroke="#2674FF" stroke-dasharray="2 2"/>
<line x1="263.5" y1="604" x2="263.5" y2="624" stroke="#2674FF" stroke-dasharray="2 2"/>
<g filter="url(#filter13_d_448_134)">
<rect x="190" y="489" width="146" height="39" rx="8" fill="white"/>
<rect x="190.5" y="489.5" width="145" height="38" rx="7.5" stroke="#2674FF"/>
<path d="M246.184 503.184V504.072H239.307V503.184H242.26V501.844H243.326V503.184H246.184ZM240.031 506.861C240.018 505.535 241.139 504.667 242.779 504.66C244.406 504.667 245.548 505.535 245.555 506.861C245.548 508.174 244.406 509.035 242.779 509.035C241.139 509.035 240.018 508.174 240.031 506.861ZM241.029 506.861C241.022 507.675 241.72 508.222 242.779 508.229C243.825 508.222 244.543 507.675 244.557 506.861C244.543 506.041 243.825 505.494 242.779 505.494C241.72 505.494 241.022 506.041 241.029 506.861ZM241.453 513.943V509.65H242.52V510.936H248.303V509.65H249.369V513.943H241.453ZM242.52 513.082H248.303V511.77H242.52V513.082ZM246.17 508.064V507.176H248.289V505.686H246.184V504.797H248.289V501.953H249.369V509.145H248.289V508.064H246.17ZM257.162 502.705V506.109H252.979V507.996C255.262 508.003 256.444 507.955 257.873 507.695L257.982 508.584C256.472 508.83 255.234 508.871 252.773 508.871H251.912V505.289H256.096V503.566H251.885V502.705H257.162ZM253.279 510.963V510.088H261.469V514.135H260.389V510.963H253.279ZM257.969 507.176V506.287H260.389V504.646H257.969V503.771H260.389V501.967H261.469V509.432H260.389V507.176H257.969ZM266.842 502.527C268.469 502.521 269.713 503.471 269.945 504.865H272.488V501.953H273.568V508.475H272.488V505.754H269.952C269.74 507.189 268.489 508.146 266.842 508.146C264.989 508.146 263.677 506.998 263.684 505.33C263.677 503.683 264.989 502.521 266.842 502.527ZM264.709 505.33C264.709 506.438 265.591 507.237 266.842 507.244C268.065 507.237 268.947 506.438 268.947 505.33C268.947 504.209 268.065 503.43 266.842 503.443C265.591 503.43 264.709 504.209 264.709 505.33ZM265.734 513.943V509.09H266.814V510.635H272.488V509.09H273.568V513.943H265.734ZM266.814 513.068H272.488V511.496H266.814V513.068ZM279.146 505.699C279.153 507.654 280.145 509.657 281.799 510.539L281.184 511.346C279.974 510.683 279.099 509.425 278.654 507.962C278.224 509.521 277.355 510.888 276.139 511.619L275.496 510.799C277.15 509.842 278.128 507.709 278.135 505.699V505.098H275.824V504.209H278.135V502.404H279.16V504.209H281.43V505.098H279.146V505.699ZM280.596 507.668V506.752H282.51V502.254H283.521V513.479H282.51V507.668H280.596ZM284.957 514.107V501.953H285.982V514.107H284.957Z" fill="#2674FF"/>
</g>
<g filter="url(#filter14_d_448_134)">
<rect x="24" y="722" width="146" height="39" rx="8" fill="white"/>
<rect x="24.5" y="722.5" width="145" height="38" rx="7.5" stroke="#2674FF"/>
<path d="M49.4561 736.184V737.072H42.5791V736.184H45.5322V734.844H46.5986V736.184H49.4561ZM43.3037 739.861C43.29 738.535 44.4111 737.667 46.0518 737.66C47.6787 737.667 48.8203 738.535 48.8271 739.861C48.8203 741.174 47.6787 742.035 46.0518 742.035C44.4111 742.035 43.29 741.174 43.3037 739.861ZM44.3018 739.861C44.2949 740.675 44.9922 741.222 46.0518 741.229C47.0977 741.222 47.8154 740.675 47.8291 739.861C47.8154 739.041 47.0977 738.494 46.0518 738.494C44.9922 738.494 44.2949 739.041 44.3018 739.861ZM44.7256 746.943V742.65H45.792V743.936H51.5752V742.65H52.6416V746.943H44.7256ZM45.792 746.082H51.5752V744.77H45.792V746.082ZM49.4424 741.064V740.176H51.5615V738.686H49.4561V737.797H51.5615V734.953H52.6416V742.145H51.5615V741.064H49.4424ZM60.4346 735.705V739.109H56.251V740.996C58.5342 741.003 59.7168 740.955 61.1455 740.695L61.2549 741.584C59.7441 741.83 58.5068 741.871 56.0459 741.871H55.1846V738.289H59.3682V736.566H55.1572V735.705H60.4346ZM56.5518 743.963V743.088H64.7412V747.135H63.6611V743.963H56.5518ZM61.2412 740.176V739.287H63.6611V737.646H61.2412V736.771H63.6611V734.967H64.7412V742.432H63.6611V740.176H61.2412ZM70.1143 735.527C71.7412 735.521 72.9854 736.471 73.2178 737.865H75.7607V734.953H76.8408V741.475H75.7607V738.754H73.2246C73.0127 740.189 71.7617 741.146 70.1143 741.146C68.2617 741.146 66.9492 739.998 66.9561 738.33C66.9492 736.683 68.2617 735.521 70.1143 735.527ZM67.9814 738.33C67.9814 739.438 68.8633 740.237 70.1143 740.244C71.3379 740.237 72.2197 739.438 72.2197 738.33C72.2197 737.209 71.3379 736.43 70.1143 736.443C68.8633 736.43 67.9814 737.209 67.9814 738.33ZM69.0068 746.943V742.09H70.0869V743.635H75.7607V742.09H76.8408V746.943H69.0068ZM70.0869 746.068H75.7607V744.496H70.0869V746.068ZM82.4189 738.699C82.4258 740.654 83.417 742.657 85.0713 743.539L84.4561 744.346C83.2461 743.683 82.3711 742.425 81.9268 740.962C81.4961 742.521 80.6279 743.888 79.4111 744.619L78.7686 743.799C80.4229 742.842 81.4004 740.709 81.4072 738.699V738.098H79.0967V737.209H81.4072V735.404H82.4326V737.209H84.7021V738.098H82.4189V738.699ZM83.8682 740.668V739.752H85.7822V735.254H86.7939V746.479H85.7822V740.668H83.8682ZM88.2295 747.107V734.953H89.2549V747.107H88.2295ZM95.2295 742.227C95.2432 739.649 95.9404 737.503 97.1982 735.678H98.2373C97.3145 737.024 96.4531 739.793 96.4463 742.227C96.4531 744.667 97.3145 747.429 98.2373 748.789H97.1982C95.9404 746.957 95.2432 744.811 95.2295 742.227ZM102.694 735.404C104.513 735.411 105.832 736.519 105.839 738.098C105.832 739.684 104.513 740.777 102.694 740.777C100.855 740.777 99.5293 739.684 99.5361 738.098C99.5293 736.519 100.855 735.411 102.694 735.404ZM100.589 738.098C100.575 739.164 101.471 739.902 102.694 739.902C103.897 739.902 104.8 739.164 104.8 738.098C104.8 737.045 103.897 736.3 102.694 736.307C101.471 736.3 100.575 737.045 100.589 738.098ZM101.382 742.65V741.789H109.284V744.715H102.462V746.082H109.722V746.943H101.409V743.908H108.218V742.65H101.382ZM108.218 741.201V734.953H109.284V741.201H108.218ZM113.892 735.445V736.99H119.907V735.445H120.974V740.299H117.419V741.598H122.423V742.486H111.349V741.598H116.353V740.299H112.825V735.445H113.892ZM112.784 746.848V743.457H113.864V745.945H121.192V746.848H112.784ZM113.892 739.438H119.907V737.838H113.892V739.438ZM133.524 734.967V744.236H132.444V741.625H130.339V740.75H132.444V739.096H130.339V738.207H132.444V734.967H133.524ZM123.462 737.332V736.457H126.415V734.953H127.481V736.457H130.339V737.332H123.462ZM124.187 740.326C124.173 738.932 125.308 738.002 126.935 738.002C128.562 738.002 129.703 738.932 129.71 740.326C129.703 741.707 128.562 742.644 126.935 742.65C125.308 742.644 124.173 741.707 124.187 740.326ZM125.185 740.326C125.178 741.201 125.896 741.796 126.935 741.789C127.974 741.796 128.691 741.201 128.698 740.326C128.691 739.451 127.974 738.863 126.935 738.85C125.896 738.863 125.178 739.451 125.185 740.326ZM125.663 746.848V743.416H126.743V745.945H133.798V746.848H125.663ZM139.896 738.686C139.902 740.75 141.399 742.849 143.19 743.621L142.589 744.469C141.167 743.826 139.943 742.425 139.376 740.743C138.809 742.527 137.578 744.072 136.19 744.77L135.548 743.922C137.291 743.088 138.809 740.791 138.815 738.686V737.1H135.944V736.211H142.794V737.1H139.896V738.686ZM144.489 747.107V734.953H145.569V747.107H144.489ZM150.683 742.227C150.669 744.811 149.972 746.957 148.714 748.789H147.675C148.598 747.429 149.459 744.667 149.466 742.227C149.459 739.793 148.598 737.024 147.675 735.678H148.714C149.972 737.503 150.669 739.649 150.683 742.227Z" fill="#2674FF"/>
</g>
<path d="M97 94V70H263V94" stroke="#2674FF"/>
<line x1="180.5" y1="48" x2="180.5" y2="70" stroke="#2674FF"/>
<defs>
<filter id="filter0_d_448_134" x="-6" y="136" width="206" height="99" filterUnits="userSpaceOnUse" color-interpolation-filters="sRGB">
<feFlood flood-opacity="0" result="BackgroundImageFix"/>
<feColorMatrix in="SourceAlpha" type="matrix" values="0 0 0 0 0 0 0 0 0 0 0 0 0 0 0 0 0 0 127 0" result="hardAlpha"/>
<feOffset dy="4"/>
<feGaussianBlur stdDeviation="15"/>
<feComposite in2="hardAlpha" operator="out"/>
<feColorMatrix type="matrix" values="0 0 0 0 0.322337 0 0 0 0 0.396182 0 0 0 0 0.586068 0 0 0 0.1 0"/>
<feBlend mode="normal" in2="BackgroundImageFix" result="effect1_dropShadow_448_134"/>
<feBlend mode="normal" in="SourceGraphic" in2="effect1_dropShadow_448_134" result="shape"/>
</filter>
<filter id="filter1_d_448_134" x="-6" y="369" width="206" height="99" filterUnits="userSpaceOnUse" color-interpolation-filters="sRGB">
<feFlood flood-opacity="0" result="BackgroundImageFix"/>
<feColorMatrix in="SourceAlpha" type="matrix" values="0 0 0 0 0 0 0 0 0 0 0 0 0 0 0 0 0 0 127 0" result="hardAlpha"/>
<feOffset dy="4"/>
<feGaussianBlur stdDeviation="15"/>
<feComposite in2="hardAlpha" operator="out"/>
<feColorMatrix type="matrix" values="0 0 0 0 0.322337 0 0 0 0 0.396182 0 0 0 0 0.586068 0 0 0 0.1 0"/>
<feBlend mode="normal" in2="BackgroundImageFix" result="effect1_dropShadow_448_134"/>
<feBlend mode="normal" in="SourceGraphic" in2="effect1_dropShadow_448_134" result="shape"/>
</filter>
<filter id="filter2_d_448_134" x="-6" y="602" width="206" height="99" filterUnits="userSpaceOnUse" color-interpolation-filters="sRGB">
<feFlood flood-opacity="0" result="BackgroundImageFix"/>
<feColorMatrix in="SourceAlpha" type="matrix" values="0 0 0 0 0 0 0 0 0 0 0 0 0 0 0 0 0 0 127 0" result="hardAlpha"/>
<feOffset dy="4"/>
<feGaussianBlur stdDeviation="15"/>
<feComposite in2="hardAlpha" operator="out"/>
<feColorMatrix type="matrix" values="0 0 0 0 0.322337 0 0 0 0 0.396182 0 0 0 0 0.586068 0 0 0 0.1 0"/>
<feBlend mode="normal" in2="BackgroundImageFix" result="effect1_dropShadow_448_134"/>
<feBlend mode="normal" in="SourceGraphic" in2="effect1_dropShadow_448_134" result="shape"/>
</filter>
<filter id="filter3_d_448_134" x="160" y="136" width="206" height="99" filterUnits="userSpaceOnUse" color-interpolation-filters="sRGB">
<feFlood flood-opacity="0" result="BackgroundImageFix"/>
<feColorMatrix in="SourceAlpha" type="matrix" values="0 0 0 0 0 0 0 0 0 0 0 0 0 0 0 0 0 0 127 0" result="hardAlpha"/>
<feOffset dy="4"/>
<feGaussianBlur stdDeviation="15"/>
<feComposite in2="hardAlpha" operator="out"/>
<feColorMatrix type="matrix" values="0 0 0 0 0.322337 0 0 0 0 0.396182 0 0 0 0 0.586068 0 0 0 0.1 0"/>
<feBlend mode="normal" in2="BackgroundImageFix" result="effect1_dropShadow_448_134"/>
<feBlend mode="normal" in="SourceGraphic" in2="effect1_dropShadow_448_134" result="shape"/>
</filter>
<filter id="filter4_d_448_134" x="160" y="369" width="206" height="99" filterUnits="userSpaceOnUse" color-interpolation-filters="sRGB">
<feFlood flood-opacity="0" result="BackgroundImageFix"/>
<feColorMatrix in="SourceAlpha" type="matrix" values="0 0 0 0 0 0 0 0 0 0 0 0 0 0 0 0 0 0 127 0" result="hardAlpha"/>
<feOffset dy="4"/>
<feGaussianBlur stdDeviation="15"/>
<feComposite in2="hardAlpha" operator="out"/>
<feColorMatrix type="matrix" values="0 0 0 0 0.322337 0 0 0 0 0.396182 0 0 0 0 0.586068 0 0 0 0.1 0"/>
<feBlend mode="normal" in2="BackgroundImageFix" result="effect1_dropShadow_448_134"/>
<feBlend mode="normal" in="SourceGraphic" in2="effect1_dropShadow_448_134" result="shape"/>
</filter>
<filter id="filter5_d_448_134" x="160" y="602" width="206" height="99" filterUnits="userSpaceOnUse" color-interpolation-filters="sRGB">
<feFlood flood-opacity="0" result="BackgroundImageFix"/>
<feColorMatrix in="SourceAlpha" type="matrix" values="0 0 0 0 0 0 0 0 0 0 0 0 0 0 0 0 0 0 127 0" result="hardAlpha"/>
<feOffset dy="4"/>
<feGaussianBlur stdDeviation="15"/>
<feComposite in2="hardAlpha" operator="out"/>
<feColorMatrix type="matrix" values="0 0 0 0 0.322337 0 0 0 0 0.396182 0 0 0 0 0.586068 0 0 0 0.1 0"/>
<feBlend mode="normal" in2="BackgroundImageFix" result="effect1_dropShadow_448_134"/>
<feBlend mode="normal" in="SourceGraphic" in2="effect1_dropShadow_448_134" result="shape"/>
</filter>
<filter id="filter6_d_448_134" x="160" y="416" width="206" height="99" filterUnits="userSpaceOnUse" color-interpolation-filters="sRGB">
<feFlood flood-opacity="0" result="BackgroundImageFix"/>
<feColorMatrix in="SourceAlpha" type="matrix" values="0 0 0 0 0 0 0 0 0 0 0 0 0 0 0 0 0 0 127 0" result="hardAlpha"/>
<feOffset dy="4"/>
<feGaussianBlur stdDeviation="15"/>
<feComposite in2="hardAlpha" operator="out"/>
<feColorMatrix type="matrix" values="0 0 0 0 0.322337 0 0 0 0 0.396182 0 0 0 0 0.586068 0 0 0 0.1 0"/>
<feBlend mode="normal" in2="BackgroundImageFix" result="effect1_dropShadow_448_134"/>
<feBlend mode="normal" in="SourceGraphic" in2="effect1_dropShadow_448_134" result="shape"/>
</filter>
<filter id="filter7_d_448_134" x="160" y="649" width="206" height="99" filterUnits="userSpaceOnUse" color-interpolation-filters="sRGB">
<feFlood flood-opacity="0" result="BackgroundImageFix"/>
<feColorMatrix in="SourceAlpha" type="matrix" values="0 0 0 0 0 0 0 0 0 0 0 0 0 0 0 0 0 0 127 0" result="hardAlpha"/>
<feOffset dy="4"/>
<feGaussianBlur stdDeviation="15"/>
<feComposite in2="hardAlpha" operator="out"/>
<feColorMatrix type="matrix" values="0 0 0 0 0.322337 0 0 0 0 0.396182 0 0 0 0 0.586068 0 0 0 0.1 0"/>
<feBlend mode="normal" in2="BackgroundImageFix" result="effect1_dropShadow_448_134"/>
<feBlend mode="normal" in="SourceGraphic" in2="effect1_dropShadow_448_134" result="shape"/>
</filter>
<filter id="filter8_d_448_134" x="-6" y="183" width="206" height="99" filterUnits="userSpaceOnUse" color-interpolation-filters="sRGB">
<feFlood flood-opacity="0" result="BackgroundImageFix"/>
<feColorMatrix in="SourceAlpha" type="matrix" values="0 0 0 0 0 0 0 0 0 0 0 0 0 0 0 0 0 0 127 0" result="hardAlpha"/>
<feOffset dy="4"/>
<feGaussianBlur stdDeviation="15"/>
<feComposite in2="hardAlpha" operator="out"/>
<feColorMatrix type="matrix" values="0 0 0 0 0.322337 0 0 0 0 0.396182 0 0 0 0 0.586068 0 0 0 0.1 0"/>
<feBlend mode="normal" in2="BackgroundImageFix" result="effect1_dropShadow_448_134"/>
<feBlend mode="normal" in="SourceGraphic" in2="effect1_dropShadow_448_134" result="shape"/>
</filter>
<filter id="filter9_d_448_134" x="-6" y="416" width="206" height="99" filterUnits="userSpaceOnUse" color-interpolation-filters="sRGB">
<feFlood flood-opacity="0" result="BackgroundImageFix"/>
<feColorMatrix in="SourceAlpha" type="matrix" values="0 0 0 0 0 0 0 0 0 0 0 0 0 0 0 0 0 0 127 0" result="hardAlpha"/>
<feOffset dy="4"/>
<feGaussianBlur stdDeviation="15"/>
<feComposite in2="hardAlpha" operator="out"/>
<feColorMatrix type="matrix" values="0 0 0 0 0.322337 0 0 0 0 0.396182 0 0 0 0 0.586068 0 0 0 0.1 0"/>
<feBlend mode="normal" in2="BackgroundImageFix" result="effect1_dropShadow_448_134"/>
<feBlend mode="normal" in="SourceGraphic" in2="effect1_dropShadow_448_134" result="shape"/>
</filter>
<filter id="filter10_d_448_134" x="-6" y="649" width="206" height="99" filterUnits="userSpaceOnUse" color-interpolation-filters="sRGB">
<feFlood flood-opacity="0" result="BackgroundImageFix"/>
<feColorMatrix in="SourceAlpha" type="matrix" values="0 0 0 0 0 0 0 0 0 0 0 0 0 0 0 0 0 0 127 0" result="hardAlpha"/>
<feOffset dy="4"/>
<feGaussianBlur stdDeviation="15"/>
<feComposite in2="hardAlpha" operator="out"/>
<feColorMatrix type="matrix" values="0 0 0 0 0.322337 0 0 0 0 0.396182 0 0 0 0 0.586068 0 0 0 0.1 0"/>
<feBlend mode="normal" in2="BackgroundImageFix" result="effect1_dropShadow_448_134"/>
<feBlend mode="normal" in="SourceGraphic" in2="effect1_dropShadow_448_134" result="shape"/>
</filter>
<filter id="filter11_d_448_134" x="-6" y="230" width="206" height="99" filterUnits="userSpaceOnUse" color-interpolation-filters="sRGB">
<feFlood flood-opacity="0" result="BackgroundImageFix"/>
<feColorMatrix in="SourceAlpha" type="matrix" values="0 0 0 0 0 0 0 0 0 0 0 0 0 0 0 0 0 0 127 0" result="hardAlpha"/>
<feOffset dy="4"/>
<feGaussianBlur stdDeviation="15"/>
<feComposite in2="hardAlpha" operator="out"/>
<feColorMatrix type="matrix" values="0 0 0 0 0.322337 0 0 0 0 0.396182 0 0 0 0 0.586068 0 0 0 0.1 0"/>
<feBlend mode="normal" in2="BackgroundImageFix" result="effect1_dropShadow_448_134"/>
<feBlend mode="normal" in="SourceGraphic" in2="effect1_dropShadow_448_134" result="shape"/>
</filter>
<filter id="filter12_d_448_134" x="-6" y="463" width="206" height="99" filterUnits="userSpaceOnUse" color-interpolation-filters="sRGB">
<feFlood flood-opacity="0" result="BackgroundImageFix"/>
<feColorMatrix in="SourceAlpha" type="matrix" values="0 0 0 0 0 0 0 0 0 0 0 0 0 0 0 0 0 0 127 0" result="hardAlpha"/>
<feOffset dy="4"/>
<feGaussianBlur stdDeviation="15"/>
<feComposite in2="hardAlpha" operator="out"/>
<feColorMatrix type="matrix" values="0 0 0 0 0.322337 0 0 0 0 0.396182 0 0 0 0 0.586068 0 0 0 0.1 0"/>
<feBlend mode="normal" in2="BackgroundImageFix" result="effect1_dropShadow_448_134"/>
<feBlend mode="normal" in="SourceGraphic" in2="effect1_dropShadow_448_134" result="shape"/>
</filter>
<filter id="filter13_d_448_134" x="160" y="463" width="206" height="99" filterUnits="userSpaceOnUse" color-interpolation-filters="sRGB">
<feFlood flood-opacity="0" result="BackgroundImageFix"/>
<feColorMatrix in="SourceAlpha" type="matrix" values="0 0 0 0 0 0 0 0 0 0 0 0 0 0 0 0 0 0 127 0" result="hardAlpha"/>
<feOffset dy="4"/>
<feGaussianBlur stdDeviation="15"/>
<feComposite in2="hardAlpha" operator="out"/>
<feColorMatrix type="matrix" values="0 0 0 0 0.322337 0 0 0 0 0.396182 0 0 0 0 0.586068 0 0 0 0.1 0"/>
<feBlend mode="normal" in2="BackgroundImageFix" result="effect1_dropShadow_448_134"/>
<feBlend mode="normal" in="SourceGraphic" in2="effect1_dropShadow_448_134" result="shape"/>
</filter>
<filter id="filter14_d_448_134" x="-6" y="696" width="206" height="99" filterUnits="userSpaceOnUse" color-interpolation-filters="sRGB">
<feFlood flood-opacity="0" result="BackgroundImageFix"/>
<feColorMatrix in="SourceAlpha" type="matrix" values="0 0 0 0 0 0 0 0 0 0 0 0 0 0 0 0 0 0 127 0" result="hardAlpha"/>
<feOffset dy="4"/>
<feGaussianBlur stdDeviation="15"/>
<feComposite in2="hardAlpha" operator="out"/>
<feColorMatrix type="matrix" values="0 0 0 0 0.322337 0 0 0 0 0.396182 0 0 0 0 0.586068 0 0 0 0.1 0"/>
<feBlend mode="normal" in2="BackgroundImageFix" result="effect1_dropShadow_448_134"/>
<feBlend mode="normal" in="SourceGraphic" in2="effect1_dropShadow_448_134" result="shape"/>
</filter>
</defs>
</svg>
