<svg width="593" height="660" viewBox="0 0 593 660" fill="none" xmlns="http://www.w3.org/2000/svg">
<rect x="211" width="166" height="40" rx="8" fill="#0A3177"/>
<path d="M277.09 12.1738V28.0645H275.227V19.9609H273.434V27.2559H271.641V12.4727H273.434V18.3965H275.227V12.1738H277.09ZM263.906 24.3555V14.0547H269.848V15.6367H265.875V22.7031C267.598 22.6855 269.021 22.5977 270.639 22.2988L270.779 23.8984C268.854 24.2852 267.193 24.3379 264.979 24.3555H263.906ZM293.49 24.6543V26.2363H278.971V24.6543H282.732V21.3848H280.219V19.8027H282.451V15.0918H280.166V13.5273H292.225V15.0918H289.904V19.8027H292.172V21.3848H289.658V24.6543H293.49ZM284.402 19.8027H287.971V15.0918H284.402V19.8027ZM284.684 24.6543H287.707V21.3848H284.684V24.6543ZM307.746 12.1738V28.082H305.777V12.1738H307.746ZM295.037 18.9414C295.028 15.5137 296.777 13.334 299.186 13.334C301.567 13.334 303.325 15.5137 303.334 18.9414C303.325 22.3955 301.567 24.5664 299.186 24.5664C296.777 24.5664 295.028 22.3955 295.037 18.9414ZM296.918 18.9414C296.918 21.3848 297.841 22.7998 299.186 22.8086C300.521 22.7998 301.436 21.3848 301.436 18.9414C301.436 16.5156 300.521 15.0918 299.186 15.0918C297.841 15.0918 296.918 16.5156 296.918 18.9414ZM315.762 15.9883C315.744 18.8271 317.168 21.6924 319.629 22.8789L318.434 24.4434C316.711 23.5732 315.472 21.8945 314.795 19.873C314.101 22.0352 312.8 23.8281 310.98 24.7422L309.785 23.1777C312.343 21.9648 313.802 18.9238 313.811 15.9883V13.457H315.762V15.9883ZM320.578 28.0645V12.1738H322.529V18.3965H324.973V20.0664H322.529V28.0645H320.578Z" fill="white"/>
<g filter="url(#filter0_d_475_280)">
<rect x="158" y="469" width="272" height="157" rx="8" fill="white"/>
<rect x="158.5" y="469.5" width="271" height="156" rx="7.5" stroke="#0A3177"/>
<path d="M231.308 540.5V527.773H232.89V534.066H233.048L238.708 527.773H240.782L235.456 533.521L240.782 540.5H238.849L234.472 534.611L232.89 536.404V540.5H231.308ZM245.915 533.451V534.84H240.343V533.451H245.915ZM248.429 527.773H250.327L254.616 538.25H254.774L259.063 527.773H260.962V540.5H259.468V530.885H259.345L255.39 540.5H253.983L250.028 530.885H249.923V540.5H248.429V527.773ZM267.483 540.693C264.882 540.702 263.124 538.733 263.124 535.771C263.124 532.792 264.882 530.832 267.483 530.832C270.076 530.832 271.816 532.792 271.808 535.771C271.816 538.733 270.076 540.702 267.483 540.693ZM264.636 535.771C264.645 537.679 265.541 539.357 267.483 539.357C269.408 539.357 270.296 537.679 270.296 535.771C270.296 533.873 269.408 532.168 267.483 532.168C265.541 532.168 264.645 533.873 264.636 535.771ZM281.3 530.955L277.767 540.5H276.202L272.687 530.955H274.339L276.94 538.531H277.046L279.647 530.955H281.3ZM286.626 540.693C283.866 540.702 282.161 538.733 282.161 535.807C282.161 532.871 283.893 530.832 286.485 530.832C288.489 530.832 290.607 532.062 290.599 535.596V536.229H283.673C283.752 538.25 284.93 539.357 286.626 539.357C287.769 539.357 288.489 538.856 288.841 538.268H290.458C290.01 539.718 288.595 540.702 286.626 540.693ZM283.682 534.945H289.069C289.061 533.354 288.059 532.168 286.485 532.168C284.833 532.168 283.787 533.469 283.682 534.945ZM300.935 526.877C303.272 526.886 304.969 528.31 304.978 530.34C304.969 532.379 303.272 533.785 300.935 533.785C298.57 533.785 296.865 532.379 296.874 530.34C296.865 528.31 298.57 526.886 300.935 526.877ZM298.228 530.34C298.21 531.711 299.361 532.66 300.935 532.66C302.481 532.66 303.642 531.711 303.642 530.34C303.642 528.986 302.481 528.028 300.935 528.037C299.361 528.028 298.21 528.986 298.228 530.34ZM299.247 536.193V535.086H309.407V538.848H300.636V540.605H309.97V541.713H299.282V537.811H308.036V536.193H299.247ZM308.036 534.33V526.297H309.407V534.33H308.036ZM315.331 526.93V528.916H323.065V526.93H324.437V533.17H319.866V534.84H326.3V535.982H312.062V534.84H318.495V533.17H313.96V526.93H315.331ZM313.907 541.59V537.23H315.296V540.43H324.718V541.59H313.907ZM315.331 532.062H323.065V530.006H315.331V532.062ZM333.507 529.25C333.516 530.832 335.062 532.168 337.286 532.66L336.724 533.768C334.922 533.319 333.533 532.37 332.848 531.104C332.18 532.476 330.773 533.521 328.919 533.979L328.321 532.871C330.58 532.37 332.136 530.92 332.136 529.25V529.18H328.655V528.09H332.136V526.35H333.507V528.09H336.987V529.18H333.507V529.25ZM327.583 535.086C330.58 535.077 334.544 535.06 338.007 534.611L338.095 535.613C336.601 535.859 335.054 536.009 333.542 536.105V541.467H332.171V536.176C330.589 536.237 329.086 536.246 327.776 536.246L327.583 535.086ZM339.149 541.941V526.314H340.503V541.941H339.149ZM347.481 527.035C349.573 527.026 351.173 528.248 351.472 530.041H354.741V526.297H356.13V534.682H354.741V531.184H351.48C351.208 533.029 349.6 534.26 347.481 534.26C345.1 534.26 343.412 532.783 343.421 530.639C343.412 528.521 345.1 527.026 347.481 527.035ZM344.739 530.639C344.739 532.062 345.873 533.091 347.481 533.1C349.055 533.091 350.188 532.062 350.188 530.639C350.188 529.197 349.055 528.195 347.481 528.213C345.873 528.195 344.739 529.197 344.739 530.639ZM346.058 541.713V535.473H347.446V537.459H354.741V535.473H356.13V541.713H346.058ZM347.446 540.588H354.741V538.566H347.446V540.588ZM230.323 554.773V567.5H228.741V554.773H230.323ZM232.433 556.18V554.773H242.03V556.18H238.04V567.5H236.44V556.18H232.433ZM261.226 553.297V568.924H259.872V560.75H257.71V568.15H256.392V553.719H257.71V559.607H259.872V553.297H261.226ZM247.901 564.6C251.531 562.569 253.025 559.713 253.263 556.479H248.499V555.336H254.616C254.599 559.309 253.201 563.062 248.71 565.566L247.901 564.6ZM265.462 553.965V556.215H270.015V553.965H271.386V560.768H264.108V553.965H265.462ZM265.462 559.643H270.015V557.287H265.462V559.643ZM265.69 563.229V562.121H275.657V565.9H267.079V567.623H276.237V568.748H265.726V564.846H274.286V563.229H265.69ZM274.286 561.383V553.297H275.657V556.689H278.013V557.85H275.657V561.383H274.286ZM284.288 558.096C284.271 560.601 286.081 563.36 288.349 564.441L287.558 565.531C285.8 564.67 284.314 562.824 283.611 560.706C282.891 563 281.326 565.021 279.577 565.918L278.733 564.828C280.983 563.729 282.917 560.759 282.935 558.096V556.057H279.296V554.914H287.804V556.057H284.288V558.096ZM289.72 568.924V553.297H291.091V559.625H293.71V560.803H291.091V568.924H289.72ZM312.026 553.314V564.863H310.638V560.645H306.595C305.874 561.567 304.714 562.121 303.378 562.121C301.04 562.121 299.309 560.504 299.317 558.219C299.309 555.925 301.04 554.308 303.378 554.299C304.705 554.308 305.848 554.853 306.577 555.758H310.638V553.314H312.026ZM300.636 558.219C300.636 559.783 301.778 560.899 303.378 560.891C304.916 560.899 306.085 559.783 306.085 558.219C306.085 556.663 304.916 555.538 303.378 555.529C301.778 555.538 300.636 556.663 300.636 558.219ZM301.989 568.59V563.65H303.378V567.43H312.466V568.59H301.989ZM307.201 556.9C307.342 557.305 307.421 557.744 307.421 558.219C307.421 558.676 307.342 559.106 307.21 559.502H310.638V556.9H307.201ZM322.468 554.756C322.477 556.962 325.342 558.86 328.163 559.256L327.601 560.381C325.175 559.977 322.767 558.632 321.765 556.716C320.763 558.649 318.363 559.977 315.929 560.381L315.366 559.256C318.188 558.86 321.044 556.997 321.044 554.756V553.859H322.468V554.756ZM314.628 563.264V562.104H328.866V563.264H322.397V568.924H321.044V563.264H314.628ZM338.851 555.037V555.846C338.842 557.085 338.842 559.15 338.394 562.051L337.005 561.928C337.436 559.309 337.471 557.41 337.462 556.162H330.905V555.037H338.851ZM330.026 564.336C331.055 564.327 332.197 564.318 333.401 564.292V559.502H334.755V564.248C336.486 564.187 338.262 564.072 339.888 563.879L339.958 564.916C336.671 565.426 332.997 565.496 330.202 565.479L330.026 564.336ZM340.872 568.924V553.297H342.243V559.836H344.774V561.031H342.243V568.924H340.872ZM358.696 553.297V562.613H357.308V558.518H354.161V557.375H357.308V553.297H358.696ZM345.812 561.365C348.132 560.53 349.784 558.412 349.784 556.18V555.6H346.251V554.439H354.671V555.6H351.173V556.162C351.173 558.201 352.737 560.144 355.022 560.926L354.302 562.033C352.553 561.4 351.19 560.082 350.514 558.474C349.846 560.302 348.396 561.761 346.532 562.473L345.812 561.365ZM348.272 566.006C348.264 564.169 350.259 563.097 353.511 563.105C356.754 563.097 358.749 564.169 358.749 566.006C358.749 567.852 356.754 568.906 353.511 568.924C350.259 568.906 348.264 567.852 348.272 566.006ZM349.644 566.006C349.635 567.14 351.111 567.825 353.511 567.816C355.901 567.825 357.378 567.14 357.378 566.006C357.378 564.863 355.901 564.178 353.511 564.178C351.111 564.178 349.635 564.863 349.644 566.006Z" fill="#3C3C3C"/>
</g>
<g filter="url(#filter1_d_475_280)">
<rect x="357" y="94" width="200" height="45" rx="8" fill="#E3E7F0"/>
<path d="M393.771 108.797V124.424H392.383V108.797H393.771ZM381.045 120.363C385.272 118.359 387.435 115.362 387.742 111.627H381.766V110.502H389.148C389.131 114.993 387.039 118.975 381.801 121.488L381.045 120.363ZM404.248 109.482C404.239 111.425 407.061 112.919 409.873 113.262L409.381 114.316C406.92 113.982 404.512 112.884 403.527 111.196C402.525 112.884 400.108 113.982 397.674 114.316L397.199 113.262C400.003 112.919 402.824 111.425 402.824 109.482V108.885H404.248V109.482ZM396.408 116.461V115.336H410.646V116.461H404.195V118.025H408.818V121.576H399.537V123.158H409.293V124.248H398.166V120.539H407.465V119.115H398.131V118.025H402.824V116.461H396.408ZM424.639 109.816V116.18H417.309V109.816H424.639ZM418.434 123.299C421.123 123 423.707 121.479 423.707 119.924H419.084V118.852H423.725V117.322H425.096V118.852H429.771V119.924H425.131C425.122 121.444 427.636 122.965 430.316 123.299L429.842 124.371C427.495 124.046 425.351 122.938 424.419 121.497C423.479 122.974 421.281 124.046 418.926 124.371L418.434 123.299ZM418.662 115.09H423.285V110.941H418.662V115.09ZM428.014 117.779V108.797H429.367V117.779H428.014ZM449.107 110.379V112.119C449.099 114.123 449.099 116.136 448.545 119.045L447.191 118.887C447.745 116.127 447.745 114.07 447.754 112.119V111.521H438.051V110.379H449.107ZM436.557 122.209V121.066H440.09V115.916H441.461V121.066H443.992V115.916H445.346V121.066H450.795V122.209H436.557ZM466.352 116.338V117.463H462.555V119.449H464.594V124.424H463.205V120.557H453.695V119.449H455.893V117.463H452.113V116.338H466.352ZM453.695 112.154C453.695 110.282 455.831 109.166 459.232 109.184C462.616 109.166 464.743 110.282 464.752 112.154C464.743 114.035 462.616 115.16 459.232 115.143C455.831 115.16 453.695 114.035 453.695 112.154ZM455.119 112.154C455.11 113.341 456.701 114.062 459.232 114.07C461.737 114.062 463.337 113.341 463.346 112.154C463.337 110.994 461.737 110.273 459.232 110.291C456.701 110.273 455.11 110.994 455.119 112.154ZM457.281 119.449H461.201V117.463H457.281V119.449ZM472.961 113.596C472.943 116.101 474.754 118.86 477.021 119.941L476.23 121.031C474.473 120.17 472.987 118.324 472.284 116.206C471.563 118.5 469.999 120.521 468.25 121.418L467.406 120.328C469.656 119.229 471.59 116.259 471.607 113.596V111.557H467.969V110.414H476.477V111.557H472.961V113.596ZM478.393 124.424V108.797H479.764V115.125H482.383V116.303H479.764V124.424H478.393ZM497.518 116.795V117.938H491.154V121.137H489.783V117.938H483.209V116.795H497.518ZM485.037 124.09V119.59H486.426V122.93H495.918V124.09H485.037ZM485.072 115.002V109.57H495.654V115.002H485.072ZM486.426 113.895H494.283V110.66H486.426V113.895ZM508.451 109.57C510.789 109.553 512.468 110.845 512.459 112.752C512.468 114.659 510.789 115.96 508.451 115.951C506.113 115.96 504.443 114.659 504.443 112.752C504.443 110.845 506.113 109.553 508.451 109.57ZM503.266 117.287C506.201 117.296 510.218 117.234 513.689 116.725L513.777 117.762C512.283 118.034 510.736 118.201 509.225 118.298V123.949H507.854V118.377C506.263 118.447 504.76 118.456 503.459 118.465L503.266 117.287ZM505.797 112.752C505.779 113.974 506.896 114.817 508.451 114.809C510.024 114.817 511.149 113.974 511.141 112.752C511.149 111.539 510.024 110.678 508.451 110.695C506.896 110.678 505.779 111.539 505.797 112.752ZM514.832 124.441V108.814H516.186V124.441H514.832ZM531.742 108.814V120.68H530.354V119.062H527.119V118.061H530.354V108.814H531.742ZM518.77 116.057C521.679 116.039 525.599 116.013 528.947 115.6L529.035 116.602C527.646 116.821 526.179 116.962 524.746 117.05V120.135H523.357V117.12C521.775 117.182 520.272 117.182 518.963 117.182L518.77 116.057ZM520.035 112.172C520.026 110.528 521.591 109.447 523.902 109.447C526.196 109.447 527.761 110.528 527.77 112.172C527.761 113.842 526.196 114.879 523.902 114.879C521.591 114.879 520.026 113.842 520.035 112.172ZM521.02 124.09V119.52H522.408V122.93H532.129V124.09H521.02ZM521.354 112.172C521.336 113.191 522.373 113.851 523.902 113.859C525.388 113.851 526.442 113.191 526.451 112.172C526.442 111.17 525.388 110.484 523.902 110.502C522.373 110.484 521.336 111.17 521.354 112.172Z" fill="#222222"/>
</g>
<rect x="40" y="218" width="122" height="43" rx="8" fill="#2674FF"/>
<path d="M68.1641 231.691V240.973H66.2129V239.215H62.4336V237.633H66.2129V235.928H62.583C61.5811 238.45 59.2607 240.217 55.8066 241.184L55.0156 239.637C58.7334 238.635 60.7197 236.745 61.0186 234.381H55.8594V232.799H63.1543C63.1543 233.353 63.1104 233.88 63.0225 234.381H66.2129V231.691H68.1641ZM57.5117 244.312C57.5117 242.361 59.6475 241.157 62.9082 241.148C66.125 241.157 68.2695 242.361 68.2695 244.312C68.2695 246.264 66.125 247.485 62.9082 247.477C59.6475 247.485 57.5117 246.264 57.5117 244.312ZM59.4629 244.312C59.4629 245.358 60.7725 245.93 62.9082 245.93C65.0088 245.93 66.3096 245.358 66.3184 244.312C66.3096 243.249 65.0088 242.678 62.9082 242.678C60.7725 242.678 59.4629 243.249 59.4629 244.312ZM74.8262 232.57C76.1094 232.562 77.2256 233.036 77.9727 233.836H81.7695V231.674H83.7207V241.025H81.7695V239.004H77.9639C77.208 239.786 76.1006 240.261 74.8262 240.252C72.4268 240.261 70.625 238.652 70.625 236.42C70.625 234.17 72.4268 232.562 74.8262 232.57ZM72.4883 236.42C72.4883 237.721 73.4639 238.6 74.8262 238.6C76.1445 238.6 77.1201 237.721 77.1289 236.42C77.1201 235.075 76.1445 234.24 74.8262 234.24C73.4639 234.24 72.4883 235.075 72.4883 236.42ZM72.9453 244.453C72.9277 242.493 75.0107 241.351 78.3418 241.359C81.6816 241.351 83.7646 242.493 83.7734 244.453C83.7646 246.404 81.6816 247.547 78.3418 247.547C75.0107 247.547 72.9277 246.404 72.9453 244.453ZM74.8613 244.453C74.8438 245.464 76.1357 246.009 78.3418 246.018C80.5918 246.009 81.8574 245.464 81.8574 244.453C81.8574 243.416 80.5918 242.862 78.3418 242.854C76.1357 242.862 74.8438 243.416 74.8613 244.453ZM78.8516 235.4C78.9395 235.726 78.9922 236.06 78.9922 236.42C78.9922 236.771 78.9395 237.105 78.8604 237.422H81.7695V235.4H78.8516ZM100.473 239.531V241.096H94.3379V244.014H92.3516V241.096H85.9531V239.531H100.473ZM87.5 235.277C87.4912 233.282 89.7764 232.025 93.1953 232.025C96.6318 232.025 98.8906 233.282 98.8906 235.277C98.8906 237.281 96.6318 238.521 93.1953 238.512C89.7764 238.521 87.4912 237.281 87.5 235.277ZM87.7285 247.248V242.537H89.6973V245.648H98.873V247.248H87.7285ZM89.6094 235.277C89.5918 236.332 91.0156 236.947 93.1953 236.947C95.3926 236.947 96.8076 236.332 96.7988 235.277C96.8076 234.188 95.3926 233.572 93.1953 233.572C91.0156 233.572 89.5918 234.188 89.6094 235.277ZM105.939 232.57C107.223 232.562 108.339 233.036 109.086 233.836H112.883V231.674H114.834V241.025H112.883V239.004H109.077C108.321 239.786 107.214 240.261 105.939 240.252C103.54 240.261 101.738 238.652 101.738 236.42C101.738 234.17 103.54 232.562 105.939 232.57ZM103.602 236.42C103.602 237.721 104.577 238.6 105.939 238.6C107.258 238.6 108.233 237.721 108.242 236.42C108.233 235.075 107.258 234.24 105.939 234.24C104.577 234.24 103.602 235.075 103.602 236.42ZM104.059 244.453C104.041 242.493 106.124 241.351 109.455 241.359C112.795 241.351 114.878 242.493 114.887 244.453C114.878 246.404 112.795 247.547 109.455 247.547C106.124 247.547 104.041 246.404 104.059 244.453ZM105.975 244.453C105.957 245.464 107.249 246.009 109.455 246.018C111.705 246.009 112.971 245.464 112.971 244.453C112.971 243.416 111.705 242.862 109.455 242.854C107.249 242.862 105.957 243.416 105.975 244.453ZM109.965 235.4C110.053 235.726 110.105 236.06 110.105 236.42C110.105 236.771 110.053 237.105 109.974 237.422H112.883V235.4H109.965ZM125.961 232.852V233.801C125.943 234.882 125.943 236.464 125.574 238.477L123.641 238.301C123.957 236.666 124.019 235.444 124.036 234.469H117.857V232.852H125.961ZM116.908 239.742C117.849 239.733 118.903 239.725 120.02 239.707V236.473H121.953V239.646C123.597 239.575 125.284 239.452 126.822 239.232L126.928 240.639C123.623 241.236 119.87 241.298 117.084 241.307L116.908 239.742ZM119.281 247.248V242.52H121.25V245.666H130.268V247.248H119.281ZM127.754 243.574V231.674H129.758V236.631H131.814V238.266H129.758V243.574H127.754ZM145.877 231.674V247.582H143.943V231.674H145.877ZM133.502 234.645V233.062H140.99V239.021H135.523V242.221C138.028 242.203 140.182 242.071 142.66 241.658L142.836 243.258C140.138 243.724 137.765 243.829 134.908 243.82H133.52V237.475H139.004V234.645H133.502Z" fill="white"/>
<rect x="300" y="218" width="122" height="43" rx="8" fill="#2674FF"/>
<path d="M319.718 233.221V243.627H312.194V233.221H319.718ZM314.11 242.062H317.767V234.75H314.11V242.062ZM322.126 247.564V231.674H324.077V237.773H326.521V239.426H324.077V247.564H322.126ZM334.237 233.502C334.229 234.996 334.088 236.429 333.719 237.773H335.679V232.061H337.524V246.809H335.679V239.355H333.139C332.269 241.271 330.766 242.959 328.296 244.348L327.188 243.012C329.342 241.781 330.669 240.349 331.442 238.705L327.47 239.109L327.241 237.422L331.996 237.158C332.163 236.499 332.269 235.805 332.321 235.084H328.015V233.502H334.237ZM339.036 247.564V231.674H340.899V247.564H339.036ZM351.306 232.816V234.363H345.61V235.875H350.849V237.404H345.61V238.934C348.581 238.942 350.392 238.898 352.483 238.547L352.677 240.094C350.4 240.472 348.405 240.524 344.978 240.516H343.624V232.816H351.306ZM345.188 244.576C345.18 242.695 347.228 241.597 350.62 241.605C353.951 241.597 356.052 242.695 356.052 244.576C356.052 246.457 353.951 247.547 350.62 247.547C347.228 247.547 345.18 246.457 345.188 244.576ZM347.14 244.576C347.122 245.525 348.361 246.035 350.62 246.035C352.826 246.035 354.101 245.525 354.101 244.576C354.101 243.636 352.826 243.117 350.62 243.117C348.361 243.117 347.122 243.636 347.14 244.576ZM354.013 241.377V231.691H355.981V241.377H354.013ZM364.032 232.676L359.937 247.916H357.968L362.081 232.676H364.032ZM369.165 232.57C370.448 232.562 371.564 233.036 372.312 233.836H376.108V231.674H378.06V241.025H376.108V239.004H372.303C371.547 239.786 370.439 240.261 369.165 240.252C366.766 240.261 364.964 238.652 364.964 236.42C364.964 234.17 366.766 232.562 369.165 232.57ZM366.827 236.42C366.827 237.721 367.803 238.6 369.165 238.6C370.483 238.6 371.459 237.721 371.468 236.42C371.459 235.075 370.483 234.24 369.165 234.24C367.803 234.24 366.827 235.075 366.827 236.42ZM367.284 244.453C367.267 242.493 369.35 241.351 372.681 241.359C376.021 241.351 378.104 242.493 378.112 244.453C378.104 246.404 376.021 247.547 372.681 247.547C369.35 247.547 367.267 246.404 367.284 244.453ZM369.2 244.453C369.183 245.464 370.475 246.009 372.681 246.018C374.931 246.009 376.196 245.464 376.196 244.453C376.196 243.416 374.931 242.862 372.681 242.854C370.475 242.862 369.183 243.416 369.2 244.453ZM373.19 235.4C373.278 235.726 373.331 236.06 373.331 236.42C373.331 236.771 373.278 237.105 373.199 237.422H376.108V235.4H373.19ZM384.722 232.377C386.778 232.368 388.396 233.555 388.791 235.295H391.665V231.674H393.616V240.199H391.665V236.877H388.809C388.431 238.661 386.796 239.865 384.722 239.865C382.287 239.865 380.521 238.301 380.521 236.104C380.521 233.933 382.287 232.368 384.722 232.377ZM382.384 236.104C382.384 237.378 383.351 238.222 384.722 238.213C386.058 238.222 387.016 237.378 387.024 236.104C387.016 234.829 386.058 234.003 384.722 234.012C383.351 234.003 382.384 234.829 382.384 236.104ZM383.14 247.371V240.938H385.073V242.625H391.665V240.938H393.616V247.371H383.14ZM385.073 245.789H391.665V244.137H385.073V245.789ZM404.427 232.605V234.188H398.731V235.664H403.97V237.193H398.731V238.758C401.702 238.758 403.513 238.705 405.604 238.354L405.798 239.883C403.521 240.278 401.526 240.322 398.099 240.305H396.745V232.605H404.427ZM398.556 247.371V241.834H409.103V247.371H398.556ZM400.489 245.789H407.187V243.346H400.489V245.789ZM407.134 241.131V231.691H409.103V241.131H407.134Z" fill="white"/>
<rect x="430" y="218" width="122" height="43" rx="8" fill="#2674FF"/>
<path d="M463.244 232.395V233.607C463.253 234.785 463.253 236.156 462.901 237.932H465.02V239.514H458.709V241.992H463.279V247.564H461.328V243.557H451.977V241.992H456.758V239.514H450.5V237.932H460.941C461.258 236.297 461.293 235.058 461.293 233.959H452.293V232.395H463.244ZM479.697 231.674V247.564H477.816V239.531H476.059V246.756H474.23V231.973H476.059V237.932H477.816V231.674H479.697ZM466.742 243.609V233.502H468.711V241.887C470.082 241.86 471.576 241.737 473.246 241.412L473.439 243.117C471.295 243.495 469.476 243.609 467.797 243.609H466.742ZM499.525 231.674V247.564H497.645V239.408H495.939V246.826H494.111V232.096H495.939V237.826H497.645V231.674H499.525ZM485.762 242.889C489.146 240.938 490.578 238.424 490.859 235.242H486.5V233.678H492.758C492.758 237.976 491.404 241.667 486.887 244.242L485.762 242.889ZM503.92 232.377V234.398H507.629V232.377H509.562V239.303H501.986V232.377H503.92ZM503.586 241.975V240.445H513.975V244.611H505.537V245.877H514.467V247.424H503.604V243.188H512.023V241.975H503.586ZM503.92 237.756H507.629V235.875H503.92V237.756ZM512.023 239.812V231.674H513.975V234.891H516.189V236.473H513.975V239.812H512.023ZM525.559 232.605V234.188H519.863V235.664H525.102V237.193H519.863V238.758C522.834 238.758 524.645 238.705 526.736 238.354L526.93 239.883C524.653 240.278 522.658 240.322 519.23 240.305H517.877V232.605H525.559ZM519.688 247.371V241.834H530.234V247.371H519.688ZM521.621 245.789H528.318V243.346H521.621V245.789ZM528.266 241.131V231.691H530.234V241.131H528.266Z" fill="white"/>
<rect x="170" y="218" width="122" height="43" rx="8" fill="#2674FF"/>
<path d="M221.464 231.674V247.564H219.495V231.674H221.464ZM208.298 243.188C212.464 241.21 214.38 238.521 214.731 234.908H209.106V233.361H216.718C216.718 238.09 214.881 242.106 209.317 244.752L208.298 243.188ZM233.716 232.939V234.381H224.312V232.939H228.021V231.586H229.972V232.939H233.716ZM223.819 240.498C225.085 240.498 226.526 240.498 228.021 240.454V239.522C226.219 239.303 225.094 238.459 225.103 237.229C225.094 235.752 226.649 234.829 229.022 234.838C231.334 234.829 232.925 235.752 232.925 237.229C232.925 238.468 231.756 239.312 229.972 239.531V240.384C231.316 240.313 232.661 240.208 233.927 240.041L234.067 241.377C230.657 241.957 226.904 242.001 224.083 242.01L223.819 240.498ZM226.069 244.576V243.047H237.003V247.564H235.034V244.576H226.069ZM226.983 237.229C226.975 237.879 227.766 238.266 229.022 238.248C230.227 238.266 231.053 237.879 231.062 237.229C231.053 236.525 230.227 236.147 229.022 236.156C227.766 236.147 226.975 236.525 226.983 237.229ZM235.034 242.396V231.709H237.003V242.396H235.034ZM247.866 232.605V234.188H242.171V235.664H247.409V237.193H242.171V238.758C245.142 238.758 246.952 238.705 249.044 238.354L249.237 239.883C246.961 240.278 244.966 240.322 241.538 240.305H240.185V232.605H247.866ZM241.995 247.371V241.834H252.542V247.371H241.995ZM243.929 245.789H250.626V243.346H243.929V245.789ZM250.573 241.131V231.691H252.542V241.131H250.573Z" fill="white"/>
<line x1="294.5" y1="40" x2="294.5" y2="197" stroke="#0A3177"/>
<path d="M102 218V197H496V218" stroke="#0A3177"/>
<line x1="226.5" y1="261" x2="226.5" y2="469" stroke="#0A3177" stroke-dasharray="2 2"/>
<line x1="294" y1="118.5" x2="357" y2="118.5" stroke="#0A3177"/>
<path d="M102 261V556H158" stroke="#0A3177" stroke-dasharray="2 2"/>
<path d="M510 261V556H430" stroke="#0A3177" stroke-dasharray="2 2"/>
<g filter="url(#filter2_d_475_280)">
<rect x="152" y="344" width="148" height="42" rx="21" fill="#E3E7F0"/>
<path d="M192.508 358.375V372.266H191.273V358.375H192.508ZM181.195 368.656C184.953 366.875 186.875 364.211 187.148 360.891H181.836V359.891H188.398C188.383 363.883 186.523 367.422 181.867 369.656L181.195 368.656ZM201.82 358.984C201.812 360.711 204.32 362.039 206.82 362.344L206.383 363.281C204.195 362.984 202.055 362.008 201.18 360.508C200.289 362.008 198.141 362.984 195.977 363.281L195.555 362.344C198.047 362.039 200.555 360.711 200.555 358.984V358.453H201.82V358.984ZM194.852 365.188V364.188H207.508V365.188H201.773V366.578H205.883V369.734H197.633V371.141H206.305V372.109H196.414V368.812H204.68V367.547H196.383V366.578H200.555V365.188H194.852ZM210.961 369.953L209.742 374.203H208.586L209.445 369.953H210.961ZM223.852 359.828C223.836 363.836 222.414 367.508 217.508 369.969L216.805 369.031C219.359 367.75 220.938 366.148 221.805 364.273L217.07 364.719L216.852 363.656L222.18 363.305C222.438 362.523 222.578 361.703 222.641 360.844H217.555V359.828H223.852ZM223.805 364.984V363.969H227.07V358.375H228.289V372.266H227.07V364.984H223.805ZM242.086 358.375V372.297H240.867V358.375H242.086ZM231.398 360.688V359.672H237.867V364.609H232.68V367.891C234.984 367.898 237.039 367.789 239.523 367.391L239.648 368.422C237.094 368.82 234.984 368.922 232.586 368.922H231.43V363.609H236.633V360.688H231.398ZM255.492 358.984V360.031C255.492 361.07 255.492 362.312 255.156 363.922H257.102V364.922H253.695V366.422H255.602V369.641H247.195V371.094H256.086V372.078H245.977V368.719H254.383V367.375H245.945V366.422H247.852V364.922H244.461V363.922H253.93C254.062 363.281 254.148 362.703 254.203 362.18L245.883 362.562L245.727 361.547L254.258 361.289C254.281 360.844 254.273 360.43 254.273 360.031V359.969H246.055V358.984H255.492ZM249.07 366.422H252.477V364.922H249.07V366.422ZM269.789 367.328V372.078H260.648V367.328H269.789ZM258.836 360.109V359.094H265.023V362.938H260.086V364.953C262.375 364.961 264.094 364.883 266.18 364.547L266.289 365.578C264.109 365.914 262.32 365.984 259.914 365.969H258.867V361.984H263.836V360.109H258.836ZM261.867 371.078H268.57V368.281H261.867V371.078ZM265.914 362.531V361.516H268.555V358.391H269.789V366.547H268.555V362.531H265.914Z" fill="#222222"/>
</g>
<g filter="url(#filter3_d_475_280)">
<rect x="354" y="344" width="148" height="42" rx="21" fill="#E3E7F0"/>
<path d="M387.094 359.281V360.5C387.094 361.812 387.094 363.258 386.695 365.25H388.766V366.266H383.031V372.297H381.797V366.266H376.109V365.25H385.453C385.875 363.25 385.875 361.797 385.875 360.5V360.297H377.703V359.281H387.094ZM401.406 358.391V368.547H400.188V358.391H401.406ZM390.266 362.766C390.258 360.766 391.828 359.367 393.906 359.359C395.984 359.367 397.539 360.766 397.547 362.766C397.539 364.789 395.984 366.195 393.906 366.188C391.828 366.195 390.258 364.789 390.266 362.766ZM391.469 362.766C391.453 364.148 392.5 365.109 393.906 365.109C395.289 365.109 396.344 364.148 396.344 362.766C396.344 361.406 395.289 360.438 393.906 360.438C392.5 360.438 391.453 361.406 391.469 362.766ZM392.438 371.969V367.516H393.656V370.938H401.844V371.969H392.438ZM415.281 358.375V372.297H414.047V364.984H411V363.969H414.047V358.375H415.281ZM403.797 368.625C405.836 367.672 407.359 365.297 407.359 362.906V361.797H404.172V360.797H407.359V358.641H408.578V360.797H411.719V361.797H408.562V362.906C408.562 365.195 410.133 367.453 412.188 368.375L411.484 369.328C409.898 368.609 408.594 367.086 407.977 365.258C407.375 367.195 406.086 368.812 404.5 369.578L403.797 368.625ZM419.875 369.953L418.656 374.203H417.5L418.359 369.953H419.875ZM430.938 361C430.945 362.406 432.32 363.594 434.297 364.031L433.797 365.016C432.195 364.617 430.961 363.773 430.352 362.648C429.758 363.867 428.508 364.797 426.859 365.203L426.328 364.219C428.336 363.773 429.719 362.484 429.719 361V360.938H426.625V359.969H429.719V358.422H430.938V359.969H434.031V360.938H430.938V361ZM425.672 366.188C428.336 366.18 431.859 366.164 434.938 365.766L435.016 366.656C433.688 366.875 432.312 367.008 430.969 367.094V371.859H429.75V367.156C428.344 367.211 427.008 367.219 425.844 367.219L425.672 366.188ZM435.953 372.281V358.391H437.156V372.281H435.953ZM443.359 359.031C445.219 359.023 446.641 360.109 446.906 361.703H449.812V358.375H451.047V365.828H449.812V362.719H446.914C446.672 364.359 445.242 365.453 443.359 365.453C441.242 365.453 439.742 364.141 439.75 362.234C439.742 360.352 441.242 359.023 443.359 359.031ZM440.922 362.234C440.922 363.5 441.93 364.414 443.359 364.422C444.758 364.414 445.766 363.5 445.766 362.234C445.766 360.953 444.758 360.062 443.359 360.078C441.93 360.062 440.922 360.953 440.922 362.234ZM442.094 372.078V366.531H443.328V368.297H449.812V366.531H451.047V372.078H442.094ZM443.328 371.078H449.812V369.281H443.328V371.078ZM461.062 359.453V360.188C461.055 361.102 461.055 362.484 460.703 364.297L459.469 364.203C459.805 362.547 459.836 361.367 459.852 360.484H454.141V359.453H461.062ZM453.281 365.594C454.18 365.594 455.195 365.586 456.266 365.555V362.531H457.484V365.516C459.023 365.453 460.617 365.344 462.062 365.141L462.141 366.047C459.227 366.547 455.883 366.602 453.406 366.609L453.281 365.594ZM455.422 371.969V367.891H456.656V370.938H464.703V371.969H455.422ZM463 368.828V358.375H464.25V362.906H466.281V363.953H464.25V368.828H463ZM478.656 358.375V372.297H477.438V358.375H478.656ZM467.969 360.688V359.672H474.438V364.609H469.25V367.891C471.555 367.898 473.609 367.789 476.094 367.391L476.219 368.422C473.664 368.82 471.555 368.922 469.156 368.922H468V363.609H473.203V360.688H467.969Z" fill="#222222"/>
</g>
<g filter="url(#filter4_d_475_280)">
<rect x="457" y="489" width="106" height="42" rx="21" fill="#E3E7F0"/>
<path d="M491.555 510.438V511.453H485.914V514.297H484.68V511.453H478.836V510.438H491.555ZM480.273 506.531C480.266 504.805 482.211 503.742 485.18 503.734C488.148 503.742 490.07 504.805 490.07 506.531C490.07 508.242 488.148 509.305 485.18 509.297C482.211 509.305 480.266 508.242 480.273 506.531ZM480.477 516.969V512.906H481.711V515.922H490.133V516.969H480.477ZM481.586 506.531C481.57 507.609 483.016 508.297 485.18 508.297C487.336 508.297 488.773 507.609 488.773 506.531C488.773 505.422 487.336 504.742 485.18 504.734C483.016 504.742 481.57 505.422 481.586 506.531ZM496.508 504.219C497.68 504.211 498.672 504.656 499.32 505.391H502.961V503.375H504.195V511.609H502.961V509.625H499.32C498.68 510.359 497.68 510.805 496.508 510.797C494.43 510.805 492.891 509.445 492.898 507.516C492.891 505.57 494.43 504.211 496.508 504.219ZM494.07 507.516C494.07 508.805 495.086 509.758 496.508 509.75C497.883 509.758 498.914 508.805 498.914 507.516C498.914 506.195 497.883 505.273 496.508 505.281C495.086 505.273 494.07 506.195 494.07 507.516ZM494.93 514.578C494.922 512.906 496.703 511.938 499.586 511.938C502.461 511.938 504.242 512.906 504.242 514.578C504.242 516.266 502.461 517.234 499.586 517.234C496.703 517.234 494.922 516.266 494.93 514.578ZM496.133 514.578C496.125 515.625 497.453 516.258 499.586 516.25C501.719 516.258 503.047 515.625 503.039 514.578C503.047 513.523 501.719 512.898 499.586 512.891C497.453 512.898 496.125 513.523 496.133 514.578ZM499.906 506.391C500.031 506.734 500.102 507.109 500.102 507.516C500.102 507.906 500.031 508.273 499.914 508.609H502.961V506.391H499.906ZM508.789 514.953L507.57 519.203H506.414L507.273 514.953H508.789ZM522.32 504.453V505.188C522.312 506.102 522.312 507.484 521.961 509.297L520.727 509.203C521.062 507.547 521.094 506.367 521.109 505.484H515.398V504.453H522.32ZM514.539 510.594C515.438 510.594 516.453 510.586 517.523 510.555V507.531H518.742V510.516C520.281 510.453 521.875 510.344 523.32 510.141L523.398 511.047C520.484 511.547 517.141 511.602 514.664 511.609L514.539 510.594ZM516.68 516.969V512.891H517.914V515.938H525.961V516.969H516.68ZM524.258 513.828V503.375H525.508V507.906H527.539V508.953H525.508V513.828H524.258ZM539.914 503.375V517.297H538.695V503.375H539.914ZM529.227 505.688V504.672H535.695V509.609H530.508V512.891C532.812 512.898 534.867 512.789 537.352 512.391L537.477 513.422C534.922 513.82 532.812 513.922 530.414 513.922H529.258V508.609H534.461V505.688H529.227Z" fill="#222222"/>
</g>
<g filter="url(#filter5_d_475_280)">
<rect x="30" y="489" width="120" height="42" rx="21" fill="#E3E7F0"/>
<path d="M49.6797 507.109C49.6797 509.555 51.2969 512.078 53.2734 513.047L52.5234 514.031C50.9922 513.234 49.7109 511.586 49.0938 509.656C48.4766 511.703 47.1641 513.461 45.6016 514.297L44.8203 513.312C46.8516 512.312 48.4609 509.648 48.4766 507.109V504.578H49.6797V507.109ZM54.5547 517.266V503.375H55.7734V509.016H58.1016V510.078H55.7734V517.266H54.5547ZM62.6797 504.031C64.5391 504.023 65.9609 505.109 66.2266 506.703H69.1328V503.375H70.3672V510.828H69.1328V507.719H66.2344C65.9922 509.359 64.5625 510.453 62.6797 510.453C60.5625 510.453 59.0625 509.141 59.0703 507.234C59.0625 505.352 60.5625 504.023 62.6797 504.031ZM60.2422 507.234C60.2422 508.5 61.25 509.414 62.6797 509.422C64.0781 509.414 65.0859 508.5 65.0859 507.234C65.0859 505.953 64.0781 505.062 62.6797 505.078C61.25 505.062 60.2422 505.953 60.2422 507.234ZM61.4141 517.078V511.531H62.6484V513.297H69.1328V511.531H70.3672V517.078H61.4141ZM62.6484 516.078H69.1328V514.281H62.6484V516.078ZM80.3828 504.453V505.188C80.375 506.102 80.375 507.484 80.0234 509.297L78.7891 509.203C79.125 507.547 79.1562 506.367 79.1719 505.484H73.4609V504.453H80.3828ZM72.6016 510.594C73.5 510.594 74.5156 510.586 75.5859 510.555V507.531H76.8047V510.516C78.3438 510.453 79.9375 510.344 81.3828 510.141L81.4609 511.047C78.5469 511.547 75.2031 511.602 72.7266 511.609L72.6016 510.594ZM74.7422 516.969V512.891H75.9766V515.938H84.0234V516.969H74.7422ZM82.3203 513.828V503.375H83.5703V507.906H85.6016V508.953H83.5703V513.828H82.3203ZM97.9766 503.375V517.297H96.7578V503.375H97.9766ZM87.2891 505.688V504.672H93.7578V509.609H88.5703V512.891C90.875 512.898 92.9297 512.789 95.4141 512.391L95.5391 513.422C92.9844 513.82 90.875 513.922 88.4766 513.922H87.3203V508.609H92.5234V505.688H87.2891ZM102.617 514.953L101.398 519.203H100.242L101.102 514.953H102.617ZM115.617 504.281C115.609 507.766 113.117 510.266 109.117 511.406L108.602 510.438C111.922 509.5 114.047 507.656 114.312 505.297H109.32V504.281H115.617ZM110.945 517.078V511.906H119.961V517.078H110.945ZM112.133 516.078H118.742V512.891H112.133V516.078ZM115.648 508V506.969H118.727V503.391H119.961V511.312H118.727V508H115.648ZM133.523 510.609V511.609H129.211V514.516H134.992V515.531H122.273V514.516H127.992V511.609H123.914V504.516H133.367V505.531H125.164V507.516H133.07V508.516H125.164V510.609H133.523Z" fill="#222222"/>
</g>
<path d="M361 261V326H496V261" stroke="#0A3177" stroke-dasharray="2 2"/>
<defs>
<filter id="filter0_d_475_280" x="128" y="443" width="332" height="217" filterUnits="userSpaceOnUse" color-interpolation-filters="sRGB">
<feFlood flood-opacity="0" result="BackgroundImageFix"/>
<feColorMatrix in="SourceAlpha" type="matrix" values="0 0 0 0 0 0 0 0 0 0 0 0 0 0 0 0 0 0 127 0" result="hardAlpha"/>
<feOffset dy="4"/>
<feGaussianBlur stdDeviation="15"/>
<feComposite in2="hardAlpha" operator="out"/>
<feColorMatrix type="matrix" values="0 0 0 0 0.322337 0 0 0 0 0.396182 0 0 0 0 0.586068 0 0 0 0.1 0"/>
<feBlend mode="normal" in2="BackgroundImageFix" result="effect1_dropShadow_475_280"/>
<feBlend mode="normal" in="SourceGraphic" in2="effect1_dropShadow_475_280" result="shape"/>
</filter>
<filter id="filter1_d_475_280" x="327" y="68" width="260" height="105" filterUnits="userSpaceOnUse" color-interpolation-filters="sRGB">
<feFlood flood-opacity="0" result="BackgroundImageFix"/>
<feColorMatrix in="SourceAlpha" type="matrix" values="0 0 0 0 0 0 0 0 0 0 0 0 0 0 0 0 0 0 127 0" result="hardAlpha"/>
<feOffset dy="4"/>
<feGaussianBlur stdDeviation="15"/>
<feComposite in2="hardAlpha" operator="out"/>
<feColorMatrix type="matrix" values="0 0 0 0 0.322337 0 0 0 0 0.396182 0 0 0 0 0.586068 0 0 0 0.1 0"/>
<feBlend mode="normal" in2="BackgroundImageFix" result="effect1_dropShadow_475_280"/>
<feBlend mode="normal" in="SourceGraphic" in2="effect1_dropShadow_475_280" result="shape"/>
</filter>
<filter id="filter2_d_475_280" x="122" y="318" width="208" height="102" filterUnits="userSpaceOnUse" color-interpolation-filters="sRGB">
<feFlood flood-opacity="0" result="BackgroundImageFix"/>
<feColorMatrix in="SourceAlpha" type="matrix" values="0 0 0 0 0 0 0 0 0 0 0 0 0 0 0 0 0 0 127 0" result="hardAlpha"/>
<feOffset dy="4"/>
<feGaussianBlur stdDeviation="15"/>
<feComposite in2="hardAlpha" operator="out"/>
<feColorMatrix type="matrix" values="0 0 0 0 0.322337 0 0 0 0 0.396182 0 0 0 0 0.586068 0 0 0 0.1 0"/>
<feBlend mode="normal" in2="BackgroundImageFix" result="effect1_dropShadow_475_280"/>
<feBlend mode="normal" in="SourceGraphic" in2="effect1_dropShadow_475_280" result="shape"/>
</filter>
<filter id="filter3_d_475_280" x="324" y="318" width="208" height="102" filterUnits="userSpaceOnUse" color-interpolation-filters="sRGB">
<feFlood flood-opacity="0" result="BackgroundImageFix"/>
<feColorMatrix in="SourceAlpha" type="matrix" values="0 0 0 0 0 0 0 0 0 0 0 0 0 0 0 0 0 0 127 0" result="hardAlpha"/>
<feOffset dy="4"/>
<feGaussianBlur stdDeviation="15"/>
<feComposite in2="hardAlpha" operator="out"/>
<feColorMatrix type="matrix" values="0 0 0 0 0.322337 0 0 0 0 0.396182 0 0 0 0 0.586068 0 0 0 0.1 0"/>
<feBlend mode="normal" in2="BackgroundImageFix" result="effect1_dropShadow_475_280"/>
<feBlend mode="normal" in="SourceGraphic" in2="effect1_dropShadow_475_280" result="shape"/>
</filter>
<filter id="filter4_d_475_280" x="427" y="463" width="166" height="102" filterUnits="userSpaceOnUse" color-interpolation-filters="sRGB">
<feFlood flood-opacity="0" result="BackgroundImageFix"/>
<feColorMatrix in="SourceAlpha" type="matrix" values="0 0 0 0 0 0 0 0 0 0 0 0 0 0 0 0 0 0 127 0" result="hardAlpha"/>
<feOffset dy="4"/>
<feGaussianBlur stdDeviation="15"/>
<feComposite in2="hardAlpha" operator="out"/>
<feColorMatrix type="matrix" values="0 0 0 0 0.322337 0 0 0 0 0.396182 0 0 0 0 0.586068 0 0 0 0.1 0"/>
<feBlend mode="normal" in2="BackgroundImageFix" result="effect1_dropShadow_475_280"/>
<feBlend mode="normal" in="SourceGraphic" in2="effect1_dropShadow_475_280" result="shape"/>
</filter>
<filter id="filter5_d_475_280" x="0" y="463" width="180" height="102" filterUnits="userSpaceOnUse" color-interpolation-filters="sRGB">
<feFlood flood-opacity="0" result="BackgroundImageFix"/>
<feColorMatrix in="SourceAlpha" type="matrix" values="0 0 0 0 0 0 0 0 0 0 0 0 0 0 0 0 0 0 127 0" result="hardAlpha"/>
<feOffset dy="4"/>
<feGaussianBlur stdDeviation="15"/>
<feComposite in2="hardAlpha" operator="out"/>
<feColorMatrix type="matrix" values="0 0 0 0 0.322337 0 0 0 0 0.396182 0 0 0 0 0.586068 0 0 0 0.1 0"/>
<feBlend mode="normal" in2="BackgroundImageFix" result="effect1_dropShadow_475_280"/>
<feBlend mode="normal" in="SourceGraphic" in2="effect1_dropShadow_475_280" result="shape"/>
</filter>
</defs>
</svg>
