<svg width="384" height="184" viewBox="0 0 384 184" fill="none" xmlns="http://www.w3.org/2000/svg">
<path d="M34 1H350C368.225 1 383 15.7746 383 34V183H1V34C1 15.7746 15.7746 1 34 1Z" fill="#222222" stroke="#3E3E3E" stroke-width="2"/>
<path d="M37 13H347C360.807 13 372 24.1929 372 38V183H12V38C12 24.1929 23.1929 13 37 13Z" fill="#ECEAEA" stroke="#E6E6E6" stroke-width="2"/>
<rect x="141" y="26" width="102" height="14" rx="7" fill="#222222"/>
<rect x="27" y="54" width="330" height="52" rx="8" fill="#DEDEDE"/>
<path d="M27 128C27 123.582 30.5817 120 35 120H349C353.418 120 357 123.582 357 128V184H27V128Z" fill="white"/>
<g clip-path="url(#clip0_142_154)">
<path d="M55.305 85.61C59.3394 85.61 62.61 82.3394 62.61 78.305C62.61 74.2706 59.3394 71 55.305 71C51.2706 71 48 74.2706 48 78.305C48 82.3394 51.2706 85.61 55.305 85.61Z" stroke="#371C1D" stroke-width="1.5" stroke-linecap="round" stroke-linejoin="round"/>
<path d="M60.54 83.5408L66 89.0008" stroke="#371C1D" stroke-width="1.5" stroke-linecap="round" stroke-linejoin="round"/>
</g>
<path d="M96.5312 73.6406C96.5312 76.4922 99.5684 79.1875 102.938 79.793L102.078 81.3359C99.2754 80.7305 96.707 78.8945 95.5742 76.4336C94.4219 78.8848 91.8535 80.7109 89.0508 81.3359L88.2305 79.793C91.5508 79.168 94.5684 76.4922 94.5781 73.6406V72.3125H96.5312V73.6406ZM87.6445 86.3555V84.8125H103.66V86.3555H87.6445ZM120.066 71.1602V88.6602H118.289V71.1602H120.066ZM104.734 82.8789C105.242 82.8789 105.828 82.8789 106.453 82.8691V74.832H105.105V73.3086H113.133V74.832H111.785V82.6543C112.381 82.6055 112.957 82.5371 113.484 82.4688L113.621 83.8164C110.848 84.3633 107.215 84.4414 104.949 84.4414L104.734 82.8789ZM108.133 82.8398C108.768 82.8301 109.422 82.8008 110.066 82.7715V74.832H108.133V82.8398ZM112.664 79.3828V77.7227H114.852V71.5508H116.609V87.7617H114.852V79.3828H112.664ZM136.707 71.1602V88.6992H134.852V71.1602H136.707ZM122.82 78.6016C122.82 74.8613 124.705 72.4785 127.352 72.4688C129.949 72.4785 131.863 74.8613 131.863 78.6016C131.863 82.3809 129.949 84.7637 127.352 84.7539C124.705 84.7637 122.82 82.3809 122.82 78.6016ZM124.617 78.6016C124.607 81.3848 125.721 83.0938 127.352 83.0938C128.953 83.0938 130.066 81.3848 130.066 78.6016C130.066 75.8574 128.953 74.1387 127.352 74.1289C125.721 74.1387 124.607 75.8574 124.617 78.6016ZM148.387 73.6406C148.387 76.4922 151.424 79.1875 154.793 79.793L153.934 81.3359C151.131 80.7305 148.562 78.8945 147.43 76.4336C146.277 78.8848 143.709 80.7109 140.906 81.3359L140.086 79.793C143.406 79.168 146.424 76.4922 146.434 73.6406V72.3125H148.387V73.6406ZM139.5 86.3555V84.8125H155.516V86.3555H139.5ZM176.453 71.1602V88.6602H174.578V71.1602H176.453ZM161.375 83.4062C163.562 81.7754 164.09 78.7285 164.109 76.3359V72.6641H165.828V76.3359C165.838 78.1816 166.131 80.6719 167.449 82.4492C168.748 80.7109 169.041 78.2598 169.051 76.3359V72.6641H170.828V76.3359C170.818 78.7969 171.355 81.8242 173.543 83.4062L172.391 84.7344C171.111 83.8066 170.359 82.3125 169.93 80.6426C169.52 82.3516 168.758 83.9141 167.449 84.8711C166.141 83.9141 165.379 82.3418 164.969 80.6426C164.549 82.2734 163.807 83.7383 162.586 84.6758L161.375 83.4062ZM193.875 71.1797V80.2422H192.117V71.1797H193.875ZM179.109 75.8477C179.1 73.5137 180.76 71.9805 183.113 72C185.174 71.9805 186.717 73.1621 187.059 75.0273H188.719V71.5117H190.457V80.125H188.719V76.5508H187.078C186.766 78.4355 185.203 79.6953 183.113 79.6953C180.76 79.6953 179.1 78.1133 179.109 75.8477ZM180.77 75.8477C180.76 77.2539 181.756 78.2012 183.113 78.2109C184.461 78.2012 185.457 77.2539 185.477 75.8477C185.457 74.4121 184.461 73.4258 183.113 73.4258C181.756 73.4258 180.76 74.4121 180.77 75.8477ZM182.137 82.4492V80.9844H193.875V85.3008H184.031V86.9609H194.539V88.4453H182.176V83.9141H192.039V82.4492H182.137Z" fill="#371C1D"/>
<path d="M104.531 145.641C104.531 148.492 107.568 151.188 110.938 151.793L110.078 153.336C107.275 152.73 104.707 150.895 103.574 148.434C102.422 150.885 99.8535 152.711 97.0508 153.336L96.2305 151.793C99.5508 151.168 102.568 148.492 102.578 145.641V144.312H104.531V145.641ZM95.6445 158.355V156.812H111.66V158.355H95.6445ZM128.066 143.16V160.66H126.289V143.16H128.066ZM112.734 154.879C113.242 154.879 113.828 154.879 114.453 154.869V146.832H113.105V145.309H121.133V146.832H119.785V154.654C120.381 154.605 120.957 154.537 121.484 154.469L121.621 155.816C118.848 156.363 115.215 156.441 112.949 156.441L112.734 154.879ZM116.133 154.84C116.768 154.83 117.422 154.801 118.066 154.771V146.832H116.133V154.84ZM120.664 151.383V149.723H122.852V143.551H124.609V159.762H122.852V151.383H120.664ZM144.707 143.16V160.699H142.852V143.16H144.707ZM130.82 150.602C130.82 146.861 132.705 144.479 135.352 144.469C137.949 144.479 139.863 146.861 139.863 150.602C139.863 154.381 137.949 156.764 135.352 156.754C132.705 156.764 130.82 154.381 130.82 150.602ZM132.617 150.602C132.607 153.385 133.721 155.094 135.352 155.094C136.953 155.094 138.066 153.385 138.066 150.602C138.066 147.857 136.953 146.139 135.352 146.129C133.721 146.139 132.607 147.857 132.617 150.602ZM156.387 145.641C156.387 148.492 159.424 151.188 162.793 151.793L161.934 153.336C159.131 152.73 156.562 150.895 155.43 148.434C154.277 150.885 151.709 152.711 148.906 153.336L148.086 151.793C151.406 151.168 154.424 148.492 154.434 145.641V144.312H156.387V145.641ZM147.5 158.355V156.812H163.516V158.355H147.5ZM184.453 143.16V160.66H182.578V143.16H184.453ZM169.375 155.406C171.562 153.775 172.09 150.729 172.109 148.336V144.664H173.828V148.336C173.838 150.182 174.131 152.672 175.449 154.449C176.748 152.711 177.041 150.26 177.051 148.336V144.664H178.828V148.336C178.818 150.797 179.355 153.824 181.543 155.406L180.391 156.734C179.111 155.807 178.359 154.312 177.93 152.643C177.52 154.352 176.758 155.914 175.449 156.871C174.141 155.914 173.379 154.342 172.969 152.643C172.549 154.273 171.807 155.738 170.586 156.676L169.375 155.406ZM201.875 143.18V152.242H200.117V143.18H201.875ZM187.109 147.848C187.1 145.514 188.76 143.98 191.113 144C193.174 143.98 194.717 145.162 195.059 147.027H196.719V143.512H198.457V152.125H196.719V148.551H195.078C194.766 150.436 193.203 151.695 191.113 151.695C188.76 151.695 187.1 150.113 187.109 147.848ZM188.77 147.848C188.76 149.254 189.756 150.201 191.113 150.211C192.461 150.201 193.457 149.254 193.477 147.848C193.457 146.412 192.461 145.426 191.113 145.426C189.756 145.426 188.76 146.412 188.77 147.848ZM190.137 154.449V152.984H201.875V157.301H192.031V158.961H202.539V160.445H190.176V155.914H200.039V154.449H190.137Z" fill="#222222"/>
<rect x="39.5" y="130.5" width="43" height="43" rx="9.5" fill="white" stroke="#D2D7E1"/>
<g clip-path="url(#clip1_142_154)">
<path d="M49 162.751V162.615C49 162.049 49.3446 161.573 50.0095 161.573H51.9392C52.0284 161.573 52.077 161.619 52.077 161.714V162.276C52.077 162.371 52.0284 162.416 51.9392 162.416H50.1149C50.0054 162.416 49.9324 162.478 49.9324 162.602V162.743C49.9324 162.867 50.0054 162.929 50.1149 162.929H51.2014C51.8662 162.929 52.2108 163.404 52.2108 163.971V164.128C52.2108 164.694 51.8662 165.169 51.2014 165.169H49.2716C49.1824 165.169 49.1338 165.124 49.1338 165.029V164.467C49.1338 164.372 49.1824 164.326 49.2716 164.326H51.0959C51.2054 164.326 51.2784 164.264 51.2784 164.14V163.954C51.2784 163.83 51.2054 163.768 51.0959 163.768H50.0095C49.3446 163.768 49 163.318 49 162.751Z" fill="#0A3177"/>
<path d="M54.7892 163.136V162.768C54.7892 162.557 54.6797 162.416 54.4851 162.416H53.3905V164.946C53.3905 165.12 53.3419 165.169 53.1716 165.169H52.673C52.5027 165.169 52.4541 165.12 52.4541 164.946V161.796C52.4541 161.623 52.5027 161.573 52.673 161.573H54.5905C55.3405 161.573 55.7216 162.127 55.7216 162.78V163.123C55.7216 163.776 55.3405 164.33 54.5905 164.33H53.8203C53.65 164.33 53.6014 164.281 53.6014 164.111V163.71C53.6014 163.537 53.65 163.487 53.8203 163.487H54.4851C54.6797 163.487 54.7892 163.346 54.7892 163.136Z" fill="#0A3177"/>
<path d="M56.8932 161.573H57.4284C57.5743 161.573 57.6311 161.677 57.5784 161.825L56.5203 164.913C56.4676 165.066 56.4108 165.169 56.1676 165.169H55.6203C55.4743 165.169 55.4176 165.066 55.4703 164.917L56.5405 161.83C56.5932 161.677 56.65 161.573 56.8932 161.573ZM58.7622 165.169H58.2149C57.9716 165.169 57.9108 165.066 57.8622 164.913L57.7122 164.417H57.2054C57.0513 164.417 56.9905 164.297 57.0473 164.136L57.6554 162.359C57.7 162.226 57.7649 162.152 57.8865 162.152C58.0081 162.152 58.077 162.226 58.1176 162.359L58.9243 164.917C58.973 165.066 58.9081 165.169 58.7622 165.169Z" fill="#0A3177"/>
<path d="M58.9527 163.57V163.173C58.9527 161.995 59.6013 161.573 60.4081 161.573H61.8432C62.0095 161.573 62.0581 161.623 62.0581 161.796V162.197C62.0581 162.367 62.0095 162.416 61.8432 162.416H60.5459C60.0878 162.416 59.8892 162.636 59.8892 163.132V163.611C59.8892 164.107 60.0878 164.326 60.5459 164.326H61.8432C62.0095 164.326 62.0581 164.376 62.0581 164.545V164.946C62.0581 165.12 62.0095 165.169 61.8432 165.169H60.4081C59.6013 165.169 58.9527 164.744 58.9527 163.57Z" fill="#0A3177"/>
<path d="M62.3013 164.946V161.796C62.3013 161.623 62.35 161.573 62.5203 161.573H65.0257C65.1959 161.573 65.2446 161.623 65.2446 161.796V162.197C65.2446 162.367 65.1959 162.416 65.0257 162.416H63.2378V164.326H65.0257C65.1959 164.326 65.2446 164.376 65.2446 164.545V164.946C65.2446 165.12 65.1959 165.169 65.0257 165.169H62.5203C62.35 165.169 62.3013 165.12 62.3013 164.946ZM63.4486 163.549V163.152C63.4486 162.979 63.4932 162.929 63.6635 162.929H64.904C65.0743 162.929 65.123 162.979 65.123 163.152V163.549C65.123 163.723 65.0743 163.772 64.904 163.772H63.6635C63.4932 163.772 63.4486 163.723 63.4486 163.549Z" fill="#0A3177"/>
<path d="M66.7081 163.57V163.173C66.7081 161.995 67.3567 161.573 68.1635 161.573H69.5986C69.7649 161.573 69.8135 161.623 69.8135 161.796V162.197C69.8135 162.367 69.7649 162.416 69.5986 162.416H68.3013C67.8432 162.416 67.6446 162.636 67.6446 163.132V163.611C67.6446 164.107 67.8432 164.326 68.3013 164.326H69.5986C69.7649 164.326 69.8135 164.376 69.8135 164.545V164.946C69.8135 165.12 69.7649 165.169 69.5986 165.169H68.1635C67.3567 165.169 66.7081 164.744 66.7081 163.57Z" fill="#0A3177"/>
<path d="M70.0568 164.946V161.796C70.0568 161.623 70.1054 161.573 70.2757 161.573H70.7784C70.9446 161.573 70.9932 161.623 70.9932 161.796V164.326H72.7811C72.9514 164.326 73 164.376 73 164.545V164.946C73 165.12 72.9514 165.169 72.7811 165.169H70.2757C70.1054 165.169 70.0568 165.12 70.0568 164.946Z" fill="#0A3177"/>
<path d="M52.9784 167.302V167.14C52.9784 166.659 53.2432 166.488 53.5723 166.488H54.1574C54.225 166.488 54.2453 166.508 54.2453 166.579V166.742C54.2453 166.811 54.2257 166.832 54.1574 166.832H53.6284C53.4412 166.832 53.3608 166.921 53.3608 167.123V167.319C53.3608 167.521 53.4419 167.61 53.6284 167.61H54.1574C54.225 167.61 54.2453 167.63 54.2453 167.7V167.863C54.2453 167.934 54.2257 167.954 54.1574 167.954H53.5723C53.2432 167.954 52.9784 167.78 52.9784 167.301V167.302Z" fill="#0A3177"/>
<path d="M55.3885 167.068V166.978C55.3885 166.877 55.3358 166.832 55.248 166.832H54.8264V167.864C54.8264 167.934 54.8068 167.954 54.7372 167.954H54.5338C54.4642 167.954 54.4446 167.934 54.4446 167.864V166.579C54.4446 166.508 54.4642 166.488 54.5338 166.488H55.3074C55.6135 166.488 55.7689 166.714 55.7689 166.98V167.038C55.7689 167.263 55.6514 167.466 55.423 167.516L55.775 167.835C55.8277 167.882 55.8047 167.954 55.7405 167.954H55.4905C55.3946 167.954 55.3534 167.944 55.2703 167.864L54.9723 167.572C54.923 167.523 54.9108 167.493 54.9108 167.409V167.31C54.9108 167.239 54.9304 167.219 55 167.219H55.2466C55.3345 167.219 55.3872 167.17 55.3872 167.069L55.3885 167.068Z" fill="#0A3177"/>
<path d="M55.9926 167.864V166.579C55.9926 166.508 56.0122 166.488 56.0818 166.488H57.1041C57.1737 166.488 57.1932 166.508 57.1932 166.579V166.742C57.1932 166.811 57.1737 166.832 57.1041 166.832H56.375V167.611H57.1041C57.1737 167.611 57.1932 167.631 57.1932 167.7V167.864C57.1932 167.934 57.1737 167.954 57.1041 167.954H56.0818C56.0122 167.954 55.9926 167.934 55.9926 167.864ZM56.4608 167.294V167.132C56.4608 167.061 56.4791 167.041 56.5487 167.041H57.0547C57.1243 167.041 57.1439 167.061 57.1439 167.132V167.294C57.1439 167.365 57.1243 167.385 57.0547 167.385H56.5487C56.4791 167.385 56.4608 167.365 56.4608 167.294Z" fill="#0A3177"/>
<path d="M57.9446 166.488H58.1628C58.2223 166.488 58.2453 166.53 58.2243 166.59L57.7926 167.85C57.771 167.912 57.748 167.954 57.6487 167.954H57.4257C57.3662 167.954 57.3432 167.912 57.3642 167.852L57.8007 166.593C57.8223 166.53 57.8453 166.488 57.9446 166.488ZM58.7068 167.954H58.4838C58.3845 167.954 58.3595 167.912 58.3399 167.85L58.2784 167.647H58.0716C58.0088 167.647 57.9838 167.598 58.0074 167.532L58.2554 166.807C58.2737 166.754 58.3 166.723 58.3493 166.723C58.3987 166.723 58.427 166.754 58.4432 166.807L58.7723 167.851C58.7919 167.912 58.7655 167.954 58.7061 167.954L58.7068 167.954Z" fill="#0A3177"/>
<path d="M59.3851 167.954H59.1649C59.0953 167.954 59.0757 167.934 59.0757 167.864V166.832H58.7284C58.6588 166.832 58.6392 166.812 58.6392 166.742V166.579C58.6392 166.508 58.6588 166.488 58.7284 166.488H59.8216C59.8892 166.488 59.9095 166.508 59.9095 166.579V166.742C59.9095 166.811 59.8899 166.832 59.8216 166.832H59.4743V167.864C59.4743 167.934 59.4547 167.954 59.3851 167.954Z" fill="#0A3177"/>
<path d="M60.1047 167.864V166.579C60.1047 166.508 60.1243 166.488 60.1939 166.488H61.2162C61.2858 166.488 61.3054 166.508 61.3054 166.579V166.742C61.3054 166.811 61.2858 166.832 61.2162 166.832H60.4872V167.611H61.2162C61.2858 167.611 61.3054 167.631 61.3054 167.7V167.864C61.3054 167.934 61.2858 167.954 61.2162 167.954H60.1939C60.1243 167.954 60.1047 167.934 60.1047 167.864ZM60.573 167.294V167.132C60.573 167.061 60.5912 167.041 60.6608 167.041H61.1669C61.2365 167.041 61.2561 167.061 61.2561 167.132V167.294C61.2561 167.365 61.2365 167.385 61.1669 167.385H60.6608C60.5912 167.385 60.573 167.365 60.573 167.294Z" fill="#0A3177"/>
<path d="M62.1216 166.931V166.88C62.1216 166.629 62.2723 166.448 62.6324 166.448H63.0473C63.1169 166.448 63.1365 166.468 63.1365 166.538V166.695C63.1365 166.766 63.1169 166.786 63.0473 166.786H62.6122C62.5149 166.786 62.4682 166.838 62.4682 166.898V166.945C62.4682 167.001 62.5149 167.057 62.5986 167.057H62.7824C62.852 167.057 62.8716 167.077 62.8716 167.146V167.303C62.8716 167.374 62.852 167.394 62.7824 167.394H62.5986C62.5128 167.394 62.4682 167.435 62.4682 167.503V167.555C62.4682 167.622 62.523 167.664 62.6581 167.664H62.8797C63.0155 167.664 63.0696 167.614 63.0696 167.504V167.394H63.0466C62.977 167.394 62.9541 167.374 62.9541 167.305V167.148C62.9541 167.077 62.9736 167.057 63.0432 167.057H63.425C63.4946 167.057 63.5142 167.077 63.5142 167.146V167.303C63.5142 167.374 63.4946 167.394 63.425 167.394H63.4169V167.478C63.4169 167.829 63.2682 168.001 62.8959 168.001H62.6547C62.3007 168.001 62.1203 167.824 62.1203 167.538V167.487C62.1203 167.358 62.175 167.261 62.2358 167.226C62.1581 167.176 62.1203 167.057 62.1203 166.933L62.1216 166.931Z" fill="#0A3177"/>
<path d="M64.3561 167.864V166.579C64.3561 166.508 64.3757 166.488 64.4453 166.488H64.6507C64.7182 166.488 64.7385 166.508 64.7385 166.579V167.611H65.4676C65.5372 167.611 65.5568 167.631 65.5568 167.7V167.864C65.5568 167.934 65.5372 167.954 65.4676 167.954H64.4459C64.3763 167.954 64.3568 167.934 64.3568 167.864H64.3561Z" fill="#0A3177"/>
<path d="M66.1061 167.954H65.8865C65.8169 167.954 65.7973 167.934 65.7973 167.864V166.579C65.7973 166.508 65.8169 166.488 65.8865 166.488H66.1061C66.1757 166.488 66.1953 166.508 66.1953 166.579V167.864C66.1953 167.934 66.1757 167.954 66.1061 167.954Z" fill="#0A3177"/>
<path d="M66.7237 167.954H66.5189C66.4493 167.954 66.4297 167.934 66.4297 167.864V166.579C66.4297 166.508 66.4493 166.488 66.5189 166.488H67.5405C67.6101 166.488 67.6297 166.508 67.6297 166.579V166.742C67.6297 166.811 67.6101 166.832 67.5405 166.832H66.8115V167.864C66.8115 167.934 66.7919 167.954 66.7237 167.954ZM66.8973 167.329V167.166C66.8973 167.095 66.9155 167.075 66.9851 167.075H67.4912C67.5608 167.075 67.5804 167.095 67.5804 167.166V167.329C67.5804 167.398 67.5608 167.419 67.4912 167.419H66.9851C66.9155 167.419 66.8973 167.399 66.8973 167.329Z" fill="#0A3177"/>
<path d="M67.8203 167.864V166.579C67.8203 166.508 67.8399 166.488 67.9095 166.488H68.9311C69.0007 166.488 69.0203 166.508 69.0203 166.579V166.742C69.0203 166.811 69.0007 166.832 68.9311 166.832H68.202V167.611H68.9311C69.0007 167.611 69.0203 167.631 69.0203 167.7V167.864C69.0203 167.934 69.0007 167.954 68.9311 167.954H67.9095C67.8399 167.954 67.8203 167.934 67.8203 167.864ZM68.2885 167.294V167.132C68.2885 167.061 68.3068 167.041 68.3763 167.041H68.8824C68.952 167.041 68.9716 167.061 68.9716 167.132V167.294C68.9716 167.365 68.952 167.385 68.8824 167.385H68.3763C68.3068 167.385 68.2885 167.365 68.2885 167.294Z" fill="#0A3177"/>
<path d="M61.6096 148.264C62.8129 148.201 63.7387 147.156 63.6773 145.929C63.616 144.702 62.5907 143.758 61.3873 143.821C60.1839 143.883 59.2581 144.929 59.3195 146.156C59.3809 147.383 60.4062 148.327 61.6096 148.264Z" fill="url(#paint0_radial_142_154)"/>
<path d="M56.1108 147.846C55.4088 147.241 54.7297 146.599 54.0831 145.925C53.3804 145.148 52.0723 143.704 52.0845 142.453C52.0885 142.03 52.223 141.708 52.4966 141.466C53.2284 140.824 54.7669 140.969 55.3933 141.062L55.4683 140.741C54.4385 140.377 53.0034 140.205 52.0676 140.81C51.5487 141.147 51.2466 141.675 51.1683 142.384C50.9433 144.682 53.727 147.688 56.202 149.741C56.1581 149.13 56.1318 148.543 56.1128 148C56.1115 147.949 56.1115 147.898 56.1101 147.846H56.1108Z" fill="#162852"/>
<path d="M70.9156 152.333C70.5879 151.326 70.0034 150.423 69.5311 149.75L69.2547 149.917L69.2926 150C69.7602 151.01 70.5419 152.699 70.2169 153.72C70.0906 154.136 69.6176 154.314 69.2473 154.27L68.7973 154.191C68.5575 154.156 68.1406 154.069 67.9176 154.019C66.2169 153.643 64.6156 153.093 63.1243 152.383C62.6169 152.659 62.0926 152.927 61.55 153.194C63.4973 154.19 65.5723 154.857 67.7196 155.173C68.1764 155.247 68.7331 155.295 69.1953 155.335C69.3615 155.336 69.525 155.317 69.6818 155.281C70.1453 155.176 70.5507 154.917 70.798 154.554C71.1716 154.012 71.2108 153.266 70.9149 152.332L70.9156 152.333Z" fill="#162852"/>
<path d="M62.9155 157.635C62.6088 157.922 62.3061 158.046 62.0439 158.046C61.9304 158.046 61.8243 158.023 61.7297 157.979C61.6628 157.957 61.5459 157.907 61.5797 157.886C61.4851 157.83 61.398 157.771 61.3203 157.703C61.1601 157.564 61.0095 157.387 60.8682 157.179C60.5939 156.754 60.3358 156.233 60.1331 155.658C59.9277 155.086 59.7696 154.465 59.6446 153.83C59.5115 153.198 59.3885 152.551 59.3088 151.902C59.2703 151.579 59.2284 151.253 59.2236 150.963L59.2155 150.678L59.2095 150.47L59.1946 149.947C59.1534 149.271 59.1649 148.598 59.15 147.932C59.1466 146.598 59.2041 145.282 59.3412 144.007C59.425 143.372 59.4932 142.741 59.6203 142.133C59.7385 141.524 59.9243 140.945 60.1101 140.398C60.2973 139.852 60.5446 139.342 60.827 138.975C60.9628 138.788 61.0946 138.622 61.2189 138.511C61.2865 138.459 61.3203 138.414 61.4041 138.377C61.4932 138.334 61.575 138.312 61.6622 138.289C61.7473 138.273 61.8405 138.259 61.9405 138.259C62.0405 138.259 62.1385 138.272 62.2473 138.311C62.473 138.378 62.7061 138.536 62.9439 138.727C63.4203 139.118 63.8507 139.69 64.2372 140.298L64.4541 140.248C64.2831 139.536 64.0142 138.857 63.6034 138.245C63.202 137.644 62.5757 137.105 61.8054 137.015C61.7142 137.006 61.6223 137.001 61.5304 137.001C61.2453 137.001 60.9588 137.049 60.6905 137.158C60.3399 137.301 60.0304 137.519 59.7581 137.767C59.2115 138.266 58.8054 138.886 58.4709 139.53C57.8088 140.827 57.4419 142.245 57.2128 143.668C56.9872 145.094 56.9088 146.54 56.9473 147.978C56.9757 148.808 57.0203 149.633 57.1 150.457C57.1588 151.063 57.2365 151.669 57.3446 152.274C57.6135 153.688 57.9899 155.09 58.6034 156.404C58.9122 157.058 59.2885 157.692 59.7932 158.229C60.3027 158.744 60.9324 159.225 61.7345 159.225C61.7372 159.225 61.7392 159.225 61.7419 159.225C62.5203 159.224 63.2108 158.703 63.5757 158.065C63.9595 157.427 64.1385 156.708 64.2547 155.997L64.0351 155.959C63.7054 156.611 63.3527 157.235 62.9155 157.635Z" fill="url(#paint1_linear_142_154)"/>
<path d="M66.0399 141.126C66.0507 141.895 68.1304 141.039 68.6419 141.984C68.7872 142.253 68.7588 142.397 68.7601 142.584C68.7804 145.427 63.6243 148.096 61.0933 149.632C60.7527 149.814 60.3987 150.012 60.0365 150.217L60.05 150.694L60.0574 150.95C60.0608 151.174 60.0939 151.444 60.1277 151.729L60.1358 151.796C60.1642 152.026 60.1987 152.255 60.2358 152.478C60.3081 152.912 60.3906 153.32 60.4622 153.663C60.4656 153.681 60.4696 153.698 60.4737 153.716C60.8406 153.541 61.1993 153.368 61.55 153.195C62.0926 152.927 62.6176 152.659 63.1243 152.383C65.523 151.076 67.5392 149.57 69.3101 146.931C74.8743 138.642 66.0331 140.635 66.0399 141.126Z" fill="#162852"/>
<path d="M56.4608 152.039C55.5007 152.42 54.5284 152.676 53.5804 152.677C53.3784 152.656 53.296 152.642 53.252 152.642C53.071 152.578 52.8047 152.21 52.7703 151.964C52.7142 151.563 52.8027 150.851 53.2088 150.143C53.5608 149.528 52.7264 148.843 52.2358 149.358C51.3514 150.288 51.3405 150.443 50.9737 151.536C50.9608 151.574 50.95 151.615 50.9426 151.655C50.2068 155.536 54.0797 155.808 57.1764 155.036C56.9237 154.252 56.7088 153.397 56.5243 152.427C56.5014 152.297 56.4818 152.168 56.4608 152.039Z" fill="#162852"/>
<path d="M55.4682 140.442C55.7689 140.219 56.1912 140.285 56.4108 140.592C56.6304 140.899 56.5649 141.329 56.2642 141.553C55.9635 141.777 55.5412 141.71 55.3216 141.403C55.102 141.097 55.1676 140.666 55.4682 140.442Z" fill="white" stroke="#1A3490" stroke-width="0.25" stroke-miterlimit="10"/>
<path d="M64.6022 156.785C64.781 156.43 64.6437 155.995 64.2955 155.812C63.9472 155.63 63.52 155.77 63.3412 156.125C63.1624 156.48 63.2997 156.916 63.6479 157.098C63.9962 157.28 64.4234 157.14 64.6022 156.785Z" fill="white" stroke="#1A3490" stroke-width="0.25" stroke-miterlimit="10"/>
</g>
<circle cx="324" cy="152" r="18" fill="#F9E000"/>
<path fill-rule="evenodd" clip-rule="evenodd" d="M324 160C329.523 160 334 156.194 334 151.5C334 146.806 329.523 143 324 143C318.477 143 314 146.806 314 151.5C314 154.281 315.571 156.75 318 158.301V161.293C318 161.738 318.539 161.961 318.854 161.646L320.913 159.587C321.885 159.855 322.923 160 324 160Z" fill="#371C1D"/>
<defs>
<radialGradient id="paint0_radial_142_154" cx="0" cy="0" r="1" gradientUnits="userSpaceOnUse" gradientTransform="translate(61.4986 146.043) scale(2.18243 2.22516)">
<stop stop-color="#167EC2"/>
<stop offset="0.42" stop-color="#165187"/>
<stop offset="0.74" stop-color="#163360"/>
<stop offset="0.9" stop-color="#162852"/>
</radialGradient>
<linearGradient id="paint1_linear_142_154" x1="60.6959" y1="142.428" x2="60.6959" y2="168.672" gradientUnits="userSpaceOnUse">
<stop stop-color="#167EC2"/>
<stop offset="0.42" stop-color="#165187"/>
<stop offset="0.74" stop-color="#163360"/>
<stop offset="0.9" stop-color="#162852"/>
</linearGradient>
<clipPath id="clip0_142_154">
<rect width="24" height="24" fill="white" transform="translate(45 68)"/>
</clipPath>
<clipPath id="clip1_142_154">
<rect width="24" height="31" fill="white" transform="translate(49 137)"/>
</clipPath>
</defs>
</svg>
