<svg width="384" height="150" viewBox="0 0 384 150" fill="none" xmlns="http://www.w3.org/2000/svg">
<path d="M34 1H350C368.225 1 383 15.7746 383 34V149H1V34C1 15.7746 15.7746 1 34 1Z" fill="#222222" stroke="#3E3E3E" stroke-width="2"/>
<path d="M37 13H347C360.807 13 372 24.1929 372 38V149H12V38C12 24.1929 23.1929 13 37 13Z" fill="#ECEAEA" stroke="#4F4F4F" stroke-width="2"/>
<rect x="141" y="26" width="102" height="14" rx="7" fill="#222222"/>
<rect x="27" y="54" width="330" height="52" rx="8" fill="#DEDEDE"/>
<path d="M27 126C27 122.686 29.6863 120 33 120H351C354.314 120 357 122.686 357 126V148H27V126Z" fill="#DEDEDE"/>
<g clip-path="url(#clip0_142_142)">
<path d="M55.305 85.61C59.3394 85.61 62.61 82.3394 62.61 78.305C62.61 74.2706 59.3394 71 55.305 71C51.2706 71 48 74.2706 48 78.305C48 82.3394 51.2706 85.61 55.305 85.61Z" stroke="#371C1D" stroke-width="1.5" stroke-linecap="round" stroke-linejoin="round"/>
<path d="M60.54 83.5408L66 89.0008" stroke="#371C1D" stroke-width="1.5" stroke-linecap="round" stroke-linejoin="round"/>
</g>
<path d="M96.6484 72.4492C96.6387 76.707 93.4648 79.8027 88.5234 81.2188L87.9961 80.2422C92.2246 79.0215 95.0273 76.6191 95.3301 73.4844H88.8555V72.4492H96.6484ZM90.8477 88.2695V81.9414H101.961V88.2695H90.8477ZM92.0586 87.2344H100.75V82.9375H92.0586V87.2344ZM96.668 76.9023V75.8672H100.73V71.2969H101.961V81.1992H100.73V76.9023H96.668ZM110.066 74.7734C110.066 76.7559 111.502 78.7676 113.699 79.6172L113.035 80.5938C111.336 79.8906 110.086 78.5527 109.48 76.9707C108.855 78.6797 107.547 80.2227 105.828 81.0039L105.145 80.0469C107.371 79.0508 108.885 76.7461 108.895 74.7734V72.3516H110.066V74.7734ZM108.094 83.7383V82.7227H119.617V88.5234H118.426V83.7383H108.094ZM114.695 81.6094V71.6289H115.867V75.8867H118.445V71.2969H119.617V81.707H118.445V76.9414H115.867V81.6094H114.695Z" fill="#371C1D"/>
<defs>
<clipPath id="clip0_142_142">
<rect width="24" height="24" fill="white" transform="translate(45 68)"/>
</clipPath>
</defs>
</svg>
