<svg width="140" height="30" viewBox="0 0 140 30" fill="none" xmlns="http://www.w3.org/2000/svg">
<path fill-rule="evenodd" clip-rule="evenodd" d="M11.7358 0C5.2543 0 0 5.2543 0 11.7358C0 18.2173 5.25431 23.4716 11.7358 23.4716H21.3137C21.1951 23.7715 21.2177 24.1289 21.4391 24.4298L25.0624 29.3547C25.4621 29.8979 26.2738 29.8979 26.6734 29.3547L30.2968 24.4298C30.5182 24.1289 30.5408 23.7715 30.4222 23.4716H109.843C116.325 23.4716 121.579 18.2173 121.579 11.7358C121.579 5.2543 116.325 0 109.843 0H11.7358Z" fill="#2674FF"/>
<path d="M15.8365 7.575H16.5835V13.677H15.8365V7.575ZM16.3495 10.239H17.7895V10.869H16.3495V10.239ZM10.2925 8.556H15.0985V9.159H10.2925V8.556ZM12.6955 9.609C13.8475 9.609 14.6395 10.212 14.6395 11.13C14.6395 12.039 13.8475 12.642 12.6955 12.642C11.5345 12.642 10.7425 12.039 10.7425 11.13C10.7425 10.212 11.5345 9.609 12.6955 9.609ZM12.6955 10.194C11.9575 10.194 11.4535 10.563 11.4535 11.13C11.4535 11.688 11.9575 12.057 12.6955 12.057C13.4245 12.057 13.9285 11.688 13.9285 11.13C13.9285 10.563 13.4245 10.194 12.6955 10.194ZM12.3175 7.566H13.0645V8.871H12.3175V7.566ZM11.5165 14.91H16.9525V15.522H11.5165V14.91ZM11.5165 13.191H12.2635V15.171H11.5165V13.191ZM19.4898 7.944H24.7278V8.556H19.4898V7.944ZM18.5538 10.86H25.9248V11.472H18.5538V10.86ZM21.8568 11.274H22.5948V13.191H21.8568V11.274ZM24.2418 7.944H24.9708V8.547C24.9708 9.222 24.9708 10.041 24.7008 11.157L23.9718 11.067C24.2418 9.978 24.2418 9.204 24.2418 8.547V7.944ZM19.3188 12.948H25.0248V15.702H24.2778V13.56H19.3188V12.948ZM29.3643 14.028H36.7353V14.649H29.3643V14.028ZM32.6403 12.057H33.3783V14.235H32.6403V12.057ZM32.6223 8.106H33.2703V8.736C33.2703 10.473 31.6053 11.814 29.9673 12.156L29.6523 11.535C31.0833 11.274 32.6223 10.077 32.6223 8.736V8.106ZM32.7573 8.106H33.4053V8.736C33.4053 10.086 34.9533 11.274 36.3843 11.535L36.0603 12.156C34.4223 11.814 32.7573 10.473 32.7573 8.736V8.106ZM37.6436 14.037H45.0146V14.658H37.6436V14.037ZM38.2826 8.376H44.3216V8.988H38.2826V8.376ZM38.3006 11.814H44.3126V12.426H38.3006V11.814ZM39.5516 8.943H40.2986V11.877H39.5516V8.943ZM42.3236 8.943H43.0616V11.877H42.3236V8.943ZM46.8679 11.949H52.4569V12.552H46.8679V11.949ZM45.9229 14.037H53.2939V14.658H45.9229V14.037ZM46.8679 8.259H52.3669V8.871H47.6239V12.138H46.8679V8.259ZM47.3809 10.077H52.1959V10.671H47.3809V10.077ZM56.2452 8.088C57.2712 8.088 58.0182 8.691 58.0182 9.582C58.0182 10.473 57.2712 11.085 56.2452 11.085C55.2192 11.085 54.4812 10.473 54.4812 9.582C54.4812 8.691 55.2192 8.088 56.2452 8.088ZM56.2452 8.655C55.6062 8.655 55.1472 9.033 55.1472 9.582C55.1472 10.131 55.6062 10.518 56.2452 10.518C56.8842 10.518 57.3432 10.131 57.3432 9.582C57.3432 9.033 56.8842 8.655 56.2452 8.655ZM60.3672 7.566H61.0872V15.702H60.3672V7.566ZM58.8372 7.746H59.5392V15.279H58.8372V7.746ZM57.3162 12.903H59.0892V13.488H57.3162V12.903ZM55.8492 12.039H56.5692V15.045H55.8492V12.039ZM54.1842 12.336L54.0852 11.715C55.2012 11.715 57.0012 11.697 58.3152 11.499L58.3782 12.048C57.0012 12.318 55.2822 12.336 54.1842 12.336ZM64.6505 8.187C65.8295 8.187 66.6755 9.294 66.6755 11.022C66.6755 12.759 65.8295 13.866 64.6505 13.866C63.4625 13.866 62.6255 12.759 62.6255 11.022C62.6255 9.294 63.4625 8.187 64.6505 8.187ZM64.6505 8.862C63.8675 8.862 63.3365 9.708 63.3365 11.022C63.3365 12.345 63.8675 13.209 64.6505 13.209C65.4335 13.209 65.9645 12.345 65.9645 11.022C65.9645 9.708 65.4335 8.862 64.6505 8.862ZM68.4395 7.557H69.1775V15.711H68.4395V7.557ZM66.4325 10.662H68.7635V11.274H66.4325V10.662ZM79.205 7.575H79.961V13.515H79.205V7.575ZM74.732 14.91H80.204V15.522H74.732V14.91ZM74.732 12.903H75.47V15.117H74.732V12.903ZM75.596 8.133C76.811 8.133 77.711 8.961 77.711 10.14C77.711 11.31 76.811 12.147 75.596 12.147C74.381 12.147 73.472 11.31 73.472 10.14C73.472 8.961 74.381 8.133 75.596 8.133ZM75.596 8.781C74.804 8.781 74.201 9.339 74.201 10.14C74.201 10.932 74.804 11.49 75.596 11.49C76.388 11.49 76.991 10.932 76.991 10.14C76.991 9.339 76.388 8.781 75.596 8.781ZM87.7903 7.566H88.5013V15.702H87.7903V7.566ZM86.5033 10.842H88.0693V11.472H86.5033V10.842ZM86.0173 7.737H86.7193V15.297H86.0173V7.737ZM83.2453 8.826H83.8303V9.762C83.8303 11.715 83.1913 13.281 81.9403 14.028L81.4813 13.452C82.6513 12.804 83.2453 11.418 83.2453 9.762V8.826ZM83.3803 8.826H83.9653V9.762C83.9653 11.256 84.5683 12.579 85.7113 13.164L85.2703 13.74C84.0283 13.056 83.3803 11.553 83.3803 9.762V8.826ZM81.6703 8.52H85.4503V9.141H81.6703V8.52ZM96.0246 7.566H96.7446V15.702H96.0246V7.566ZM94.7106 10.833H96.2676V11.445H94.7106V10.833ZM92.6046 8.61H93.3246C93.3246 10.707 92.6046 12.651 90.2826 13.956L89.8416 13.425C91.8846 12.282 92.6046 10.635 92.6046 8.754V8.61ZM90.1566 8.61H92.8566V9.231H90.1566V8.61ZM94.2156 7.782H94.9266V15.306H94.2156V7.782ZM98.4629 7.899H99.2009V9.069H101.496V7.899H102.225V11.454H98.4629V7.899ZM99.2009 9.654V10.851H101.496V9.654H99.2009ZM103.692 7.566H104.439V11.76H103.692V7.566ZM104.115 9.312H105.636V9.933H104.115V9.312ZM99.2729 12.156H104.439V14.127H100.029V15.351H99.2909V13.569H103.71V12.75H99.2729V12.156ZM99.2909 15.018H104.736V15.612H99.2909V15.018ZM108.713 11.661H109.46V13.47H108.713V11.661ZM112.322 7.566H113.069V13.758H112.322V7.566ZM107.516 14.91H113.267V15.522H107.516V14.91ZM107.516 13.155H108.263V15.081H107.516V13.155ZM106.463 11.94L106.364 11.328C107.867 11.328 109.883 11.31 111.611 11.085L111.665 11.634C109.91 11.913 107.939 11.94 106.463 11.94ZM110.666 12.372H112.511V12.921H110.666V12.372ZM109.01 7.899C110.198 7.899 111.008 8.457 111.008 9.312C111.008 10.176 110.198 10.734 109.01 10.734C107.813 10.734 107.003 10.176 107.003 9.312C107.003 8.457 107.813 7.899 109.01 7.899ZM109.01 8.457C108.245 8.457 107.714 8.79 107.714 9.312C107.714 9.834 108.245 10.167 109.01 10.167C109.766 10.167 110.297 9.834 110.297 9.312C110.297 8.79 109.766 8.457 109.01 8.457Z" fill="white"/>
</svg>
