<svg width="99" height="30" viewBox="0 0 99 30" fill="none" xmlns="http://www.w3.org/2000/svg">
<path fill-rule="evenodd" clip-rule="evenodd" d="M11.7358 0C5.2543 0 0 5.2543 0 11.7358C0 18.2173 5.2543 23.4716 11.7358 23.4716H17.3372C17.2295 23.7436 17.2384 24.0641 17.4103 24.3511L20.206 29.0177C20.5943 29.6658 21.5334 29.6658 21.9217 29.0177L24.7173 24.3511C24.8893 24.0641 24.8981 23.7436 24.7905 23.4716H87.2642C93.7457 23.4716 99 18.2173 99 11.7358C99 5.2543 93.7457 0 87.2642 0H11.7358Z" fill="#2674FF"/>
<path d="M8.441 12.228H15.821V12.84H8.441V12.228ZM11.735 12.606H12.473V15.702H11.735V12.606ZM12.113 7.89C13.814 7.89 14.957 8.583 14.957 9.672C14.957 10.761 13.814 11.454 12.113 11.454C10.421 11.454 9.269 10.761 9.269 9.672C9.269 8.583 10.421 7.89 12.113 7.89ZM12.113 8.493C10.871 8.493 10.025 8.952 10.025 9.672C10.025 10.392 10.871 10.851 12.113 10.851C13.355 10.851 14.192 10.392 14.192 9.672C14.192 8.952 13.355 8.493 12.113 8.493ZM22.6423 7.566H23.3983V12.39H22.6423V7.566ZM17.1433 11.391H17.8003C19.2763 11.391 20.3653 11.346 21.6703 11.139L21.7513 11.742C20.4103 11.967 19.3123 12.012 17.8003 12.012H17.1433V11.391ZM17.1253 8.052H20.8153V10.275H17.8723V11.76H17.1433V9.699H20.0863V8.664H17.1253V8.052ZM18.1423 12.84H23.3983V15.594H18.1423V12.84ZM22.6603 13.434H18.8713V14.991H22.6603V13.434ZM30.5166 7.557H31.2636V15.711H30.5166V7.557ZM31.0836 10.797H32.5956V11.427H31.0836V10.797ZM25.3326 13.128H25.9806C27.5106 13.128 28.5726 13.074 29.8056 12.84L29.8866 13.461C28.6176 13.686 27.5376 13.749 25.9806 13.749H25.3326V13.128ZM25.3146 8.322H28.9956V11.238H26.0706V13.38H25.3326V10.626H28.2576V8.934H25.3146V8.322ZM39.1919 7.557H39.9389V15.711H39.1919V7.557ZM35.6459 8.187C36.8519 8.187 37.7159 9.294 37.7159 11.022C37.7159 12.759 36.8519 13.866 35.6459 13.866C34.4489 13.866 33.5849 12.759 33.5849 11.022C33.5849 9.294 34.4489 8.187 35.6459 8.187ZM35.6459 8.862C34.8539 8.862 34.2959 9.708 34.2959 11.022C34.2959 12.345 34.8539 13.209 35.6459 13.209C36.4469 13.209 36.9959 12.345 36.9959 11.022C36.9959 9.708 36.4469 8.862 35.6459 8.862ZM41.5582 11.886H48.9112V12.498H41.5582V11.886ZM44.8702 10.698H45.6082V12.201H44.8702V10.698ZM42.5122 14.91H48.1012V15.522H42.5122V14.91ZM42.5122 13.173H43.2592V15.108H42.5122V13.173ZM45.2392 7.8C46.9762 7.8 48.1012 8.421 48.1012 9.429C48.1012 10.446 46.9762 11.049 45.2392 11.049C43.4932 11.049 42.3772 10.446 42.3772 9.429C42.3772 8.421 43.4932 7.8 45.2392 7.8ZM45.2392 8.412C43.9612 8.412 43.1422 8.799 43.1422 9.429C43.1422 10.068 43.9612 10.446 45.2392 10.446C46.5172 10.446 47.3362 10.068 47.3362 9.429C47.3362 8.799 46.5172 8.412 45.2392 8.412ZM53.1045 8.124H53.7525V8.745C53.7525 10.518 52.1055 11.895 50.4765 12.264L50.1435 11.643C51.5745 11.373 53.1045 10.131 53.1045 8.745V8.124ZM53.2395 8.124H53.8875V8.745C53.8875 10.14 55.4265 11.373 56.8485 11.643L56.5155 12.264C54.8955 11.895 53.2395 10.527 53.2395 8.745V8.124ZM49.8465 13.992H57.2175V14.604H49.8465V13.992ZM58.4858 7.989H59.1878V9.069H60.9248V7.989H61.6358V11.418H58.4858V7.989ZM59.1878 9.645V10.833H60.9248V9.645H59.1878ZM64.2638 7.575H64.9748V11.814H64.2638V7.575ZM62.9678 9.384H64.4978V9.987H62.9678V9.384ZM62.5178 7.728H63.2288V11.724H62.5178V7.728ZM59.6108 12.174H64.9748V14.127H60.3758V15.351H59.6288V13.56H64.2458V12.768H59.6108V12.174ZM59.6288 15.018H65.2718V15.612H59.6288V15.018ZM72.3271 7.557H73.0741V15.711H72.3271V7.557ZM66.8731 13.128H67.5481C68.9071 13.128 70.1221 13.074 71.5621 12.84L71.6431 13.452C70.1671 13.695 68.9431 13.749 67.5481 13.749H66.8731V13.128ZM66.8551 8.322H70.6171V11.229H67.6201V13.362H66.8731V10.617H69.8611V8.934H66.8551V8.322ZM77.4432 15V14.4247L79.6037 12.0597C79.8572 11.7827 80.0661 11.5419 80.2301 11.3374C80.3942 11.1307 80.5156 10.9368 80.5945 10.7557C80.6754 10.5724 80.7159 10.3807 80.7159 10.1804C80.7159 9.95028 80.6605 9.75107 80.5497 9.58274C80.4411 9.41442 80.2919 9.28445 80.1023 9.19283C79.9126 9.10121 79.6996 9.0554 79.4631 9.0554C79.2116 9.0554 78.9922 9.1076 78.8047 9.212C78.6193 9.31428 78.4755 9.4581 78.3732 9.64347C78.2731 9.82884 78.223 10.0462 78.223 10.2955H77.4688C77.4688 9.91193 77.5572 9.57528 77.734 9.28551C77.9109 8.99574 78.1516 8.76989 78.4563 8.60795C78.7631 8.44602 79.1072 8.36506 79.4886 8.36506C79.8722 8.36506 80.212 8.44602 80.5082 8.60795C80.8043 8.76989 81.0366 8.98828 81.2049 9.26314C81.3732 9.538 81.4574 9.84375 81.4574 10.1804C81.4574 10.4212 81.4137 10.6566 81.3263 10.8867C81.2411 11.1147 81.092 11.3693 80.8789 11.6506C80.668 11.9297 80.375 12.2706 80 12.6733L78.5298 14.2457V14.2969H81.5724V15H77.4432ZM84.6448 9.501H85.2298V10.194C85.2298 11.913 84.2938 13.497 83.0068 14.136L82.5838 13.56C83.7808 12.984 84.6448 11.598 84.6448 10.194V9.501ZM84.7888 9.501H85.3738V10.194C85.3738 11.508 86.1928 12.831 87.3538 13.407L86.9398 13.983C85.6708 13.353 84.7888 11.814 84.7888 10.194V9.501ZM82.8088 8.979H87.1738V9.582H82.8088V8.979ZM84.6358 7.71H85.3738V9.312H84.6358V7.71ZM88.1638 7.566H88.9198V15.702H88.1638V7.566ZM88.7398 10.905H90.2518V11.526H88.7398V10.905Z" fill="white"/>
</svg>
